G04 Layer_Color=32896*
%FSLAX45Y45*%
%MOMM*%
%TF.FileFunction,Legend,Bot*%
%TF.Part,Single*%
G01*
G75*
%TA.AperFunction,NonConductor*%
%ADD30C,0.25400*%
%ADD31C,0.20000*%
%ADD32C,0.25000*%
%ADD33C,0.50000*%
G36*
X-1074164Y-733436D02*
X-1072388Y-733547D01*
X-1068947Y-734324D01*
X-1065950Y-735323D01*
X-1064618Y-735878D01*
X-1063397Y-736433D01*
X-1062287Y-736988D01*
X-1061399Y-737543D01*
X-1060511Y-738098D01*
X-1059845Y-738542D01*
X-1059290Y-738986D01*
X-1058846Y-739319D01*
X-1058625Y-739430D01*
X-1058514Y-739541D01*
X-1056960Y-740984D01*
X-1055739Y-742649D01*
X-1054518Y-744425D01*
X-1053630Y-746201D01*
X-1052742Y-748088D01*
X-1052076Y-750086D01*
X-1051521Y-751973D01*
X-1051077Y-753749D01*
X-1050633Y-755525D01*
X-1050411Y-757079D01*
X-1050189Y-758633D01*
X-1050078Y-759854D01*
Y-760964D01*
X-1049967Y-761741D01*
Y-762185D01*
Y-762407D01*
X-1050078Y-764960D01*
X-1050300Y-767402D01*
X-1050633Y-769622D01*
X-1051077Y-771731D01*
X-1051632Y-773618D01*
X-1052187Y-775394D01*
X-1052853Y-777059D01*
X-1053519Y-778502D01*
X-1054185Y-779834D01*
X-1054851Y-780944D01*
X-1055406Y-781832D01*
X-1055961Y-782609D01*
X-1056405Y-783275D01*
X-1056738Y-783719D01*
X-1056960Y-783941D01*
X-1057071Y-784052D01*
X-1058514Y-785383D01*
X-1059956Y-786493D01*
X-1061510Y-787492D01*
X-1063064Y-788380D01*
X-1064618Y-789046D01*
X-1066283Y-789712D01*
X-1069280Y-790600D01*
X-1070612Y-790822D01*
X-1071944Y-791044D01*
X-1073054Y-791266D01*
X-1074053Y-791377D01*
X-1074941Y-791488D01*
X-1076051D01*
X-1078715Y-791377D01*
X-1081157Y-790933D01*
X-1083488Y-790378D01*
X-1085375Y-789823D01*
X-1087040Y-789157D01*
X-1087706Y-788935D01*
X-1088261Y-788713D01*
X-1088816Y-788491D01*
X-1089149Y-788269D01*
X-1089260Y-788158D01*
X-1089371D01*
X-1091591Y-786715D01*
X-1093478Y-785161D01*
X-1095143Y-783608D01*
X-1096475Y-782054D01*
X-1097474Y-780722D01*
X-1098251Y-779612D01*
X-1098473Y-779168D01*
X-1098695Y-778835D01*
X-1098806Y-778724D01*
Y-778613D01*
X-1099916Y-776060D01*
X-1100693Y-773285D01*
X-1101359Y-770510D01*
X-1101692Y-767735D01*
X-1101914Y-766514D01*
Y-765404D01*
X-1102025Y-764294D01*
X-1102136Y-763406D01*
Y-762629D01*
Y-762074D01*
Y-761741D01*
Y-761630D01*
X-1102025Y-759188D01*
X-1101803Y-756968D01*
X-1101470Y-754859D01*
X-1101026Y-752861D01*
X-1100471Y-750974D01*
X-1099805Y-749309D01*
X-1099139Y-747644D01*
X-1098473Y-746312D01*
X-1097807Y-745091D01*
X-1097141Y-743981D01*
X-1096475Y-742982D01*
X-1095920Y-742205D01*
X-1095476Y-741650D01*
X-1095143Y-741206D01*
X-1094921Y-740984D01*
X-1094810Y-740873D01*
X-1093367Y-739541D01*
X-1091924Y-738431D01*
X-1090370Y-737321D01*
X-1088816Y-736544D01*
X-1087262Y-735767D01*
X-1085708Y-735212D01*
X-1082711Y-734213D01*
X-1081268Y-733991D01*
X-1080047Y-733769D01*
X-1078937Y-733547D01*
X-1077938Y-733436D01*
X-1077161Y-733325D01*
X-1076051D01*
X-1074164Y-733436D01*
D02*
G37*
G36*
X-1243991Y-740984D02*
X-1242992Y-739763D01*
X-1241882Y-738764D01*
X-1240883Y-737765D01*
X-1239773Y-736988D01*
X-1238885Y-736433D01*
X-1238219Y-735878D01*
X-1237775Y-735656D01*
X-1237553Y-735545D01*
X-1236110Y-734768D01*
X-1234556Y-734213D01*
X-1233002Y-733880D01*
X-1231559Y-733547D01*
X-1230338Y-733436D01*
X-1229450Y-733325D01*
X-1228562D01*
X-1226120Y-733436D01*
X-1223790Y-733880D01*
X-1221681Y-734435D01*
X-1219905Y-735101D01*
X-1218351Y-735878D01*
X-1217241Y-736433D01*
X-1216797Y-736655D01*
X-1216464Y-736877D01*
X-1216353Y-736988D01*
X-1216242D01*
X-1214244Y-738431D01*
X-1212579Y-740207D01*
X-1211136Y-741872D01*
X-1210026Y-743537D01*
X-1209138Y-745091D01*
X-1208472Y-746312D01*
X-1208250Y-746756D01*
X-1208028Y-747089D01*
X-1207917Y-747311D01*
Y-747422D01*
X-1207029Y-749975D01*
X-1206363Y-752639D01*
X-1205808Y-755192D01*
X-1205475Y-757523D01*
X-1205253Y-759521D01*
Y-760409D01*
X-1205142Y-761075D01*
Y-761741D01*
Y-762185D01*
Y-762407D01*
Y-762518D01*
X-1205253Y-765626D01*
X-1205586Y-768512D01*
X-1206141Y-771065D01*
X-1206696Y-773285D01*
X-1206918Y-774284D01*
X-1207140Y-775061D01*
X-1207473Y-775838D01*
X-1207695Y-776504D01*
X-1207917Y-776948D01*
X-1208028Y-777281D01*
X-1208139Y-777503D01*
Y-777614D01*
X-1209360Y-779945D01*
X-1210803Y-781943D01*
X-1212246Y-783719D01*
X-1213689Y-785161D01*
X-1214910Y-786271D01*
X-1215909Y-787159D01*
X-1216575Y-787603D01*
X-1216686Y-787825D01*
X-1216797D01*
X-1218906Y-789046D01*
X-1221015Y-789934D01*
X-1223124Y-790600D01*
X-1225011Y-791044D01*
X-1226564Y-791266D01*
X-1227896Y-791377D01*
X-1228340Y-791488D01*
X-1229006D01*
X-1230893Y-791377D01*
X-1232669Y-791155D01*
X-1234334Y-790711D01*
X-1235777Y-790156D01*
X-1237220Y-789601D01*
X-1238552Y-788935D01*
X-1239662Y-788158D01*
X-1240661Y-787381D01*
X-1241660Y-786604D01*
X-1242437Y-785827D01*
X-1243103Y-785161D01*
X-1243658Y-784607D01*
X-1244102Y-784052D01*
X-1244435Y-783608D01*
X-1244546Y-783386D01*
X-1244657Y-783275D01*
Y-790267D01*
X-1253426D01*
Y-713457D01*
X-1243991D01*
Y-740984D01*
D02*
G37*
G36*
X-901007Y-733436D02*
X-899231Y-733547D01*
X-895790Y-734324D01*
X-892793Y-735323D01*
X-891462Y-735878D01*
X-890241Y-736433D01*
X-889131Y-736988D01*
X-888243Y-737543D01*
X-887355Y-738098D01*
X-886689Y-738542D01*
X-886134Y-738986D01*
X-885690Y-739319D01*
X-885468Y-739430D01*
X-885357Y-739541D01*
X-883803Y-740984D01*
X-882582Y-742649D01*
X-881361Y-744425D01*
X-880473Y-746201D01*
X-879585Y-748088D01*
X-878919Y-750086D01*
X-878364Y-751973D01*
X-877920Y-753749D01*
X-877476Y-755525D01*
X-877254Y-757079D01*
X-877032Y-758633D01*
X-876921Y-759854D01*
Y-760964D01*
X-876810Y-761741D01*
Y-762185D01*
Y-762407D01*
X-876921Y-764960D01*
X-877143Y-767402D01*
X-877476Y-769622D01*
X-877920Y-771731D01*
X-878475Y-773618D01*
X-879030Y-775394D01*
X-879696Y-777059D01*
X-880362Y-778502D01*
X-881028Y-779834D01*
X-881694Y-780944D01*
X-882249Y-781832D01*
X-882804Y-782609D01*
X-883248Y-783275D01*
X-883581Y-783719D01*
X-883803Y-783941D01*
X-883914Y-784052D01*
X-885357Y-785383D01*
X-886800Y-786493D01*
X-888354Y-787492D01*
X-889908Y-788380D01*
X-891462Y-789046D01*
X-893126Y-789712D01*
X-896123Y-790600D01*
X-897455Y-790822D01*
X-898787Y-791044D01*
X-899897Y-791266D01*
X-900896Y-791377D01*
X-901784Y-791488D01*
X-902894D01*
X-905558Y-791377D01*
X-908000Y-790933D01*
X-910331Y-790378D01*
X-912218Y-789823D01*
X-913883Y-789157D01*
X-914549Y-788935D01*
X-915104Y-788713D01*
X-915659Y-788491D01*
X-915992Y-788269D01*
X-916103Y-788158D01*
X-916214D01*
X-918434Y-786715D01*
X-920321Y-785161D01*
X-921986Y-783608D01*
X-923318Y-782054D01*
X-924317Y-780722D01*
X-925094Y-779612D01*
X-925316Y-779168D01*
X-925538Y-778835D01*
X-925649Y-778724D01*
Y-778613D01*
X-926759Y-776060D01*
X-927536Y-773285D01*
X-928202Y-770510D01*
X-928535Y-767735D01*
X-928757Y-766514D01*
Y-765404D01*
X-928868Y-764294D01*
X-928979Y-763406D01*
Y-762629D01*
Y-762074D01*
Y-761741D01*
Y-761630D01*
X-928868Y-759188D01*
X-928646Y-756968D01*
X-928313Y-754859D01*
X-927869Y-752861D01*
X-927314Y-750974D01*
X-926648Y-749309D01*
X-925982Y-747644D01*
X-925316Y-746312D01*
X-924650Y-745091D01*
X-923984Y-743981D01*
X-923318Y-742982D01*
X-922763Y-742205D01*
X-922319Y-741650D01*
X-921986Y-741206D01*
X-921764Y-740984D01*
X-921653Y-740873D01*
X-920210Y-739541D01*
X-918767Y-738431D01*
X-917213Y-737321D01*
X-915659Y-736544D01*
X-914105Y-735767D01*
X-912551Y-735212D01*
X-909554Y-734213D01*
X-908111Y-733991D01*
X-906890Y-733769D01*
X-905780Y-733547D01*
X-904781Y-733436D01*
X-904004Y-733325D01*
X-902894D01*
X-901007Y-733436D01*
D02*
G37*
G36*
X-1014891Y-733547D02*
X-1013559Y-733658D01*
X-1012338Y-733880D01*
X-1011339Y-734102D01*
X-1010562Y-734324D01*
X-1010118Y-734435D01*
X-1009896Y-734546D01*
X-1008564Y-734990D01*
X-1007343Y-735434D01*
X-1006344Y-735878D01*
X-1005456Y-736322D01*
X-1004790Y-736655D01*
X-1004346Y-736988D01*
X-1004013Y-737099D01*
X-1003902Y-737210D01*
X-1002793Y-737987D01*
X-1001905Y-738875D01*
X-1001128Y-739874D01*
X-1000462Y-740651D01*
X-999907Y-741428D01*
X-999574Y-741983D01*
X-999352Y-742427D01*
X-999241Y-742538D01*
X-998686Y-743759D01*
X-998242Y-744869D01*
X-998020Y-746090D01*
X-997798Y-747089D01*
X-997687Y-748088D01*
X-997576Y-748754D01*
Y-749198D01*
Y-749420D01*
X-997687Y-750974D01*
X-997909Y-752306D01*
X-998242Y-753638D01*
X-998575Y-754748D01*
X-998908Y-755636D01*
X-999241Y-756413D01*
X-999463Y-756857D01*
X-999574Y-756968D01*
X-1000462Y-758189D01*
X-1001461Y-759188D01*
X-1002460Y-760076D01*
X-1003458Y-760853D01*
X-1004346Y-761408D01*
X-1005012Y-761852D01*
X-1005456Y-762074D01*
X-1005678Y-762185D01*
X-1006455Y-762518D01*
X-1007454Y-762962D01*
X-1009674Y-763739D01*
X-1012005Y-764405D01*
X-1014447Y-765182D01*
X-1016556Y-765737D01*
X-1017555Y-766070D01*
X-1018443Y-766292D01*
X-1019109Y-766514D01*
X-1019664Y-766625D01*
X-1019997Y-766736D01*
X-1020108D01*
X-1021551Y-767069D01*
X-1022772Y-767402D01*
X-1023882Y-767735D01*
X-1024881Y-768068D01*
X-1025769Y-768290D01*
X-1026546Y-768623D01*
X-1027878Y-769067D01*
X-1028766Y-769400D01*
X-1029321Y-769733D01*
X-1029654Y-769844D01*
X-1029765Y-769955D01*
X-1030764Y-770621D01*
X-1031430Y-771509D01*
X-1031985Y-772286D01*
X-1032318Y-773063D01*
X-1032540Y-773840D01*
X-1032651Y-774395D01*
Y-774839D01*
Y-774950D01*
X-1032540Y-776282D01*
X-1032207Y-777392D01*
X-1031652Y-778502D01*
X-1031097Y-779390D01*
X-1030431Y-780167D01*
X-1029987Y-780722D01*
X-1029543Y-781055D01*
X-1029432Y-781166D01*
X-1028100Y-782054D01*
X-1026657Y-782609D01*
X-1024992Y-783053D01*
X-1023438Y-783386D01*
X-1021995Y-783608D01*
X-1020885Y-783719D01*
X-1019775D01*
X-1017444Y-783608D01*
X-1015446Y-783275D01*
X-1013781Y-782831D01*
X-1012338Y-782276D01*
X-1011228Y-781721D01*
X-1010340Y-781277D01*
X-1009896Y-780944D01*
X-1009674Y-780833D01*
X-1008453Y-779612D01*
X-1007454Y-778169D01*
X-1006788Y-776726D01*
X-1006233Y-775394D01*
X-1005789Y-774173D01*
X-1005567Y-773063D01*
X-1005345Y-772397D01*
Y-772286D01*
Y-772175D01*
X-996022Y-773618D01*
X-996799Y-776726D01*
X-997798Y-779501D01*
X-999019Y-781721D01*
X-1000240Y-783608D01*
X-1001350Y-785161D01*
X-1002349Y-786160D01*
X-1003015Y-786826D01*
X-1003126Y-786937D01*
X-1003237Y-787048D01*
X-1004346Y-787825D01*
X-1005567Y-788491D01*
X-1008231Y-789601D01*
X-1011006Y-790378D01*
X-1013670Y-790933D01*
X-1014891Y-791155D01*
X-1016001Y-791266D01*
X-1017111Y-791377D01*
X-1017999D01*
X-1018776Y-791488D01*
X-1019775D01*
X-1022217Y-791377D01*
X-1024326Y-791155D01*
X-1026324Y-790822D01*
X-1028100Y-790378D01*
X-1029543Y-789934D01*
X-1030653Y-789601D01*
X-1031319Y-789379D01*
X-1031430Y-789268D01*
X-1031541D01*
X-1033428Y-788269D01*
X-1034982Y-787270D01*
X-1036314Y-786160D01*
X-1037535Y-785161D01*
X-1038423Y-784274D01*
X-1038978Y-783497D01*
X-1039422Y-783053D01*
X-1039533Y-782831D01*
X-1040421Y-781277D01*
X-1041087Y-779612D01*
X-1041642Y-778169D01*
X-1041975Y-776837D01*
X-1042197Y-775616D01*
X-1042308Y-774728D01*
Y-774173D01*
Y-773951D01*
X-1042197Y-772175D01*
X-1041975Y-770621D01*
X-1041531Y-769289D01*
X-1041198Y-768068D01*
X-1040754Y-767069D01*
X-1040310Y-766403D01*
X-1040088Y-765959D01*
X-1039977Y-765848D01*
X-1039089Y-764738D01*
X-1038090Y-763739D01*
X-1037091Y-762851D01*
X-1036092Y-762185D01*
X-1035093Y-761630D01*
X-1034427Y-761297D01*
X-1033983Y-761075D01*
X-1033761Y-760964D01*
X-1032984Y-760631D01*
X-1032096Y-760298D01*
X-1029987Y-759521D01*
X-1027656Y-758744D01*
X-1025325Y-758078D01*
X-1023216Y-757412D01*
X-1022217Y-757190D01*
X-1021440Y-756968D01*
X-1020774Y-756746D01*
X-1020219Y-756635D01*
X-1019886Y-756524D01*
X-1019775D01*
X-1018554Y-756191D01*
X-1017444Y-755858D01*
X-1016445Y-755636D01*
X-1015557Y-755303D01*
X-1014114Y-754970D01*
X-1013004Y-754637D01*
X-1012227Y-754304D01*
X-1011783Y-754193D01*
X-1011561Y-754082D01*
X-1011450D01*
X-1010562Y-753638D01*
X-1009785Y-753305D01*
X-1009119Y-752861D01*
X-1008675Y-752528D01*
X-1008231Y-752195D01*
X-1008009Y-751862D01*
X-1007898Y-751751D01*
X-1007787Y-751640D01*
X-1007121Y-750530D01*
X-1006788Y-749420D01*
Y-748976D01*
X-1006677Y-748643D01*
Y-748421D01*
Y-748310D01*
X-1006788Y-747311D01*
X-1007121Y-746312D01*
X-1007565Y-745424D01*
X-1008120Y-744758D01*
X-1008564Y-744092D01*
X-1009008Y-743648D01*
X-1009341Y-743426D01*
X-1009452Y-743315D01*
X-1010673Y-742538D01*
X-1012116Y-741983D01*
X-1013670Y-741650D01*
X-1015113Y-741317D01*
X-1016556Y-741206D01*
X-1017666Y-741095D01*
X-1018776D01*
X-1020663Y-741206D01*
X-1022439Y-741428D01*
X-1023882Y-741872D01*
X-1024992Y-742316D01*
X-1025991Y-742760D01*
X-1026657Y-743204D01*
X-1027101Y-743426D01*
X-1027212Y-743537D01*
X-1028322Y-744536D01*
X-1029099Y-745646D01*
X-1029765Y-746756D01*
X-1030320Y-747755D01*
X-1030653Y-748754D01*
X-1030875Y-749531D01*
X-1030986Y-749975D01*
Y-750197D01*
X-1040199Y-748976D01*
X-1039755Y-747089D01*
X-1039311Y-745424D01*
X-1038756Y-743981D01*
X-1038201Y-742649D01*
X-1037646Y-741761D01*
X-1037202Y-740984D01*
X-1036980Y-740540D01*
X-1036869Y-740429D01*
X-1035870Y-739319D01*
X-1034760Y-738320D01*
X-1033539Y-737432D01*
X-1032318Y-736655D01*
X-1031208Y-736100D01*
X-1030320Y-735656D01*
X-1029765Y-735434D01*
X-1029654Y-735323D01*
X-1029543D01*
X-1027656Y-734657D01*
X-1025658Y-734213D01*
X-1023771Y-733769D01*
X-1021995Y-733547D01*
X-1020330Y-733436D01*
X-1019109Y-733325D01*
X-1016445D01*
X-1014891Y-733547D01*
D02*
G37*
G36*
X-1879677Y-733436D02*
X-1877901Y-733547D01*
X-1874460Y-734324D01*
X-1871463Y-735323D01*
X-1870131Y-735878D01*
X-1868910Y-736433D01*
X-1867800Y-736988D01*
X-1866912Y-737543D01*
X-1866024Y-738098D01*
X-1865358Y-738542D01*
X-1864803Y-738986D01*
X-1864359Y-739319D01*
X-1864137Y-739430D01*
X-1864026Y-739541D01*
X-1862472Y-740984D01*
X-1861251Y-742649D01*
X-1860030Y-744425D01*
X-1859142Y-746201D01*
X-1858254Y-748088D01*
X-1857588Y-750086D01*
X-1857033Y-751973D01*
X-1856589Y-753749D01*
X-1856145Y-755525D01*
X-1855923Y-757079D01*
X-1855701Y-758633D01*
X-1855590Y-759854D01*
Y-760964D01*
X-1855479Y-761741D01*
Y-762185D01*
Y-762407D01*
X-1855590Y-764960D01*
X-1855812Y-767402D01*
X-1856145Y-769622D01*
X-1856589Y-771731D01*
X-1857144Y-773618D01*
X-1857699Y-775394D01*
X-1858365Y-777059D01*
X-1859031Y-778502D01*
X-1859697Y-779834D01*
X-1860363Y-780944D01*
X-1860918Y-781832D01*
X-1861473Y-782609D01*
X-1861917Y-783275D01*
X-1862250Y-783719D01*
X-1862472Y-783941D01*
X-1862583Y-784052D01*
X-1864026Y-785383D01*
X-1865469Y-786493D01*
X-1867023Y-787492D01*
X-1868577Y-788380D01*
X-1870131Y-789046D01*
X-1871796Y-789712D01*
X-1874793Y-790600D01*
X-1876125Y-790822D01*
X-1877457Y-791044D01*
X-1878567Y-791266D01*
X-1879566Y-791377D01*
X-1880454Y-791488D01*
X-1881564D01*
X-1884228Y-791377D01*
X-1886670Y-790933D01*
X-1889001Y-790378D01*
X-1890888Y-789823D01*
X-1892552Y-789157D01*
X-1893218Y-788935D01*
X-1893773Y-788713D01*
X-1894328Y-788491D01*
X-1894661Y-788269D01*
X-1894772Y-788158D01*
X-1894883D01*
X-1897103Y-786715D01*
X-1898990Y-785161D01*
X-1900655Y-783608D01*
X-1901987Y-782054D01*
X-1902986Y-780722D01*
X-1903763Y-779612D01*
X-1903985Y-779168D01*
X-1904207Y-778835D01*
X-1904318Y-778724D01*
Y-778613D01*
X-1905428Y-776060D01*
X-1906205Y-773285D01*
X-1906871Y-770510D01*
X-1907204Y-767735D01*
X-1907426Y-766514D01*
Y-765404D01*
X-1907537Y-764294D01*
X-1907648Y-763406D01*
Y-762629D01*
Y-762074D01*
Y-761741D01*
Y-761630D01*
X-1907537Y-759188D01*
X-1907315Y-756968D01*
X-1906982Y-754859D01*
X-1906538Y-752861D01*
X-1905983Y-750974D01*
X-1905317Y-749309D01*
X-1904651Y-747644D01*
X-1903985Y-746312D01*
X-1903319Y-745091D01*
X-1902653Y-743981D01*
X-1901987Y-742982D01*
X-1901432Y-742205D01*
X-1900988Y-741650D01*
X-1900655Y-741206D01*
X-1900433Y-740984D01*
X-1900322Y-740873D01*
X-1898879Y-739541D01*
X-1897436Y-738431D01*
X-1895882Y-737321D01*
X-1894328Y-736544D01*
X-1892774Y-735767D01*
X-1891221Y-735212D01*
X-1888224Y-734213D01*
X-1886781Y-733991D01*
X-1885560Y-733769D01*
X-1884450Y-733547D01*
X-1883451Y-733436D01*
X-1882674Y-733325D01*
X-1881564D01*
X-1879677Y-733436D01*
D02*
G37*
G36*
X-479104D02*
X-477328Y-733658D01*
X-475774Y-733991D01*
X-474442Y-734435D01*
X-473332Y-734879D01*
X-472444Y-735212D01*
X-472000Y-735434D01*
X-471778Y-735545D01*
X-470446Y-736433D01*
X-469114Y-737432D01*
X-468004Y-738431D01*
X-467005Y-739541D01*
X-466117Y-740429D01*
X-465562Y-741206D01*
X-465118Y-741650D01*
X-465007Y-741872D01*
Y-734546D01*
X-456460D01*
Y-811579D01*
X-465895D01*
Y-784496D01*
X-466783Y-785605D01*
X-467782Y-786604D01*
X-468892Y-787492D01*
X-469780Y-788158D01*
X-470668Y-788824D01*
X-471334Y-789268D01*
X-471889Y-789490D01*
X-472000Y-789601D01*
X-473443Y-790267D01*
X-474886Y-790711D01*
X-476329Y-791044D01*
X-477661Y-791266D01*
X-478771Y-791377D01*
X-479659Y-791488D01*
X-480436D01*
X-482767Y-791377D01*
X-485098Y-790933D01*
X-487096Y-790378D01*
X-488983Y-789712D01*
X-490537Y-789046D01*
X-491647Y-788491D01*
X-492091Y-788269D01*
X-492424Y-788047D01*
X-492535Y-787936D01*
X-492646D01*
X-494755Y-786382D01*
X-496531Y-784718D01*
X-498085Y-783053D01*
X-499306Y-781388D01*
X-500305Y-779834D01*
X-501082Y-778613D01*
X-501304Y-778169D01*
X-501526Y-777836D01*
X-501637Y-777614D01*
Y-777503D01*
X-502636Y-774839D01*
X-503413Y-772175D01*
X-503967Y-769622D01*
X-504411Y-767180D01*
X-504633Y-765182D01*
Y-764294D01*
X-504744Y-763517D01*
Y-762851D01*
Y-762407D01*
Y-762185D01*
Y-762074D01*
X-504633Y-759188D01*
X-504300Y-756413D01*
X-503856Y-753971D01*
X-503302Y-751751D01*
X-502747Y-749975D01*
X-502525Y-749198D01*
X-502303Y-748532D01*
X-502081Y-748088D01*
X-501970Y-747755D01*
X-501859Y-747533D01*
Y-747422D01*
X-500749Y-745091D01*
X-499417Y-742982D01*
X-498085Y-741206D01*
X-496753Y-739763D01*
X-495532Y-738653D01*
X-494533Y-737765D01*
X-493867Y-737321D01*
X-493756Y-737099D01*
X-493645D01*
X-491536Y-735878D01*
X-489427Y-734879D01*
X-487318Y-734213D01*
X-485320Y-733769D01*
X-483655Y-733547D01*
X-482878Y-733436D01*
X-482323Y-733325D01*
X-481102D01*
X-479104Y-733436D01*
D02*
G37*
G36*
X-843288D02*
X-841512Y-733658D01*
X-839958Y-733991D01*
X-838626Y-734435D01*
X-837516Y-734879D01*
X-836629Y-735212D01*
X-836185Y-735434D01*
X-835963Y-735545D01*
X-834631Y-736433D01*
X-833299Y-737432D01*
X-832189Y-738431D01*
X-831190Y-739541D01*
X-830302Y-740429D01*
X-829747Y-741206D01*
X-829303Y-741650D01*
X-829192Y-741872D01*
Y-734546D01*
X-820645D01*
Y-811579D01*
X-830080D01*
Y-784496D01*
X-830968Y-785605D01*
X-831967Y-786604D01*
X-833077Y-787492D01*
X-833965Y-788158D01*
X-834853Y-788824D01*
X-835519Y-789268D01*
X-836074Y-789490D01*
X-836185Y-789601D01*
X-837627Y-790267D01*
X-839070Y-790711D01*
X-840513Y-791044D01*
X-841845Y-791266D01*
X-842955Y-791377D01*
X-843843Y-791488D01*
X-844620D01*
X-846951Y-791377D01*
X-849282Y-790933D01*
X-851280Y-790378D01*
X-853167Y-789712D01*
X-854721Y-789046D01*
X-855831Y-788491D01*
X-856275Y-788269D01*
X-856608Y-788047D01*
X-856719Y-787936D01*
X-856830D01*
X-858939Y-786382D01*
X-860715Y-784718D01*
X-862269Y-783053D01*
X-863490Y-781388D01*
X-864489Y-779834D01*
X-865266Y-778613D01*
X-865488Y-778169D01*
X-865710Y-777836D01*
X-865821Y-777614D01*
Y-777503D01*
X-866820Y-774839D01*
X-867597Y-772175D01*
X-868152Y-769622D01*
X-868596Y-767180D01*
X-868818Y-765182D01*
Y-764294D01*
X-868929Y-763517D01*
Y-762851D01*
Y-762407D01*
Y-762185D01*
Y-762074D01*
X-868818Y-759188D01*
X-868485Y-756413D01*
X-868041Y-753971D01*
X-867486Y-751751D01*
X-866931Y-749975D01*
X-866709Y-749198D01*
X-866487Y-748532D01*
X-866265Y-748088D01*
X-866154Y-747755D01*
X-866043Y-747533D01*
Y-747422D01*
X-864933Y-745091D01*
X-863601Y-742982D01*
X-862269Y-741206D01*
X-860937Y-739763D01*
X-859716Y-738653D01*
X-858717Y-737765D01*
X-858051Y-737321D01*
X-857940Y-737099D01*
X-857829D01*
X-855720Y-735878D01*
X-853611Y-734879D01*
X-851502Y-734213D01*
X-849504Y-733769D01*
X-847839Y-733547D01*
X-847062Y-733436D01*
X-846507Y-733325D01*
X-845286D01*
X-843288Y-733436D01*
D02*
G37*
G36*
X-2214336Y-733547D02*
X-2213004Y-733658D01*
X-2211783Y-733880D01*
X-2210784Y-734102D01*
X-2210007Y-734324D01*
X-2209563Y-734435D01*
X-2209341Y-734546D01*
X-2208009Y-734990D01*
X-2206788Y-735434D01*
X-2205789Y-735878D01*
X-2204901Y-736322D01*
X-2204235Y-736655D01*
X-2203791Y-736988D01*
X-2203458Y-737099D01*
X-2203347Y-737210D01*
X-2202237Y-737987D01*
X-2201349Y-738875D01*
X-2200572Y-739874D01*
X-2199906Y-740651D01*
X-2199351Y-741428D01*
X-2199018Y-741983D01*
X-2198796Y-742427D01*
X-2198685Y-742538D01*
X-2198130Y-743759D01*
X-2197686Y-744869D01*
X-2197464Y-746090D01*
X-2197242Y-747089D01*
X-2197131Y-748088D01*
X-2197020Y-748754D01*
Y-749198D01*
Y-749420D01*
X-2197131Y-750974D01*
X-2197353Y-752306D01*
X-2197686Y-753638D01*
X-2198019Y-754748D01*
X-2198352Y-755636D01*
X-2198685Y-756413D01*
X-2198907Y-756857D01*
X-2199018Y-756968D01*
X-2199906Y-758189D01*
X-2200905Y-759188D01*
X-2201904Y-760076D01*
X-2202903Y-760853D01*
X-2203791Y-761408D01*
X-2204457Y-761852D01*
X-2204901Y-762074D01*
X-2205123Y-762185D01*
X-2205900Y-762518D01*
X-2206899Y-762962D01*
X-2209119Y-763739D01*
X-2211450Y-764405D01*
X-2213892Y-765182D01*
X-2216001Y-765737D01*
X-2217000Y-766070D01*
X-2217888Y-766292D01*
X-2218554Y-766514D01*
X-2219109Y-766625D01*
X-2219442Y-766736D01*
X-2219553D01*
X-2220996Y-767069D01*
X-2222217Y-767402D01*
X-2223327Y-767735D01*
X-2224325Y-768068D01*
X-2225213Y-768290D01*
X-2225990Y-768623D01*
X-2227322Y-769067D01*
X-2228210Y-769400D01*
X-2228765Y-769733D01*
X-2229098Y-769844D01*
X-2229209Y-769955D01*
X-2230208Y-770621D01*
X-2230874Y-771509D01*
X-2231429Y-772286D01*
X-2231762Y-773063D01*
X-2231984Y-773840D01*
X-2232095Y-774395D01*
Y-774839D01*
Y-774950D01*
X-2231984Y-776282D01*
X-2231651Y-777392D01*
X-2231096Y-778502D01*
X-2230541Y-779390D01*
X-2229875Y-780167D01*
X-2229431Y-780722D01*
X-2228987Y-781055D01*
X-2228876Y-781166D01*
X-2227544Y-782054D01*
X-2226101Y-782609D01*
X-2224436Y-783053D01*
X-2222883Y-783386D01*
X-2221440Y-783608D01*
X-2220330Y-783719D01*
X-2219220D01*
X-2216889Y-783608D01*
X-2214891Y-783275D01*
X-2213226Y-782831D01*
X-2211783Y-782276D01*
X-2210673Y-781721D01*
X-2209785Y-781277D01*
X-2209341Y-780944D01*
X-2209119Y-780833D01*
X-2207898Y-779612D01*
X-2206899Y-778169D01*
X-2206233Y-776726D01*
X-2205678Y-775394D01*
X-2205234Y-774173D01*
X-2205012Y-773063D01*
X-2204790Y-772397D01*
Y-772286D01*
Y-772175D01*
X-2195466Y-773618D01*
X-2196243Y-776726D01*
X-2197242Y-779501D01*
X-2198463Y-781721D01*
X-2199684Y-783608D01*
X-2200794Y-785161D01*
X-2201793Y-786160D01*
X-2202459Y-786826D01*
X-2202570Y-786937D01*
X-2202681Y-787048D01*
X-2203791Y-787825D01*
X-2205012Y-788491D01*
X-2207676Y-789601D01*
X-2210451Y-790378D01*
X-2213115Y-790933D01*
X-2214336Y-791155D01*
X-2215446Y-791266D01*
X-2216556Y-791377D01*
X-2217444D01*
X-2218221Y-791488D01*
X-2219220D01*
X-2221662Y-791377D01*
X-2223771Y-791155D01*
X-2225768Y-790822D01*
X-2227544Y-790378D01*
X-2228987Y-789934D01*
X-2230097Y-789601D01*
X-2230763Y-789379D01*
X-2230874Y-789268D01*
X-2230985D01*
X-2232872Y-788269D01*
X-2234426Y-787270D01*
X-2235758Y-786160D01*
X-2236979Y-785161D01*
X-2237867Y-784274D01*
X-2238422Y-783497D01*
X-2238866Y-783053D01*
X-2238977Y-782831D01*
X-2239865Y-781277D01*
X-2240531Y-779612D01*
X-2241086Y-778169D01*
X-2241419Y-776837D01*
X-2241641Y-775616D01*
X-2241752Y-774728D01*
Y-774173D01*
Y-773951D01*
X-2241641Y-772175D01*
X-2241419Y-770621D01*
X-2240975Y-769289D01*
X-2240642Y-768068D01*
X-2240198Y-767069D01*
X-2239754Y-766403D01*
X-2239532Y-765959D01*
X-2239421Y-765848D01*
X-2238533Y-764738D01*
X-2237534Y-763739D01*
X-2236535Y-762851D01*
X-2235536Y-762185D01*
X-2234537Y-761630D01*
X-2233871Y-761297D01*
X-2233427Y-761075D01*
X-2233205Y-760964D01*
X-2232428Y-760631D01*
X-2231540Y-760298D01*
X-2229431Y-759521D01*
X-2227100Y-758744D01*
X-2224769Y-758078D01*
X-2222661Y-757412D01*
X-2221662Y-757190D01*
X-2220885Y-756968D01*
X-2220219Y-756746D01*
X-2219664Y-756635D01*
X-2219331Y-756524D01*
X-2219220D01*
X-2217999Y-756191D01*
X-2216889Y-755858D01*
X-2215890Y-755636D01*
X-2215002Y-755303D01*
X-2213559Y-754970D01*
X-2212449Y-754637D01*
X-2211672Y-754304D01*
X-2211228Y-754193D01*
X-2211006Y-754082D01*
X-2210895D01*
X-2210007Y-753638D01*
X-2209230Y-753305D01*
X-2208564Y-752861D01*
X-2208120Y-752528D01*
X-2207676Y-752195D01*
X-2207454Y-751862D01*
X-2207343Y-751751D01*
X-2207232Y-751640D01*
X-2206566Y-750530D01*
X-2206233Y-749420D01*
Y-748976D01*
X-2206122Y-748643D01*
Y-748421D01*
Y-748310D01*
X-2206233Y-747311D01*
X-2206566Y-746312D01*
X-2207010Y-745424D01*
X-2207565Y-744758D01*
X-2208009Y-744092D01*
X-2208453Y-743648D01*
X-2208786Y-743426D01*
X-2208897Y-743315D01*
X-2210118Y-742538D01*
X-2211561Y-741983D01*
X-2213115Y-741650D01*
X-2214558Y-741317D01*
X-2216001Y-741206D01*
X-2217111Y-741095D01*
X-2218221D01*
X-2220108Y-741206D01*
X-2221884Y-741428D01*
X-2223327Y-741872D01*
X-2224436Y-742316D01*
X-2225435Y-742760D01*
X-2226101Y-743204D01*
X-2226545Y-743426D01*
X-2226656Y-743537D01*
X-2227766Y-744536D01*
X-2228543Y-745646D01*
X-2229209Y-746756D01*
X-2229764Y-747755D01*
X-2230097Y-748754D01*
X-2230319Y-749531D01*
X-2230430Y-749975D01*
Y-750197D01*
X-2239643Y-748976D01*
X-2239199Y-747089D01*
X-2238755Y-745424D01*
X-2238200Y-743981D01*
X-2237645Y-742649D01*
X-2237090Y-741761D01*
X-2236646Y-740984D01*
X-2236424Y-740540D01*
X-2236313Y-740429D01*
X-2235314Y-739319D01*
X-2234204Y-738320D01*
X-2232983Y-737432D01*
X-2231762Y-736655D01*
X-2230652Y-736100D01*
X-2229764Y-735656D01*
X-2229209Y-735434D01*
X-2229098Y-735323D01*
X-2228987D01*
X-2227100Y-734657D01*
X-2225102Y-734213D01*
X-2223216Y-733769D01*
X-2221440Y-733547D01*
X-2219775Y-733436D01*
X-2218554Y-733325D01*
X-2215890D01*
X-2214336Y-733547D01*
D02*
G37*
G36*
X-2357190Y-733436D02*
X-2355414Y-733547D01*
X-2351973Y-734324D01*
X-2348976Y-735323D01*
X-2347644Y-735878D01*
X-2346423Y-736433D01*
X-2345313Y-736988D01*
X-2344425Y-737543D01*
X-2343537Y-738098D01*
X-2342871Y-738542D01*
X-2342316Y-738986D01*
X-2341872Y-739319D01*
X-2341650Y-739430D01*
X-2341539Y-739541D01*
X-2339985Y-740984D01*
X-2338764Y-742649D01*
X-2337543Y-744425D01*
X-2336655Y-746201D01*
X-2335767Y-748088D01*
X-2335102Y-750086D01*
X-2334547Y-751973D01*
X-2334103Y-753749D01*
X-2333659Y-755525D01*
X-2333437Y-757079D01*
X-2333215Y-758633D01*
X-2333104Y-759854D01*
Y-760964D01*
X-2332993Y-761741D01*
Y-762185D01*
Y-762407D01*
X-2333104Y-764960D01*
X-2333326Y-767402D01*
X-2333659Y-769622D01*
X-2334103Y-771731D01*
X-2334658Y-773618D01*
X-2335212Y-775394D01*
X-2335878Y-777059D01*
X-2336544Y-778502D01*
X-2337210Y-779834D01*
X-2337876Y-780944D01*
X-2338431Y-781832D01*
X-2338986Y-782609D01*
X-2339430Y-783275D01*
X-2339763Y-783719D01*
X-2339985Y-783941D01*
X-2340096Y-784052D01*
X-2341539Y-785383D01*
X-2342982Y-786493D01*
X-2344536Y-787492D01*
X-2346090Y-788380D01*
X-2347644Y-789046D01*
X-2349309Y-789712D01*
X-2352306Y-790600D01*
X-2353638Y-790822D01*
X-2354970Y-791044D01*
X-2356080Y-791266D01*
X-2357079Y-791377D01*
X-2357967Y-791488D01*
X-2359077D01*
X-2361741Y-791377D01*
X-2364183Y-790933D01*
X-2366514Y-790378D01*
X-2368401Y-789823D01*
X-2370066Y-789157D01*
X-2370732Y-788935D01*
X-2371287Y-788713D01*
X-2371842Y-788491D01*
X-2372175Y-788269D01*
X-2372286Y-788158D01*
X-2372397D01*
X-2374617Y-786715D01*
X-2376504Y-785161D01*
X-2378169Y-783608D01*
X-2379501Y-782054D01*
X-2380500Y-780722D01*
X-2381277Y-779612D01*
X-2381499Y-779168D01*
X-2381721Y-778835D01*
X-2381832Y-778724D01*
Y-778613D01*
X-2382942Y-776060D01*
X-2383719Y-773285D01*
X-2384385Y-770510D01*
X-2384718Y-767735D01*
X-2384940Y-766514D01*
Y-765404D01*
X-2385051Y-764294D01*
X-2385162Y-763406D01*
Y-762629D01*
Y-762074D01*
Y-761741D01*
Y-761630D01*
X-2385051Y-759188D01*
X-2384829Y-756968D01*
X-2384496Y-754859D01*
X-2384052Y-752861D01*
X-2383497Y-750974D01*
X-2382831Y-749309D01*
X-2382165Y-747644D01*
X-2381499Y-746312D01*
X-2380833Y-745091D01*
X-2380167Y-743981D01*
X-2379501Y-742982D01*
X-2378946Y-742205D01*
X-2378502Y-741650D01*
X-2378169Y-741206D01*
X-2377947Y-740984D01*
X-2377836Y-740873D01*
X-2376393Y-739541D01*
X-2374950Y-738431D01*
X-2373396Y-737321D01*
X-2371842Y-736544D01*
X-2370288Y-735767D01*
X-2368734Y-735212D01*
X-2365737Y-734213D01*
X-2364294Y-733991D01*
X-2363073Y-733769D01*
X-2361963Y-733547D01*
X-2360964Y-733436D01*
X-2360187Y-733325D01*
X-2359077D01*
X-2357190Y-733436D01*
D02*
G37*
G36*
X-1972471Y-790267D02*
X-1981906D01*
Y-734546D01*
X-1972471D01*
Y-790267D01*
D02*
G37*
G36*
X-2015538Y-733436D02*
X-2014428Y-733658D01*
X-2013318Y-733991D01*
X-2012430Y-734324D01*
X-2011764Y-734657D01*
X-2011098Y-734990D01*
X-2010765Y-735212D01*
X-2010654Y-735323D01*
X-2009655Y-736211D01*
X-2008656Y-737321D01*
X-2007657Y-738653D01*
X-2006769Y-739874D01*
X-2005881Y-741095D01*
X-2005326Y-742094D01*
X-2004882Y-742871D01*
X-2004771Y-742982D01*
Y-734546D01*
X-1996225D01*
Y-790267D01*
X-2005659D01*
Y-761186D01*
X-2005770Y-758966D01*
X-2005881Y-756968D01*
X-2006103Y-755081D01*
X-2006436Y-753416D01*
X-2006769Y-752084D01*
X-2006991Y-751085D01*
X-2007102Y-750419D01*
X-2007213Y-750197D01*
X-2007657Y-748976D01*
X-2008212Y-747977D01*
X-2008767Y-747089D01*
X-2009322Y-746312D01*
X-2009877Y-745757D01*
X-2010210Y-745313D01*
X-2010543Y-745091D01*
X-2010654Y-744980D01*
X-2011542Y-744314D01*
X-2012541Y-743870D01*
X-2013540Y-743537D01*
X-2014317Y-743315D01*
X-2015094Y-743204D01*
X-2015649Y-743093D01*
X-2016204D01*
X-2017425Y-743204D01*
X-2018646Y-743426D01*
X-2019867Y-743759D01*
X-2020866Y-744092D01*
X-2021754Y-744425D01*
X-2022420Y-744758D01*
X-2022864Y-744980D01*
X-2022975Y-745091D01*
X-2026416Y-736433D01*
X-2024529Y-735434D01*
X-2022753Y-734657D01*
X-2021199Y-734102D01*
X-2019756Y-733658D01*
X-2018535Y-733436D01*
X-2017536Y-733325D01*
X-2016759D01*
X-2015538Y-733436D01*
D02*
G37*
G36*
X-1676661Y-790267D02*
X-1687428D01*
Y-779501D01*
X-1676661D01*
Y-790267D01*
D02*
G37*
G36*
X-1842492Y-733436D02*
X-1841382Y-733658D01*
X-1840272Y-733991D01*
X-1839384Y-734324D01*
X-1838718Y-734657D01*
X-1838052Y-734990D01*
X-1837719Y-735212D01*
X-1837608Y-735323D01*
X-1836609Y-736211D01*
X-1835611Y-737321D01*
X-1834612Y-738653D01*
X-1833724Y-739874D01*
X-1832836Y-741095D01*
X-1832281Y-742094D01*
X-1831837Y-742871D01*
X-1831726Y-742982D01*
Y-734546D01*
X-1823179D01*
Y-790267D01*
X-1832614D01*
Y-761186D01*
X-1832725Y-758966D01*
X-1832836Y-756968D01*
X-1833058Y-755081D01*
X-1833391Y-753416D01*
X-1833724Y-752084D01*
X-1833946Y-751085D01*
X-1834057Y-750419D01*
X-1834168Y-750197D01*
X-1834612Y-748976D01*
X-1835167Y-747977D01*
X-1835722Y-747089D01*
X-1836276Y-746312D01*
X-1836831Y-745757D01*
X-1837164Y-745313D01*
X-1837497Y-745091D01*
X-1837608Y-744980D01*
X-1838496Y-744314D01*
X-1839495Y-743870D01*
X-1840494Y-743537D01*
X-1841271Y-743315D01*
X-1842048Y-743204D01*
X-1842603Y-743093D01*
X-1843158D01*
X-1844379Y-743204D01*
X-1845600Y-743426D01*
X-1846821Y-743759D01*
X-1847820Y-744092D01*
X-1848708Y-744425D01*
X-1849374Y-744758D01*
X-1849818Y-744980D01*
X-1849929Y-745091D01*
X-1853370Y-736433D01*
X-1851483Y-735434D01*
X-1849707Y-734657D01*
X-1848153Y-734102D01*
X-1846710Y-733658D01*
X-1845489Y-733436D01*
X-1844490Y-733325D01*
X-1843713D01*
X-1842492Y-733436D01*
D02*
G37*
G36*
X-2145517Y-790267D02*
X-2154952D01*
Y-734546D01*
X-2145517D01*
Y-790267D01*
D02*
G37*
G36*
X-698436Y-733547D02*
X-697104Y-733658D01*
X-695883Y-733880D01*
X-694884Y-734102D01*
X-694107Y-734324D01*
X-693663Y-734435D01*
X-693441Y-734546D01*
X-692109Y-734990D01*
X-690888Y-735434D01*
X-689889Y-735878D01*
X-689001Y-736322D01*
X-688335Y-736655D01*
X-687891Y-736988D01*
X-687558Y-737099D01*
X-687447Y-737210D01*
X-686337Y-737987D01*
X-685449Y-738875D01*
X-684672Y-739874D01*
X-684006Y-740651D01*
X-683451Y-741428D01*
X-683118Y-741983D01*
X-682896Y-742427D01*
X-682785Y-742538D01*
X-682230Y-743759D01*
X-681786Y-744869D01*
X-681564Y-746090D01*
X-681342Y-747089D01*
X-681231Y-748088D01*
X-681120Y-748754D01*
Y-749198D01*
Y-749420D01*
X-681231Y-750974D01*
X-681453Y-752306D01*
X-681786Y-753638D01*
X-682119Y-754748D01*
X-682452Y-755636D01*
X-682785Y-756413D01*
X-683007Y-756857D01*
X-683118Y-756968D01*
X-684006Y-758189D01*
X-685005Y-759188D01*
X-686004Y-760076D01*
X-687003Y-760853D01*
X-687891Y-761408D01*
X-688557Y-761852D01*
X-689001Y-762074D01*
X-689223Y-762185D01*
X-690000Y-762518D01*
X-690999Y-762962D01*
X-693219Y-763739D01*
X-695550Y-764405D01*
X-697992Y-765182D01*
X-700101Y-765737D01*
X-701100Y-766070D01*
X-701988Y-766292D01*
X-702654Y-766514D01*
X-703209Y-766625D01*
X-703542Y-766736D01*
X-703653D01*
X-705096Y-767069D01*
X-706317Y-767402D01*
X-707427Y-767735D01*
X-708426Y-768068D01*
X-709314Y-768290D01*
X-710091Y-768623D01*
X-711423Y-769067D01*
X-712311Y-769400D01*
X-712866Y-769733D01*
X-713199Y-769844D01*
X-713310Y-769955D01*
X-714309Y-770621D01*
X-714975Y-771509D01*
X-715530Y-772286D01*
X-715863Y-773063D01*
X-716085Y-773840D01*
X-716196Y-774395D01*
Y-774839D01*
Y-774950D01*
X-716085Y-776282D01*
X-715752Y-777392D01*
X-715197Y-778502D01*
X-714642Y-779390D01*
X-713976Y-780167D01*
X-713532Y-780722D01*
X-713088Y-781055D01*
X-712977Y-781166D01*
X-711645Y-782054D01*
X-710202Y-782609D01*
X-708537Y-783053D01*
X-706983Y-783386D01*
X-705540Y-783608D01*
X-704430Y-783719D01*
X-703320D01*
X-700989Y-783608D01*
X-698991Y-783275D01*
X-697326Y-782831D01*
X-695883Y-782276D01*
X-694773Y-781721D01*
X-693885Y-781277D01*
X-693441Y-780944D01*
X-693219Y-780833D01*
X-691998Y-779612D01*
X-690999Y-778169D01*
X-690333Y-776726D01*
X-689778Y-775394D01*
X-689334Y-774173D01*
X-689112Y-773063D01*
X-688890Y-772397D01*
Y-772286D01*
Y-772175D01*
X-679566Y-773618D01*
X-680343Y-776726D01*
X-681342Y-779501D01*
X-682563Y-781721D01*
X-683784Y-783608D01*
X-684894Y-785161D01*
X-685893Y-786160D01*
X-686559Y-786826D01*
X-686670Y-786937D01*
X-686781Y-787048D01*
X-687891Y-787825D01*
X-689112Y-788491D01*
X-691776Y-789601D01*
X-694551Y-790378D01*
X-697215Y-790933D01*
X-698436Y-791155D01*
X-699546Y-791266D01*
X-700656Y-791377D01*
X-701544D01*
X-702321Y-791488D01*
X-703320D01*
X-705762Y-791377D01*
X-707871Y-791155D01*
X-709869Y-790822D01*
X-711645Y-790378D01*
X-713088Y-789934D01*
X-714198Y-789601D01*
X-714864Y-789379D01*
X-714975Y-789268D01*
X-715086D01*
X-716973Y-788269D01*
X-718527Y-787270D01*
X-719859Y-786160D01*
X-721080Y-785161D01*
X-721968Y-784274D01*
X-722523Y-783497D01*
X-722967Y-783053D01*
X-723078Y-782831D01*
X-723966Y-781277D01*
X-724632Y-779612D01*
X-725187Y-778169D01*
X-725520Y-776837D01*
X-725741Y-775616D01*
X-725852Y-774728D01*
Y-774173D01*
Y-773951D01*
X-725741Y-772175D01*
X-725520Y-770621D01*
X-725076Y-769289D01*
X-724743Y-768068D01*
X-724299Y-767069D01*
X-723855Y-766403D01*
X-723633Y-765959D01*
X-723522Y-765848D01*
X-722634Y-764738D01*
X-721635Y-763739D01*
X-720636Y-762851D01*
X-719637Y-762185D01*
X-718638Y-761630D01*
X-717972Y-761297D01*
X-717528Y-761075D01*
X-717306Y-760964D01*
X-716529Y-760631D01*
X-715641Y-760298D01*
X-713532Y-759521D01*
X-711201Y-758744D01*
X-708870Y-758078D01*
X-706761Y-757412D01*
X-705762Y-757190D01*
X-704985Y-756968D01*
X-704319Y-756746D01*
X-703764Y-756635D01*
X-703431Y-756524D01*
X-703320D01*
X-702099Y-756191D01*
X-700989Y-755858D01*
X-699990Y-755636D01*
X-699102Y-755303D01*
X-697659Y-754970D01*
X-696549Y-754637D01*
X-695772Y-754304D01*
X-695328Y-754193D01*
X-695106Y-754082D01*
X-694995D01*
X-694107Y-753638D01*
X-693330Y-753305D01*
X-692664Y-752861D01*
X-692220Y-752528D01*
X-691776Y-752195D01*
X-691554Y-751862D01*
X-691443Y-751751D01*
X-691332Y-751640D01*
X-690666Y-750530D01*
X-690333Y-749420D01*
Y-748976D01*
X-690222Y-748643D01*
Y-748421D01*
Y-748310D01*
X-690333Y-747311D01*
X-690666Y-746312D01*
X-691110Y-745424D01*
X-691665Y-744758D01*
X-692109Y-744092D01*
X-692553Y-743648D01*
X-692886Y-743426D01*
X-692997Y-743315D01*
X-694218Y-742538D01*
X-695661Y-741983D01*
X-697215Y-741650D01*
X-698658Y-741317D01*
X-700101Y-741206D01*
X-701211Y-741095D01*
X-702321D01*
X-704208Y-741206D01*
X-705984Y-741428D01*
X-707427Y-741872D01*
X-708537Y-742316D01*
X-709536Y-742760D01*
X-710202Y-743204D01*
X-710646Y-743426D01*
X-710757Y-743537D01*
X-711867Y-744536D01*
X-712644Y-745646D01*
X-713310Y-746756D01*
X-713865Y-747755D01*
X-714198Y-748754D01*
X-714420Y-749531D01*
X-714531Y-749975D01*
Y-750197D01*
X-723744Y-748976D01*
X-723300Y-747089D01*
X-722856Y-745424D01*
X-722301Y-743981D01*
X-721746Y-742649D01*
X-721191Y-741761D01*
X-720747Y-740984D01*
X-720525Y-740540D01*
X-720414Y-740429D01*
X-719415Y-739319D01*
X-718305Y-738320D01*
X-717084Y-737432D01*
X-715863Y-736655D01*
X-714753Y-736100D01*
X-713865Y-735656D01*
X-713310Y-735434D01*
X-713199Y-735323D01*
X-713088D01*
X-711201Y-734657D01*
X-709203Y-734213D01*
X-707316Y-733769D01*
X-705540Y-733547D01*
X-703875Y-733436D01*
X-702654Y-733325D01*
X-699990D01*
X-698436Y-733547D01*
D02*
G37*
G36*
X-782017D02*
X-780686Y-733658D01*
X-779465Y-733880D01*
X-778466Y-734102D01*
X-777689Y-734324D01*
X-777245Y-734435D01*
X-777023Y-734546D01*
X-775691Y-734990D01*
X-774470Y-735434D01*
X-773471Y-735878D01*
X-772583Y-736322D01*
X-771917Y-736655D01*
X-771473Y-736988D01*
X-771140Y-737099D01*
X-771029Y-737210D01*
X-769919Y-737987D01*
X-769031Y-738875D01*
X-768254Y-739874D01*
X-767588Y-740651D01*
X-767033Y-741428D01*
X-766700Y-741983D01*
X-766478Y-742427D01*
X-766367Y-742538D01*
X-765812Y-743759D01*
X-765368Y-744869D01*
X-765146Y-746090D01*
X-764924Y-747089D01*
X-764813Y-748088D01*
X-764702Y-748754D01*
Y-749198D01*
Y-749420D01*
X-764813Y-750974D01*
X-765035Y-752306D01*
X-765368Y-753638D01*
X-765701Y-754748D01*
X-766034Y-755636D01*
X-766367Y-756413D01*
X-766589Y-756857D01*
X-766700Y-756968D01*
X-767588Y-758189D01*
X-768587Y-759188D01*
X-769586Y-760076D01*
X-770585Y-760853D01*
X-771473Y-761408D01*
X-772139Y-761852D01*
X-772583Y-762074D01*
X-772805Y-762185D01*
X-773582Y-762518D01*
X-774581Y-762962D01*
X-776801Y-763739D01*
X-779132Y-764405D01*
X-781573Y-765182D01*
X-783682Y-765737D01*
X-784681Y-766070D01*
X-785569Y-766292D01*
X-786235Y-766514D01*
X-786790Y-766625D01*
X-787123Y-766736D01*
X-787234D01*
X-788677Y-767069D01*
X-789898Y-767402D01*
X-791008Y-767735D01*
X-792007Y-768068D01*
X-792895Y-768290D01*
X-793672Y-768623D01*
X-795004Y-769067D01*
X-795892Y-769400D01*
X-796447Y-769733D01*
X-796780Y-769844D01*
X-796891Y-769955D01*
X-797890Y-770621D01*
X-798556Y-771509D01*
X-799111Y-772286D01*
X-799444Y-773063D01*
X-799666Y-773840D01*
X-799777Y-774395D01*
Y-774839D01*
Y-774950D01*
X-799666Y-776282D01*
X-799333Y-777392D01*
X-798778Y-778502D01*
X-798223Y-779390D01*
X-797557Y-780167D01*
X-797113Y-780722D01*
X-796669Y-781055D01*
X-796558Y-781166D01*
X-795226Y-782054D01*
X-793783Y-782609D01*
X-792118Y-783053D01*
X-790564Y-783386D01*
X-789121Y-783608D01*
X-788011Y-783719D01*
X-786901D01*
X-784570Y-783608D01*
X-782572Y-783275D01*
X-780908Y-782831D01*
X-779465Y-782276D01*
X-778355Y-781721D01*
X-777467Y-781277D01*
X-777023Y-780944D01*
X-776801Y-780833D01*
X-775580Y-779612D01*
X-774581Y-778169D01*
X-773915Y-776726D01*
X-773360Y-775394D01*
X-772916Y-774173D01*
X-772694Y-773063D01*
X-772472Y-772397D01*
Y-772286D01*
Y-772175D01*
X-763148Y-773618D01*
X-763925Y-776726D01*
X-764924Y-779501D01*
X-766145Y-781721D01*
X-767366Y-783608D01*
X-768476Y-785161D01*
X-769475Y-786160D01*
X-770141Y-786826D01*
X-770252Y-786937D01*
X-770363Y-787048D01*
X-771473Y-787825D01*
X-772694Y-788491D01*
X-775358Y-789601D01*
X-778133Y-790378D01*
X-780797Y-790933D01*
X-782017Y-791155D01*
X-783127Y-791266D01*
X-784237Y-791377D01*
X-785125D01*
X-785902Y-791488D01*
X-786901D01*
X-789343Y-791377D01*
X-791452Y-791155D01*
X-793450Y-790822D01*
X-795226Y-790378D01*
X-796669Y-789934D01*
X-797779Y-789601D01*
X-798445Y-789379D01*
X-798556Y-789268D01*
X-798667D01*
X-800554Y-788269D01*
X-802108Y-787270D01*
X-803440Y-786160D01*
X-804661Y-785161D01*
X-805549Y-784274D01*
X-806104Y-783497D01*
X-806548Y-783053D01*
X-806659Y-782831D01*
X-807547Y-781277D01*
X-808213Y-779612D01*
X-808768Y-778169D01*
X-809101Y-776837D01*
X-809323Y-775616D01*
X-809434Y-774728D01*
Y-774173D01*
Y-773951D01*
X-809323Y-772175D01*
X-809101Y-770621D01*
X-808657Y-769289D01*
X-808324Y-768068D01*
X-807880Y-767069D01*
X-807436Y-766403D01*
X-807214Y-765959D01*
X-807103Y-765848D01*
X-806215Y-764738D01*
X-805216Y-763739D01*
X-804217Y-762851D01*
X-803218Y-762185D01*
X-802219Y-761630D01*
X-801553Y-761297D01*
X-801109Y-761075D01*
X-800887Y-760964D01*
X-800110Y-760631D01*
X-799222Y-760298D01*
X-797113Y-759521D01*
X-794782Y-758744D01*
X-792451Y-758078D01*
X-790342Y-757412D01*
X-789343Y-757190D01*
X-788566Y-756968D01*
X-787900Y-756746D01*
X-787345Y-756635D01*
X-787012Y-756524D01*
X-786901D01*
X-785680Y-756191D01*
X-784570Y-755858D01*
X-783571Y-755636D01*
X-782683Y-755303D01*
X-781241Y-754970D01*
X-780131Y-754637D01*
X-779354Y-754304D01*
X-778910Y-754193D01*
X-778688Y-754082D01*
X-778577D01*
X-777689Y-753638D01*
X-776912Y-753305D01*
X-776246Y-752861D01*
X-775802Y-752528D01*
X-775358Y-752195D01*
X-775136Y-751862D01*
X-775025Y-751751D01*
X-774914Y-751640D01*
X-774248Y-750530D01*
X-773915Y-749420D01*
Y-748976D01*
X-773804Y-748643D01*
Y-748421D01*
Y-748310D01*
X-773915Y-747311D01*
X-774248Y-746312D01*
X-774692Y-745424D01*
X-775247Y-744758D01*
X-775691Y-744092D01*
X-776135Y-743648D01*
X-776468Y-743426D01*
X-776579Y-743315D01*
X-777800Y-742538D01*
X-779243Y-741983D01*
X-780797Y-741650D01*
X-782239Y-741317D01*
X-783682Y-741206D01*
X-784792Y-741095D01*
X-785902D01*
X-787789Y-741206D01*
X-789565Y-741428D01*
X-791008Y-741872D01*
X-792118Y-742316D01*
X-793117Y-742760D01*
X-793783Y-743204D01*
X-794227Y-743426D01*
X-794338Y-743537D01*
X-795448Y-744536D01*
X-796225Y-745646D01*
X-796891Y-746756D01*
X-797446Y-747755D01*
X-797779Y-748754D01*
X-798001Y-749531D01*
X-798112Y-749975D01*
Y-750197D01*
X-807325Y-748976D01*
X-806881Y-747089D01*
X-806437Y-745424D01*
X-805882Y-743981D01*
X-805327Y-742649D01*
X-804772Y-741761D01*
X-804328Y-740984D01*
X-804106Y-740540D01*
X-803995Y-740429D01*
X-802996Y-739319D01*
X-801886Y-738320D01*
X-800665Y-737432D01*
X-799444Y-736655D01*
X-798334Y-736100D01*
X-797446Y-735656D01*
X-796891Y-735434D01*
X-796780Y-735323D01*
X-796669D01*
X-794782Y-734657D01*
X-792784Y-734213D01*
X-790897Y-733769D01*
X-789121Y-733547D01*
X-787456Y-733436D01*
X-786235Y-733325D01*
X-783571D01*
X-782017Y-733547D01*
D02*
G37*
G36*
X-2255627Y-790267D02*
X-2266394D01*
Y-779501D01*
X-2255627D01*
Y-790267D01*
D02*
G37*
G36*
X-387975Y-733547D02*
X-386643Y-733658D01*
X-385422Y-733880D01*
X-384423Y-734102D01*
X-383646Y-734324D01*
X-383202Y-734435D01*
X-382980Y-734546D01*
X-381648Y-734990D01*
X-380427Y-735434D01*
X-379428Y-735878D01*
X-378540Y-736322D01*
X-377874Y-736655D01*
X-377430Y-736988D01*
X-377097Y-737099D01*
X-376986Y-737210D01*
X-375876Y-737987D01*
X-374988Y-738875D01*
X-374211Y-739874D01*
X-373545Y-740651D01*
X-372990Y-741428D01*
X-372657Y-741983D01*
X-372435Y-742427D01*
X-372324Y-742538D01*
X-371769Y-743759D01*
X-371325Y-744869D01*
X-371103Y-746090D01*
X-370881Y-747089D01*
X-370770Y-748088D01*
X-370659Y-748754D01*
Y-749198D01*
Y-749420D01*
X-370770Y-750974D01*
X-370992Y-752306D01*
X-371325Y-753638D01*
X-371658Y-754748D01*
X-371991Y-755636D01*
X-372324Y-756413D01*
X-372546Y-756857D01*
X-372657Y-756968D01*
X-373545Y-758189D01*
X-374544Y-759188D01*
X-375543Y-760076D01*
X-376542Y-760853D01*
X-377430Y-761408D01*
X-378096Y-761852D01*
X-378540Y-762074D01*
X-378762Y-762185D01*
X-379539Y-762518D01*
X-380538Y-762962D01*
X-382758Y-763739D01*
X-385089Y-764405D01*
X-387531Y-765182D01*
X-389640Y-765737D01*
X-390639Y-766070D01*
X-391527Y-766292D01*
X-392193Y-766514D01*
X-392747Y-766625D01*
X-393080Y-766736D01*
X-393191D01*
X-394634Y-767069D01*
X-395855Y-767402D01*
X-396965Y-767735D01*
X-397964Y-768068D01*
X-398852Y-768290D01*
X-399629Y-768623D01*
X-400961Y-769067D01*
X-401849Y-769400D01*
X-402404Y-769733D01*
X-402737Y-769844D01*
X-402848Y-769955D01*
X-403847Y-770621D01*
X-404513Y-771509D01*
X-405068Y-772286D01*
X-405401Y-773063D01*
X-405623Y-773840D01*
X-405734Y-774395D01*
Y-774839D01*
Y-774950D01*
X-405623Y-776282D01*
X-405290Y-777392D01*
X-404735Y-778502D01*
X-404180Y-779390D01*
X-403514Y-780167D01*
X-403070Y-780722D01*
X-402626Y-781055D01*
X-402515Y-781166D01*
X-401183Y-782054D01*
X-399740Y-782609D01*
X-398075Y-783053D01*
X-396521Y-783386D01*
X-395078Y-783608D01*
X-393968Y-783719D01*
X-392858D01*
X-390528Y-783608D01*
X-388530Y-783275D01*
X-386865Y-782831D01*
X-385422Y-782276D01*
X-384312Y-781721D01*
X-383424Y-781277D01*
X-382980Y-780944D01*
X-382758Y-780833D01*
X-381537Y-779612D01*
X-380538Y-778169D01*
X-379872Y-776726D01*
X-379317Y-775394D01*
X-378873Y-774173D01*
X-378651Y-773063D01*
X-378429Y-772397D01*
Y-772286D01*
Y-772175D01*
X-369105Y-773618D01*
X-369882Y-776726D01*
X-370881Y-779501D01*
X-372102Y-781721D01*
X-373323Y-783608D01*
X-374433Y-785161D01*
X-375432Y-786160D01*
X-376098Y-786826D01*
X-376209Y-786937D01*
X-376320Y-787048D01*
X-377430Y-787825D01*
X-378651Y-788491D01*
X-381315Y-789601D01*
X-384090Y-790378D01*
X-386754Y-790933D01*
X-387975Y-791155D01*
X-389085Y-791266D01*
X-390195Y-791377D01*
X-391083D01*
X-391860Y-791488D01*
X-392858D01*
X-395300Y-791377D01*
X-397409Y-791155D01*
X-399407Y-790822D01*
X-401183Y-790378D01*
X-402626Y-789934D01*
X-403736Y-789601D01*
X-404402Y-789379D01*
X-404513Y-789268D01*
X-404624D01*
X-406511Y-788269D01*
X-408065Y-787270D01*
X-409397Y-786160D01*
X-410618Y-785161D01*
X-411506Y-784274D01*
X-412061Y-783497D01*
X-412505Y-783053D01*
X-412616Y-782831D01*
X-413504Y-781277D01*
X-414170Y-779612D01*
X-414725Y-778169D01*
X-415058Y-776837D01*
X-415280Y-775616D01*
X-415391Y-774728D01*
Y-774173D01*
Y-773951D01*
X-415280Y-772175D01*
X-415058Y-770621D01*
X-414614Y-769289D01*
X-414281Y-768068D01*
X-413837Y-767069D01*
X-413393Y-766403D01*
X-413171Y-765959D01*
X-413060Y-765848D01*
X-412172Y-764738D01*
X-411173Y-763739D01*
X-410174Y-762851D01*
X-409175Y-762185D01*
X-408176Y-761630D01*
X-407510Y-761297D01*
X-407066Y-761075D01*
X-406844Y-760964D01*
X-406067Y-760631D01*
X-405179Y-760298D01*
X-403070Y-759521D01*
X-400739Y-758744D01*
X-398408Y-758078D01*
X-396299Y-757412D01*
X-395300Y-757190D01*
X-394523Y-756968D01*
X-393857Y-756746D01*
X-393302Y-756635D01*
X-392969Y-756524D01*
X-392858D01*
X-391638Y-756191D01*
X-390528Y-755858D01*
X-389529Y-755636D01*
X-388641Y-755303D01*
X-387198Y-754970D01*
X-386088Y-754637D01*
X-385311Y-754304D01*
X-384867Y-754193D01*
X-384645Y-754082D01*
X-384534D01*
X-383646Y-753638D01*
X-382869Y-753305D01*
X-382203Y-752861D01*
X-381759Y-752528D01*
X-381315Y-752195D01*
X-381093Y-751862D01*
X-380982Y-751751D01*
X-380871Y-751640D01*
X-380205Y-750530D01*
X-379872Y-749420D01*
Y-748976D01*
X-379761Y-748643D01*
Y-748421D01*
Y-748310D01*
X-379872Y-747311D01*
X-380205Y-746312D01*
X-380649Y-745424D01*
X-381204Y-744758D01*
X-381648Y-744092D01*
X-382092Y-743648D01*
X-382425Y-743426D01*
X-382536Y-743315D01*
X-383757Y-742538D01*
X-385200Y-741983D01*
X-386754Y-741650D01*
X-388197Y-741317D01*
X-389640Y-741206D01*
X-390750Y-741095D01*
X-391860D01*
X-393746Y-741206D01*
X-395522Y-741428D01*
X-396965Y-741872D01*
X-398075Y-742316D01*
X-399074Y-742760D01*
X-399740Y-743204D01*
X-400184Y-743426D01*
X-400295Y-743537D01*
X-401405Y-744536D01*
X-402182Y-745646D01*
X-402848Y-746756D01*
X-403403Y-747755D01*
X-403736Y-748754D01*
X-403958Y-749531D01*
X-404069Y-749975D01*
Y-750197D01*
X-413282Y-748976D01*
X-412838Y-747089D01*
X-412394Y-745424D01*
X-411839Y-743981D01*
X-411284Y-742649D01*
X-410729Y-741761D01*
X-410285Y-740984D01*
X-410063Y-740540D01*
X-409952Y-740429D01*
X-408953Y-739319D01*
X-407843Y-738320D01*
X-406622Y-737432D01*
X-405401Y-736655D01*
X-404291Y-736100D01*
X-403403Y-735656D01*
X-402848Y-735434D01*
X-402737Y-735323D01*
X-402626D01*
X-400739Y-734657D01*
X-398741Y-734213D01*
X-396854Y-733769D01*
X-395078Y-733547D01*
X-393413Y-733436D01*
X-392193Y-733325D01*
X-389529D01*
X-387975Y-733547D01*
D02*
G37*
G36*
X-1263640Y2224221D02*
X-1260088Y2223666D01*
X-1256980Y2223000D01*
X-1255537Y2222556D01*
X-1254205Y2222112D01*
X-1252984Y2221668D01*
X-1251874Y2221224D01*
X-1250986Y2220891D01*
X-1250098Y2220558D01*
X-1249543Y2220225D01*
X-1249099Y2220003D01*
X-1248766Y2219892D01*
X-1248655Y2219781D01*
X-1245658Y2217894D01*
X-1243105Y2215674D01*
X-1240886Y2213454D01*
X-1238999Y2211234D01*
X-1237556Y2209236D01*
X-1237001Y2208348D01*
X-1236557Y2207571D01*
X-1236113Y2207016D01*
X-1235891Y2206572D01*
X-1235780Y2206239D01*
X-1235669Y2206128D01*
X-1234115Y2202687D01*
X-1233005Y2199135D01*
X-1232228Y2195583D01*
X-1231673Y2192364D01*
X-1231451Y2190921D01*
X-1231340Y2189478D01*
X-1231229Y2188368D01*
Y2187258D01*
X-1231118Y2186481D01*
Y2185815D01*
Y2185371D01*
Y2185260D01*
X-1231340Y2181264D01*
X-1231784Y2177379D01*
X-1232339Y2173939D01*
X-1232783Y2172274D01*
X-1233116Y2170831D01*
X-1233449Y2169499D01*
X-1233893Y2168278D01*
X-1234226Y2167168D01*
X-1234448Y2166280D01*
X-1234781Y2165614D01*
X-1234892Y2165059D01*
X-1235114Y2164726D01*
Y2164615D01*
X-1236779Y2161285D01*
X-1238666Y2158288D01*
X-1240664Y2155735D01*
X-1241662Y2154736D01*
X-1242550Y2153737D01*
X-1243438Y2152849D01*
X-1244326Y2152072D01*
X-1245103Y2151406D01*
X-1245769Y2150962D01*
X-1246213Y2150518D01*
X-1246657Y2150185D01*
X-1246879Y2150074D01*
X-1246990Y2149963D01*
X-1248544Y2149075D01*
X-1250098Y2148298D01*
X-1253428Y2147077D01*
X-1256758Y2146189D01*
X-1259977Y2145634D01*
X-1261531Y2145412D01*
X-1262863Y2145190D01*
X-1264084Y2145079D01*
X-1265083D01*
X-1265971Y2144968D01*
X-1267192D01*
X-1269412Y2145079D01*
X-1271521Y2145301D01*
X-1273519Y2145523D01*
X-1275406Y2145967D01*
X-1277182Y2146522D01*
X-1278847Y2147077D01*
X-1280401Y2147632D01*
X-1281844Y2148298D01*
X-1283065Y2148853D01*
X-1284286Y2149408D01*
X-1285174Y2149963D01*
X-1286062Y2150518D01*
X-1286617Y2150962D01*
X-1287172Y2151184D01*
X-1287394Y2151406D01*
X-1287505Y2151517D01*
X-1289059Y2152849D01*
X-1290391Y2154181D01*
X-1291612Y2155735D01*
X-1292833Y2157289D01*
X-1294831Y2160397D01*
X-1296385Y2163505D01*
X-1297050Y2164948D01*
X-1297605Y2166280D01*
X-1298049Y2167501D01*
X-1298382Y2168500D01*
X-1298715Y2169388D01*
X-1298937Y2170054D01*
X-1299048Y2170498D01*
Y2170609D01*
X-1288837Y2173162D01*
X-1288393Y2171386D01*
X-1287838Y2169721D01*
X-1287283Y2168167D01*
X-1286728Y2166724D01*
X-1286062Y2165392D01*
X-1285396Y2164282D01*
X-1284619Y2163172D01*
X-1283953Y2162173D01*
X-1283398Y2161285D01*
X-1282732Y2160619D01*
X-1282177Y2159953D01*
X-1281733Y2159398D01*
X-1281289Y2159065D01*
X-1280956Y2158732D01*
X-1280845Y2158621D01*
X-1280734Y2158510D01*
X-1279624Y2157622D01*
X-1278403Y2156956D01*
X-1275961Y2155735D01*
X-1273630Y2154847D01*
X-1271299Y2154292D01*
X-1269301Y2153848D01*
X-1268524Y2153737D01*
X-1267747D01*
X-1267081Y2153626D01*
X-1266304D01*
X-1263751Y2153737D01*
X-1261309Y2154181D01*
X-1259089Y2154736D01*
X-1257091Y2155402D01*
X-1255537Y2156068D01*
X-1254871Y2156401D01*
X-1254316Y2156623D01*
X-1253872Y2156845D01*
X-1253539Y2157067D01*
X-1253317Y2157178D01*
X-1253206D01*
X-1251097Y2158732D01*
X-1249321Y2160397D01*
X-1247767Y2162284D01*
X-1246546Y2164060D01*
X-1245547Y2165614D01*
X-1244881Y2166946D01*
X-1244659Y2167501D01*
X-1244437Y2167834D01*
X-1244326Y2168056D01*
Y2168167D01*
X-1243438Y2171053D01*
X-1242772Y2173939D01*
X-1242217Y2176824D01*
X-1241884Y2179488D01*
X-1241773Y2180709D01*
X-1241662Y2181819D01*
Y2182818D01*
X-1241551Y2183595D01*
Y2184261D01*
Y2184816D01*
Y2185149D01*
Y2185260D01*
X-1241662Y2188146D01*
X-1241884Y2190810D01*
X-1242328Y2193252D01*
X-1242772Y2195472D01*
X-1243105Y2197359D01*
X-1243327Y2198136D01*
X-1243549Y2198802D01*
X-1243660Y2199357D01*
X-1243771Y2199690D01*
X-1243882Y2199912D01*
Y2200023D01*
X-1244992Y2202576D01*
X-1246213Y2204907D01*
X-1247545Y2206794D01*
X-1248988Y2208459D01*
X-1250209Y2209791D01*
X-1251208Y2210679D01*
X-1251985Y2211234D01*
X-1252096Y2211456D01*
X-1252207D01*
X-1254538Y2212899D01*
X-1257091Y2214009D01*
X-1259533Y2214786D01*
X-1261864Y2215230D01*
X-1263973Y2215563D01*
X-1264861Y2215674D01*
X-1265638D01*
X-1266193Y2215785D01*
X-1267081D01*
X-1269856Y2215674D01*
X-1272409Y2215230D01*
X-1274518Y2214564D01*
X-1276405Y2213898D01*
X-1277848Y2213121D01*
X-1278958Y2212566D01*
X-1279624Y2212122D01*
X-1279846Y2211900D01*
X-1281622Y2210235D01*
X-1283287Y2208348D01*
X-1284619Y2206350D01*
X-1285729Y2204352D01*
X-1286617Y2202576D01*
X-1286950Y2201688D01*
X-1287172Y2201022D01*
X-1287394Y2200467D01*
X-1287616Y2200023D01*
X-1287727Y2199801D01*
Y2199690D01*
X-1297716Y2202021D01*
X-1297050Y2204019D01*
X-1296385Y2205795D01*
X-1295497Y2207460D01*
X-1294720Y2209125D01*
X-1293832Y2210568D01*
X-1292833Y2211900D01*
X-1291945Y2213232D01*
X-1291057Y2214342D01*
X-1290169Y2215230D01*
X-1289392Y2216118D01*
X-1288615Y2216895D01*
X-1288060Y2217450D01*
X-1287505Y2218005D01*
X-1287061Y2218338D01*
X-1286839Y2218449D01*
X-1286728Y2218560D01*
X-1285174Y2219559D01*
X-1283620Y2220558D01*
X-1282066Y2221335D01*
X-1280401Y2222001D01*
X-1277071Y2223000D01*
X-1274074Y2223666D01*
X-1272631Y2223999D01*
X-1271410Y2224110D01*
X-1270189Y2224221D01*
X-1269190Y2224332D01*
X-1268413Y2224443D01*
X-1267303D01*
X-1263640Y2224221D01*
D02*
G37*
G36*
X-1489193Y49857D02*
X-1487972Y48081D01*
X-1486529Y46305D01*
X-1485197Y44751D01*
X-1483865Y43419D01*
X-1482866Y42309D01*
X-1482422Y41976D01*
X-1482089Y41643D01*
X-1481978Y41532D01*
X-1481867Y41421D01*
X-1479536Y39534D01*
X-1477205Y37758D01*
X-1474985Y36204D01*
X-1472765Y34983D01*
X-1470878Y33873D01*
X-1470101Y33429D01*
X-1469435Y33096D01*
X-1468880Y32763D01*
X-1468436Y32652D01*
X-1468214Y32430D01*
X-1468103D01*
Y23328D01*
X-1469768Y23994D01*
X-1471433Y24771D01*
X-1473098Y25548D01*
X-1474652Y26325D01*
X-1475984Y26991D01*
X-1477094Y27546D01*
X-1477760Y27990D01*
X-1477871Y28101D01*
X-1477982D01*
X-1479980Y29322D01*
X-1481756Y30543D01*
X-1483310Y31653D01*
X-1484531Y32652D01*
X-1485641Y33429D01*
X-1486307Y34095D01*
X-1486862Y34539D01*
X-1486973Y34650D01*
Y-25400D01*
X-1496408D01*
Y51744D01*
X-1490303D01*
X-1489193Y49857D01*
D02*
G37*
G36*
X-897880Y2224221D02*
X-894328Y2223666D01*
X-891220Y2223000D01*
X-889777Y2222556D01*
X-888445Y2222112D01*
X-887224Y2221668D01*
X-886114Y2221224D01*
X-885226Y2220891D01*
X-884338Y2220558D01*
X-883783Y2220225D01*
X-883339Y2220003D01*
X-883006Y2219892D01*
X-882895Y2219781D01*
X-879898Y2217894D01*
X-877345Y2215674D01*
X-875126Y2213454D01*
X-873239Y2211234D01*
X-871796Y2209236D01*
X-871241Y2208348D01*
X-870797Y2207571D01*
X-870353Y2207016D01*
X-870131Y2206572D01*
X-870020Y2206239D01*
X-869909Y2206128D01*
X-868355Y2202687D01*
X-867245Y2199135D01*
X-866468Y2195583D01*
X-865913Y2192364D01*
X-865691Y2190921D01*
X-865580Y2189478D01*
X-865469Y2188368D01*
Y2187258D01*
X-865358Y2186481D01*
Y2185815D01*
Y2185371D01*
Y2185260D01*
X-865580Y2181264D01*
X-866024Y2177379D01*
X-866579Y2173939D01*
X-867023Y2172274D01*
X-867356Y2170831D01*
X-867689Y2169499D01*
X-868133Y2168278D01*
X-868466Y2167168D01*
X-868688Y2166280D01*
X-869021Y2165614D01*
X-869132Y2165059D01*
X-869354Y2164726D01*
Y2164615D01*
X-871019Y2161285D01*
X-872906Y2158288D01*
X-874904Y2155735D01*
X-875902Y2154736D01*
X-876790Y2153737D01*
X-877678Y2152849D01*
X-878566Y2152072D01*
X-879343Y2151406D01*
X-880009Y2150962D01*
X-880453Y2150518D01*
X-880897Y2150185D01*
X-881119Y2150074D01*
X-881230Y2149963D01*
X-882784Y2149075D01*
X-884338Y2148298D01*
X-887668Y2147077D01*
X-890998Y2146189D01*
X-894217Y2145634D01*
X-895771Y2145412D01*
X-897103Y2145190D01*
X-898324Y2145079D01*
X-899323D01*
X-900211Y2144968D01*
X-901432D01*
X-903652Y2145079D01*
X-905761Y2145301D01*
X-907759Y2145523D01*
X-909646Y2145967D01*
X-911422Y2146522D01*
X-913087Y2147077D01*
X-914641Y2147632D01*
X-916084Y2148298D01*
X-917305Y2148853D01*
X-918526Y2149408D01*
X-919414Y2149963D01*
X-920302Y2150518D01*
X-920857Y2150962D01*
X-921412Y2151184D01*
X-921634Y2151406D01*
X-921745Y2151517D01*
X-923299Y2152849D01*
X-924631Y2154181D01*
X-925852Y2155735D01*
X-927073Y2157289D01*
X-929071Y2160397D01*
X-930625Y2163505D01*
X-931290Y2164948D01*
X-931845Y2166280D01*
X-932289Y2167501D01*
X-932622Y2168500D01*
X-932955Y2169388D01*
X-933177Y2170054D01*
X-933288Y2170498D01*
Y2170609D01*
X-923077Y2173162D01*
X-922633Y2171386D01*
X-922078Y2169721D01*
X-921523Y2168167D01*
X-920968Y2166724D01*
X-920302Y2165392D01*
X-919636Y2164282D01*
X-918859Y2163172D01*
X-918193Y2162173D01*
X-917638Y2161285D01*
X-916972Y2160619D01*
X-916417Y2159953D01*
X-915973Y2159398D01*
X-915529Y2159065D01*
X-915196Y2158732D01*
X-915085Y2158621D01*
X-914974Y2158510D01*
X-913864Y2157622D01*
X-912643Y2156956D01*
X-910201Y2155735D01*
X-907870Y2154847D01*
X-905539Y2154292D01*
X-903541Y2153848D01*
X-902764Y2153737D01*
X-901987D01*
X-901321Y2153626D01*
X-900544D01*
X-897991Y2153737D01*
X-895549Y2154181D01*
X-893329Y2154736D01*
X-891331Y2155402D01*
X-889777Y2156068D01*
X-889111Y2156401D01*
X-888556Y2156623D01*
X-888112Y2156845D01*
X-887779Y2157067D01*
X-887557Y2157178D01*
X-887446D01*
X-885337Y2158732D01*
X-883561Y2160397D01*
X-882007Y2162284D01*
X-880786Y2164060D01*
X-879787Y2165614D01*
X-879121Y2166946D01*
X-878899Y2167501D01*
X-878677Y2167834D01*
X-878566Y2168056D01*
Y2168167D01*
X-877678Y2171053D01*
X-877012Y2173939D01*
X-876457Y2176824D01*
X-876124Y2179488D01*
X-876013Y2180709D01*
X-875902Y2181819D01*
Y2182818D01*
X-875791Y2183595D01*
Y2184261D01*
Y2184816D01*
Y2185149D01*
Y2185260D01*
X-875902Y2188146D01*
X-876124Y2190810D01*
X-876568Y2193252D01*
X-877012Y2195472D01*
X-877345Y2197359D01*
X-877567Y2198136D01*
X-877789Y2198802D01*
X-877900Y2199357D01*
X-878011Y2199690D01*
X-878122Y2199912D01*
Y2200023D01*
X-879232Y2202576D01*
X-880453Y2204907D01*
X-881785Y2206794D01*
X-883228Y2208459D01*
X-884449Y2209791D01*
X-885448Y2210679D01*
X-886225Y2211234D01*
X-886336Y2211456D01*
X-886447D01*
X-888778Y2212899D01*
X-891331Y2214009D01*
X-893773Y2214786D01*
X-896104Y2215230D01*
X-898213Y2215563D01*
X-899101Y2215674D01*
X-899878D01*
X-900433Y2215785D01*
X-901321D01*
X-904096Y2215674D01*
X-906649Y2215230D01*
X-908758Y2214564D01*
X-910645Y2213898D01*
X-912088Y2213121D01*
X-913198Y2212566D01*
X-913864Y2212122D01*
X-914086Y2211900D01*
X-915862Y2210235D01*
X-917527Y2208348D01*
X-918859Y2206350D01*
X-919969Y2204352D01*
X-920857Y2202576D01*
X-921190Y2201688D01*
X-921412Y2201022D01*
X-921634Y2200467D01*
X-921856Y2200023D01*
X-921967Y2199801D01*
Y2199690D01*
X-931956Y2202021D01*
X-931290Y2204019D01*
X-930625Y2205795D01*
X-929737Y2207460D01*
X-928960Y2209125D01*
X-928072Y2210568D01*
X-927073Y2211900D01*
X-926185Y2213232D01*
X-925297Y2214342D01*
X-924409Y2215230D01*
X-923632Y2216118D01*
X-922855Y2216895D01*
X-922300Y2217450D01*
X-921745Y2218005D01*
X-921301Y2218338D01*
X-921079Y2218449D01*
X-920968Y2218560D01*
X-919414Y2219559D01*
X-917860Y2220558D01*
X-916306Y2221335D01*
X-914641Y2222001D01*
X-911311Y2223000D01*
X-908314Y2223666D01*
X-906871Y2223999D01*
X-905650Y2224110D01*
X-904429Y2224221D01*
X-903430Y2224332D01*
X-902653Y2224443D01*
X-901543D01*
X-897880Y2224221D01*
D02*
G37*
G36*
X-1331127Y2223333D02*
X-1329240Y2223222D01*
X-1327464Y2222889D01*
X-1325799Y2222556D01*
X-1324245Y2222112D01*
X-1322802Y2221668D01*
X-1321470Y2221113D01*
X-1320249Y2220558D01*
X-1319139Y2220003D01*
X-1318251Y2219448D01*
X-1317474Y2219004D01*
X-1316808Y2218560D01*
X-1316253Y2218227D01*
X-1315920Y2217894D01*
X-1315698Y2217783D01*
X-1315587Y2217672D01*
X-1314477Y2216562D01*
X-1313478Y2215341D01*
X-1312479Y2214009D01*
X-1311702Y2212677D01*
X-1310370Y2210013D01*
X-1309482Y2207349D01*
X-1309149Y2206128D01*
X-1308816Y2204907D01*
X-1308594Y2203908D01*
X-1308372Y2203020D01*
X-1308261Y2202243D01*
Y2201688D01*
X-1308150Y2201355D01*
Y2201244D01*
X-1317807Y2200245D01*
X-1318029Y2202798D01*
X-1318473Y2205018D01*
X-1319139Y2207016D01*
X-1319916Y2208570D01*
X-1320582Y2209902D01*
X-1321248Y2210790D01*
X-1321692Y2211345D01*
X-1321914Y2211567D01*
X-1323579Y2212899D01*
X-1325355Y2213898D01*
X-1327242Y2214675D01*
X-1328907Y2215119D01*
X-1330461Y2215452D01*
X-1331793Y2215563D01*
X-1332237Y2215674D01*
X-1332903D01*
X-1335234Y2215563D01*
X-1337343Y2215119D01*
X-1339119Y2214453D01*
X-1340673Y2213787D01*
X-1341894Y2213010D01*
X-1342671Y2212455D01*
X-1343226Y2212011D01*
X-1343448Y2211789D01*
X-1344780Y2210235D01*
X-1345779Y2208681D01*
X-1346556Y2207127D01*
X-1347000Y2205573D01*
X-1347333Y2204352D01*
X-1347444Y2203242D01*
X-1347555Y2202576D01*
Y2202465D01*
Y2202354D01*
X-1347333Y2200356D01*
X-1346889Y2198247D01*
X-1346112Y2196360D01*
X-1345335Y2194584D01*
X-1344447Y2193141D01*
X-1343670Y2191920D01*
X-1343448Y2191476D01*
X-1343226Y2191143D01*
X-1343004Y2191032D01*
Y2190921D01*
X-1342116Y2189700D01*
X-1341006Y2188479D01*
X-1339785Y2187147D01*
X-1338453Y2185815D01*
X-1335678Y2183151D01*
X-1332903Y2180487D01*
X-1331460Y2179266D01*
X-1330239Y2178156D01*
X-1329018Y2177157D01*
X-1328019Y2176269D01*
X-1327242Y2175603D01*
X-1326576Y2175048D01*
X-1326132Y2174715D01*
X-1326021Y2174604D01*
X-1323246Y2172274D01*
X-1320693Y2170054D01*
X-1318584Y2168056D01*
X-1316919Y2166391D01*
X-1315476Y2164948D01*
X-1314477Y2163949D01*
X-1313922Y2163283D01*
X-1313700Y2163172D01*
Y2163061D01*
X-1312146Y2161174D01*
X-1310925Y2159398D01*
X-1309815Y2157622D01*
X-1308927Y2156068D01*
X-1308261Y2154736D01*
X-1307817Y2153737D01*
X-1307595Y2153071D01*
X-1307484Y2152960D01*
Y2152849D01*
X-1307040Y2151628D01*
X-1306818Y2150518D01*
X-1306596Y2149408D01*
X-1306485Y2148409D01*
X-1306374Y2147521D01*
Y2146855D01*
Y2146411D01*
Y2146300D01*
X-1357322D01*
Y2155402D01*
X-1319472D01*
X-1320804Y2157289D01*
X-1321470Y2158066D01*
X-1322025Y2158843D01*
X-1322580Y2159509D01*
X-1323024Y2159953D01*
X-1323357Y2160286D01*
X-1323468Y2160397D01*
X-1324023Y2160952D01*
X-1324689Y2161507D01*
X-1326243Y2162950D01*
X-1328019Y2164615D01*
X-1329906Y2166280D01*
X-1331682Y2167723D01*
X-1332459Y2168389D01*
X-1333125Y2169055D01*
X-1333680Y2169499D01*
X-1334124Y2169832D01*
X-1334346Y2170054D01*
X-1334457Y2170165D01*
X-1336233Y2171719D01*
X-1338009Y2173162D01*
X-1339563Y2174604D01*
X-1341006Y2175825D01*
X-1342338Y2177046D01*
X-1343448Y2178156D01*
X-1344558Y2179155D01*
X-1345446Y2180043D01*
X-1346334Y2180931D01*
X-1347000Y2181597D01*
X-1347555Y2182152D01*
X-1348110Y2182707D01*
X-1348665Y2183373D01*
X-1348887Y2183595D01*
X-1350441Y2185482D01*
X-1351773Y2187147D01*
X-1352882Y2188812D01*
X-1353770Y2190144D01*
X-1354436Y2191365D01*
X-1354880Y2192253D01*
X-1355102Y2192808D01*
X-1355213Y2193030D01*
X-1355879Y2194695D01*
X-1356323Y2196360D01*
X-1356767Y2197914D01*
X-1356989Y2199246D01*
X-1357100Y2200467D01*
X-1357211Y2201355D01*
Y2201910D01*
Y2202132D01*
X-1357100Y2203797D01*
X-1356878Y2205351D01*
X-1356656Y2206905D01*
X-1356212Y2208237D01*
X-1355102Y2210901D01*
X-1353992Y2213010D01*
X-1353326Y2214009D01*
X-1352771Y2214786D01*
X-1352216Y2215563D01*
X-1351662Y2216118D01*
X-1351218Y2216562D01*
X-1350996Y2217006D01*
X-1350774Y2217117D01*
X-1350663Y2217228D01*
X-1349442Y2218338D01*
X-1348110Y2219337D01*
X-1346667Y2220114D01*
X-1345224Y2220780D01*
X-1342338Y2221890D01*
X-1339452Y2222667D01*
X-1338231Y2222889D01*
X-1337010Y2223111D01*
X-1335900Y2223222D01*
X-1335012Y2223333D01*
X-1334235Y2223444D01*
X-1333125D01*
X-1331127Y2223333D01*
D02*
G37*
G36*
X-1416822Y52521D02*
X-1413270Y51966D01*
X-1410163Y51300D01*
X-1408720Y50856D01*
X-1407388Y50412D01*
X-1406167Y49968D01*
X-1405057Y49524D01*
X-1404169Y49191D01*
X-1403281Y48858D01*
X-1402726Y48525D01*
X-1402282Y48303D01*
X-1401949Y48192D01*
X-1401838Y48081D01*
X-1398841Y46194D01*
X-1396288Y43974D01*
X-1394068Y41754D01*
X-1392181Y39534D01*
X-1390738Y37536D01*
X-1390183Y36648D01*
X-1389739Y35871D01*
X-1389295Y35316D01*
X-1389073Y34872D01*
X-1388962Y34539D01*
X-1388851Y34428D01*
X-1387297Y30987D01*
X-1386187Y27435D01*
X-1385410Y23883D01*
X-1384855Y20664D01*
X-1384633Y19221D01*
X-1384522Y17778D01*
X-1384411Y16668D01*
Y15558D01*
X-1384300Y14781D01*
Y14115D01*
Y13671D01*
Y13560D01*
X-1384522Y9564D01*
X-1384966Y5679D01*
X-1385521Y2239D01*
X-1385965Y574D01*
X-1386298Y-869D01*
X-1386631Y-2201D01*
X-1387075Y-3422D01*
X-1387408Y-4532D01*
X-1387630Y-5420D01*
X-1387963Y-6086D01*
X-1388074Y-6641D01*
X-1388296Y-6974D01*
Y-7085D01*
X-1389961Y-10415D01*
X-1391848Y-13412D01*
X-1393846Y-15965D01*
X-1394845Y-16964D01*
X-1395733Y-17963D01*
X-1396621Y-18851D01*
X-1397509Y-19628D01*
X-1398286Y-20294D01*
X-1398952Y-20738D01*
X-1399396Y-21182D01*
X-1399840Y-21515D01*
X-1400062Y-21626D01*
X-1400173Y-21737D01*
X-1401727Y-22625D01*
X-1403281Y-23402D01*
X-1406611Y-24623D01*
X-1409941Y-25511D01*
X-1413159Y-26066D01*
X-1414713Y-26288D01*
X-1416045Y-26510D01*
X-1417266Y-26621D01*
X-1418265D01*
X-1419153Y-26732D01*
X-1420374D01*
X-1422594Y-26621D01*
X-1424703Y-26399D01*
X-1426701Y-26177D01*
X-1428588Y-25733D01*
X-1430364Y-25178D01*
X-1432029Y-24623D01*
X-1433583Y-24068D01*
X-1435026Y-23402D01*
X-1436247Y-22847D01*
X-1437468Y-22292D01*
X-1438356Y-21737D01*
X-1439244Y-21182D01*
X-1439799Y-20738D01*
X-1440354Y-20516D01*
X-1440576Y-20294D01*
X-1440687Y-20183D01*
X-1442241Y-18851D01*
X-1443573Y-17519D01*
X-1444794Y-15965D01*
X-1446015Y-14411D01*
X-1448013Y-11303D01*
X-1449567Y-8195D01*
X-1450233Y-6752D01*
X-1450788Y-5420D01*
X-1451232Y-4199D01*
X-1451565Y-3200D01*
X-1451898Y-2312D01*
X-1452120Y-1646D01*
X-1452231Y-1202D01*
Y-1091D01*
X-1442019Y1462D01*
X-1441575Y-314D01*
X-1441020Y-1979D01*
X-1440465Y-3533D01*
X-1439910Y-4976D01*
X-1439244Y-6308D01*
X-1438578Y-7418D01*
X-1437801Y-8528D01*
X-1437135Y-9527D01*
X-1436580Y-10415D01*
X-1435914Y-11081D01*
X-1435359Y-11747D01*
X-1434915Y-12302D01*
X-1434471Y-12635D01*
X-1434138Y-12968D01*
X-1434027Y-13079D01*
X-1433916Y-13190D01*
X-1432806Y-14078D01*
X-1431585Y-14744D01*
X-1429143Y-15965D01*
X-1426812Y-16853D01*
X-1424481Y-17408D01*
X-1422483Y-17852D01*
X-1421706Y-17963D01*
X-1420929D01*
X-1420263Y-18074D01*
X-1419486D01*
X-1416933Y-17963D01*
X-1414491Y-17519D01*
X-1412271Y-16964D01*
X-1410274Y-16298D01*
X-1408720Y-15632D01*
X-1408054Y-15299D01*
X-1407499Y-15077D01*
X-1407055Y-14855D01*
X-1406722Y-14633D01*
X-1406500Y-14522D01*
X-1406389D01*
X-1404280Y-12968D01*
X-1402504Y-11303D01*
X-1400950Y-9416D01*
X-1399729Y-7640D01*
X-1398730Y-6086D01*
X-1398064Y-4754D01*
X-1397842Y-4199D01*
X-1397620Y-3866D01*
X-1397509Y-3644D01*
Y-3533D01*
X-1396621Y-647D01*
X-1395955Y2239D01*
X-1395400Y5124D01*
X-1395067Y7788D01*
X-1394956Y9009D01*
X-1394845Y10119D01*
Y11118D01*
X-1394734Y11895D01*
Y12561D01*
Y13116D01*
Y13449D01*
Y13560D01*
X-1394845Y16446D01*
X-1395067Y19110D01*
X-1395511Y21552D01*
X-1395955Y23772D01*
X-1396288Y25659D01*
X-1396510Y26436D01*
X-1396732Y27102D01*
X-1396843Y27657D01*
X-1396954Y27990D01*
X-1397065Y28212D01*
Y28323D01*
X-1398175Y30876D01*
X-1399396Y33207D01*
X-1400728Y35094D01*
X-1402171Y36759D01*
X-1403392Y38091D01*
X-1404391Y38979D01*
X-1405168Y39534D01*
X-1405279Y39756D01*
X-1405390D01*
X-1407721Y41199D01*
X-1410274Y42309D01*
X-1412715Y43086D01*
X-1415046Y43530D01*
X-1417155Y43863D01*
X-1418043Y43974D01*
X-1418820D01*
X-1419375Y44085D01*
X-1420263D01*
X-1423038Y43974D01*
X-1425591Y43530D01*
X-1427700Y42864D01*
X-1429587Y42198D01*
X-1431030Y41421D01*
X-1432140Y40866D01*
X-1432806Y40422D01*
X-1433028Y40200D01*
X-1434804Y38535D01*
X-1436469Y36648D01*
X-1437801Y34650D01*
X-1438911Y32652D01*
X-1439799Y30876D01*
X-1440132Y29988D01*
X-1440354Y29322D01*
X-1440576Y28767D01*
X-1440798Y28323D01*
X-1440909Y28101D01*
Y27990D01*
X-1450899Y30321D01*
X-1450233Y32319D01*
X-1449567Y34095D01*
X-1448679Y35760D01*
X-1447902Y37425D01*
X-1447014Y38868D01*
X-1446015Y40200D01*
X-1445127Y41532D01*
X-1444239Y42642D01*
X-1443351Y43530D01*
X-1442574Y44418D01*
X-1441797Y45195D01*
X-1441242Y45750D01*
X-1440687Y46305D01*
X-1440243Y46638D01*
X-1440021Y46749D01*
X-1439910Y46860D01*
X-1438356Y47859D01*
X-1436802Y48858D01*
X-1435248Y49635D01*
X-1433583Y50301D01*
X-1430253Y51300D01*
X-1427256Y51966D01*
X-1425813Y52299D01*
X-1424592Y52410D01*
X-1423371Y52521D01*
X-1422372Y52632D01*
X-1421595Y52743D01*
X-1420485D01*
X-1416822Y52521D01*
D02*
G37*
G36*
X445240Y102821D02*
X447127Y102599D01*
X449014Y102266D01*
X450790Y101822D01*
X452455Y101267D01*
X453898Y100712D01*
X455341Y100046D01*
X456562Y99380D01*
X457783Y98825D01*
X458782Y98159D01*
X459670Y97604D01*
X460336Y97049D01*
X460891Y96605D01*
X461335Y96272D01*
X461557Y96050D01*
X461668Y95939D01*
X463000Y94607D01*
X464110Y93164D01*
X465109Y91721D01*
X465997Y90278D01*
X466663Y88946D01*
X467329Y87503D01*
X468217Y84839D01*
X468439Y83618D01*
X468661Y82508D01*
X468883Y81509D01*
X468994Y80621D01*
X469105Y79955D01*
Y79400D01*
Y79067D01*
Y78956D01*
X468994Y76292D01*
X468550Y73850D01*
X467884Y71742D01*
X467218Y69966D01*
X466552Y68523D01*
X465886Y67413D01*
X465442Y66747D01*
X465331Y66525D01*
X463777Y64860D01*
X462112Y63417D01*
X460336Y62307D01*
X458560Y61419D01*
X457006Y60753D01*
X455785Y60309D01*
X455341Y60198D01*
X455008Y60087D01*
X454786Y59976D01*
X454675D01*
X456562Y58977D01*
X458116Y57978D01*
X459448Y56868D01*
X460558Y55869D01*
X461446Y54981D01*
X462112Y54204D01*
X462445Y53760D01*
X462556Y53538D01*
X463444Y51984D01*
X464110Y50430D01*
X464665Y48876D01*
X464998Y47433D01*
X465220Y46212D01*
X465331Y45324D01*
Y44658D01*
Y44436D01*
X465220Y42549D01*
X464887Y40662D01*
X464443Y38997D01*
X463888Y37554D01*
X463333Y36333D01*
X462889Y35334D01*
X462556Y34779D01*
X462445Y34557D01*
X461335Y32892D01*
X460003Y31449D01*
X458671Y30228D01*
X457339Y29118D01*
X456229Y28341D01*
X455230Y27675D01*
X454564Y27342D01*
X454453Y27231D01*
X454342D01*
X452344Y26343D01*
X450346Y25677D01*
X448348Y25122D01*
X446572Y24789D01*
X445129Y24567D01*
X443908Y24456D01*
X441133D01*
X439580Y24678D01*
X436583Y25233D01*
X434030Y26121D01*
X431810Y27009D01*
X430811Y27564D01*
X430034Y28008D01*
X429257Y28452D01*
X428702Y28896D01*
X428258Y29229D01*
X427925Y29451D01*
X427703Y29562D01*
X427592Y29673D01*
X425483Y31782D01*
X423818Y34113D01*
X422486Y36555D01*
X421376Y38997D01*
X420710Y41106D01*
X420377Y41994D01*
X420155Y42771D01*
X420044Y43437D01*
X419933Y43881D01*
X419822Y44214D01*
Y44325D01*
X429257Y45990D01*
X429701Y43548D01*
X430367Y41439D01*
X431144Y39663D01*
X431921Y38220D01*
X432698Y37110D01*
X433364Y36333D01*
X433808Y35778D01*
X433919Y35667D01*
X435362Y34557D01*
X436916Y33669D01*
X438359Y33114D01*
X439802Y32670D01*
X441133Y32448D01*
X442132Y32226D01*
X443020D01*
X445018Y32337D01*
X446794Y32781D01*
X448348Y33336D01*
X449680Y33891D01*
X450679Y34557D01*
X451456Y35112D01*
X452011Y35556D01*
X452122Y35667D01*
X453343Y36999D01*
X454231Y38442D01*
X454786Y39885D01*
X455230Y41217D01*
X455452Y42438D01*
X455674Y43326D01*
Y43992D01*
Y44103D01*
Y44214D01*
Y45435D01*
X455452Y46545D01*
X454897Y48432D01*
X454120Y50097D01*
X453232Y51540D01*
X452344Y52539D01*
X451567Y53316D01*
X451012Y53760D01*
X450901Y53871D01*
X450790D01*
X448903Y54870D01*
X447127Y55647D01*
X445240Y56202D01*
X443575Y56535D01*
X442132Y56757D01*
X440911Y56979D01*
X439469D01*
X439025Y56868D01*
X438470D01*
X437360Y65193D01*
X438803Y64860D01*
X440135Y64638D01*
X441244Y64416D01*
X442243Y64305D01*
X443020Y64194D01*
X444019D01*
X446350Y64416D01*
X448459Y64860D01*
X450346Y65526D01*
X451900Y66303D01*
X453121Y67080D01*
X454009Y67746D01*
X454564Y68190D01*
X454786Y68412D01*
X456229Y70077D01*
X457339Y71853D01*
X458116Y73629D01*
X458560Y75404D01*
X458893Y76847D01*
X459004Y78068D01*
X459115Y78512D01*
Y78845D01*
Y79067D01*
Y79178D01*
X458893Y81620D01*
X458338Y83840D01*
X457672Y85727D01*
X456784Y87392D01*
X455896Y88724D01*
X455230Y89723D01*
X454675Y90389D01*
X454453Y90611D01*
X452677Y92165D01*
X450790Y93275D01*
X448903Y94052D01*
X447127Y94607D01*
X445573Y94940D01*
X444352Y95051D01*
X443908Y95162D01*
X443242D01*
X441244Y95051D01*
X439358Y94607D01*
X437693Y94052D01*
X436361Y93386D01*
X435251Y92831D01*
X434363Y92276D01*
X433919Y91832D01*
X433697Y91721D01*
X432365Y90167D01*
X431255Y88391D01*
X430256Y86504D01*
X429479Y84506D01*
X428924Y82841D01*
X428702Y82064D01*
X428591Y81398D01*
X428480Y80843D01*
X428369Y80399D01*
X428258Y80177D01*
Y80066D01*
X418823Y81287D01*
X419045Y83063D01*
X419378Y84728D01*
X420377Y87836D01*
X421598Y90500D01*
X422264Y91610D01*
X422930Y92720D01*
X423596Y93719D01*
X424262Y94496D01*
X424817Y95273D01*
X425372Y95828D01*
X425705Y96272D01*
X426038Y96605D01*
X426260Y96827D01*
X426371Y96938D01*
X427703Y97937D01*
X429035Y98936D01*
X430367Y99713D01*
X431810Y100379D01*
X434585Y101489D01*
X437249Y102155D01*
X438470Y102377D01*
X439580Y102599D01*
X440578Y102710D01*
X441466Y102821D01*
X442132Y102932D01*
X443131D01*
X445240Y102821D01*
D02*
G37*
G36*
X297835Y101489D02*
X300166Y101378D01*
X302275Y101156D01*
X304051Y100934D01*
X305605Y100712D01*
X306715Y100601D01*
X307048Y100490D01*
X307381Y100379D01*
X307603D01*
X309601Y99824D01*
X311377Y99158D01*
X312931Y98603D01*
X314263Y97937D01*
X315373Y97382D01*
X316150Y96938D01*
X316594Y96605D01*
X316816Y96494D01*
X318259Y95495D01*
X319480Y94274D01*
X320701Y93164D01*
X321700Y92054D01*
X322588Y91055D01*
X323254Y90278D01*
X323698Y89723D01*
X323809Y89501D01*
X324919Y87725D01*
X326029Y85838D01*
X326917Y84062D01*
X327583Y82286D01*
X328249Y80732D01*
X328693Y79511D01*
X328804Y79067D01*
X328915Y78734D01*
X329026Y78512D01*
Y78401D01*
X329691Y75737D01*
X330246Y73074D01*
X330579Y70521D01*
X330912Y68079D01*
X331023Y65970D01*
Y65082D01*
X331134Y64305D01*
Y63750D01*
Y63195D01*
Y62973D01*
Y62862D01*
X331023Y59088D01*
X330690Y55647D01*
X330135Y52539D01*
X329913Y51096D01*
X329580Y49875D01*
X329248Y48654D01*
X329026Y47655D01*
X328804Y46767D01*
X328471Y45990D01*
X328360Y45324D01*
X328138Y44880D01*
X328027Y44658D01*
Y44547D01*
X326806Y41661D01*
X325363Y39108D01*
X323809Y36888D01*
X322366Y35001D01*
X321034Y33447D01*
X319924Y32337D01*
X319480Y32004D01*
X319147Y31671D01*
X319036Y31560D01*
X318925Y31449D01*
X317149Y30006D01*
X315262Y28896D01*
X313375Y27897D01*
X311599Y27120D01*
X310045Y26565D01*
X308824Y26232D01*
X308380Y26010D01*
X308047D01*
X307825Y25899D01*
X307714D01*
X305827Y25566D01*
X303607Y25233D01*
X301387Y25011D01*
X299167Y24900D01*
X297169Y24789D01*
X267644D01*
Y101600D01*
X295282D01*
X297835Y101489D01*
D02*
G37*
G36*
X399509Y80732D02*
X397955Y78512D01*
X396512Y76514D01*
X395069Y74849D01*
X393848Y73296D01*
X392738Y72186D01*
X391850Y71298D01*
X391295Y70743D01*
X391073Y70521D01*
X390185Y69855D01*
X389186Y69078D01*
X387188Y67857D01*
X386300Y67413D01*
X385634Y66969D01*
X385190Y66747D01*
X384968Y66636D01*
X386966Y66303D01*
X388853Y65970D01*
X390518Y65415D01*
X392183Y64971D01*
X393626Y64416D01*
X394958Y63750D01*
X396179Y63195D01*
X397289Y62640D01*
X398177Y61974D01*
X399065Y61419D01*
X399731Y60975D01*
X400286Y60531D01*
X400730Y60198D01*
X401063Y59865D01*
X401174Y59754D01*
X401285Y59643D01*
X402173Y58533D01*
X403061Y57423D01*
X404393Y55092D01*
X405281Y52761D01*
X405947Y50541D01*
X406391Y48654D01*
X406502Y47877D01*
Y47100D01*
X406613Y46545D01*
Y46101D01*
Y45879D01*
Y45768D01*
X406502Y43437D01*
X406169Y41328D01*
X405614Y39330D01*
X405059Y37665D01*
X404393Y36222D01*
X403949Y35112D01*
X403505Y34446D01*
X403394Y34335D01*
Y34224D01*
X402062Y32448D01*
X400730Y30894D01*
X399287Y29562D01*
X397955Y28563D01*
X396734Y27786D01*
X395735Y27342D01*
X395069Y27009D01*
X394958Y26898D01*
X394847D01*
X393848Y26565D01*
X392627Y26232D01*
X390185Y25677D01*
X387521Y25344D01*
X385079Y25011D01*
X382749Y24900D01*
X381750D01*
X380862Y24789D01*
X345231D01*
Y101600D01*
X355443D01*
Y67524D01*
X368541D01*
X369762Y67635D01*
X370650D01*
X371427Y67746D01*
X371982Y67857D01*
X372426D01*
X372648Y67968D01*
X372759D01*
X374535Y68523D01*
X375312Y68856D01*
X375978Y69189D01*
X376644Y69522D01*
X377088Y69744D01*
X377310Y69855D01*
X377421Y69966D01*
X378309Y70632D01*
X379197Y71409D01*
X380862Y73074D01*
X381639Y73850D01*
X382194Y74516D01*
X382527Y74960D01*
X382638Y75071D01*
X383748Y76625D01*
X384968Y78290D01*
X386189Y80066D01*
X387410Y81731D01*
X388409Y83285D01*
X389186Y84506D01*
X389519Y84950D01*
X389741Y85283D01*
X389963Y85505D01*
Y85616D01*
X400064Y101600D01*
X412718D01*
X399509Y80732D01*
D02*
G37*
G36*
X250661Y24789D02*
X240449D01*
Y56313D01*
X200712D01*
Y24789D01*
X190500D01*
Y101600D01*
X200712D01*
Y65415D01*
X240449D01*
Y101600D01*
X250661D01*
Y24789D01*
D02*
G37*
G36*
X835518Y1676289D02*
X837515Y1676178D01*
X839402Y1675956D01*
X841067Y1675734D01*
X842621Y1675512D01*
X844064Y1675179D01*
X845396Y1674957D01*
X846617Y1674735D01*
X847616Y1674402D01*
X848504Y1674180D01*
X849170Y1673958D01*
X849725Y1673736D01*
X850169Y1673625D01*
X850391Y1673514D01*
X850502D01*
X852944Y1672293D01*
X855164Y1670739D01*
X856940Y1669185D01*
X858494Y1667520D01*
X859715Y1666077D01*
X860603Y1664856D01*
X860825Y1664412D01*
X861047Y1664079D01*
X861269Y1663857D01*
Y1663746D01*
X862490Y1660971D01*
X863378Y1658085D01*
X864044Y1655088D01*
X864488Y1652313D01*
X864599Y1651092D01*
X864710Y1649871D01*
X864821Y1648761D01*
Y1647874D01*
X864932Y1647097D01*
Y1646542D01*
Y1646209D01*
Y1646098D01*
X864710Y1642102D01*
X864488Y1640326D01*
X864266Y1638661D01*
X863933Y1636996D01*
X863600Y1635553D01*
X863267Y1634221D01*
X862823Y1633000D01*
X862379Y1631890D01*
X862046Y1631002D01*
X861713Y1630114D01*
X861380Y1629448D01*
X861047Y1628893D01*
X860936Y1628560D01*
X860714Y1628338D01*
Y1628227D01*
X859049Y1625785D01*
X857162Y1623787D01*
X855386Y1622233D01*
X853610Y1620901D01*
X852056Y1619902D01*
X850835Y1619236D01*
X850391Y1619014D01*
X850058Y1618792D01*
X849836Y1618681D01*
X849725D01*
X848393Y1618237D01*
X846950Y1617793D01*
X843953Y1617127D01*
X840845Y1616683D01*
X837848Y1616350D01*
X836516Y1616239D01*
X835185Y1616128D01*
X834075D01*
X833076Y1616017D01*
X786789D01*
Y1626229D01*
X833742D01*
X836183Y1626451D01*
X838292Y1626673D01*
X840290Y1627006D01*
X842066Y1627339D01*
X843731Y1627783D01*
X845174Y1628116D01*
X846395Y1628560D01*
X847394Y1629004D01*
X848393Y1629448D01*
X849059Y1629892D01*
X849725Y1630225D01*
X850169Y1630558D01*
X850502Y1630780D01*
X850613Y1630891D01*
X850724Y1631002D01*
X851612Y1632001D01*
X852389Y1633111D01*
X853610Y1635553D01*
X854498Y1638106D01*
X855053Y1640770D01*
X855497Y1643212D01*
X855608Y1644211D01*
Y1645210D01*
X855719Y1645876D01*
Y1646542D01*
Y1646875D01*
Y1646986D01*
X855608Y1649316D01*
X855275Y1651425D01*
X854942Y1653423D01*
X854387Y1654977D01*
X853943Y1656309D01*
X853610Y1657308D01*
X853277Y1657863D01*
X853166Y1658085D01*
X852167Y1659639D01*
X850946Y1660971D01*
X849725Y1662081D01*
X848615Y1662858D01*
X847505Y1663524D01*
X846728Y1664079D01*
X846173Y1664301D01*
X845951Y1664412D01*
X844952Y1664745D01*
X843953Y1664967D01*
X841622Y1665411D01*
X839180Y1665744D01*
X836738Y1665966D01*
X834630Y1666077D01*
X833631D01*
X832854Y1666188D01*
X786789D01*
Y1676400D01*
X833409D01*
X835518Y1676289D01*
D02*
G37*
G36*
X863600Y1553303D02*
X854498D01*
Y1591154D01*
X852611Y1589822D01*
X851834Y1589156D01*
X851057Y1588601D01*
X850391Y1588046D01*
X849947Y1587602D01*
X849614Y1587269D01*
X849503Y1587158D01*
X848948Y1586603D01*
X848393Y1585937D01*
X846950Y1584383D01*
X845285Y1582607D01*
X843620Y1580720D01*
X842177Y1578944D01*
X841511Y1578167D01*
X840845Y1577501D01*
X840401Y1576946D01*
X840068Y1576502D01*
X839846Y1576280D01*
X839735Y1576169D01*
X838181Y1574393D01*
X836738Y1572617D01*
X835296Y1571063D01*
X834075Y1569620D01*
X832854Y1568288D01*
X831744Y1567178D01*
X830745Y1566068D01*
X829857Y1565180D01*
X828969Y1564292D01*
X828303Y1563626D01*
X827748Y1563071D01*
X827193Y1562516D01*
X826527Y1561961D01*
X826305Y1561739D01*
X824418Y1560185D01*
X822753Y1558853D01*
X821088Y1557743D01*
X819756Y1556855D01*
X818535Y1556189D01*
X817647Y1555745D01*
X817092Y1555523D01*
X816870Y1555412D01*
X815205Y1554746D01*
X813540Y1554302D01*
X811986Y1553858D01*
X810654Y1553636D01*
X809433Y1553525D01*
X808545Y1553414D01*
X807768D01*
X806103Y1553525D01*
X804549Y1553747D01*
X802995Y1553969D01*
X801663Y1554413D01*
X798999Y1555523D01*
X796890Y1556633D01*
X795891Y1557299D01*
X795114Y1557854D01*
X794337Y1558409D01*
X793782Y1558964D01*
X793338Y1559408D01*
X792894Y1559630D01*
X792783Y1559852D01*
X792672Y1559963D01*
X791562Y1561184D01*
X790563Y1562516D01*
X789786Y1563959D01*
X789120Y1565402D01*
X788010Y1568288D01*
X787233Y1571174D01*
X787011Y1572395D01*
X786789Y1573616D01*
X786678Y1574726D01*
X786567Y1575614D01*
X786456Y1576391D01*
Y1577057D01*
Y1577390D01*
Y1577501D01*
X786567Y1579499D01*
X786678Y1581386D01*
X787011Y1583162D01*
X787344Y1584827D01*
X787788Y1586381D01*
X788232Y1587824D01*
X788787Y1589156D01*
X789342Y1590377D01*
X789897Y1591487D01*
X790452Y1592375D01*
X790896Y1593151D01*
X791340Y1593817D01*
X791673Y1594372D01*
X792006Y1594705D01*
X792117Y1594927D01*
X792228Y1595038D01*
X793338Y1596148D01*
X794559Y1597147D01*
X795891Y1598146D01*
X797223Y1598923D01*
X799887Y1600255D01*
X802551Y1601143D01*
X803772Y1601476D01*
X804993Y1601809D01*
X805992Y1602031D01*
X806880Y1602253D01*
X807657Y1602364D01*
X808212D01*
X808545Y1602475D01*
X808656D01*
X809655Y1592819D01*
X807102Y1592597D01*
X804882Y1592153D01*
X802884Y1591487D01*
X801330Y1590710D01*
X799998Y1590044D01*
X799110Y1589378D01*
X798555Y1588934D01*
X798333Y1588712D01*
X797001Y1587047D01*
X796002Y1585271D01*
X795225Y1583384D01*
X794781Y1581719D01*
X794448Y1580165D01*
X794337Y1578833D01*
X794226Y1578389D01*
Y1578056D01*
Y1577834D01*
Y1577723D01*
X794337Y1575392D01*
X794781Y1573283D01*
X795447Y1571507D01*
X796113Y1569953D01*
X796890Y1568732D01*
X797445Y1567955D01*
X797889Y1567400D01*
X798111Y1567178D01*
X799665Y1565846D01*
X801219Y1564847D01*
X802773Y1564070D01*
X804327Y1563626D01*
X805548Y1563293D01*
X806658Y1563182D01*
X807324Y1563071D01*
X807546D01*
X809544Y1563293D01*
X811653Y1563737D01*
X813540Y1564514D01*
X815316Y1565291D01*
X816759Y1566179D01*
X817980Y1566956D01*
X818424Y1567178D01*
X818757Y1567400D01*
X818868Y1567622D01*
X818979D01*
X820200Y1568510D01*
X821421Y1569620D01*
X822753Y1570841D01*
X824085Y1572173D01*
X826749Y1574948D01*
X829413Y1577723D01*
X830634Y1579166D01*
X831744Y1580387D01*
X832743Y1581608D01*
X833631Y1582607D01*
X834297Y1583384D01*
X834852Y1584050D01*
X835185Y1584494D01*
X835296Y1584605D01*
X837626Y1587380D01*
X839846Y1589933D01*
X841844Y1592042D01*
X843509Y1593706D01*
X844952Y1595149D01*
X845951Y1596148D01*
X846617Y1596703D01*
X846728Y1596925D01*
X846839D01*
X848726Y1598479D01*
X850502Y1599700D01*
X852278Y1600810D01*
X853832Y1601698D01*
X855164Y1602364D01*
X856163Y1602808D01*
X856829Y1603030D01*
X856940Y1603141D01*
X857051D01*
X858272Y1603585D01*
X859382Y1603807D01*
X860492Y1604029D01*
X861491Y1604140D01*
X862379Y1604251D01*
X863600D01*
Y1553303D01*
D02*
G37*
G36*
X-1138288Y1852382D02*
X-1135291Y1851827D01*
X-1132738Y1850939D01*
X-1130518Y1850051D01*
X-1129519Y1849496D01*
X-1128742Y1849052D01*
X-1127965Y1848608D01*
X-1127410Y1848164D01*
X-1126967Y1847831D01*
X-1126634Y1847609D01*
X-1126412Y1847498D01*
X-1126301Y1847387D01*
X-1124192Y1845278D01*
X-1122527Y1842947D01*
X-1121195Y1840505D01*
X-1120085Y1838063D01*
X-1119419Y1835954D01*
X-1119086Y1835066D01*
X-1118864Y1834289D01*
X-1118753Y1833623D01*
X-1118642Y1833179D01*
X-1118531Y1832846D01*
Y1832735D01*
X-1127965Y1831070D01*
X-1128409Y1833512D01*
X-1129075Y1835621D01*
X-1129852Y1837397D01*
X-1130629Y1838840D01*
X-1131406Y1839950D01*
X-1132072Y1840727D01*
X-1132516Y1841282D01*
X-1132627Y1841393D01*
X-1134070Y1842503D01*
X-1135624Y1843391D01*
X-1137067Y1843946D01*
X-1138510Y1844390D01*
X-1139842Y1844612D01*
X-1140841Y1844834D01*
X-1141729D01*
X-1143727Y1844723D01*
X-1145503Y1844279D01*
X-1147057Y1843724D01*
X-1148389Y1843169D01*
X-1149388Y1842503D01*
X-1150165Y1841948D01*
X-1150720Y1841504D01*
X-1150831Y1841393D01*
X-1152052Y1840061D01*
X-1152940Y1838618D01*
X-1153495Y1837175D01*
X-1153939Y1835843D01*
X-1154161Y1834622D01*
X-1154383Y1833734D01*
Y1833068D01*
Y1832957D01*
Y1832846D01*
Y1831625D01*
X-1154161Y1830515D01*
X-1153606Y1828628D01*
X-1152829Y1826963D01*
X-1151941Y1825520D01*
X-1151053Y1824521D01*
X-1150276Y1823744D01*
X-1149721Y1823300D01*
X-1149610Y1823189D01*
X-1149499D01*
X-1147612Y1822190D01*
X-1145836Y1821413D01*
X-1143949Y1820858D01*
X-1142284Y1820525D01*
X-1140841Y1820303D01*
X-1139620Y1820081D01*
X-1138177D01*
X-1137733Y1820192D01*
X-1137178D01*
X-1136068Y1811867D01*
X-1137511Y1812200D01*
X-1138843Y1812422D01*
X-1139953Y1812644D01*
X-1140952Y1812755D01*
X-1141729Y1812866D01*
X-1142728D01*
X-1145059Y1812644D01*
X-1147168Y1812200D01*
X-1149055Y1811534D01*
X-1150609Y1810757D01*
X-1151830Y1809980D01*
X-1152718Y1809314D01*
X-1153273Y1808870D01*
X-1153495Y1808648D01*
X-1154938Y1806983D01*
X-1156048Y1805207D01*
X-1156825Y1803431D01*
X-1157269Y1801656D01*
X-1157602Y1800213D01*
X-1157713Y1798992D01*
X-1157824Y1798548D01*
Y1798215D01*
Y1797993D01*
Y1797882D01*
X-1157602Y1795440D01*
X-1157047Y1793220D01*
X-1156381Y1791333D01*
X-1155493Y1789668D01*
X-1154605Y1788336D01*
X-1153939Y1787337D01*
X-1153384Y1786671D01*
X-1153162Y1786449D01*
X-1151386Y1784895D01*
X-1149499Y1783785D01*
X-1147612Y1783008D01*
X-1145836Y1782453D01*
X-1144282Y1782120D01*
X-1143061Y1782009D01*
X-1142617Y1781898D01*
X-1141951D01*
X-1139953Y1782009D01*
X-1138066Y1782453D01*
X-1136401Y1783008D01*
X-1135069Y1783674D01*
X-1133959Y1784229D01*
X-1133071Y1784784D01*
X-1132627Y1785228D01*
X-1132405Y1785339D01*
X-1131073Y1786893D01*
X-1129963Y1788669D01*
X-1128964Y1790556D01*
X-1128187Y1792554D01*
X-1127632Y1794219D01*
X-1127410Y1794996D01*
X-1127299Y1795662D01*
X-1127188Y1796217D01*
X-1127078Y1796661D01*
X-1126967Y1796883D01*
Y1796994D01*
X-1117532Y1795773D01*
X-1117754Y1793997D01*
X-1118087Y1792332D01*
X-1119086Y1789224D01*
X-1120307Y1786560D01*
X-1120973Y1785450D01*
X-1121639Y1784340D01*
X-1122305Y1783341D01*
X-1122971Y1782564D01*
X-1123526Y1781787D01*
X-1124081Y1781232D01*
X-1124414Y1780788D01*
X-1124747Y1780455D01*
X-1124969Y1780233D01*
X-1125080Y1780122D01*
X-1126412Y1779123D01*
X-1127743Y1778124D01*
X-1129075Y1777347D01*
X-1130518Y1776681D01*
X-1133293Y1775571D01*
X-1135957Y1774905D01*
X-1137178Y1774683D01*
X-1138288Y1774461D01*
X-1139287Y1774350D01*
X-1140175Y1774239D01*
X-1140841Y1774128D01*
X-1141840D01*
X-1143949Y1774239D01*
X-1145836Y1774461D01*
X-1147723Y1774794D01*
X-1149499Y1775238D01*
X-1151164Y1775793D01*
X-1152607Y1776348D01*
X-1154050Y1777014D01*
X-1155271Y1777680D01*
X-1156492Y1778235D01*
X-1157491Y1778901D01*
X-1158379Y1779456D01*
X-1159045Y1780011D01*
X-1159600Y1780455D01*
X-1160044Y1780788D01*
X-1160266Y1781010D01*
X-1160377Y1781121D01*
X-1161709Y1782453D01*
X-1162819Y1783896D01*
X-1163818Y1785339D01*
X-1164706Y1786782D01*
X-1165372Y1788114D01*
X-1166038Y1789557D01*
X-1166926Y1792221D01*
X-1167148Y1793442D01*
X-1167370Y1794552D01*
X-1167592Y1795551D01*
X-1167703Y1796439D01*
X-1167814Y1797105D01*
Y1797660D01*
Y1797993D01*
Y1798104D01*
X-1167703Y1800768D01*
X-1167259Y1803209D01*
X-1166593Y1805318D01*
X-1165927Y1807094D01*
X-1165261Y1808537D01*
X-1164595Y1809647D01*
X-1164151Y1810313D01*
X-1164040Y1810535D01*
X-1162486Y1812200D01*
X-1160821Y1813643D01*
X-1159045Y1814753D01*
X-1157269Y1815641D01*
X-1155715Y1816307D01*
X-1154494Y1816751D01*
X-1154050Y1816862D01*
X-1153717Y1816973D01*
X-1153495Y1817084D01*
X-1153384D01*
X-1155271Y1818083D01*
X-1156825Y1819082D01*
X-1158157Y1820192D01*
X-1159267Y1821191D01*
X-1160155Y1822079D01*
X-1160821Y1822856D01*
X-1161154Y1823300D01*
X-1161265Y1823522D01*
X-1162153Y1825076D01*
X-1162819Y1826630D01*
X-1163374Y1828184D01*
X-1163707Y1829627D01*
X-1163929Y1830848D01*
X-1164040Y1831736D01*
Y1832402D01*
Y1832624D01*
X-1163929Y1834511D01*
X-1163596Y1836398D01*
X-1163152Y1838063D01*
X-1162597Y1839506D01*
X-1162042Y1840727D01*
X-1161598Y1841726D01*
X-1161265Y1842281D01*
X-1161154Y1842503D01*
X-1160044Y1844168D01*
X-1158712Y1845611D01*
X-1157380Y1846832D01*
X-1156048Y1847942D01*
X-1154938Y1848719D01*
X-1153939Y1849385D01*
X-1153273Y1849718D01*
X-1153162Y1849829D01*
X-1153051D01*
X-1151053Y1850717D01*
X-1149055Y1851383D01*
X-1147057Y1851938D01*
X-1145281Y1852271D01*
X-1143838Y1852493D01*
X-1142617Y1852604D01*
X-1139842D01*
X-1138288Y1852382D01*
D02*
G37*
G36*
X-1043940Y1807871D02*
Y1805651D01*
X-1044051Y1803542D01*
X-1044162Y1801545D01*
X-1044384Y1799658D01*
X-1044606Y1797993D01*
X-1044828Y1796439D01*
X-1045161Y1794996D01*
X-1045383Y1793664D01*
X-1045605Y1792443D01*
X-1045938Y1791444D01*
X-1046160Y1790556D01*
X-1046382Y1789890D01*
X-1046604Y1789335D01*
X-1046715Y1788891D01*
X-1046826Y1788669D01*
Y1788558D01*
X-1048047Y1786116D01*
X-1049601Y1783896D01*
X-1051155Y1782120D01*
X-1052820Y1780566D01*
X-1054263Y1779345D01*
X-1055484Y1778457D01*
X-1055928Y1778235D01*
X-1056261Y1778013D01*
X-1056483Y1777791D01*
X-1056594D01*
X-1059369Y1776570D01*
X-1062255Y1775682D01*
X-1065252Y1775016D01*
X-1068027Y1774572D01*
X-1069248Y1774461D01*
X-1070469Y1774350D01*
X-1071579Y1774239D01*
X-1072466D01*
X-1073243Y1774128D01*
X-1074242D01*
X-1078238Y1774350D01*
X-1080014Y1774572D01*
X-1081679Y1774794D01*
X-1083344Y1775127D01*
X-1084787Y1775460D01*
X-1086119Y1775793D01*
X-1087340Y1776237D01*
X-1088450Y1776681D01*
X-1089338Y1777014D01*
X-1090226Y1777347D01*
X-1090892Y1777680D01*
X-1091447Y1778013D01*
X-1091780Y1778124D01*
X-1092002Y1778346D01*
X-1092113D01*
X-1094555Y1780011D01*
X-1096553Y1781898D01*
X-1098107Y1783674D01*
X-1099439Y1785450D01*
X-1100438Y1787004D01*
X-1101104Y1788225D01*
X-1101326Y1788669D01*
X-1101548Y1789002D01*
X-1101659Y1789224D01*
Y1789335D01*
X-1102103Y1790667D01*
X-1102547Y1792110D01*
X-1103213Y1795107D01*
X-1103657Y1798215D01*
X-1103990Y1801212D01*
X-1104101Y1802544D01*
X-1104212Y1803875D01*
Y1804985D01*
X-1104323Y1805984D01*
Y1806761D01*
Y1807316D01*
Y1807760D01*
Y1807871D01*
Y1852271D01*
X-1094111D01*
Y1807871D01*
Y1805318D01*
X-1093889Y1802877D01*
X-1093667Y1800768D01*
X-1093334Y1798770D01*
X-1093001Y1796994D01*
X-1092557Y1795329D01*
X-1092224Y1793886D01*
X-1091780Y1792665D01*
X-1091336Y1791666D01*
X-1090892Y1790667D01*
X-1090448Y1790001D01*
X-1090115Y1789335D01*
X-1089782Y1788891D01*
X-1089560Y1788558D01*
X-1089449Y1788447D01*
X-1089338Y1788336D01*
X-1088339Y1787448D01*
X-1087229Y1786671D01*
X-1084787Y1785450D01*
X-1082234Y1784562D01*
X-1079570Y1784007D01*
X-1077128Y1783563D01*
X-1076129Y1783452D01*
X-1075130D01*
X-1074464Y1783341D01*
X-1073354D01*
X-1071024Y1783452D01*
X-1068915Y1783785D01*
X-1066917Y1784118D01*
X-1065363Y1784673D01*
X-1064031Y1785117D01*
X-1063032Y1785450D01*
X-1062477Y1785783D01*
X-1062255Y1785894D01*
X-1060701Y1786893D01*
X-1059369Y1788114D01*
X-1058259Y1789335D01*
X-1057482Y1790445D01*
X-1056816Y1791555D01*
X-1056261Y1792332D01*
X-1056039Y1792887D01*
X-1055928Y1793109D01*
X-1055595Y1794108D01*
X-1055373Y1795107D01*
X-1054929Y1797438D01*
X-1054596Y1799880D01*
X-1054374Y1802322D01*
X-1054263Y1804430D01*
Y1805429D01*
X-1054152Y1806206D01*
Y1806872D01*
Y1807427D01*
Y1807760D01*
Y1807871D01*
Y1852271D01*
X-1043940D01*
Y1807871D01*
D02*
G37*
G36*
X-937445Y62557D02*
X-936224Y60781D01*
X-934781Y59005D01*
X-933449Y57451D01*
X-932117Y56119D01*
X-931118Y55009D01*
X-930674Y54676D01*
X-930341Y54343D01*
X-930230Y54232D01*
X-930119Y54121D01*
X-927788Y52234D01*
X-925457Y50458D01*
X-923237Y48904D01*
X-921017Y47683D01*
X-919130Y46573D01*
X-918354Y46129D01*
X-917688Y45796D01*
X-917133Y45463D01*
X-916689Y45352D01*
X-916467Y45130D01*
X-916356D01*
Y36028D01*
X-918021Y36694D01*
X-919685Y37471D01*
X-921350Y38248D01*
X-922904Y39025D01*
X-924236Y39691D01*
X-925346Y40246D01*
X-926012Y40690D01*
X-926123Y40801D01*
X-926234D01*
X-928232Y42022D01*
X-930008Y43243D01*
X-931562Y44353D01*
X-932783Y45352D01*
X-933893Y46129D01*
X-934559Y46795D01*
X-935114Y47239D01*
X-935225Y47350D01*
Y-12700D01*
X-944660D01*
Y64444D01*
X-938555D01*
X-937445Y62557D01*
D02*
G37*
G36*
X294930Y1766984D02*
Y1758326D01*
X261520D01*
Y1739900D01*
X252085D01*
Y1758326D01*
X241651D01*
Y1766984D01*
X252085D01*
Y1816711D01*
X259744D01*
X294930Y1766984D01*
D02*
G37*
G36*
X-962814Y2223222D02*
X-959817Y2222667D01*
X-957264Y2221779D01*
X-955044Y2220891D01*
X-954045Y2220336D01*
X-953268Y2219892D01*
X-952491Y2219448D01*
X-951936Y2219004D01*
X-951492Y2218671D01*
X-951159Y2218449D01*
X-950937Y2218338D01*
X-950826Y2218227D01*
X-948717Y2216118D01*
X-947052Y2213787D01*
X-945720Y2211345D01*
X-944610Y2208903D01*
X-943944Y2206794D01*
X-943611Y2205906D01*
X-943389Y2205129D01*
X-943278Y2204463D01*
X-943167Y2204019D01*
X-943056Y2203686D01*
Y2203575D01*
X-952491Y2201910D01*
X-952935Y2204352D01*
X-953601Y2206461D01*
X-954378Y2208237D01*
X-955155Y2209680D01*
X-955932Y2210790D01*
X-956598Y2211567D01*
X-957042Y2212122D01*
X-957153Y2212233D01*
X-958596Y2213343D01*
X-960150Y2214231D01*
X-961593Y2214786D01*
X-963036Y2215230D01*
X-964368Y2215452D01*
X-965367Y2215674D01*
X-966255D01*
X-968253Y2215563D01*
X-970029Y2215119D01*
X-971583Y2214564D01*
X-972915Y2214009D01*
X-973914Y2213343D01*
X-974691Y2212788D01*
X-975246Y2212344D01*
X-975357Y2212233D01*
X-976578Y2210901D01*
X-977466Y2209458D01*
X-978021Y2208015D01*
X-978465Y2206683D01*
X-978687Y2205462D01*
X-978909Y2204574D01*
Y2203908D01*
Y2203797D01*
Y2203686D01*
Y2202465D01*
X-978687Y2201355D01*
X-978132Y2199468D01*
X-977355Y2197803D01*
X-976467Y2196360D01*
X-975579Y2195361D01*
X-974802Y2194584D01*
X-974247Y2194140D01*
X-974136Y2194029D01*
X-974025D01*
X-972138Y2193030D01*
X-970362Y2192253D01*
X-968475Y2191698D01*
X-966810Y2191365D01*
X-965367Y2191143D01*
X-964146Y2190921D01*
X-962703D01*
X-962259Y2191032D01*
X-961704D01*
X-960594Y2182707D01*
X-962037Y2183040D01*
X-963369Y2183262D01*
X-964479Y2183484D01*
X-965478Y2183595D01*
X-966255Y2183706D01*
X-967254D01*
X-969585Y2183484D01*
X-971694Y2183040D01*
X-973581Y2182374D01*
X-975135Y2181597D01*
X-976356Y2180820D01*
X-977244Y2180154D01*
X-977799Y2179710D01*
X-978021Y2179488D01*
X-979464Y2177823D01*
X-980574Y2176047D01*
X-981351Y2174271D01*
X-981795Y2172496D01*
X-982128Y2171053D01*
X-982239Y2169832D01*
X-982350Y2169388D01*
Y2169055D01*
Y2168833D01*
Y2168722D01*
X-982128Y2166280D01*
X-981573Y2164060D01*
X-980907Y2162173D01*
X-980019Y2160508D01*
X-979131Y2159176D01*
X-978465Y2158177D01*
X-977910Y2157511D01*
X-977688Y2157289D01*
X-975912Y2155735D01*
X-974025Y2154625D01*
X-972138Y2153848D01*
X-970362Y2153293D01*
X-968808Y2152960D01*
X-967587Y2152849D01*
X-967143Y2152738D01*
X-966477D01*
X-964479Y2152849D01*
X-962592Y2153293D01*
X-960927Y2153848D01*
X-959595Y2154514D01*
X-958485Y2155069D01*
X-957597Y2155624D01*
X-957153Y2156068D01*
X-956931Y2156179D01*
X-955599Y2157733D01*
X-954489Y2159509D01*
X-953490Y2161396D01*
X-952713Y2163394D01*
X-952158Y2165059D01*
X-951936Y2165836D01*
X-951825Y2166502D01*
X-951714Y2167057D01*
X-951603Y2167501D01*
X-951492Y2167723D01*
Y2167834D01*
X-942057Y2166613D01*
X-942279Y2164837D01*
X-942612Y2163172D01*
X-943611Y2160064D01*
X-944832Y2157400D01*
X-945498Y2156290D01*
X-946164Y2155180D01*
X-946830Y2154181D01*
X-947496Y2153404D01*
X-948051Y2152627D01*
X-948606Y2152072D01*
X-948939Y2151628D01*
X-949272Y2151295D01*
X-949494Y2151073D01*
X-949605Y2150962D01*
X-950937Y2149963D01*
X-952269Y2148964D01*
X-953601Y2148187D01*
X-955044Y2147521D01*
X-957819Y2146411D01*
X-960483Y2145745D01*
X-961704Y2145523D01*
X-962814Y2145301D01*
X-963813Y2145190D01*
X-964701Y2145079D01*
X-965367Y2144968D01*
X-966366D01*
X-968475Y2145079D01*
X-970362Y2145301D01*
X-972249Y2145634D01*
X-974025Y2146078D01*
X-975690Y2146633D01*
X-977133Y2147188D01*
X-978576Y2147854D01*
X-979797Y2148520D01*
X-981018Y2149075D01*
X-982017Y2149741D01*
X-982905Y2150296D01*
X-983571Y2150851D01*
X-984126Y2151295D01*
X-984570Y2151628D01*
X-984792Y2151850D01*
X-984903Y2151961D01*
X-986235Y2153293D01*
X-987344Y2154736D01*
X-988343Y2156179D01*
X-989231Y2157622D01*
X-989897Y2158954D01*
X-990563Y2160397D01*
X-991451Y2163061D01*
X-991673Y2164282D01*
X-991895Y2165392D01*
X-992117Y2166391D01*
X-992228Y2167279D01*
X-992339Y2167945D01*
Y2168500D01*
Y2168833D01*
Y2168944D01*
X-992228Y2171608D01*
X-991784Y2174049D01*
X-991118Y2176158D01*
X-990452Y2177934D01*
X-989786Y2179377D01*
X-989120Y2180487D01*
X-988676Y2181153D01*
X-988565Y2181375D01*
X-987011Y2183040D01*
X-985347Y2184483D01*
X-983571Y2185593D01*
X-981795Y2186481D01*
X-980241Y2187147D01*
X-979020Y2187591D01*
X-978576Y2187702D01*
X-978243Y2187813D01*
X-978021Y2187924D01*
X-977910D01*
X-979797Y2188923D01*
X-981351Y2189922D01*
X-982683Y2191032D01*
X-983793Y2192031D01*
X-984681Y2192919D01*
X-985347Y2193696D01*
X-985680Y2194140D01*
X-985791Y2194362D01*
X-986678Y2195916D01*
X-987344Y2197470D01*
X-987899Y2199024D01*
X-988232Y2200467D01*
X-988454Y2201688D01*
X-988565Y2202576D01*
Y2203242D01*
Y2203464D01*
X-988454Y2205351D01*
X-988121Y2207238D01*
X-987677Y2208903D01*
X-987122Y2210346D01*
X-986567Y2211567D01*
X-986124Y2212566D01*
X-985791Y2213121D01*
X-985680Y2213343D01*
X-984570Y2215008D01*
X-983238Y2216451D01*
X-981906Y2217672D01*
X-980574Y2218782D01*
X-979464Y2219559D01*
X-978465Y2220225D01*
X-977799Y2220558D01*
X-977688Y2220669D01*
X-977577D01*
X-975579Y2221557D01*
X-973581Y2222223D01*
X-971583Y2222778D01*
X-969807Y2223111D01*
X-968364Y2223333D01*
X-967143Y2223444D01*
X-964368D01*
X-962814Y2223222D01*
D02*
G37*
G36*
X-835660Y19711D02*
Y17491D01*
X-835771Y15382D01*
X-835882Y13385D01*
X-836104Y11498D01*
X-836326Y9833D01*
X-836548Y8279D01*
X-836881Y6836D01*
X-837103Y5504D01*
X-837325Y4283D01*
X-837658Y3284D01*
X-837880Y2396D01*
X-838102Y1730D01*
X-838324Y1175D01*
X-838435Y731D01*
X-838546Y509D01*
Y398D01*
X-839767Y-2044D01*
X-841321Y-4264D01*
X-842875Y-6040D01*
X-844540Y-7594D01*
X-845983Y-8815D01*
X-847204Y-9703D01*
X-847648Y-9925D01*
X-847981Y-10147D01*
X-848203Y-10369D01*
X-848314D01*
X-851089Y-11590D01*
X-853975Y-12478D01*
X-856972Y-13144D01*
X-859747Y-13588D01*
X-860968Y-13699D01*
X-862189Y-13810D01*
X-863299Y-13921D01*
X-864186D01*
X-864963Y-14032D01*
X-865962D01*
X-869958Y-13810D01*
X-871734Y-13588D01*
X-873399Y-13366D01*
X-875064Y-13033D01*
X-876507Y-12700D01*
X-877839Y-12367D01*
X-879060Y-11923D01*
X-880170Y-11479D01*
X-881058Y-11146D01*
X-881946Y-10813D01*
X-882612Y-10480D01*
X-883167Y-10147D01*
X-883500Y-10036D01*
X-883722Y-9814D01*
X-883833D01*
X-886275Y-8149D01*
X-888273Y-6262D01*
X-889827Y-4486D01*
X-891159Y-2710D01*
X-892158Y-1156D01*
X-892824Y65D01*
X-893046Y509D01*
X-893268Y842D01*
X-893379Y1064D01*
Y1175D01*
X-893823Y2507D01*
X-894267Y3950D01*
X-894933Y6947D01*
X-895377Y10055D01*
X-895710Y13052D01*
X-895821Y14384D01*
X-895932Y15715D01*
Y16825D01*
X-896043Y17824D01*
Y18601D01*
Y19156D01*
Y19600D01*
Y19711D01*
Y64111D01*
X-885831D01*
Y19711D01*
Y17158D01*
X-885609Y14717D01*
X-885387Y12608D01*
X-885054Y10610D01*
X-884721Y8834D01*
X-884277Y7169D01*
X-883944Y5726D01*
X-883500Y4505D01*
X-883056Y3506D01*
X-882612Y2507D01*
X-882168Y1841D01*
X-881835Y1175D01*
X-881502Y731D01*
X-881280Y398D01*
X-881169Y287D01*
X-881058Y176D01*
X-880059Y-712D01*
X-878949Y-1489D01*
X-876507Y-2710D01*
X-873954Y-3598D01*
X-871290Y-4153D01*
X-868848Y-4597D01*
X-867849Y-4708D01*
X-866850D01*
X-866184Y-4819D01*
X-865074D01*
X-862744Y-4708D01*
X-860635Y-4375D01*
X-858637Y-4042D01*
X-857083Y-3487D01*
X-855751Y-3043D01*
X-854752Y-2710D01*
X-854197Y-2377D01*
X-853975Y-2266D01*
X-852421Y-1267D01*
X-851089Y-46D01*
X-849979Y1175D01*
X-849202Y2285D01*
X-848536Y3395D01*
X-847981Y4172D01*
X-847759Y4727D01*
X-847648Y4949D01*
X-847315Y5948D01*
X-847093Y6947D01*
X-846649Y9278D01*
X-846316Y11720D01*
X-846094Y14162D01*
X-845983Y16270D01*
Y17269D01*
X-845872Y18046D01*
Y18712D01*
Y19267D01*
Y19600D01*
Y19711D01*
Y64111D01*
X-835660D01*
Y19711D01*
D02*
G37*
G36*
X335778Y1817821D02*
X339330Y1817266D01*
X342437Y1816600D01*
X343880Y1816156D01*
X345212Y1815712D01*
X346433Y1815268D01*
X347543Y1814824D01*
X348431Y1814491D01*
X349319Y1814158D01*
X349874Y1813825D01*
X350318Y1813603D01*
X350651Y1813492D01*
X350762Y1813381D01*
X353759Y1811494D01*
X356312Y1809274D01*
X358532Y1807054D01*
X360419Y1804834D01*
X361862Y1802836D01*
X362417Y1801948D01*
X362861Y1801171D01*
X363305Y1800616D01*
X363527Y1800172D01*
X363638Y1799839D01*
X363749Y1799728D01*
X365303Y1796287D01*
X366413Y1792735D01*
X367190Y1789183D01*
X367745Y1785964D01*
X367967Y1784521D01*
X368078Y1783078D01*
X368189Y1781968D01*
Y1780858D01*
X368300Y1780081D01*
Y1779415D01*
Y1778971D01*
Y1778860D01*
X368078Y1774864D01*
X367634Y1770979D01*
X367079Y1767539D01*
X366635Y1765874D01*
X366302Y1764431D01*
X365969Y1763099D01*
X365525Y1761878D01*
X365192Y1760768D01*
X364970Y1759880D01*
X364637Y1759214D01*
X364526Y1758659D01*
X364304Y1758326D01*
Y1758215D01*
X362639Y1754885D01*
X360752Y1751888D01*
X358754Y1749335D01*
X357755Y1748336D01*
X356867Y1747337D01*
X355979Y1746449D01*
X355091Y1745672D01*
X354314Y1745006D01*
X353648Y1744562D01*
X353204Y1744118D01*
X352760Y1743785D01*
X352538Y1743674D01*
X352427Y1743563D01*
X350873Y1742675D01*
X349319Y1741898D01*
X345989Y1740677D01*
X342659Y1739789D01*
X339441Y1739234D01*
X337887Y1739012D01*
X336555Y1738790D01*
X335334Y1738679D01*
X334335D01*
X333447Y1738568D01*
X332226D01*
X330006Y1738679D01*
X327897Y1738901D01*
X325899Y1739123D01*
X324012Y1739567D01*
X322236Y1740122D01*
X320571Y1740677D01*
X319017Y1741232D01*
X317574Y1741898D01*
X316353Y1742453D01*
X315132Y1743008D01*
X314244Y1743563D01*
X313356Y1744118D01*
X312801Y1744562D01*
X312246Y1744784D01*
X312024Y1745006D01*
X311913Y1745117D01*
X310359Y1746449D01*
X309027Y1747781D01*
X307806Y1749335D01*
X306585Y1750889D01*
X304587Y1753997D01*
X303033Y1757105D01*
X302367Y1758548D01*
X301812Y1759880D01*
X301368Y1761101D01*
X301035Y1762100D01*
X300702Y1762988D01*
X300480Y1763654D01*
X300369Y1764098D01*
Y1764209D01*
X310581Y1766762D01*
X311025Y1764986D01*
X311580Y1763321D01*
X312135Y1761767D01*
X312690Y1760324D01*
X313356Y1758992D01*
X314022Y1757882D01*
X314799Y1756772D01*
X315465Y1755773D01*
X316020Y1754885D01*
X316686Y1754219D01*
X317241Y1753553D01*
X317685Y1752998D01*
X318129Y1752665D01*
X318462Y1752332D01*
X318573Y1752221D01*
X318684Y1752110D01*
X319794Y1751222D01*
X321015Y1750556D01*
X323457Y1749335D01*
X325788Y1748447D01*
X328119Y1747892D01*
X330117Y1747448D01*
X330894Y1747337D01*
X331671D01*
X332337Y1747226D01*
X333114D01*
X335667Y1747337D01*
X338109Y1747781D01*
X340329Y1748336D01*
X342326Y1749002D01*
X343880Y1749668D01*
X344546Y1750001D01*
X345101Y1750223D01*
X345545Y1750445D01*
X345878Y1750667D01*
X346100Y1750778D01*
X346211D01*
X348320Y1752332D01*
X350096Y1753997D01*
X351650Y1755884D01*
X352871Y1757660D01*
X353870Y1759214D01*
X354536Y1760546D01*
X354758Y1761101D01*
X354980Y1761434D01*
X355091Y1761656D01*
Y1761767D01*
X355979Y1764653D01*
X356645Y1767539D01*
X357200Y1770424D01*
X357533Y1773088D01*
X357644Y1774309D01*
X357755Y1775419D01*
Y1776418D01*
X357866Y1777195D01*
Y1777861D01*
Y1778416D01*
Y1778749D01*
Y1778860D01*
X357755Y1781746D01*
X357533Y1784410D01*
X357089Y1786852D01*
X356645Y1789072D01*
X356312Y1790959D01*
X356090Y1791736D01*
X355868Y1792402D01*
X355757Y1792957D01*
X355646Y1793290D01*
X355535Y1793512D01*
Y1793623D01*
X354425Y1796176D01*
X353204Y1798507D01*
X351872Y1800394D01*
X350429Y1802059D01*
X349208Y1803391D01*
X348209Y1804279D01*
X347432Y1804834D01*
X347321Y1805056D01*
X347210D01*
X344879Y1806499D01*
X342326Y1807609D01*
X339885Y1808386D01*
X337554Y1808830D01*
X335445Y1809163D01*
X334557Y1809274D01*
X333780D01*
X333225Y1809385D01*
X332337D01*
X329562Y1809274D01*
X327009Y1808830D01*
X324900Y1808164D01*
X323013Y1807498D01*
X321570Y1806721D01*
X320460Y1806166D01*
X319794Y1805722D01*
X319572Y1805500D01*
X317796Y1803835D01*
X316131Y1801948D01*
X314799Y1799950D01*
X313689Y1797952D01*
X312801Y1796176D01*
X312468Y1795288D01*
X312246Y1794622D01*
X312024Y1794067D01*
X311802Y1793623D01*
X311691Y1793401D01*
Y1793290D01*
X301701Y1795621D01*
X302367Y1797619D01*
X303033Y1799395D01*
X303921Y1801060D01*
X304698Y1802725D01*
X305586Y1804168D01*
X306585Y1805500D01*
X307473Y1806832D01*
X308361Y1807942D01*
X309249Y1808830D01*
X310026Y1809718D01*
X310803Y1810495D01*
X311358Y1811050D01*
X311913Y1811605D01*
X312357Y1811938D01*
X312579Y1812049D01*
X312690Y1812160D01*
X314244Y1813159D01*
X315798Y1814158D01*
X317352Y1814935D01*
X319017Y1815601D01*
X322347Y1816600D01*
X325344Y1817266D01*
X326787Y1817599D01*
X328008Y1817710D01*
X329229Y1817821D01*
X330228Y1817932D01*
X331005Y1818043D01*
X332115D01*
X335778Y1817821D01*
D02*
G37*
G36*
X-1132438Y-733436D02*
X-1131328Y-733658D01*
X-1130218Y-733991D01*
X-1129330Y-734324D01*
X-1128664Y-734657D01*
X-1127998Y-734990D01*
X-1127665Y-735212D01*
X-1127554Y-735323D01*
X-1126555Y-736211D01*
X-1125556Y-737321D01*
X-1124557Y-738653D01*
X-1123669Y-739874D01*
X-1122781Y-741095D01*
X-1122226Y-742094D01*
X-1121782Y-742871D01*
X-1121671Y-742982D01*
Y-734546D01*
X-1113125D01*
Y-790267D01*
X-1122559D01*
Y-761186D01*
X-1122670Y-758966D01*
X-1122781Y-756968D01*
X-1123003Y-755081D01*
X-1123336Y-753416D01*
X-1123669Y-752084D01*
X-1123891Y-751085D01*
X-1124002Y-750419D01*
X-1124113Y-750197D01*
X-1124557Y-748976D01*
X-1125112Y-747977D01*
X-1125667Y-747089D01*
X-1126222Y-746312D01*
X-1126777Y-745757D01*
X-1127110Y-745313D01*
X-1127443Y-745091D01*
X-1127554Y-744980D01*
X-1128442Y-744314D01*
X-1129441Y-743870D01*
X-1130440Y-743537D01*
X-1131217Y-743315D01*
X-1131994Y-743204D01*
X-1132549Y-743093D01*
X-1133104D01*
X-1134325Y-743204D01*
X-1135546Y-743426D01*
X-1136767Y-743759D01*
X-1137766Y-744092D01*
X-1138654Y-744425D01*
X-1139320Y-744758D01*
X-1139764Y-744980D01*
X-1139875Y-745091D01*
X-1143316Y-736433D01*
X-1141429Y-735434D01*
X-1139653Y-734657D01*
X-1138099Y-734102D01*
X-1136656Y-733658D01*
X-1135435Y-733436D01*
X-1134436Y-733325D01*
X-1133659D01*
X-1132438Y-733436D01*
D02*
G37*
G36*
X-1606511Y-790267D02*
X-1616500D01*
X-1627711Y-747422D01*
X-1629931Y-756968D01*
X-1638811Y-790267D01*
X-1648468D01*
X-1666006Y-734546D01*
X-1656793D01*
X-1647247Y-766847D01*
X-1644028Y-777614D01*
X-1641253Y-766958D01*
X-1632928Y-734546D01*
X-1623271D01*
X-1614391Y-767291D01*
X-1613947Y-769178D01*
X-1613504Y-770843D01*
X-1613171Y-772286D01*
X-1612838Y-773507D01*
X-1612505Y-774617D01*
X-1612283Y-775505D01*
X-1612061Y-776282D01*
X-1611950Y-776948D01*
X-1611839Y-777503D01*
X-1611728Y-777836D01*
X-1611617Y-778391D01*
X-1611506Y-778613D01*
Y-778724D01*
X-1608398Y-766736D01*
X-1599518Y-734546D01*
X-1589639D01*
X-1606511Y-790267D01*
D02*
G37*
G36*
X-1373637D02*
X-1373193Y-791266D01*
X-1372971Y-792043D01*
X-1372749Y-792487D01*
Y-792598D01*
X-1372083Y-794485D01*
X-1371417Y-796039D01*
X-1370973Y-797371D01*
X-1370529Y-798259D01*
X-1370307Y-798925D01*
X-1370085Y-799369D01*
X-1369863Y-799591D01*
Y-799702D01*
X-1368975Y-800923D01*
X-1367976Y-801811D01*
X-1367532Y-802144D01*
X-1367199Y-802366D01*
X-1366977Y-802588D01*
X-1366866D01*
X-1366089Y-802921D01*
X-1365312Y-803254D01*
X-1363647Y-803587D01*
X-1362981D01*
X-1362426Y-803698D01*
X-1361871D01*
X-1360095Y-803587D01*
X-1358319Y-803254D01*
X-1357653Y-803032D01*
X-1357098Y-802921D01*
X-1356654Y-802810D01*
X-1356543D01*
X-1357542Y-811579D01*
X-1358763Y-812023D01*
X-1359873Y-812245D01*
X-1360872Y-812467D01*
X-1361760Y-812689D01*
X-1362537D01*
X-1363092Y-812800D01*
X-1363536D01*
X-1365201Y-812689D01*
X-1366644Y-812467D01*
X-1367976Y-812134D01*
X-1369086Y-811690D01*
X-1370085Y-811246D01*
X-1370751Y-810913D01*
X-1371195Y-810691D01*
X-1371306Y-810580D01*
X-1372527Y-809692D01*
X-1373526Y-808582D01*
X-1374525Y-807472D01*
X-1375413Y-806362D01*
X-1376079Y-805363D01*
X-1376634Y-804586D01*
X-1376967Y-804031D01*
X-1377078Y-803809D01*
X-1377411Y-803032D01*
X-1377855Y-802255D01*
X-1378743Y-800368D01*
X-1379631Y-798259D01*
X-1380408Y-796150D01*
X-1381185Y-794263D01*
X-1381518Y-793375D01*
X-1381851Y-792598D01*
X-1382073Y-792043D01*
X-1382295Y-791599D01*
X-1382406Y-791266D01*
Y-791155D01*
X-1403606Y-734546D01*
X-1394171D01*
X-1382184Y-767069D01*
X-1381296Y-769400D01*
X-1380630Y-771620D01*
X-1379853Y-773840D01*
X-1379298Y-775727D01*
X-1378854Y-777392D01*
X-1378632Y-778058D01*
X-1378521Y-778613D01*
X-1378410Y-779057D01*
X-1378299Y-779390D01*
X-1378188Y-779612D01*
Y-779723D01*
X-1377522Y-777170D01*
X-1376856Y-774839D01*
X-1376190Y-772619D01*
X-1375524Y-770732D01*
X-1374969Y-769178D01*
X-1374747Y-768512D01*
X-1374525Y-767957D01*
X-1374414Y-767402D01*
X-1374303Y-767069D01*
X-1374192Y-766958D01*
Y-766847D01*
X-1362537Y-734546D01*
X-1352547D01*
X-1373637Y-790267D01*
D02*
G37*
G36*
X-1451557D02*
X-1461547D01*
X-1472758Y-747422D01*
X-1474978Y-756968D01*
X-1483858Y-790267D01*
X-1493515D01*
X-1511052Y-734546D01*
X-1501840D01*
X-1492294Y-766847D01*
X-1489075Y-777614D01*
X-1486300Y-766958D01*
X-1477975Y-734546D01*
X-1468318D01*
X-1459438Y-767291D01*
X-1458994Y-769178D01*
X-1458550Y-770843D01*
X-1458217Y-772286D01*
X-1457884Y-773507D01*
X-1457551Y-774617D01*
X-1457329Y-775505D01*
X-1457107Y-776282D01*
X-1456996Y-776948D01*
X-1456885Y-777503D01*
X-1456774Y-777836D01*
X-1456663Y-778391D01*
X-1456552Y-778613D01*
Y-778724D01*
X-1453444Y-766736D01*
X-1444565Y-734546D01*
X-1434686D01*
X-1451557Y-790267D01*
D02*
G37*
G36*
X-1529034D02*
X-1539024D01*
X-1550235Y-747422D01*
X-1552455Y-756968D01*
X-1561334Y-790267D01*
X-1570991D01*
X-1588529Y-734546D01*
X-1579316D01*
X-1569770Y-766847D01*
X-1566551Y-777614D01*
X-1563776Y-766958D01*
X-1555452Y-734546D01*
X-1545795D01*
X-1536915Y-767291D01*
X-1536471Y-769178D01*
X-1536027Y-770843D01*
X-1535694Y-772286D01*
X-1535361Y-773507D01*
X-1535028Y-774617D01*
X-1534806Y-775505D01*
X-1534584Y-776282D01*
X-1534473Y-776948D01*
X-1534362Y-777503D01*
X-1534251Y-777836D01*
X-1534140Y-778391D01*
X-1534029Y-778613D01*
Y-778724D01*
X-1530921Y-766736D01*
X-1522041Y-734546D01*
X-1512162D01*
X-1529034Y-790267D01*
D02*
G37*
G36*
X-1763351Y-769067D02*
Y-771176D01*
X-1763462Y-773063D01*
X-1763573Y-774506D01*
X-1763684Y-775838D01*
Y-776726D01*
X-1763795Y-777392D01*
X-1763906Y-777836D01*
Y-777947D01*
X-1764239Y-779390D01*
X-1764683Y-780722D01*
X-1765127Y-781943D01*
X-1765682Y-782942D01*
X-1766126Y-783830D01*
X-1766459Y-784385D01*
X-1766681Y-784829D01*
X-1766792Y-784940D01*
X-1767680Y-785938D01*
X-1768679Y-786826D01*
X-1769678Y-787603D01*
X-1770788Y-788269D01*
X-1771676Y-788824D01*
X-1772453Y-789268D01*
X-1772897Y-789490D01*
X-1773119Y-789601D01*
X-1774784Y-790267D01*
X-1776338Y-790711D01*
X-1777892Y-791044D01*
X-1779335Y-791266D01*
X-1780555Y-791377D01*
X-1781554Y-791488D01*
X-1782331D01*
X-1784329Y-791377D01*
X-1786327Y-791044D01*
X-1788103Y-790600D01*
X-1789879Y-790045D01*
X-1791433Y-789268D01*
X-1792876Y-788491D01*
X-1794208Y-787714D01*
X-1795429Y-786826D01*
X-1796539Y-785938D01*
X-1797427Y-785161D01*
X-1798204Y-784274D01*
X-1798870Y-783608D01*
X-1799425Y-783053D01*
X-1799758Y-782609D01*
X-1799980Y-782276D01*
X-1800091Y-782165D01*
Y-790267D01*
X-1808527D01*
Y-734546D01*
X-1799092D01*
Y-764405D01*
X-1798981Y-766958D01*
X-1798870Y-769178D01*
X-1798648Y-771065D01*
X-1798315Y-772619D01*
X-1797982Y-773840D01*
X-1797760Y-774728D01*
X-1797649Y-775172D01*
X-1797538Y-775394D01*
X-1796872Y-776726D01*
X-1796095Y-777836D01*
X-1795207Y-778835D01*
X-1794319Y-779723D01*
X-1793542Y-780389D01*
X-1792876Y-780833D01*
X-1792432Y-781166D01*
X-1792210Y-781277D01*
X-1790767Y-781943D01*
X-1789324Y-782498D01*
X-1787992Y-782831D01*
X-1786771Y-783164D01*
X-1785772Y-783275D01*
X-1784995Y-783386D01*
X-1784218D01*
X-1782664Y-783275D01*
X-1781332Y-783053D01*
X-1780112Y-782720D01*
X-1779113Y-782276D01*
X-1778225Y-781943D01*
X-1777670Y-781610D01*
X-1777226Y-781388D01*
X-1777115Y-781277D01*
X-1776116Y-780389D01*
X-1775339Y-779501D01*
X-1774673Y-778502D01*
X-1774118Y-777614D01*
X-1773785Y-776726D01*
X-1773563Y-776060D01*
X-1773341Y-775616D01*
Y-775505D01*
X-1773119Y-774284D01*
X-1773008Y-772841D01*
X-1772897Y-771176D01*
Y-769511D01*
X-1772786Y-767957D01*
Y-766736D01*
Y-766181D01*
Y-765848D01*
Y-765626D01*
Y-765515D01*
Y-734546D01*
X-1763351D01*
Y-769067D01*
D02*
G37*
G36*
X-2085578D02*
Y-771176D01*
X-2085689Y-773063D01*
X-2085800Y-774506D01*
X-2085911Y-775838D01*
Y-776726D01*
X-2086022Y-777392D01*
X-2086133Y-777836D01*
Y-777947D01*
X-2086466Y-779390D01*
X-2086910Y-780722D01*
X-2087354Y-781943D01*
X-2087909Y-782942D01*
X-2088353Y-783830D01*
X-2088686Y-784385D01*
X-2088908Y-784829D01*
X-2089019Y-784940D01*
X-2089907Y-785938D01*
X-2090906Y-786826D01*
X-2091905Y-787603D01*
X-2093015Y-788269D01*
X-2093903Y-788824D01*
X-2094680Y-789268D01*
X-2095124Y-789490D01*
X-2095346Y-789601D01*
X-2097011Y-790267D01*
X-2098565Y-790711D01*
X-2100119Y-791044D01*
X-2101562Y-791266D01*
X-2102783Y-791377D01*
X-2103782Y-791488D01*
X-2104559D01*
X-2106557Y-791377D01*
X-2108555Y-791044D01*
X-2110331Y-790600D01*
X-2112107Y-790045D01*
X-2113660Y-789268D01*
X-2115103Y-788491D01*
X-2116435Y-787714D01*
X-2117656Y-786826D01*
X-2118766Y-785938D01*
X-2119654Y-785161D01*
X-2120431Y-784274D01*
X-2121097Y-783608D01*
X-2121652Y-783053D01*
X-2121985Y-782609D01*
X-2122207Y-782276D01*
X-2122318Y-782165D01*
Y-790267D01*
X-2130754D01*
Y-734546D01*
X-2121319D01*
Y-764405D01*
X-2121208Y-766958D01*
X-2121097Y-769178D01*
X-2120875Y-771065D01*
X-2120542Y-772619D01*
X-2120209Y-773840D01*
X-2119987Y-774728D01*
X-2119876Y-775172D01*
X-2119765Y-775394D01*
X-2119099Y-776726D01*
X-2118322Y-777836D01*
X-2117434Y-778835D01*
X-2116546Y-779723D01*
X-2115769Y-780389D01*
X-2115103Y-780833D01*
X-2114659Y-781166D01*
X-2114437Y-781277D01*
X-2112995Y-781943D01*
X-2111552Y-782498D01*
X-2110220Y-782831D01*
X-2108999Y-783164D01*
X-2108000Y-783275D01*
X-2107223Y-783386D01*
X-2106446D01*
X-2104892Y-783275D01*
X-2103560Y-783053D01*
X-2102339Y-782720D01*
X-2101340Y-782276D01*
X-2100452Y-781943D01*
X-2099897Y-781610D01*
X-2099453Y-781388D01*
X-2099342Y-781277D01*
X-2098343Y-780389D01*
X-2097566Y-779501D01*
X-2096900Y-778502D01*
X-2096345Y-777614D01*
X-2096012Y-776726D01*
X-2095790Y-776060D01*
X-2095568Y-775616D01*
Y-775505D01*
X-2095346Y-774284D01*
X-2095235Y-772841D01*
X-2095124Y-771176D01*
Y-769511D01*
X-2095013Y-767957D01*
Y-766736D01*
Y-766181D01*
Y-765848D01*
Y-765626D01*
Y-765515D01*
Y-734546D01*
X-2085578D01*
Y-769067D01*
D02*
G37*
G36*
X-260993Y-720783D02*
Y-734546D01*
X-254000D01*
Y-741872D01*
X-260993D01*
Y-774062D01*
Y-775616D01*
Y-776948D01*
X-261104Y-778169D01*
X-261215Y-779390D01*
Y-780389D01*
X-261326Y-781277D01*
X-261548Y-782720D01*
X-261770Y-783830D01*
X-261881Y-784607D01*
X-262103Y-785051D01*
Y-785161D01*
X-262547Y-786160D01*
X-263213Y-786937D01*
X-263879Y-787714D01*
X-264434Y-788269D01*
X-265100Y-788824D01*
X-265544Y-789157D01*
X-265877Y-789379D01*
X-265988Y-789490D01*
X-267209Y-790045D01*
X-268430Y-790378D01*
X-269762Y-790711D01*
X-271094Y-790822D01*
X-272204Y-790933D01*
X-273092Y-791044D01*
X-273980D01*
X-276422Y-790933D01*
X-277643Y-790822D01*
X-278753Y-790600D01*
X-279752Y-790489D01*
X-280529Y-790378D01*
X-280973Y-790267D01*
X-281195D01*
X-279974Y-781943D01*
X-279086Y-782054D01*
X-278198Y-782165D01*
X-277421D01*
X-276866Y-782276D01*
X-275756D01*
X-274313Y-782165D01*
X-273314Y-781943D01*
X-272759Y-781721D01*
X-272537Y-781610D01*
X-271760Y-781055D01*
X-271316Y-780500D01*
X-270983Y-780056D01*
X-270872Y-779834D01*
X-270761Y-779279D01*
X-270650Y-778502D01*
X-270539Y-776726D01*
X-270428Y-775949D01*
Y-775283D01*
Y-774839D01*
Y-774617D01*
Y-741872D01*
X-279974D01*
Y-734546D01*
X-270428D01*
Y-715122D01*
X-260993Y-720783D01*
D02*
G37*
G36*
X-2170935D02*
Y-734546D01*
X-2163943D01*
Y-741872D01*
X-2170935D01*
Y-774062D01*
Y-775616D01*
Y-776948D01*
X-2171046Y-778169D01*
X-2171157Y-779390D01*
Y-780389D01*
X-2171268Y-781277D01*
X-2171490Y-782720D01*
X-2171712Y-783830D01*
X-2171823Y-784607D01*
X-2172045Y-785051D01*
Y-785161D01*
X-2172489Y-786160D01*
X-2173155Y-786937D01*
X-2173821Y-787714D01*
X-2174376Y-788269D01*
X-2175042Y-788824D01*
X-2175486Y-789157D01*
X-2175819Y-789379D01*
X-2175930Y-789490D01*
X-2177151Y-790045D01*
X-2178372Y-790378D01*
X-2179704Y-790711D01*
X-2181036Y-790822D01*
X-2182146Y-790933D01*
X-2183034Y-791044D01*
X-2183922D01*
X-2186364Y-790933D01*
X-2187585Y-790822D01*
X-2188695Y-790600D01*
X-2189694Y-790489D01*
X-2190471Y-790378D01*
X-2190915Y-790267D01*
X-2191137D01*
X-2189916Y-781943D01*
X-2189028Y-782054D01*
X-2188140Y-782165D01*
X-2187363D01*
X-2186808Y-782276D01*
X-2185698D01*
X-2184255Y-782165D01*
X-2183256Y-781943D01*
X-2182701Y-781721D01*
X-2182479Y-781610D01*
X-2181702Y-781055D01*
X-2181258Y-780500D01*
X-2180925Y-780056D01*
X-2180814Y-779834D01*
X-2180703Y-779279D01*
X-2180592Y-778502D01*
X-2180481Y-776726D01*
X-2180370Y-775949D01*
Y-775283D01*
Y-774839D01*
Y-774617D01*
Y-741872D01*
X-2189916D01*
Y-734546D01*
X-2180370D01*
Y-715122D01*
X-2170935Y-720783D01*
D02*
G37*
G36*
X-1972471Y-724224D02*
X-1981906D01*
Y-713457D01*
X-1972471D01*
Y-724224D01*
D02*
G37*
G36*
X-2145517D02*
X-2154952D01*
Y-713457D01*
X-2145517D01*
Y-724224D01*
D02*
G37*
G36*
X-349014D02*
X-358449D01*
Y-713457D01*
X-349014D01*
Y-724224D01*
D02*
G37*
G36*
X-659476D02*
X-668911D01*
Y-713457D01*
X-659476D01*
Y-724224D01*
D02*
G37*
G36*
X-289297Y-790267D02*
X-298732D01*
Y-759854D01*
X-298843Y-757523D01*
X-298954Y-755525D01*
X-299176Y-753749D01*
X-299509Y-752306D01*
X-299842Y-751196D01*
X-300064Y-750308D01*
X-300175Y-749864D01*
X-300286Y-749642D01*
X-300952Y-748310D01*
X-301729Y-747089D01*
X-302617Y-746090D01*
X-303505Y-745202D01*
X-304282Y-744536D01*
X-304948Y-744092D01*
X-305392Y-743759D01*
X-305503Y-743648D01*
X-306946Y-742871D01*
X-308278Y-742316D01*
X-309610Y-741983D01*
X-310720Y-741650D01*
X-311830Y-741539D01*
X-312607Y-741428D01*
X-313273D01*
X-315271Y-741539D01*
X-317047Y-741983D01*
X-318490Y-742427D01*
X-319711Y-743093D01*
X-320710Y-743648D01*
X-321376Y-744203D01*
X-321820Y-744647D01*
X-321931Y-744758D01*
X-322930Y-746090D01*
X-323707Y-747755D01*
X-324262Y-749420D01*
X-324706Y-751085D01*
X-324928Y-752639D01*
X-325039Y-753860D01*
Y-754304D01*
Y-754637D01*
Y-754859D01*
Y-754970D01*
Y-790267D01*
X-334474D01*
Y-755081D01*
X-334363Y-752195D01*
X-334141Y-749642D01*
X-333808Y-747533D01*
X-333475Y-745757D01*
X-333142Y-744314D01*
X-332809Y-743315D01*
X-332587Y-742760D01*
X-332476Y-742538D01*
X-331588Y-740984D01*
X-330589Y-739652D01*
X-329479Y-738542D01*
X-328480Y-737543D01*
X-327481Y-736766D01*
X-326704Y-736211D01*
X-326149Y-735878D01*
X-325927Y-735767D01*
X-324151Y-734990D01*
X-322375Y-734324D01*
X-320599Y-733880D01*
X-318934Y-733658D01*
X-317491Y-733436D01*
X-316270Y-733325D01*
X-315271D01*
X-313495Y-733436D01*
X-311719Y-733658D01*
X-310054Y-733991D01*
X-308500Y-734546D01*
X-305614Y-735767D01*
X-304393Y-736433D01*
X-303283Y-737099D01*
X-302284Y-737876D01*
X-301285Y-738542D01*
X-300508Y-739208D01*
X-299953Y-739763D01*
X-299398Y-740318D01*
X-299065Y-740651D01*
X-298843Y-740873D01*
X-298732Y-740984D01*
Y-713457D01*
X-289297D01*
Y-790267D01*
D02*
G37*
G36*
X-2419460Y-733436D02*
X-2417573Y-733769D01*
X-2415908Y-734102D01*
X-2414465Y-734546D01*
X-2413244Y-735101D01*
X-2412356Y-735434D01*
X-2411801Y-735767D01*
X-2411579Y-735878D01*
X-2410025Y-736877D01*
X-2408693Y-737987D01*
X-2407472Y-739097D01*
X-2406473Y-740207D01*
X-2405696Y-741095D01*
X-2405030Y-741872D01*
X-2404697Y-742316D01*
X-2404586Y-742538D01*
Y-734546D01*
X-2396150D01*
Y-790267D01*
X-2405585D01*
Y-761408D01*
X-2405696Y-758744D01*
X-2405807Y-756413D01*
X-2406029Y-754415D01*
X-2406362Y-752750D01*
X-2406695Y-751529D01*
X-2406917Y-750641D01*
X-2407028Y-750086D01*
X-2407139Y-749864D01*
X-2407805Y-748421D01*
X-2408582Y-747200D01*
X-2409359Y-746090D01*
X-2410136Y-745202D01*
X-2410913Y-744536D01*
X-2411468Y-744092D01*
X-2411912Y-743759D01*
X-2412023Y-743648D01*
X-2413355Y-742982D01*
X-2414576Y-742427D01*
X-2415908Y-742094D01*
X-2417018Y-741761D01*
X-2417906Y-741650D01*
X-2418683Y-741539D01*
X-2419349D01*
X-2421236Y-741650D01*
X-2422790Y-741983D01*
X-2424122Y-742538D01*
X-2425121Y-743093D01*
X-2425898Y-743759D01*
X-2426453Y-744203D01*
X-2426786Y-744647D01*
X-2426897Y-744758D01*
X-2427674Y-746090D01*
X-2428229Y-747533D01*
X-2428673Y-749087D01*
X-2428895Y-750641D01*
X-2429117Y-751973D01*
X-2429228Y-753194D01*
Y-753638D01*
Y-753860D01*
Y-754082D01*
Y-754193D01*
Y-790267D01*
X-2438663D01*
Y-757967D01*
X-2438885Y-754970D01*
X-2439329Y-752417D01*
X-2439884Y-750308D01*
X-2440661Y-748532D01*
X-2441327Y-747200D01*
X-2441993Y-746312D01*
X-2442437Y-745757D01*
X-2442548Y-745535D01*
X-2444102Y-744203D01*
X-2445767Y-743204D01*
X-2447431Y-742538D01*
X-2448985Y-741983D01*
X-2450317Y-741761D01*
X-2451427Y-741650D01*
X-2451871Y-741539D01*
X-2452426D01*
X-2453647Y-741650D01*
X-2454646Y-741761D01*
X-2455645Y-741983D01*
X-2456422Y-742316D01*
X-2457199Y-742649D01*
X-2457643Y-742871D01*
X-2457976Y-742982D01*
X-2458087Y-743093D01*
X-2458975Y-743759D01*
X-2459641Y-744425D01*
X-2460196Y-745091D01*
X-2460640Y-745757D01*
X-2460973Y-746312D01*
X-2461195Y-746756D01*
X-2461417Y-747089D01*
Y-747200D01*
X-2461750Y-748199D01*
X-2461972Y-749531D01*
X-2462083Y-750863D01*
X-2462194Y-752195D01*
X-2462305Y-753416D01*
Y-754415D01*
Y-755081D01*
Y-755192D01*
Y-755303D01*
Y-790267D01*
X-2471740D01*
Y-752084D01*
Y-750308D01*
X-2471518Y-748754D01*
X-2471296Y-747200D01*
X-2471074Y-745868D01*
X-2470741Y-744536D01*
X-2470297Y-743426D01*
X-2469964Y-742427D01*
X-2469520Y-741428D01*
X-2469076Y-740651D01*
X-2468743Y-739874D01*
X-2467966Y-738875D01*
X-2467522Y-738209D01*
X-2467300Y-737987D01*
X-2465524Y-736433D01*
X-2463415Y-735323D01*
X-2461306Y-734435D01*
X-2459308Y-733880D01*
X-2457421Y-733547D01*
X-2456644Y-733436D01*
X-2455867D01*
X-2455312Y-733325D01*
X-2454535D01*
X-2452537Y-733436D01*
X-2450761Y-733769D01*
X-2448985Y-734213D01*
X-2447320Y-734879D01*
X-2445767Y-735656D01*
X-2444324Y-736433D01*
X-2443103Y-737321D01*
X-2441882Y-738209D01*
X-2440772Y-739208D01*
X-2439884Y-740096D01*
X-2439107Y-740873D01*
X-2438441Y-741650D01*
X-2437886Y-742316D01*
X-2437553Y-742760D01*
X-2437331Y-743093D01*
X-2437220Y-743204D01*
X-2436554Y-741539D01*
X-2435666Y-740096D01*
X-2434667Y-738875D01*
X-2433779Y-737876D01*
X-2432891Y-736988D01*
X-2432225Y-736433D01*
X-2431781Y-736100D01*
X-2431559Y-735989D01*
X-2430005Y-735101D01*
X-2428340Y-734435D01*
X-2426675Y-733991D01*
X-2425010Y-733658D01*
X-2423678Y-733436D01*
X-2422457Y-733325D01*
X-2421458D01*
X-2419460Y-733436D01*
D02*
G37*
G36*
X-569678Y-790267D02*
X-578447D01*
Y-783275D01*
X-579557Y-784718D01*
X-580667Y-785938D01*
X-581888Y-787048D01*
X-583220Y-788047D01*
X-584441Y-788824D01*
X-585773Y-789490D01*
X-586994Y-790045D01*
X-588215Y-790489D01*
X-590435Y-791044D01*
X-591434Y-791266D01*
X-592211Y-791377D01*
X-592877D01*
X-593432Y-791488D01*
X-593876D01*
X-595652Y-791377D01*
X-597428Y-791155D01*
X-599093Y-790822D01*
X-600647Y-790267D01*
X-603644Y-789046D01*
X-604865Y-788269D01*
X-606086Y-787603D01*
X-607196Y-786826D01*
X-608084Y-786160D01*
X-608861Y-785494D01*
X-609638Y-784940D01*
X-610193Y-784385D01*
X-610526Y-784052D01*
X-610748Y-783830D01*
X-610859Y-783719D01*
X-612080Y-782165D01*
X-613190Y-780500D01*
X-614189Y-778835D01*
X-614965Y-776948D01*
X-615631Y-775172D01*
X-616186Y-773285D01*
X-617074Y-769733D01*
X-617407Y-768068D01*
X-617629Y-766514D01*
X-617740Y-765182D01*
X-617851Y-763961D01*
X-617962Y-762962D01*
Y-762296D01*
Y-761741D01*
Y-761630D01*
X-617851Y-759410D01*
X-617740Y-757301D01*
X-617407Y-755414D01*
X-617074Y-753749D01*
X-616741Y-752306D01*
X-616519Y-751196D01*
X-616408Y-750863D01*
X-616297Y-750530D01*
X-616186Y-750419D01*
Y-750308D01*
X-615520Y-748421D01*
X-614743Y-746645D01*
X-613967Y-745091D01*
X-613190Y-743759D01*
X-612524Y-742760D01*
X-611969Y-741983D01*
X-611636Y-741428D01*
X-611525Y-741317D01*
X-610415Y-739985D01*
X-609083Y-738764D01*
X-607862Y-737765D01*
X-606641Y-736988D01*
X-605642Y-736322D01*
X-604754Y-735767D01*
X-604199Y-735545D01*
X-603977Y-735434D01*
X-602312Y-734768D01*
X-600536Y-734213D01*
X-598871Y-733880D01*
X-597428Y-733547D01*
X-596207Y-733436D01*
X-595208Y-733325D01*
X-594320D01*
X-592655Y-733436D01*
X-590990Y-733658D01*
X-589436Y-733991D01*
X-587993Y-734546D01*
X-585440Y-735656D01*
X-583220Y-737099D01*
X-582332Y-737765D01*
X-581444Y-738431D01*
X-580778Y-739097D01*
X-580223Y-739652D01*
X-579668Y-740207D01*
X-579335Y-740540D01*
X-579224Y-740762D01*
X-579113Y-740873D01*
Y-713457D01*
X-569678D01*
Y-790267D01*
D02*
G37*
G36*
X-1298047D02*
X-1306816D01*
Y-783275D01*
X-1307926Y-784718D01*
X-1309036Y-785938D01*
X-1310257Y-787048D01*
X-1311589Y-788047D01*
X-1312810Y-788824D01*
X-1314142Y-789490D01*
X-1315363Y-790045D01*
X-1316584Y-790489D01*
X-1318804Y-791044D01*
X-1319803Y-791266D01*
X-1320580Y-791377D01*
X-1321246D01*
X-1321801Y-791488D01*
X-1322245D01*
X-1324021Y-791377D01*
X-1325797Y-791155D01*
X-1327462Y-790822D01*
X-1329016Y-790267D01*
X-1332013Y-789046D01*
X-1333234Y-788269D01*
X-1334455Y-787603D01*
X-1335565Y-786826D01*
X-1336452Y-786160D01*
X-1337229Y-785494D01*
X-1338006Y-784940D01*
X-1338561Y-784385D01*
X-1338894Y-784052D01*
X-1339116Y-783830D01*
X-1339227Y-783719D01*
X-1340448Y-782165D01*
X-1341558Y-780500D01*
X-1342557Y-778835D01*
X-1343334Y-776948D01*
X-1344000Y-775172D01*
X-1344555Y-773285D01*
X-1345443Y-769733D01*
X-1345776Y-768068D01*
X-1345998Y-766514D01*
X-1346109Y-765182D01*
X-1346220Y-763961D01*
X-1346331Y-762962D01*
Y-762296D01*
Y-761741D01*
Y-761630D01*
X-1346220Y-759410D01*
X-1346109Y-757301D01*
X-1345776Y-755414D01*
X-1345443Y-753749D01*
X-1345110Y-752306D01*
X-1344888Y-751196D01*
X-1344777Y-750863D01*
X-1344666Y-750530D01*
X-1344555Y-750419D01*
Y-750308D01*
X-1343889Y-748421D01*
X-1343112Y-746645D01*
X-1342335Y-745091D01*
X-1341558Y-743759D01*
X-1340892Y-742760D01*
X-1340337Y-741983D01*
X-1340004Y-741428D01*
X-1339893Y-741317D01*
X-1338783Y-739985D01*
X-1337451Y-738764D01*
X-1336230Y-737765D01*
X-1335010Y-736988D01*
X-1334011Y-736322D01*
X-1333123Y-735767D01*
X-1332568Y-735545D01*
X-1332346Y-735434D01*
X-1330681Y-734768D01*
X-1328905Y-734213D01*
X-1327240Y-733880D01*
X-1325797Y-733547D01*
X-1324576Y-733436D01*
X-1323577Y-733325D01*
X-1322689D01*
X-1321024Y-733436D01*
X-1319359Y-733658D01*
X-1317805Y-733991D01*
X-1316362Y-734546D01*
X-1313809Y-735656D01*
X-1311589Y-737099D01*
X-1310701Y-737765D01*
X-1309813Y-738431D01*
X-1309147Y-739097D01*
X-1308592Y-739652D01*
X-1308037Y-740207D01*
X-1307704Y-740540D01*
X-1307593Y-740762D01*
X-1307482Y-740873D01*
Y-713457D01*
X-1298047D01*
Y-790267D01*
D02*
G37*
G36*
X-536046Y-733436D02*
X-533604Y-733880D01*
X-531273Y-734435D01*
X-529386Y-734990D01*
X-527721Y-735656D01*
X-527055Y-735989D01*
X-526500Y-736211D01*
X-526056Y-736433D01*
X-525723Y-736655D01*
X-525501Y-736766D01*
X-525390D01*
X-523281Y-738098D01*
X-521394Y-739763D01*
X-519840Y-741428D01*
X-518508Y-743093D01*
X-517509Y-744536D01*
X-516843Y-745757D01*
X-516621Y-746201D01*
X-516399Y-746534D01*
X-516288Y-746756D01*
Y-746867D01*
X-515289Y-749531D01*
X-514623Y-752195D01*
X-514068Y-754859D01*
X-513735Y-757301D01*
X-513624Y-758411D01*
X-513513Y-759410D01*
Y-760298D01*
X-513402Y-761075D01*
Y-761741D01*
Y-762185D01*
Y-762518D01*
Y-762629D01*
X-513513Y-765182D01*
X-513735Y-767513D01*
X-514068Y-769844D01*
X-514512Y-771842D01*
X-514956Y-773840D01*
X-515622Y-775505D01*
X-516177Y-777170D01*
X-516843Y-778613D01*
X-517509Y-779834D01*
X-518064Y-780944D01*
X-518730Y-781943D01*
X-519174Y-782720D01*
X-519618Y-783275D01*
X-519951Y-783719D01*
X-520173Y-783941D01*
X-520284Y-784052D01*
X-521616Y-785383D01*
X-523059Y-786493D01*
X-524502Y-787492D01*
X-526056Y-788380D01*
X-527610Y-789046D01*
X-529053Y-789712D01*
X-532050Y-790600D01*
X-533382Y-790822D01*
X-534603Y-791044D01*
X-535713Y-791266D01*
X-536712Y-791377D01*
X-537489Y-791488D01*
X-538599D01*
X-540264Y-791377D01*
X-541929Y-791266D01*
X-544815Y-790600D01*
X-547479Y-789823D01*
X-549699Y-788824D01*
X-550587Y-788269D01*
X-551475Y-787825D01*
X-552252Y-787381D01*
X-552807Y-786937D01*
X-553251Y-786604D01*
X-553584Y-786382D01*
X-553806Y-786271D01*
X-553917Y-786160D01*
X-555027Y-785051D01*
X-556026Y-783941D01*
X-557802Y-781499D01*
X-559244Y-778946D01*
X-560243Y-776615D01*
X-561020Y-774395D01*
X-561242Y-773507D01*
X-561464Y-772619D01*
X-561575Y-771953D01*
X-561686Y-771509D01*
X-561797Y-771176D01*
Y-771065D01*
X-552474Y-769844D01*
X-552030Y-772286D01*
X-551364Y-774506D01*
X-550476Y-776282D01*
X-549699Y-777725D01*
X-548922Y-778946D01*
X-548256Y-779723D01*
X-547923Y-780278D01*
X-547701Y-780389D01*
X-546258Y-781499D01*
X-544704Y-782276D01*
X-543150Y-782942D01*
X-541707Y-783275D01*
X-540486Y-783497D01*
X-539376Y-783608D01*
X-538710Y-783719D01*
X-538488D01*
X-537267Y-783608D01*
X-536046Y-783497D01*
X-533826Y-782942D01*
X-531939Y-782165D01*
X-530274Y-781166D01*
X-529053Y-780278D01*
X-528054Y-779501D01*
X-527499Y-778946D01*
X-527277Y-778724D01*
X-526500Y-777725D01*
X-525834Y-776504D01*
X-524835Y-774062D01*
X-524058Y-771287D01*
X-523614Y-768623D01*
X-523281Y-766181D01*
X-523170Y-765182D01*
Y-764183D01*
X-523059Y-763517D01*
Y-762851D01*
Y-762518D01*
Y-762407D01*
Y-760409D01*
X-523281Y-758522D01*
X-523503Y-756746D01*
X-523725Y-755192D01*
X-524058Y-753749D01*
X-524502Y-752417D01*
X-524835Y-751196D01*
X-525279Y-750086D01*
X-525723Y-749198D01*
X-526056Y-748421D01*
X-526500Y-747755D01*
X-526833Y-747200D01*
X-527055Y-746756D01*
X-527277Y-746423D01*
X-527499Y-746312D01*
Y-746201D01*
X-528387Y-745313D01*
X-529275Y-744536D01*
X-531162Y-743204D01*
X-533160Y-742316D01*
X-534936Y-741761D01*
X-536601Y-741317D01*
X-537822Y-741206D01*
X-538377Y-741095D01*
X-539043D01*
X-540708Y-741206D01*
X-542262Y-741539D01*
X-543594Y-741983D01*
X-544815Y-742538D01*
X-545703Y-743093D01*
X-546480Y-743537D01*
X-546924Y-743870D01*
X-547035Y-743981D01*
X-548145Y-745091D01*
X-549144Y-746423D01*
X-550032Y-747866D01*
X-550587Y-749198D01*
X-551142Y-750419D01*
X-551475Y-751418D01*
X-551586Y-752084D01*
X-551697Y-752195D01*
Y-752306D01*
X-560909Y-750863D01*
X-560132Y-747866D01*
X-559023Y-745313D01*
X-557802Y-743093D01*
X-556581Y-741317D01*
X-555360Y-739874D01*
X-554361Y-738875D01*
X-553695Y-738209D01*
X-553584Y-737987D01*
X-553473D01*
X-551142Y-736433D01*
X-548700Y-735323D01*
X-546258Y-734435D01*
X-543927Y-733880D01*
X-541818Y-733547D01*
X-540930Y-733436D01*
X-540264D01*
X-539598Y-733325D01*
X-538710D01*
X-536046Y-733436D01*
D02*
G37*
G36*
X-2302690D02*
X-2300248Y-733880D01*
X-2297917Y-734435D01*
X-2296030Y-734990D01*
X-2294365Y-735656D01*
X-2293699Y-735989D01*
X-2293144Y-736211D01*
X-2292700Y-736433D01*
X-2292367Y-736655D01*
X-2292145Y-736766D01*
X-2292034D01*
X-2289925Y-738098D01*
X-2288038Y-739763D01*
X-2286484Y-741428D01*
X-2285152Y-743093D01*
X-2284153Y-744536D01*
X-2283487Y-745757D01*
X-2283265Y-746201D01*
X-2283043Y-746534D01*
X-2282932Y-746756D01*
Y-746867D01*
X-2281933Y-749531D01*
X-2281267Y-752195D01*
X-2280712Y-754859D01*
X-2280379Y-757301D01*
X-2280268Y-758411D01*
X-2280157Y-759410D01*
Y-760298D01*
X-2280046Y-761075D01*
Y-761741D01*
Y-762185D01*
Y-762518D01*
Y-762629D01*
X-2280157Y-765182D01*
X-2280379Y-767513D01*
X-2280712Y-769844D01*
X-2281156Y-771842D01*
X-2281600Y-773840D01*
X-2282266Y-775505D01*
X-2282821Y-777170D01*
X-2283487Y-778613D01*
X-2284153Y-779834D01*
X-2284708Y-780944D01*
X-2285374Y-781943D01*
X-2285818Y-782720D01*
X-2286262Y-783275D01*
X-2286595Y-783719D01*
X-2286817Y-783941D01*
X-2286928Y-784052D01*
X-2288260Y-785383D01*
X-2289703Y-786493D01*
X-2291146Y-787492D01*
X-2292700Y-788380D01*
X-2294254Y-789046D01*
X-2295697Y-789712D01*
X-2298694Y-790600D01*
X-2300026Y-790822D01*
X-2301247Y-791044D01*
X-2302357Y-791266D01*
X-2303356Y-791377D01*
X-2304133Y-791488D01*
X-2305243D01*
X-2306908Y-791377D01*
X-2308573Y-791266D01*
X-2311459Y-790600D01*
X-2314123Y-789823D01*
X-2316343Y-788824D01*
X-2317231Y-788269D01*
X-2318119Y-787825D01*
X-2318896Y-787381D01*
X-2319451Y-786937D01*
X-2319895Y-786604D01*
X-2320228Y-786382D01*
X-2320450Y-786271D01*
X-2320561Y-786160D01*
X-2321671Y-785051D01*
X-2322670Y-783941D01*
X-2324446Y-781499D01*
X-2325889Y-778946D01*
X-2326888Y-776615D01*
X-2327665Y-774395D01*
X-2327887Y-773507D01*
X-2328109Y-772619D01*
X-2328220Y-771953D01*
X-2328331Y-771509D01*
X-2328442Y-771176D01*
Y-771065D01*
X-2319118Y-769844D01*
X-2318674Y-772286D01*
X-2318008Y-774506D01*
X-2317120Y-776282D01*
X-2316343Y-777725D01*
X-2315566Y-778946D01*
X-2314900Y-779723D01*
X-2314567Y-780278D01*
X-2314345Y-780389D01*
X-2312902Y-781499D01*
X-2311348Y-782276D01*
X-2309794Y-782942D01*
X-2308351Y-783275D01*
X-2307130Y-783497D01*
X-2306020Y-783608D01*
X-2305354Y-783719D01*
X-2305132D01*
X-2303911Y-783608D01*
X-2302690Y-783497D01*
X-2300470Y-782942D01*
X-2298583Y-782165D01*
X-2296918Y-781166D01*
X-2295697Y-780278D01*
X-2294698Y-779501D01*
X-2294143Y-778946D01*
X-2293921Y-778724D01*
X-2293144Y-777725D01*
X-2292478Y-776504D01*
X-2291479Y-774062D01*
X-2290702Y-771287D01*
X-2290258Y-768623D01*
X-2289925Y-766181D01*
X-2289814Y-765182D01*
Y-764183D01*
X-2289703Y-763517D01*
Y-762851D01*
Y-762518D01*
Y-762407D01*
Y-760409D01*
X-2289925Y-758522D01*
X-2290147Y-756746D01*
X-2290369Y-755192D01*
X-2290702Y-753749D01*
X-2291146Y-752417D01*
X-2291479Y-751196D01*
X-2291923Y-750086D01*
X-2292367Y-749198D01*
X-2292700Y-748421D01*
X-2293144Y-747755D01*
X-2293477Y-747200D01*
X-2293699Y-746756D01*
X-2293921Y-746423D01*
X-2294143Y-746312D01*
Y-746201D01*
X-2295031Y-745313D01*
X-2295919Y-744536D01*
X-2297806Y-743204D01*
X-2299804Y-742316D01*
X-2301580Y-741761D01*
X-2303245Y-741317D01*
X-2304466Y-741206D01*
X-2305021Y-741095D01*
X-2305687D01*
X-2307352Y-741206D01*
X-2308906Y-741539D01*
X-2310238Y-741983D01*
X-2311459Y-742538D01*
X-2312347Y-743093D01*
X-2313124Y-743537D01*
X-2313568Y-743870D01*
X-2313679Y-743981D01*
X-2314789Y-745091D01*
X-2315788Y-746423D01*
X-2316676Y-747866D01*
X-2317231Y-749198D01*
X-2317786Y-750419D01*
X-2318119Y-751418D01*
X-2318230Y-752084D01*
X-2318341Y-752195D01*
Y-752306D01*
X-2327554Y-750863D01*
X-2326777Y-747866D01*
X-2325667Y-745313D01*
X-2324446Y-743093D01*
X-2323225Y-741317D01*
X-2322004Y-739874D01*
X-2321005Y-738875D01*
X-2320339Y-738209D01*
X-2320228Y-737987D01*
X-2320117D01*
X-2317786Y-736433D01*
X-2315344Y-735323D01*
X-2312902Y-734435D01*
X-2310571Y-733880D01*
X-2308462Y-733547D01*
X-2307574Y-733436D01*
X-2306908D01*
X-2306242Y-733325D01*
X-2305354D01*
X-2302690Y-733436D01*
D02*
G37*
G36*
X-1169623D02*
X-1167625Y-733658D01*
X-1165738Y-733991D01*
X-1163962Y-734546D01*
X-1162297Y-735101D01*
X-1160743Y-735767D01*
X-1159300Y-736433D01*
X-1158079Y-737210D01*
X-1156858Y-737876D01*
X-1155859Y-738653D01*
X-1154971Y-739319D01*
X-1154305Y-739874D01*
X-1153750Y-740429D01*
X-1153306Y-740762D01*
X-1153084Y-740984D01*
X-1152973Y-741095D01*
X-1151752Y-742649D01*
X-1150642Y-744314D01*
X-1149643Y-745979D01*
X-1148755Y-747755D01*
X-1148089Y-749642D01*
X-1147534Y-751418D01*
X-1146646Y-754970D01*
X-1146313Y-756524D01*
X-1146091Y-758078D01*
X-1145980Y-759410D01*
X-1145869Y-760631D01*
X-1145758Y-761630D01*
Y-762296D01*
Y-762851D01*
Y-762962D01*
X-1145869Y-765404D01*
X-1146091Y-767735D01*
X-1146424Y-769955D01*
X-1146868Y-771953D01*
X-1147423Y-773840D01*
X-1147978Y-775616D01*
X-1148644Y-777170D01*
X-1149310Y-778613D01*
X-1149976Y-779834D01*
X-1150642Y-780944D01*
X-1151197Y-781832D01*
X-1151752Y-782609D01*
X-1152196Y-783275D01*
X-1152529Y-783719D01*
X-1152751Y-783941D01*
X-1152862Y-784052D01*
X-1154305Y-785383D01*
X-1155748Y-786493D01*
X-1157302Y-787492D01*
X-1158967Y-788380D01*
X-1160521Y-789046D01*
X-1162186Y-789712D01*
X-1165294Y-790600D01*
X-1166737Y-790822D01*
X-1168069Y-791044D01*
X-1169290Y-791266D01*
X-1170288Y-791377D01*
X-1171065Y-791488D01*
X-1172286D01*
X-1175727Y-791266D01*
X-1178835Y-790711D01*
X-1181610Y-790045D01*
X-1182720Y-789601D01*
X-1183830Y-789157D01*
X-1184829Y-788713D01*
X-1185717Y-788269D01*
X-1186383Y-787936D01*
X-1187049Y-787603D01*
X-1187493Y-787270D01*
X-1187826Y-787048D01*
X-1188048Y-786826D01*
X-1188159D01*
X-1190379Y-784829D01*
X-1192155Y-782720D01*
X-1193709Y-780500D01*
X-1194819Y-778391D01*
X-1195707Y-776504D01*
X-1196040Y-775616D01*
X-1196373Y-774950D01*
X-1196595Y-774284D01*
X-1196706Y-773840D01*
X-1196817Y-773618D01*
Y-773507D01*
X-1187049Y-772286D01*
X-1186161Y-774395D01*
X-1185162Y-776171D01*
X-1184163Y-777725D01*
X-1183275Y-778946D01*
X-1182498Y-779834D01*
X-1181832Y-780500D01*
X-1181277Y-780944D01*
X-1181166Y-781055D01*
X-1179723Y-781943D01*
X-1178280Y-782609D01*
X-1176726Y-783053D01*
X-1175394Y-783386D01*
X-1174173Y-783608D01*
X-1173174Y-783719D01*
X-1172286D01*
X-1170954Y-783608D01*
X-1169733Y-783497D01*
X-1167514Y-782942D01*
X-1165516Y-782165D01*
X-1163740Y-781277D01*
X-1162408Y-780500D01*
X-1161409Y-779723D01*
X-1160743Y-779168D01*
X-1160632Y-778946D01*
X-1160521D01*
X-1158967Y-776948D01*
X-1157746Y-774728D01*
X-1156858Y-772286D01*
X-1156192Y-770066D01*
X-1155859Y-768068D01*
X-1155637Y-767180D01*
X-1155526Y-766403D01*
Y-765737D01*
X-1155415Y-765293D01*
Y-764960D01*
Y-764849D01*
X-1197039D01*
X-1197150Y-763739D01*
Y-762962D01*
Y-762518D01*
Y-762407D01*
X-1197039Y-759854D01*
X-1196817Y-757523D01*
X-1196484Y-755303D01*
X-1196040Y-753194D01*
X-1195485Y-751307D01*
X-1194930Y-749531D01*
X-1194264Y-747977D01*
X-1193598Y-746534D01*
X-1192932Y-745202D01*
X-1192266Y-744092D01*
X-1191711Y-743204D01*
X-1191156Y-742427D01*
X-1190712Y-741761D01*
X-1190379Y-741317D01*
X-1190157Y-741095D01*
X-1190046Y-740984D01*
X-1188714Y-739652D01*
X-1187271Y-738431D01*
X-1185717Y-737432D01*
X-1184163Y-736544D01*
X-1182609Y-735767D01*
X-1181166Y-735212D01*
X-1179612Y-734657D01*
X-1178280Y-734324D01*
X-1176837Y-733991D01*
X-1175616Y-733769D01*
X-1174506Y-733547D01*
X-1173618Y-733436D01*
X-1172841Y-733325D01*
X-1171731D01*
X-1169623Y-733436D01*
D02*
G37*
G36*
X-2051946D02*
X-2049504Y-733880D01*
X-2047173Y-734435D01*
X-2045286Y-734990D01*
X-2043621Y-735656D01*
X-2042955Y-735989D01*
X-2042400Y-736211D01*
X-2041956Y-736433D01*
X-2041623Y-736655D01*
X-2041401Y-736766D01*
X-2041290D01*
X-2039181Y-738098D01*
X-2037294Y-739763D01*
X-2035740Y-741428D01*
X-2034408Y-743093D01*
X-2033409Y-744536D01*
X-2032743Y-745757D01*
X-2032521Y-746201D01*
X-2032299Y-746534D01*
X-2032188Y-746756D01*
Y-746867D01*
X-2031189Y-749531D01*
X-2030523Y-752195D01*
X-2029968Y-754859D01*
X-2029635Y-757301D01*
X-2029524Y-758411D01*
X-2029413Y-759410D01*
Y-760298D01*
X-2029302Y-761075D01*
Y-761741D01*
Y-762185D01*
Y-762518D01*
Y-762629D01*
X-2029413Y-765182D01*
X-2029635Y-767513D01*
X-2029968Y-769844D01*
X-2030412Y-771842D01*
X-2030856Y-773840D01*
X-2031522Y-775505D01*
X-2032077Y-777170D01*
X-2032743Y-778613D01*
X-2033409Y-779834D01*
X-2033964Y-780944D01*
X-2034630Y-781943D01*
X-2035074Y-782720D01*
X-2035518Y-783275D01*
X-2035851Y-783719D01*
X-2036073Y-783941D01*
X-2036184Y-784052D01*
X-2037516Y-785383D01*
X-2038959Y-786493D01*
X-2040402Y-787492D01*
X-2041956Y-788380D01*
X-2043510Y-789046D01*
X-2044953Y-789712D01*
X-2047950Y-790600D01*
X-2049282Y-790822D01*
X-2050503Y-791044D01*
X-2051613Y-791266D01*
X-2052612Y-791377D01*
X-2053389Y-791488D01*
X-2054499D01*
X-2056164Y-791377D01*
X-2057828Y-791266D01*
X-2060714Y-790600D01*
X-2063378Y-789823D01*
X-2065598Y-788824D01*
X-2066486Y-788269D01*
X-2067374Y-787825D01*
X-2068151Y-787381D01*
X-2068706Y-786937D01*
X-2069150Y-786604D01*
X-2069483Y-786382D01*
X-2069705Y-786271D01*
X-2069816Y-786160D01*
X-2070926Y-785051D01*
X-2071925Y-783941D01*
X-2073701Y-781499D01*
X-2075144Y-778946D01*
X-2076143Y-776615D01*
X-2076920Y-774395D01*
X-2077142Y-773507D01*
X-2077364Y-772619D01*
X-2077475Y-771953D01*
X-2077586Y-771509D01*
X-2077697Y-771176D01*
Y-771065D01*
X-2068373Y-769844D01*
X-2067929Y-772286D01*
X-2067263Y-774506D01*
X-2066375Y-776282D01*
X-2065598Y-777725D01*
X-2064821Y-778946D01*
X-2064155Y-779723D01*
X-2063822Y-780278D01*
X-2063600Y-780389D01*
X-2062157Y-781499D01*
X-2060603Y-782276D01*
X-2059049Y-782942D01*
X-2057607Y-783275D01*
X-2056386Y-783497D01*
X-2055276Y-783608D01*
X-2054610Y-783719D01*
X-2054388D01*
X-2053167Y-783608D01*
X-2051946Y-783497D01*
X-2049726Y-782942D01*
X-2047839Y-782165D01*
X-2046174Y-781166D01*
X-2044953Y-780278D01*
X-2043954Y-779501D01*
X-2043399Y-778946D01*
X-2043177Y-778724D01*
X-2042400Y-777725D01*
X-2041734Y-776504D01*
X-2040735Y-774062D01*
X-2039958Y-771287D01*
X-2039514Y-768623D01*
X-2039181Y-766181D01*
X-2039070Y-765182D01*
Y-764183D01*
X-2038959Y-763517D01*
Y-762851D01*
Y-762518D01*
Y-762407D01*
Y-760409D01*
X-2039181Y-758522D01*
X-2039403Y-756746D01*
X-2039625Y-755192D01*
X-2039958Y-753749D01*
X-2040402Y-752417D01*
X-2040735Y-751196D01*
X-2041179Y-750086D01*
X-2041623Y-749198D01*
X-2041956Y-748421D01*
X-2042400Y-747755D01*
X-2042733Y-747200D01*
X-2042955Y-746756D01*
X-2043177Y-746423D01*
X-2043399Y-746312D01*
Y-746201D01*
X-2044287Y-745313D01*
X-2045175Y-744536D01*
X-2047062Y-743204D01*
X-2049060Y-742316D01*
X-2050836Y-741761D01*
X-2052501Y-741317D01*
X-2053722Y-741206D01*
X-2054277Y-741095D01*
X-2054943D01*
X-2056608Y-741206D01*
X-2058161Y-741539D01*
X-2059493Y-741983D01*
X-2060714Y-742538D01*
X-2061602Y-743093D01*
X-2062379Y-743537D01*
X-2062823Y-743870D01*
X-2062934Y-743981D01*
X-2064044Y-745091D01*
X-2065043Y-746423D01*
X-2065931Y-747866D01*
X-2066486Y-749198D01*
X-2067041Y-750419D01*
X-2067374Y-751418D01*
X-2067485Y-752084D01*
X-2067596Y-752195D01*
Y-752306D01*
X-2076809Y-750863D01*
X-2076032Y-747866D01*
X-2074922Y-745313D01*
X-2073701Y-743093D01*
X-2072480Y-741317D01*
X-2071259Y-739874D01*
X-2070260Y-738875D01*
X-2069594Y-738209D01*
X-2069483Y-737987D01*
X-2069372D01*
X-2067041Y-736433D01*
X-2064599Y-735323D01*
X-2062157Y-734435D01*
X-2059826Y-733880D01*
X-2057718Y-733547D01*
X-2056830Y-733436D01*
X-2056164D01*
X-2055498Y-733325D01*
X-2054610D01*
X-2051946Y-733436D01*
D02*
G37*
G36*
X-1938617D02*
X-1936175Y-733880D01*
X-1933844Y-734435D01*
X-1931957Y-734990D01*
X-1930292Y-735656D01*
X-1929626Y-735989D01*
X-1929071Y-736211D01*
X-1928627Y-736433D01*
X-1928294Y-736655D01*
X-1928072Y-736766D01*
X-1927961D01*
X-1925852Y-738098D01*
X-1923965Y-739763D01*
X-1922411Y-741428D01*
X-1921079Y-743093D01*
X-1920080Y-744536D01*
X-1919414Y-745757D01*
X-1919192Y-746201D01*
X-1918970Y-746534D01*
X-1918859Y-746756D01*
Y-746867D01*
X-1917860Y-749531D01*
X-1917194Y-752195D01*
X-1916639Y-754859D01*
X-1916306Y-757301D01*
X-1916195Y-758411D01*
X-1916084Y-759410D01*
Y-760298D01*
X-1915973Y-761075D01*
Y-761741D01*
Y-762185D01*
Y-762518D01*
Y-762629D01*
X-1916084Y-765182D01*
X-1916306Y-767513D01*
X-1916639Y-769844D01*
X-1917083Y-771842D01*
X-1917527Y-773840D01*
X-1918193Y-775505D01*
X-1918748Y-777170D01*
X-1919414Y-778613D01*
X-1920080Y-779834D01*
X-1920635Y-780944D01*
X-1921301Y-781943D01*
X-1921745Y-782720D01*
X-1922189Y-783275D01*
X-1922522Y-783719D01*
X-1922744Y-783941D01*
X-1922855Y-784052D01*
X-1924187Y-785383D01*
X-1925630Y-786493D01*
X-1927073Y-787492D01*
X-1928627Y-788380D01*
X-1930181Y-789046D01*
X-1931624Y-789712D01*
X-1934621Y-790600D01*
X-1935953Y-790822D01*
X-1937174Y-791044D01*
X-1938284Y-791266D01*
X-1939283Y-791377D01*
X-1940060Y-791488D01*
X-1941170D01*
X-1942835Y-791377D01*
X-1944500Y-791266D01*
X-1947385Y-790600D01*
X-1950049Y-789823D01*
X-1952269Y-788824D01*
X-1953157Y-788269D01*
X-1954045Y-787825D01*
X-1954822Y-787381D01*
X-1955377Y-786937D01*
X-1955821Y-786604D01*
X-1956154Y-786382D01*
X-1956376Y-786271D01*
X-1956487Y-786160D01*
X-1957597Y-785051D01*
X-1958596Y-783941D01*
X-1960372Y-781499D01*
X-1961815Y-778946D01*
X-1962814Y-776615D01*
X-1963591Y-774395D01*
X-1963813Y-773507D01*
X-1964035Y-772619D01*
X-1964146Y-771953D01*
X-1964257Y-771509D01*
X-1964368Y-771176D01*
Y-771065D01*
X-1955044Y-769844D01*
X-1954600Y-772286D01*
X-1953934Y-774506D01*
X-1953046Y-776282D01*
X-1952269Y-777725D01*
X-1951492Y-778946D01*
X-1950826Y-779723D01*
X-1950493Y-780278D01*
X-1950271Y-780389D01*
X-1948828Y-781499D01*
X-1947274Y-782276D01*
X-1945721Y-782942D01*
X-1944278Y-783275D01*
X-1943057Y-783497D01*
X-1941947Y-783608D01*
X-1941281Y-783719D01*
X-1941059D01*
X-1939838Y-783608D01*
X-1938617Y-783497D01*
X-1936397Y-782942D01*
X-1934510Y-782165D01*
X-1932845Y-781166D01*
X-1931624Y-780278D01*
X-1930625Y-779501D01*
X-1930070Y-778946D01*
X-1929848Y-778724D01*
X-1929071Y-777725D01*
X-1928405Y-776504D01*
X-1927406Y-774062D01*
X-1926629Y-771287D01*
X-1926185Y-768623D01*
X-1925852Y-766181D01*
X-1925741Y-765182D01*
Y-764183D01*
X-1925630Y-763517D01*
Y-762851D01*
Y-762518D01*
Y-762407D01*
Y-760409D01*
X-1925852Y-758522D01*
X-1926074Y-756746D01*
X-1926296Y-755192D01*
X-1926629Y-753749D01*
X-1927073Y-752417D01*
X-1927406Y-751196D01*
X-1927850Y-750086D01*
X-1928294Y-749198D01*
X-1928627Y-748421D01*
X-1929071Y-747755D01*
X-1929404Y-747200D01*
X-1929626Y-746756D01*
X-1929848Y-746423D01*
X-1930070Y-746312D01*
Y-746201D01*
X-1930958Y-745313D01*
X-1931846Y-744536D01*
X-1933733Y-743204D01*
X-1935731Y-742316D01*
X-1937507Y-741761D01*
X-1939172Y-741317D01*
X-1940393Y-741206D01*
X-1940948Y-741095D01*
X-1941614D01*
X-1943279Y-741206D01*
X-1944833Y-741539D01*
X-1946165Y-741983D01*
X-1947385Y-742538D01*
X-1948273Y-743093D01*
X-1949050Y-743537D01*
X-1949494Y-743870D01*
X-1949605Y-743981D01*
X-1950715Y-745091D01*
X-1951714Y-746423D01*
X-1952602Y-747866D01*
X-1953157Y-749198D01*
X-1953712Y-750419D01*
X-1954045Y-751418D01*
X-1954156Y-752084D01*
X-1954267Y-752195D01*
Y-752306D01*
X-1963480Y-750863D01*
X-1962703Y-747866D01*
X-1961593Y-745313D01*
X-1960372Y-743093D01*
X-1959151Y-741317D01*
X-1957930Y-739874D01*
X-1956931Y-738875D01*
X-1956265Y-738209D01*
X-1956154Y-737987D01*
X-1956043D01*
X-1953712Y-736433D01*
X-1951270Y-735323D01*
X-1948828Y-734435D01*
X-1946498Y-733880D01*
X-1944389Y-733547D01*
X-1943501Y-733436D01*
X-1942835D01*
X-1942169Y-733325D01*
X-1941281D01*
X-1938617Y-733436D01*
D02*
G37*
G36*
X-1724502D02*
X-1722504Y-733658D01*
X-1720617Y-733991D01*
X-1718841Y-734546D01*
X-1717176Y-735101D01*
X-1715622Y-735767D01*
X-1714179Y-736433D01*
X-1712958Y-737210D01*
X-1711737Y-737876D01*
X-1710738Y-738653D01*
X-1709850Y-739319D01*
X-1709184Y-739874D01*
X-1708629Y-740429D01*
X-1708185Y-740762D01*
X-1707963Y-740984D01*
X-1707852Y-741095D01*
X-1706631Y-742649D01*
X-1705521Y-744314D01*
X-1704522Y-745979D01*
X-1703634Y-747755D01*
X-1702968Y-749642D01*
X-1702413Y-751418D01*
X-1701525Y-754970D01*
X-1701192Y-756524D01*
X-1700970Y-758078D01*
X-1700859Y-759410D01*
X-1700748Y-760631D01*
X-1700637Y-761630D01*
Y-762296D01*
Y-762851D01*
Y-762962D01*
X-1700748Y-765404D01*
X-1700970Y-767735D01*
X-1701303Y-769955D01*
X-1701747Y-771953D01*
X-1702302Y-773840D01*
X-1702857Y-775616D01*
X-1703523Y-777170D01*
X-1704189Y-778613D01*
X-1704855Y-779834D01*
X-1705521Y-780944D01*
X-1706076Y-781832D01*
X-1706631Y-782609D01*
X-1707075Y-783275D01*
X-1707408Y-783719D01*
X-1707630Y-783941D01*
X-1707741Y-784052D01*
X-1709184Y-785383D01*
X-1710627Y-786493D01*
X-1712181Y-787492D01*
X-1713846Y-788380D01*
X-1715400Y-789046D01*
X-1717065Y-789712D01*
X-1720173Y-790600D01*
X-1721616Y-790822D01*
X-1722948Y-791044D01*
X-1724169Y-791266D01*
X-1725167Y-791377D01*
X-1725944Y-791488D01*
X-1727165D01*
X-1730606Y-791266D01*
X-1733714Y-790711D01*
X-1736489Y-790045D01*
X-1737599Y-789601D01*
X-1738709Y-789157D01*
X-1739708Y-788713D01*
X-1740596Y-788269D01*
X-1741262Y-787936D01*
X-1741928Y-787603D01*
X-1742372Y-787270D01*
X-1742705Y-787048D01*
X-1742927Y-786826D01*
X-1743038D01*
X-1745258Y-784829D01*
X-1747034Y-782720D01*
X-1748588Y-780500D01*
X-1749698Y-778391D01*
X-1750586Y-776504D01*
X-1750919Y-775616D01*
X-1751252Y-774950D01*
X-1751474Y-774284D01*
X-1751585Y-773840D01*
X-1751696Y-773618D01*
Y-773507D01*
X-1741928Y-772286D01*
X-1741040Y-774395D01*
X-1740041Y-776171D01*
X-1739042Y-777725D01*
X-1738154Y-778946D01*
X-1737377Y-779834D01*
X-1736711Y-780500D01*
X-1736156Y-780944D01*
X-1736045Y-781055D01*
X-1734602Y-781943D01*
X-1733159Y-782609D01*
X-1731605Y-783053D01*
X-1730273Y-783386D01*
X-1729052Y-783608D01*
X-1728053Y-783719D01*
X-1727165D01*
X-1725833Y-783608D01*
X-1724613Y-783497D01*
X-1722393Y-782942D01*
X-1720395Y-782165D01*
X-1718619Y-781277D01*
X-1717287Y-780500D01*
X-1716288Y-779723D01*
X-1715622Y-779168D01*
X-1715511Y-778946D01*
X-1715400D01*
X-1713846Y-776948D01*
X-1712625Y-774728D01*
X-1711737Y-772286D01*
X-1711071Y-770066D01*
X-1710738Y-768068D01*
X-1710516Y-767180D01*
X-1710405Y-766403D01*
Y-765737D01*
X-1710294Y-765293D01*
Y-764960D01*
Y-764849D01*
X-1751918D01*
X-1752029Y-763739D01*
Y-762962D01*
Y-762518D01*
Y-762407D01*
X-1751918Y-759854D01*
X-1751696Y-757523D01*
X-1751363Y-755303D01*
X-1750919Y-753194D01*
X-1750364Y-751307D01*
X-1749809Y-749531D01*
X-1749143Y-747977D01*
X-1748477Y-746534D01*
X-1747811Y-745202D01*
X-1747145Y-744092D01*
X-1746590Y-743204D01*
X-1746035Y-742427D01*
X-1745591Y-741761D01*
X-1745258Y-741317D01*
X-1745036Y-741095D01*
X-1744925Y-740984D01*
X-1743593Y-739652D01*
X-1742150Y-738431D01*
X-1740596Y-737432D01*
X-1739042Y-736544D01*
X-1737488Y-735767D01*
X-1736045Y-735212D01*
X-1734491Y-734657D01*
X-1733159Y-734324D01*
X-1731716Y-733991D01*
X-1730495Y-733769D01*
X-1729385Y-733547D01*
X-1728497Y-733436D01*
X-1727720Y-733325D01*
X-1726610D01*
X-1724502Y-733436D01*
D02*
G37*
G36*
X-659476Y-790267D02*
X-668911D01*
Y-734546D01*
X-659476D01*
Y-790267D01*
D02*
G37*
G36*
X-964054Y-733436D02*
X-962056Y-733769D01*
X-960280Y-734213D01*
X-958504Y-734768D01*
X-956950Y-735434D01*
X-955507Y-736211D01*
X-954175Y-737099D01*
X-953065Y-737876D01*
X-951955Y-738764D01*
X-951067Y-739652D01*
X-950290Y-740429D01*
X-949624Y-741095D01*
X-949180Y-741650D01*
X-948847Y-742094D01*
X-948625Y-742427D01*
X-948514Y-742538D01*
Y-734546D01*
X-940079D01*
Y-790267D01*
X-949513D01*
Y-759965D01*
Y-758078D01*
X-949735Y-756191D01*
X-949957Y-754637D01*
X-950179Y-753194D01*
X-950512Y-751862D01*
X-950845Y-750641D01*
X-951289Y-749531D01*
X-951733Y-748643D01*
X-952066Y-747866D01*
X-952510Y-747200D01*
X-952843Y-746645D01*
X-953176Y-746201D01*
X-953620Y-745646D01*
X-953842Y-745424D01*
X-955507Y-744092D01*
X-957283Y-743204D01*
X-959059Y-742538D01*
X-960613Y-741983D01*
X-962056Y-741761D01*
X-963166Y-741650D01*
X-963610Y-741539D01*
X-964165D01*
X-965497Y-741650D01*
X-966829Y-741761D01*
X-967939Y-742094D01*
X-968827Y-742427D01*
X-969604Y-742760D01*
X-970270Y-742982D01*
X-970603Y-743204D01*
X-970714Y-743315D01*
X-971713Y-743981D01*
X-972601Y-744758D01*
X-973267Y-745535D01*
X-973822Y-746201D01*
X-974155Y-746867D01*
X-974488Y-747422D01*
X-974710Y-747755D01*
Y-747866D01*
X-975043Y-749087D01*
X-975376Y-750419D01*
X-975598Y-751862D01*
X-975709Y-753305D01*
X-975820Y-754526D01*
Y-755525D01*
Y-756302D01*
Y-756413D01*
Y-756524D01*
Y-790267D01*
X-985255D01*
Y-756080D01*
Y-753749D01*
X-985144Y-751862D01*
X-985033Y-750308D01*
Y-748976D01*
X-984922Y-748088D01*
X-984811Y-747422D01*
X-984700Y-746978D01*
Y-746867D01*
X-984367Y-745424D01*
X-983812Y-744092D01*
X-983368Y-742982D01*
X-982924Y-741872D01*
X-982369Y-741095D01*
X-982036Y-740540D01*
X-981814Y-740096D01*
X-981703Y-739985D01*
X-980815Y-738875D01*
X-979816Y-737987D01*
X-978817Y-737099D01*
X-977707Y-736433D01*
X-976819Y-735878D01*
X-976042Y-735545D01*
X-975598Y-735323D01*
X-975376Y-735212D01*
X-973822Y-734546D01*
X-972157Y-734102D01*
X-970603Y-733769D01*
X-969160Y-733547D01*
X-967939Y-733436D01*
X-967051Y-733325D01*
X-966163D01*
X-964054Y-733436D01*
D02*
G37*
G36*
X-349014Y-790267D02*
X-358449D01*
Y-734546D01*
X-349014D01*
Y-790267D01*
D02*
G37*
%LPC*%
G36*
X-1075385Y-741095D02*
X-1076051D01*
X-1077383Y-741206D01*
X-1078604Y-741317D01*
X-1080824Y-741872D01*
X-1082822Y-742760D01*
X-1084487Y-743759D01*
X-1085819Y-744758D01*
X-1086818Y-745535D01*
X-1087484Y-746201D01*
X-1087706Y-746312D01*
Y-746423D01*
X-1088594Y-747422D01*
X-1089260Y-748643D01*
X-1090481Y-751085D01*
X-1091369Y-753749D01*
X-1091924Y-756191D01*
X-1092257Y-758522D01*
X-1092368Y-759521D01*
Y-760409D01*
X-1092479Y-761075D01*
Y-761630D01*
Y-761963D01*
Y-762074D01*
Y-764072D01*
X-1092257Y-765959D01*
X-1092035Y-767624D01*
X-1091702Y-769289D01*
X-1091369Y-770732D01*
X-1090925Y-772064D01*
X-1090592Y-773285D01*
X-1090148Y-774395D01*
X-1089704Y-775283D01*
X-1089260Y-776171D01*
X-1088816Y-776837D01*
X-1088483Y-777392D01*
X-1088150Y-777836D01*
X-1087928Y-778169D01*
X-1087817Y-778280D01*
X-1087706Y-778391D01*
X-1086818Y-779279D01*
X-1085819Y-780167D01*
X-1083932Y-781499D01*
X-1081934Y-782387D01*
X-1080158Y-783053D01*
X-1078493Y-783386D01*
X-1077272Y-783608D01*
X-1076717Y-783719D01*
X-1076051D01*
X-1074719Y-783608D01*
X-1073498Y-783497D01*
X-1071167Y-782942D01*
X-1069169Y-782054D01*
X-1067504Y-781055D01*
X-1066172Y-780167D01*
X-1065173Y-779279D01*
X-1064507Y-778724D01*
X-1064396Y-778502D01*
X-1064285D01*
X-1063508Y-777392D01*
X-1062731Y-776282D01*
X-1061621Y-773729D01*
X-1060733Y-771065D01*
X-1060178Y-768401D01*
X-1059845Y-766070D01*
X-1059734Y-765071D01*
Y-764183D01*
X-1059623Y-763406D01*
Y-762851D01*
Y-762518D01*
Y-762407D01*
X-1059734Y-760520D01*
X-1059845Y-758633D01*
X-1060067Y-756968D01*
X-1060400Y-755414D01*
X-1060733Y-753971D01*
X-1061066Y-752639D01*
X-1061510Y-751529D01*
X-1061954Y-750419D01*
X-1062398Y-749531D01*
X-1062842Y-748643D01*
X-1063175Y-747977D01*
X-1063508Y-747422D01*
X-1063841Y-746978D01*
X-1064063Y-746645D01*
X-1064285Y-746534D01*
Y-746423D01*
X-1065173Y-745535D01*
X-1066172Y-744647D01*
X-1068059Y-743315D01*
X-1070057Y-742427D01*
X-1071944Y-741761D01*
X-1073609Y-741317D01*
X-1074830Y-741206D01*
X-1075385Y-741095D01*
D02*
G37*
G36*
X-1229006D02*
X-1229561D01*
X-1230782Y-741206D01*
X-1231892Y-741317D01*
X-1234001Y-741983D01*
X-1235888Y-742760D01*
X-1237442Y-743759D01*
X-1238663Y-744758D01*
X-1239662Y-745646D01*
X-1240217Y-746312D01*
X-1240439Y-746423D01*
Y-746534D01*
X-1241216Y-747644D01*
X-1241882Y-748754D01*
X-1242992Y-751418D01*
X-1243769Y-754193D01*
X-1244324Y-756857D01*
X-1244546Y-758189D01*
X-1244657Y-759410D01*
X-1244768Y-760520D01*
Y-761408D01*
X-1244879Y-762185D01*
Y-762740D01*
Y-763184D01*
Y-763295D01*
Y-765182D01*
X-1244657Y-766958D01*
X-1244435Y-768512D01*
X-1244213Y-770066D01*
X-1243880Y-771398D01*
X-1243436Y-772730D01*
X-1243103Y-773840D01*
X-1242659Y-774839D01*
X-1242215Y-775727D01*
X-1241882Y-776615D01*
X-1241438Y-777170D01*
X-1241105Y-777725D01*
X-1240883Y-778169D01*
X-1240661Y-778502D01*
X-1240439Y-778613D01*
Y-778724D01*
X-1239662Y-779612D01*
X-1238774Y-780389D01*
X-1236998Y-781610D01*
X-1235222Y-782498D01*
X-1233557Y-783053D01*
X-1232114Y-783497D01*
X-1230893Y-783608D01*
X-1230449Y-783719D01*
X-1229894D01*
X-1228784Y-783608D01*
X-1227674Y-783497D01*
X-1225676Y-782942D01*
X-1223790Y-782054D01*
X-1222236Y-781055D01*
X-1221015Y-780167D01*
X-1220016Y-779279D01*
X-1219461Y-778724D01*
X-1219350Y-778502D01*
X-1219239D01*
X-1218462Y-777392D01*
X-1217796Y-776282D01*
X-1216686Y-773729D01*
X-1215909Y-771065D01*
X-1215354Y-768512D01*
X-1215021Y-766181D01*
X-1214910Y-765182D01*
Y-764294D01*
X-1214799Y-763517D01*
Y-762962D01*
Y-762629D01*
Y-762518D01*
Y-760520D01*
X-1215021Y-758633D01*
X-1215243Y-756857D01*
X-1215465Y-755303D01*
X-1215798Y-753860D01*
X-1216131Y-752528D01*
X-1216464Y-751307D01*
X-1216908Y-750197D01*
X-1217352Y-749309D01*
X-1217685Y-748532D01*
X-1218018Y-747866D01*
X-1218351Y-747311D01*
X-1218684Y-746867D01*
X-1218795Y-746534D01*
X-1219017Y-746423D01*
Y-746312D01*
X-1219794Y-745424D01*
X-1220682Y-744536D01*
X-1222458Y-743315D01*
X-1224234Y-742316D01*
X-1225898Y-741761D01*
X-1227341Y-741317D01*
X-1228562Y-741206D01*
X-1229006Y-741095D01*
D02*
G37*
G36*
X-902228D02*
X-902894D01*
X-904226Y-741206D01*
X-905447Y-741317D01*
X-907667Y-741872D01*
X-909665Y-742760D01*
X-911330Y-743759D01*
X-912662Y-744758D01*
X-913661Y-745535D01*
X-914327Y-746201D01*
X-914549Y-746312D01*
Y-746423D01*
X-915437Y-747422D01*
X-916103Y-748643D01*
X-917324Y-751085D01*
X-918212Y-753749D01*
X-918767Y-756191D01*
X-919100Y-758522D01*
X-919211Y-759521D01*
Y-760409D01*
X-919322Y-761075D01*
Y-761630D01*
Y-761963D01*
Y-762074D01*
Y-764072D01*
X-919100Y-765959D01*
X-918878Y-767624D01*
X-918545Y-769289D01*
X-918212Y-770732D01*
X-917768Y-772064D01*
X-917435Y-773285D01*
X-916991Y-774395D01*
X-916547Y-775283D01*
X-916103Y-776171D01*
X-915659Y-776837D01*
X-915326Y-777392D01*
X-914993Y-777836D01*
X-914771Y-778169D01*
X-914660Y-778280D01*
X-914549Y-778391D01*
X-913661Y-779279D01*
X-912662Y-780167D01*
X-910775Y-781499D01*
X-908777Y-782387D01*
X-907001Y-783053D01*
X-905336Y-783386D01*
X-904115Y-783608D01*
X-903560Y-783719D01*
X-902894D01*
X-901562Y-783608D01*
X-900341Y-783497D01*
X-898010Y-782942D01*
X-896012Y-782054D01*
X-894347Y-781055D01*
X-893015Y-780167D01*
X-892017Y-779279D01*
X-891351Y-778724D01*
X-891240Y-778502D01*
X-891129D01*
X-890352Y-777392D01*
X-889575Y-776282D01*
X-888465Y-773729D01*
X-887577Y-771065D01*
X-887022Y-768401D01*
X-886689Y-766070D01*
X-886578Y-765071D01*
Y-764183D01*
X-886467Y-763406D01*
Y-762851D01*
Y-762518D01*
Y-762407D01*
X-886578Y-760520D01*
X-886689Y-758633D01*
X-886911Y-756968D01*
X-887244Y-755414D01*
X-887577Y-753971D01*
X-887910Y-752639D01*
X-888354Y-751529D01*
X-888798Y-750419D01*
X-889242Y-749531D01*
X-889686Y-748643D01*
X-890019Y-747977D01*
X-890352Y-747422D01*
X-890685Y-746978D01*
X-890907Y-746645D01*
X-891129Y-746534D01*
Y-746423D01*
X-892017Y-745535D01*
X-893015Y-744647D01*
X-894902Y-743315D01*
X-896900Y-742427D01*
X-898787Y-741761D01*
X-900452Y-741317D01*
X-901673Y-741206D01*
X-902228Y-741095D01*
D02*
G37*
G36*
X-1880898D02*
X-1881564D01*
X-1882896Y-741206D01*
X-1884117Y-741317D01*
X-1886337Y-741872D01*
X-1888335Y-742760D01*
X-1890000Y-743759D01*
X-1891331Y-744758D01*
X-1892330Y-745535D01*
X-1892996Y-746201D01*
X-1893218Y-746312D01*
Y-746423D01*
X-1894106Y-747422D01*
X-1894772Y-748643D01*
X-1895993Y-751085D01*
X-1896881Y-753749D01*
X-1897436Y-756191D01*
X-1897769Y-758522D01*
X-1897880Y-759521D01*
Y-760409D01*
X-1897991Y-761075D01*
Y-761630D01*
Y-761963D01*
Y-762074D01*
Y-764072D01*
X-1897769Y-765959D01*
X-1897547Y-767624D01*
X-1897214Y-769289D01*
X-1896881Y-770732D01*
X-1896437Y-772064D01*
X-1896104Y-773285D01*
X-1895660Y-774395D01*
X-1895216Y-775283D01*
X-1894772Y-776171D01*
X-1894328Y-776837D01*
X-1893995Y-777392D01*
X-1893662Y-777836D01*
X-1893440Y-778169D01*
X-1893329Y-778280D01*
X-1893218Y-778391D01*
X-1892330Y-779279D01*
X-1891331Y-780167D01*
X-1889445Y-781499D01*
X-1887447Y-782387D01*
X-1885671Y-783053D01*
X-1884006Y-783386D01*
X-1882785Y-783608D01*
X-1882230Y-783719D01*
X-1881564D01*
X-1880232Y-783608D01*
X-1879011Y-783497D01*
X-1876680Y-782942D01*
X-1874682Y-782054D01*
X-1873017Y-781055D01*
X-1871685Y-780167D01*
X-1870686Y-779279D01*
X-1870020Y-778724D01*
X-1869909Y-778502D01*
X-1869798D01*
X-1869021Y-777392D01*
X-1868244Y-776282D01*
X-1867134Y-773729D01*
X-1866246Y-771065D01*
X-1865691Y-768401D01*
X-1865358Y-766070D01*
X-1865247Y-765071D01*
Y-764183D01*
X-1865136Y-763406D01*
Y-762851D01*
Y-762518D01*
Y-762407D01*
X-1865247Y-760520D01*
X-1865358Y-758633D01*
X-1865580Y-756968D01*
X-1865913Y-755414D01*
X-1866246Y-753971D01*
X-1866579Y-752639D01*
X-1867023Y-751529D01*
X-1867467Y-750419D01*
X-1867911Y-749531D01*
X-1868355Y-748643D01*
X-1868688Y-747977D01*
X-1869021Y-747422D01*
X-1869354Y-746978D01*
X-1869576Y-746645D01*
X-1869798Y-746534D01*
Y-746423D01*
X-1870686Y-745535D01*
X-1871685Y-744647D01*
X-1873572Y-743315D01*
X-1875570Y-742427D01*
X-1877457Y-741761D01*
X-1879122Y-741317D01*
X-1880343Y-741206D01*
X-1880898Y-741095D01*
D02*
G37*
G36*
X-479659Y-740762D02*
X-480214D01*
X-481324Y-740873D01*
X-482434Y-740984D01*
X-484432Y-741539D01*
X-486208Y-742427D01*
X-487762Y-743426D01*
X-488983Y-744425D01*
X-489871Y-745202D01*
X-490426Y-745868D01*
X-490648Y-745979D01*
Y-746090D01*
X-491425Y-747089D01*
X-492091Y-748310D01*
X-493201Y-750863D01*
X-493978Y-753416D01*
X-494533Y-755969D01*
X-494866Y-758300D01*
X-494977Y-759299D01*
Y-760187D01*
X-495088Y-760964D01*
Y-761519D01*
Y-761852D01*
Y-761963D01*
Y-763961D01*
X-494866Y-765848D01*
X-494644Y-767624D01*
X-494422Y-769289D01*
X-494089Y-770732D01*
X-493645Y-772064D01*
X-493201Y-773396D01*
X-492868Y-774395D01*
X-492424Y-775394D01*
X-491980Y-776171D01*
X-491647Y-776948D01*
X-491203Y-777503D01*
X-490981Y-777947D01*
X-490759Y-778280D01*
X-490537Y-778391D01*
Y-778502D01*
X-489649Y-779390D01*
X-488761Y-780167D01*
X-486985Y-781499D01*
X-485209Y-782387D01*
X-483544Y-783053D01*
X-481990Y-783386D01*
X-480880Y-783608D01*
X-480436Y-783719D01*
X-479770D01*
X-478660Y-783608D01*
X-477550Y-783497D01*
X-475552Y-782942D01*
X-473776Y-782054D01*
X-472222Y-781166D01*
X-471001Y-780278D01*
X-470113Y-779390D01*
X-469558Y-778835D01*
X-469336Y-778613D01*
X-468559Y-777614D01*
X-467893Y-776504D01*
X-466783Y-773951D01*
X-466117Y-771398D01*
X-465562Y-768734D01*
X-465229Y-766403D01*
X-465118Y-765404D01*
Y-764516D01*
X-465007Y-763739D01*
Y-763184D01*
Y-762851D01*
Y-762740D01*
Y-760742D01*
X-465229Y-758966D01*
X-465451Y-757301D01*
X-465673Y-755636D01*
X-466117Y-754193D01*
X-466450Y-752861D01*
X-466894Y-751640D01*
X-467338Y-750530D01*
X-467671Y-749642D01*
X-468115Y-748754D01*
X-468559Y-748088D01*
X-468892Y-747422D01*
X-469114Y-746978D01*
X-469336Y-746645D01*
X-469558Y-746534D01*
Y-746423D01*
X-470446Y-745424D01*
X-471334Y-744536D01*
X-472222Y-743759D01*
X-473221Y-743093D01*
X-474997Y-742094D01*
X-476662Y-741428D01*
X-478105Y-741095D01*
X-479215Y-740873D01*
X-479659Y-740762D01*
D02*
G37*
G36*
X-843843D02*
X-844398D01*
X-845508Y-740873D01*
X-846618Y-740984D01*
X-848616Y-741539D01*
X-850392Y-742427D01*
X-851946Y-743426D01*
X-853167Y-744425D01*
X-854055Y-745202D01*
X-854610Y-745868D01*
X-854832Y-745979D01*
Y-746090D01*
X-855609Y-747089D01*
X-856275Y-748310D01*
X-857385Y-750863D01*
X-858162Y-753416D01*
X-858717Y-755969D01*
X-859050Y-758300D01*
X-859161Y-759299D01*
Y-760187D01*
X-859272Y-760964D01*
Y-761519D01*
Y-761852D01*
Y-761963D01*
Y-763961D01*
X-859050Y-765848D01*
X-858828Y-767624D01*
X-858606Y-769289D01*
X-858273Y-770732D01*
X-857829Y-772064D01*
X-857385Y-773396D01*
X-857052Y-774395D01*
X-856608Y-775394D01*
X-856164Y-776171D01*
X-855831Y-776948D01*
X-855387Y-777503D01*
X-855165Y-777947D01*
X-854943Y-778280D01*
X-854721Y-778391D01*
Y-778502D01*
X-853833Y-779390D01*
X-852945Y-780167D01*
X-851169Y-781499D01*
X-849393Y-782387D01*
X-847728Y-783053D01*
X-846174Y-783386D01*
X-845064Y-783608D01*
X-844620Y-783719D01*
X-843954D01*
X-842844Y-783608D01*
X-841734Y-783497D01*
X-839736Y-782942D01*
X-837960Y-782054D01*
X-836407Y-781166D01*
X-835186Y-780278D01*
X-834298Y-779390D01*
X-833743Y-778835D01*
X-833521Y-778613D01*
X-832744Y-777614D01*
X-832078Y-776504D01*
X-830968Y-773951D01*
X-830302Y-771398D01*
X-829747Y-768734D01*
X-829414Y-766403D01*
X-829303Y-765404D01*
Y-764516D01*
X-829192Y-763739D01*
Y-763184D01*
Y-762851D01*
Y-762740D01*
Y-760742D01*
X-829414Y-758966D01*
X-829636Y-757301D01*
X-829858Y-755636D01*
X-830302Y-754193D01*
X-830635Y-752861D01*
X-831079Y-751640D01*
X-831523Y-750530D01*
X-831856Y-749642D01*
X-832300Y-748754D01*
X-832744Y-748088D01*
X-833077Y-747422D01*
X-833299Y-746978D01*
X-833521Y-746645D01*
X-833743Y-746534D01*
Y-746423D01*
X-834631Y-745424D01*
X-835519Y-744536D01*
X-836407Y-743759D01*
X-837405Y-743093D01*
X-839181Y-742094D01*
X-840846Y-741428D01*
X-842289Y-741095D01*
X-843399Y-740873D01*
X-843843Y-740762D01*
D02*
G37*
G36*
X-2358411Y-741095D02*
X-2359077D01*
X-2360409Y-741206D01*
X-2361630Y-741317D01*
X-2363850Y-741872D01*
X-2365848Y-742760D01*
X-2367513Y-743759D01*
X-2368845Y-744758D01*
X-2369844Y-745535D01*
X-2370510Y-746201D01*
X-2370732Y-746312D01*
Y-746423D01*
X-2371620Y-747422D01*
X-2372286Y-748643D01*
X-2373507Y-751085D01*
X-2374395Y-753749D01*
X-2374950Y-756191D01*
X-2375283Y-758522D01*
X-2375394Y-759521D01*
Y-760409D01*
X-2375505Y-761075D01*
Y-761630D01*
Y-761963D01*
Y-762074D01*
Y-764072D01*
X-2375283Y-765959D01*
X-2375061Y-767624D01*
X-2374728Y-769289D01*
X-2374395Y-770732D01*
X-2373951Y-772064D01*
X-2373618Y-773285D01*
X-2373174Y-774395D01*
X-2372730Y-775283D01*
X-2372286Y-776171D01*
X-2371842Y-776837D01*
X-2371509Y-777392D01*
X-2371176Y-777836D01*
X-2370954Y-778169D01*
X-2370843Y-778280D01*
X-2370732Y-778391D01*
X-2369844Y-779279D01*
X-2368845Y-780167D01*
X-2366958Y-781499D01*
X-2364960Y-782387D01*
X-2363184Y-783053D01*
X-2361519Y-783386D01*
X-2360298Y-783608D01*
X-2359743Y-783719D01*
X-2359077D01*
X-2357745Y-783608D01*
X-2356524Y-783497D01*
X-2354193Y-782942D01*
X-2352195Y-782054D01*
X-2350530Y-781055D01*
X-2349198Y-780167D01*
X-2348199Y-779279D01*
X-2347533Y-778724D01*
X-2347422Y-778502D01*
X-2347311D01*
X-2346534Y-777392D01*
X-2345757Y-776282D01*
X-2344647Y-773729D01*
X-2343759Y-771065D01*
X-2343204Y-768401D01*
X-2342871Y-766070D01*
X-2342760Y-765071D01*
Y-764183D01*
X-2342649Y-763406D01*
Y-762851D01*
Y-762518D01*
Y-762407D01*
X-2342760Y-760520D01*
X-2342871Y-758633D01*
X-2343093Y-756968D01*
X-2343426Y-755414D01*
X-2343759Y-753971D01*
X-2344092Y-752639D01*
X-2344536Y-751529D01*
X-2344980Y-750419D01*
X-2345424Y-749531D01*
X-2345868Y-748643D01*
X-2346201Y-747977D01*
X-2346534Y-747422D01*
X-2346867Y-746978D01*
X-2347089Y-746645D01*
X-2347311Y-746534D01*
Y-746423D01*
X-2348199Y-745535D01*
X-2349198Y-744647D01*
X-2351085Y-743315D01*
X-2353083Y-742427D01*
X-2354970Y-741761D01*
X-2356635Y-741317D01*
X-2357856Y-741206D01*
X-2358411Y-741095D01*
D02*
G37*
G36*
X296059Y92498D02*
X277855D01*
Y33891D01*
X295615D01*
X297058Y34002D01*
X298501D01*
X299833Y34113D01*
X302053Y34446D01*
X303829Y34668D01*
X305272Y35001D01*
X306271Y35334D01*
X306826Y35445D01*
X307048Y35556D01*
X309046Y36555D01*
X310933Y37776D01*
X312598Y39219D01*
X314041Y40662D01*
X315151Y41994D01*
X316039Y43104D01*
X316261Y43548D01*
X316483Y43881D01*
X316705Y44103D01*
Y44214D01*
X317371Y45435D01*
X318037Y46878D01*
X319036Y49764D01*
X319702Y52872D01*
X320257Y55869D01*
X320368Y57201D01*
X320479Y58533D01*
X320590Y59643D01*
Y60642D01*
X320701Y61530D01*
Y62085D01*
Y62529D01*
Y62640D01*
X320590Y65748D01*
X320368Y68634D01*
X320035Y71187D01*
X319702Y73407D01*
X319480Y74294D01*
X319258Y75071D01*
X319036Y75848D01*
X318925Y76403D01*
X318814Y76847D01*
X318703Y77180D01*
X318592Y77402D01*
Y77513D01*
X317815Y79622D01*
X316927Y81509D01*
X315928Y83174D01*
X315040Y84617D01*
X314263Y85727D01*
X313597Y86504D01*
X313153Y86948D01*
X313042Y87170D01*
X311932Y88058D01*
X310822Y88835D01*
X309712Y89501D01*
X308602Y90167D01*
X307603Y90611D01*
X306826Y90944D01*
X306271Y91055D01*
X306049Y91166D01*
X304384Y91610D01*
X302386Y91943D01*
X300388Y92165D01*
X298501Y92276D01*
X296836Y92387D01*
X296059Y92498D01*
D02*
G37*
G36*
X378309Y58755D02*
X355443D01*
Y33336D01*
X379641D01*
X382638Y33447D01*
X385190Y33891D01*
X387410Y34446D01*
X389075Y35112D01*
X390518Y35778D01*
X391406Y36333D01*
X391961Y36777D01*
X392183Y36888D01*
X393515Y38331D01*
X394514Y39774D01*
X395180Y41328D01*
X395735Y42660D01*
X395957Y43992D01*
X396068Y44991D01*
X396179Y45657D01*
Y45768D01*
Y45879D01*
X396068Y47211D01*
X395846Y48543D01*
X395513Y49653D01*
X395180Y50652D01*
X394736Y51540D01*
X394403Y52206D01*
X394181Y52650D01*
X394070Y52761D01*
X393293Y53871D01*
X392294Y54870D01*
X391295Y55647D01*
X390296Y56313D01*
X389408Y56757D01*
X388742Y57090D01*
X388298Y57312D01*
X388076Y57423D01*
X386522Y57867D01*
X384746Y58200D01*
X382971Y58422D01*
X381195Y58533D01*
X379641Y58644D01*
X378309Y58755D01*
D02*
G37*
G36*
X261520Y1801393D02*
Y1766984D01*
X285717D01*
X261520Y1801393D01*
D02*
G37*
G36*
X-592877Y-741095D02*
X-594542D01*
X-595652Y-741317D01*
X-597761Y-741872D01*
X-599537Y-742760D01*
X-601091Y-743648D01*
X-602312Y-744647D01*
X-603200Y-745535D01*
X-603755Y-746090D01*
X-603977Y-746201D01*
Y-746312D01*
X-604754Y-747311D01*
X-605420Y-748532D01*
X-606530Y-750974D01*
X-607307Y-753749D01*
X-607751Y-756302D01*
X-608084Y-758633D01*
X-608195Y-759743D01*
Y-760631D01*
X-608306Y-761408D01*
Y-761963D01*
Y-762296D01*
Y-762407D01*
Y-764294D01*
X-608084Y-766181D01*
X-607862Y-767846D01*
X-607640Y-769400D01*
X-607307Y-770843D01*
X-606863Y-772175D01*
X-606419Y-773285D01*
X-606086Y-774395D01*
X-605642Y-775283D01*
X-605198Y-776171D01*
X-604865Y-776837D01*
X-604421Y-777392D01*
X-604199Y-777836D01*
X-603977Y-778169D01*
X-603755Y-778280D01*
Y-778391D01*
X-602867Y-779279D01*
X-601979Y-780167D01*
X-600203Y-781499D01*
X-598427Y-782387D01*
X-596762Y-783053D01*
X-595319Y-783386D01*
X-594098Y-783608D01*
X-593654Y-783719D01*
X-593099D01*
X-591656Y-783608D01*
X-590435Y-783386D01*
X-589103Y-783053D01*
X-587993Y-782609D01*
X-585884Y-781388D01*
X-584219Y-780056D01*
X-582776Y-778835D01*
X-581777Y-777614D01*
X-581444Y-777170D01*
X-581222Y-776837D01*
X-581000Y-776615D01*
Y-776504D01*
X-580556Y-775616D01*
X-580112Y-774617D01*
X-579446Y-772397D01*
X-579002Y-769955D01*
X-578669Y-767624D01*
X-578447Y-765515D01*
Y-764516D01*
X-578336Y-763739D01*
Y-763073D01*
Y-762518D01*
Y-762185D01*
Y-762074D01*
Y-760187D01*
X-578558Y-758522D01*
X-578780Y-756857D01*
X-579002Y-755303D01*
X-579335Y-753971D01*
X-579779Y-752639D01*
X-580112Y-751529D01*
X-580556Y-750419D01*
X-581000Y-749531D01*
X-581333Y-748754D01*
X-581777Y-748088D01*
X-582110Y-747533D01*
X-582332Y-747089D01*
X-582554Y-746756D01*
X-582776Y-746645D01*
Y-746534D01*
X-583664Y-745535D01*
X-584552Y-744758D01*
X-585440Y-743981D01*
X-586328Y-743426D01*
X-588104Y-742427D01*
X-589769Y-741761D01*
X-591212Y-741428D01*
X-592433Y-741206D01*
X-592877Y-741095D01*
D02*
G37*
G36*
X-1321246D02*
X-1322911D01*
X-1324021Y-741317D01*
X-1326130Y-741872D01*
X-1327906Y-742760D01*
X-1329460Y-743648D01*
X-1330681Y-744647D01*
X-1331569Y-745535D01*
X-1332124Y-746090D01*
X-1332346Y-746201D01*
Y-746312D01*
X-1333123Y-747311D01*
X-1333789Y-748532D01*
X-1334899Y-750974D01*
X-1335676Y-753749D01*
X-1336120Y-756302D01*
X-1336452Y-758633D01*
X-1336563Y-759743D01*
Y-760631D01*
X-1336674Y-761408D01*
Y-761963D01*
Y-762296D01*
Y-762407D01*
Y-764294D01*
X-1336452Y-766181D01*
X-1336230Y-767846D01*
X-1336009Y-769400D01*
X-1335676Y-770843D01*
X-1335232Y-772175D01*
X-1334788Y-773285D01*
X-1334455Y-774395D01*
X-1334011Y-775283D01*
X-1333567Y-776171D01*
X-1333234Y-776837D01*
X-1332790Y-777392D01*
X-1332568Y-777836D01*
X-1332346Y-778169D01*
X-1332124Y-778280D01*
Y-778391D01*
X-1331236Y-779279D01*
X-1330348Y-780167D01*
X-1328572Y-781499D01*
X-1326796Y-782387D01*
X-1325131Y-783053D01*
X-1323688Y-783386D01*
X-1322467Y-783608D01*
X-1322023Y-783719D01*
X-1321468D01*
X-1320025Y-783608D01*
X-1318804Y-783386D01*
X-1317472Y-783053D01*
X-1316362Y-782609D01*
X-1314253Y-781388D01*
X-1312588Y-780056D01*
X-1311145Y-778835D01*
X-1310146Y-777614D01*
X-1309813Y-777170D01*
X-1309591Y-776837D01*
X-1309369Y-776615D01*
Y-776504D01*
X-1308925Y-775616D01*
X-1308481Y-774617D01*
X-1307815Y-772397D01*
X-1307371Y-769955D01*
X-1307038Y-767624D01*
X-1306816Y-765515D01*
Y-764516D01*
X-1306705Y-763739D01*
Y-763073D01*
Y-762518D01*
Y-762185D01*
Y-762074D01*
Y-760187D01*
X-1306927Y-758522D01*
X-1307149Y-756857D01*
X-1307371Y-755303D01*
X-1307704Y-753971D01*
X-1308148Y-752639D01*
X-1308481Y-751529D01*
X-1308925Y-750419D01*
X-1309369Y-749531D01*
X-1309702Y-748754D01*
X-1310146Y-748088D01*
X-1310479Y-747533D01*
X-1310701Y-747089D01*
X-1310923Y-746756D01*
X-1311145Y-746645D01*
Y-746534D01*
X-1312033Y-745535D01*
X-1312921Y-744758D01*
X-1313809Y-743981D01*
X-1314697Y-743426D01*
X-1316473Y-742427D01*
X-1318138Y-741761D01*
X-1319581Y-741428D01*
X-1320802Y-741206D01*
X-1321246Y-741095D01*
D02*
G37*
G36*
X-1171176D02*
X-1171842D01*
X-1173174Y-741206D01*
X-1174395Y-741317D01*
X-1176726Y-741983D01*
X-1178724Y-742871D01*
X-1180389Y-743870D01*
X-1181721Y-744869D01*
X-1182720Y-745757D01*
X-1183275Y-746423D01*
X-1183497Y-746534D01*
Y-746645D01*
X-1184496Y-748088D01*
X-1185384Y-749753D01*
X-1185939Y-751418D01*
X-1186494Y-753194D01*
X-1186827Y-754637D01*
X-1187049Y-755969D01*
Y-756413D01*
X-1187160Y-756746D01*
Y-756968D01*
Y-757079D01*
X-1155970D01*
X-1156303Y-754526D01*
X-1156969Y-752195D01*
X-1157746Y-750197D01*
X-1158634Y-748643D01*
X-1159411Y-747311D01*
X-1160188Y-746312D01*
X-1160632Y-745757D01*
X-1160854Y-745535D01*
X-1162630Y-744092D01*
X-1164406Y-742982D01*
X-1166293Y-742205D01*
X-1168069Y-741650D01*
X-1169512Y-741317D01*
X-1170732Y-741206D01*
X-1171176Y-741095D01*
D02*
G37*
G36*
X-1726055D02*
X-1726721D01*
X-1728053Y-741206D01*
X-1729274Y-741317D01*
X-1731605Y-741983D01*
X-1733603Y-742871D01*
X-1735268Y-743870D01*
X-1736600Y-744869D01*
X-1737599Y-745757D01*
X-1738154Y-746423D01*
X-1738376Y-746534D01*
Y-746645D01*
X-1739375Y-748088D01*
X-1740263Y-749753D01*
X-1740818Y-751418D01*
X-1741373Y-753194D01*
X-1741706Y-754637D01*
X-1741928Y-755969D01*
Y-756413D01*
X-1742039Y-756746D01*
Y-756968D01*
Y-757079D01*
X-1710849D01*
X-1711182Y-754526D01*
X-1711848Y-752195D01*
X-1712625Y-750197D01*
X-1713513Y-748643D01*
X-1714290Y-747311D01*
X-1715067Y-746312D01*
X-1715511Y-745757D01*
X-1715733Y-745535D01*
X-1717509Y-744092D01*
X-1719285Y-742982D01*
X-1721172Y-742205D01*
X-1722948Y-741650D01*
X-1724391Y-741317D01*
X-1725611Y-741206D01*
X-1726055Y-741095D01*
D02*
G37*
%LPD*%
D30*
X-1883158Y-260140D02*
G03*
X-1883158Y-260140I-12500J0D01*
G01*
X-387650Y1914050D02*
G03*
X-387650Y1914050I-12500J0D01*
G01*
X-203200Y-660400D02*
Y609600D01*
Y-660400D02*
X863600D01*
Y609600D01*
X-241300D02*
X-203200D01*
X-241300D02*
Y762000D01*
X-215900Y787400D01*
X850900D01*
X901700Y736600D01*
Y609600D02*
Y736600D01*
X863600Y609600D02*
X901700D01*
X711200Y-660400D02*
Y-228600D01*
X-38100Y-660400D02*
X711200D01*
X-63500D02*
X-38100D01*
X-63500D02*
X-50800D01*
Y-304800D02*
Y-228600D01*
Y-660400D02*
Y-304800D01*
X203200Y-228600D02*
Y127000D01*
X457200D01*
Y-228600D02*
Y127000D01*
X-50800Y-228600D02*
X203200D01*
X457200D02*
X711200D01*
X-1676400Y1770961D02*
Y1670994D01*
X-1696394Y1651000D01*
X-1736381D01*
X-1756374Y1670994D01*
Y1770961D01*
X-1856342Y1651000D02*
Y1770961D01*
X-1796361Y1710981D01*
X-1876335D01*
X-2133600Y660400D02*
Y540439D01*
X-2073619D01*
X-2053626Y560432D01*
Y600419D01*
X-2073619Y620413D01*
X-2133600D01*
X-2093613D02*
X-2053626Y660400D01*
X-1933665Y540439D02*
X-2013639D01*
Y600419D01*
X-1973652Y580426D01*
X-1953658D01*
X-1933665Y600419D01*
Y640406D01*
X-1953658Y660400D01*
X-1993645D01*
X-2013639Y640406D01*
X-2273842Y-266395D02*
X-2373809D01*
X-2393803Y-246402D01*
Y-206415D01*
X-2373809Y-186421D01*
X-2273842D01*
Y-66460D02*
Y-146434D01*
X-2333822D01*
X-2313828Y-106447D01*
Y-86453D01*
X-2333822Y-66460D01*
X-2373809D01*
X-2393803Y-86453D01*
Y-126440D01*
X-2373809Y-146434D01*
X121231Y1913890D02*
X21264D01*
X1270Y1933884D01*
Y1973871D01*
X21264Y1993864D01*
X121231D01*
Y2113825D02*
X101238Y2073838D01*
X61251Y2033851D01*
X21264D01*
X1270Y2053845D01*
Y2093832D01*
X21264Y2113825D01*
X41257D01*
X61251Y2093832D01*
Y2033851D01*
X-1833844Y202838D02*
X-1813851Y222831D01*
X-1773864D01*
X-1753870Y202838D01*
Y122864D01*
X-1773864Y102870D01*
X-1813851D01*
X-1833844Y122864D01*
X-1873831Y202838D02*
X-1893825Y222831D01*
X-1933812D01*
X-1953805Y202838D01*
Y182844D01*
X-1933812Y162851D01*
X-1953805Y142857D01*
Y122864D01*
X-1933812Y102870D01*
X-1893825D01*
X-1873831Y122864D01*
Y142857D01*
X-1893825Y162851D01*
X-1873831Y182844D01*
Y202838D01*
X-1893825Y162851D02*
X-1933812D01*
X-1723426Y1271632D02*
X-1743419Y1251639D01*
X-1783406D01*
X-1803400Y1271632D01*
Y1351606D01*
X-1783406Y1371600D01*
X-1743419D01*
X-1723426Y1351606D01*
X-1683439Y1251639D02*
X-1603465D01*
Y1271632D01*
X-1683439Y1351606D01*
Y1371600D01*
X-2111974Y404768D02*
X-2091981Y424761D01*
X-2051994D01*
X-2032000Y404768D01*
Y324794D01*
X-2051994Y304800D01*
X-2091981D01*
X-2111974Y324794D01*
X-2231935Y424761D02*
X-2151961D01*
Y364781D01*
X-2191948Y384774D01*
X-2211942D01*
X-2231935Y364781D01*
Y324794D01*
X-2211942Y304800D01*
X-2171955D01*
X-2151961Y324794D01*
X-1876604Y1385682D02*
X-1856611Y1365688D01*
Y1325701D01*
X-1876604Y1305707D01*
X-1956579D01*
X-1976572Y1325701D01*
Y1365688D01*
X-1956579Y1385682D01*
X-1856611Y1505643D02*
X-1876604Y1465655D01*
X-1916592Y1425668D01*
X-1956579D01*
X-1976572Y1445662D01*
Y1485649D01*
X-1956579Y1505643D01*
X-1936585D01*
X-1916592Y1485649D01*
Y1425668D01*
X-2456180Y1615440D02*
X-2576141D01*
Y1555459D01*
X-2556148Y1535466D01*
X-2516161D01*
X-2496167Y1555459D01*
Y1615440D01*
Y1575453D02*
X-2456180Y1535466D01*
X-2556148Y1495479D02*
X-2576141Y1475485D01*
Y1435498D01*
X-2556148Y1415505D01*
X-2536154D01*
X-2516161Y1435498D01*
Y1455492D01*
Y1435498D01*
X-2496167Y1415505D01*
X-2476174D01*
X-2456180Y1435498D01*
Y1475485D01*
X-2476174Y1495479D01*
X-2459172Y1872127D02*
X-2579133D01*
Y1812147D01*
X-2559140Y1792153D01*
X-2519153D01*
X-2499159Y1812147D01*
Y1872127D01*
Y1832140D02*
X-2459172Y1792153D01*
Y1692186D02*
X-2579133D01*
X-2519153Y1752166D01*
Y1672192D01*
D31*
X-1196000Y1553398D02*
X-1016000D01*
X-1196000Y2053402D02*
X-1016000D01*
X-1196000Y1553398D02*
Y2053402D01*
X-1016000Y1553398D02*
Y2053402D01*
X436402Y1121598D02*
Y1621602D01*
X276403Y1121598D02*
Y1621602D01*
X436402D01*
X276403Y1121598D02*
X436402D01*
X-1196000Y969198D02*
X-1016000D01*
X-1196000Y1469202D02*
X-1016000D01*
X-1196000Y969198D02*
Y1469202D01*
X-1016000Y969198D02*
Y1469202D01*
X-2375997Y524200D02*
Y644200D01*
X-1320800Y-127000D02*
X-457200D01*
X-1320800Y177800D02*
X-457200D01*
Y-127000D02*
Y177800D01*
X-1320800Y-127000D02*
Y177800D01*
X304800Y1718000D02*
Y1838000D01*
X-928197Y2124400D02*
Y2244400D01*
X-1295400Y2124400D02*
Y2244400D01*
X-1500180Y12700D02*
X-1380180D01*
X-2178502Y1533997D02*
Y1653997D01*
Y1737197D02*
Y1857197D01*
D32*
X-853498Y2078900D02*
G03*
X-853498Y2078900I-12500J0D01*
G01*
X613900Y1652099D02*
G03*
X613900Y1652099I-12500J0D01*
G01*
X-853498Y1494700D02*
G03*
X-853498Y1494700I-12500J0D01*
G01*
D33*
X-1244800Y114300D02*
G03*
X-1244800Y114300I-12500J0D01*
G01*
%TF.MD5,e38440529d35da2ebe87495872dbb45f*%
M02*
