G04 Layer_Color=128*
%FSLAX45Y45*%
%MOMM*%
%TF.FileFunction,Drillmap*%
%TF.Part,Single*%
G01*
G75*
%TA.AperFunction,NonConductor*%
%ADD41C,0.12700*%
D41*
X-2213500Y965200D02*
X-2104500D01*
X-2159000Y910700D02*
Y1019700D01*
X-2467500Y965200D02*
X-2358500D01*
X-2413000Y910700D02*
Y1019700D01*
X-2529200Y-260101D02*
X-2449200D01*
X-2489200Y-300101D02*
Y-220101D01*
X-2529200Y-69601D02*
X-2449200D01*
X-2489200Y-109601D02*
Y-29601D01*
X-2529200Y120899D02*
X-2449200D01*
X-2489200Y80899D02*
Y160899D01*
X-2529200Y311399D02*
X-2449200D01*
X-2489200Y271399D02*
Y351399D01*
X-1792200Y-609600D02*
X-1662200D01*
X-1727200Y-674600D02*
Y-544600D01*
X-1538200Y-609600D02*
X-1408200D01*
X-1473200Y-674600D02*
Y-544600D01*
X-1284200Y-609600D02*
X-1154200D01*
X-1219200Y-674600D02*
Y-544600D01*
X-1284200Y660400D02*
X-1154200D01*
X-1219200Y595400D02*
Y725400D01*
X-1538200Y660400D02*
X-1408200D01*
X-1473200Y595400D02*
Y725400D01*
X-1792200Y660400D02*
X-1662200D01*
X-1727200Y595400D02*
Y725400D01*
X-105300Y965200D02*
X3700D01*
X-50800Y910700D02*
Y1019700D01*
X148700Y965200D02*
X257700D01*
X203200Y910700D02*
Y1019700D01*
X402700Y965200D02*
X511700D01*
X457200Y910700D02*
Y1019700D01*
X656700Y965200D02*
X765700D01*
X711200Y910700D02*
Y1019700D01*
X-105300Y660400D02*
X3700D01*
X-50800Y605900D02*
Y714900D01*
X148700Y660400D02*
X257700D01*
X203200Y605900D02*
Y714900D01*
X402700Y660400D02*
X511700D01*
X457200Y605900D02*
Y714900D01*
X656700Y660400D02*
X765700D01*
X711200Y605900D02*
Y714900D01*
X-1621648Y-247792D02*
X-1550528D01*
X-1586088Y-283352D02*
Y-212232D01*
X-825500Y-601980D02*
X-754380D01*
X-789940Y-637540D02*
Y-566420D01*
X12700Y360680D02*
X83820D01*
X48260Y325120D02*
Y396240D01*
X-20320Y1831340D02*
X50800D01*
X15240Y1795780D02*
Y1866900D01*
X-1783080Y111760D02*
X-1711960D01*
X-1747520Y76200D02*
Y147320D01*
X566420Y1737360D02*
X637540D01*
X601980Y1701800D02*
Y1772920D01*
X-924560Y-60960D02*
X-853440D01*
X-889000Y-96520D02*
Y-25400D01*
X-711205Y2082795D02*
X-640085D01*
X-675645Y2047235D02*
Y2118355D01*
X-1671320Y1102360D02*
X-1600200D01*
X-1635760Y1066800D02*
Y1137920D01*
X-558800Y25400D02*
X-487680D01*
X-523240Y-10160D02*
Y60960D01*
X363220Y1424940D02*
X434340D01*
X398780Y1389380D02*
Y1460500D01*
X193040Y1981200D02*
X264160D01*
X228600Y1945640D02*
Y2016760D01*
X-812800Y807720D02*
X-741680D01*
X-777240Y772160D02*
Y843280D01*
X-2270760Y-370840D02*
X-2199640D01*
X-2235200Y-406400D02*
Y-335280D01*
X-1201420Y1844040D02*
X-1130300D01*
X-1165860Y1808480D02*
Y1879600D01*
X-228600Y355600D02*
X-157480D01*
X-193040Y320040D02*
Y391160D01*
X129540Y134620D02*
X200660D01*
X165100Y99060D02*
Y170180D01*
X-1178560Y116840D02*
X-1107440D01*
X-1143000Y81280D02*
Y152400D01*
X-2316480Y-22860D02*
X-2245360D01*
X-2280920Y-58420D02*
Y12700D01*
X-170180Y-121920D02*
X-99060D01*
X-134620Y-157480D02*
Y-86360D01*
%TF.MD5,b73a99e0f1930018728f3e4fcbd77a87*%
M02*
