G04 Layer_Physical_Order=2*
G04 Layer_Color=16711680*
%FSLAX45Y45*%
%MOMM*%
%TF.FileFunction,Copper,L2,Bot,Signal*%
%TF.Part,Single*%
G01*
G75*
%TA.AperFunction,SMDPad,CuDef*%
%ADD13R,1.40000X1.20000*%
%ADD14R,0.90000X0.80000*%
%TA.AperFunction,Conductor*%
%ADD15C,0.25400*%
%TA.AperFunction,ComponentPad*%
%ADD17C,2.00000*%
%ADD18C,1.30000*%
%TA.AperFunction,ViaPad*%
%ADD19C,1.27000*%
%TA.AperFunction,SMDPad,CuDef*%
%ADD20O,2.20000X0.60000*%
%ADD21O,2.50000X0.70000*%
%ADD22R,1.20000X1.40000*%
%ADD23R,0.25000X0.67500*%
%ADD24R,0.67500X0.25000*%
%ADD25R,0.65000X1.00000*%
%ADD26R,0.80000X0.90000*%
%TA.AperFunction,Conductor*%
%ADD27C,0.22500*%
%TA.AperFunction,NonConductor*%
%ADD28R,2.37500X1.62504*%
%ADD29R,1.62504X2.37500*%
D13*
X-1440180Y-77297D02*
D03*
Y102702D02*
D03*
D14*
X-1828800Y-247792D02*
D03*
Y-107793D02*
D03*
X-406400Y1828800D02*
D03*
Y1688800D02*
D03*
X-2311400Y209403D02*
D03*
Y349402D02*
D03*
D15*
X-1229360Y1866900D02*
X-1205398Y1890862D01*
X-906780Y2184400D02*
Y2246508D01*
X-769620Y1950720D02*
Y1993900D01*
X-1473200Y660400D02*
X-1219200D01*
X-1473200Y-609600D02*
X-1219200D01*
X-1623060Y1089660D02*
X-1557020Y1155700D01*
X-2128520Y584200D02*
X-1623060Y1089660D01*
X601980Y1562100D02*
Y1737360D01*
X-1254760Y-406400D02*
X-1143000Y-294640D01*
X-1973580Y-406400D02*
X-1254760D01*
X-322021Y1828800D02*
X-279400D01*
X-406400D02*
X-322021D01*
X-769620Y1993900D02*
X-706130D01*
X-865998D02*
X-769620D01*
X-187960Y1694739D02*
Y1737360D01*
Y1656080D02*
Y1694739D01*
X394802Y1859280D02*
Y2110298D01*
X-1229360Y1866900D02*
X-1188720D01*
X-1345997D02*
X-1229360D01*
X-2162043Y209403D02*
X-1916577D01*
X-1620505Y-77297D02*
X-1515283D01*
X-2353163Y1593997D02*
X-2268504D01*
X-2413000Y1534160D02*
X-2353163Y1593997D01*
X-2413000Y965200D02*
Y1534160D01*
X-1828800Y-247792D02*
X-1586088D01*
X-1566062Y349402D02*
X-1440180Y198120D01*
X-2311400Y349402D02*
X-1566062D01*
X-865998Y1028700D02*
X-460502D01*
X-223901Y792099D01*
X579501D01*
X711200Y660400D01*
X-30480Y2082795D02*
X165095Y1887220D01*
X268961D01*
X322301Y1940560D01*
Y2022119D01*
X161620Y2182800D02*
X322301Y2022119D01*
X-1385397Y2033300D02*
Y2184400D01*
Y2033300D02*
X-1345997Y1993900D01*
X-2374900Y30480D02*
X-2321560Y83820D01*
X-2374900Y-111557D02*
Y30480D01*
X-2428240Y-164897D02*
X-2374900Y-111557D01*
X-2537257Y-164897D02*
X-2428240D01*
X-2585720Y-213360D02*
X-2537257Y-164897D01*
X-2585720Y-375920D02*
Y-213360D01*
Y-375920D02*
X-2484120Y-477520D01*
X-914400D01*
X-789940Y-601980D01*
X-508000Y266700D02*
X-319761D01*
X-314960Y261899D01*
X-50521D01*
X48260Y360680D01*
X15240Y1831340D02*
Y1961678D01*
X-1973763Y111760D02*
X-1747520D01*
X601401Y1562100D02*
X601980D01*
X-889000Y-215900D02*
Y-60960D01*
X-1635760Y1102360D02*
X-1623060Y1089660D01*
X-987745Y1028700D02*
X-865998D01*
X-1046165Y1087120D02*
X-987745Y1028700D01*
X-1046165Y1087120D02*
Y1714815D01*
X-1021080Y1739900D01*
X-865998D01*
X-2400696Y209403D02*
X-2311400D01*
X-2489200Y120899D02*
X-2400696Y209403D01*
X-2466000Y457540D02*
Y584200D01*
X-2489200Y434340D02*
X-2466000Y457540D01*
X-2489200Y311399D02*
Y434340D01*
X-279400Y1828800D02*
X-187960Y1737360D01*
Y1656080D02*
X-93980Y1562100D01*
X111399D01*
X-762000Y-215900D02*
Y-96520D01*
X-640080Y25400D01*
X-523240D01*
X398780Y1424940D02*
X408940Y1435100D01*
X601401D01*
X-769620Y1950720D02*
X-647700Y1828800D01*
X-406400D01*
X322301Y2182800D02*
X394802Y2110298D01*
X218714Y1981200D02*
X228600D01*
X67117Y2132797D02*
X218714Y1981200D01*
X-322021Y1828800D02*
X-187960Y1694739D01*
X214803D01*
Y1778000D01*
X394802D02*
Y1859280D01*
X374482Y1879600D02*
X394802Y1859280D01*
X129261Y1879600D02*
X374482D01*
X108941Y1859280D02*
X129261Y1879600D01*
X108941Y1778279D02*
Y1859280D01*
X68301Y1737639D02*
X108941Y1778279D01*
X-35839Y1737639D02*
X68301D01*
X-203200Y1905000D02*
X-35839Y1737639D01*
X-370840Y1905000D02*
X-203200D01*
X-889000Y807720D02*
X-777240D01*
X-1016000Y680720D02*
X-889000Y807720D01*
X-1016000Y266700D02*
Y680720D01*
X-1143000Y-215900D02*
Y-71120D01*
X-1236980Y22860D02*
X-1143000Y-71120D01*
X-1236980Y22860D02*
Y155738D01*
X-1207298Y185420D01*
Y439420D01*
X-1230158Y462280D02*
X-1207298Y439420D01*
X-2265680Y462280D02*
X-1230158D01*
X-2286000Y482600D02*
X-2265680Y462280D01*
X-2286000Y482600D02*
Y584200D01*
X-1016000Y-215900D02*
Y30480D01*
X-906780Y139700D01*
X17003D01*
X105628Y228326D01*
X525506D01*
X843280Y546100D01*
Y1094740D01*
X756920Y1181100D02*
X843280Y1094740D01*
X601401Y1181100D02*
X756920D01*
X-2088505Y1797197D02*
X-1768963D01*
X-1666240Y1899920D01*
Y2179772D01*
X-1518503Y2327509D01*
X-651109D01*
X-2235200Y-370840D02*
X-2143760D01*
X-2114403Y-341483D01*
X-1188720Y1866900D02*
X-1165860Y1844040D01*
X-2466000Y584200D02*
Y680720D01*
X-2412660Y734060D01*
X-2141220D01*
X-1551940Y1323340D01*
Y2207260D01*
X-1474592Y2284608D01*
X-944880D01*
X-906780Y2246508D01*
Y2184400D02*
X-838200D01*
X-617261Y1981200D02*
X-565663Y2032798D01*
X-693430Y1981200D02*
X-617261D01*
X-706130Y1993900D02*
X-693430Y1981200D01*
X-868680Y355600D02*
X-193040D01*
X-889000Y335280D02*
X-868680Y355600D01*
X-889000Y266700D02*
Y335280D01*
X165100Y-132080D02*
Y134620D01*
X81280Y-215900D02*
X165100Y-132080D01*
X-508000Y-215900D02*
X81280D01*
X-1143000Y116840D02*
Y266700D01*
X-360680Y660400D02*
X-50800D01*
X-635000Y934720D02*
X-360680Y660400D01*
X-1087120Y934720D02*
X-635000D01*
X-1148080Y995680D02*
X-1087120Y934720D01*
X-1148080Y995680D02*
Y1419860D01*
X-1209040Y1480820D02*
X-1148080Y1419860D01*
X-1394460Y1480820D02*
X-1209040D01*
X-1488440Y1574800D02*
X-1394460Y1480820D01*
X-1488440Y1574800D02*
Y1993900D01*
X-1345997D01*
X-2280920Y-22860D02*
X-2258060Y0D01*
X-1515283Y-77297D02*
X-1440180D01*
X-1541780Y-50800D02*
X-1515283Y-77297D01*
X-1541780Y-50800D02*
Y228600D01*
X-1587500Y274320D02*
X-1541780Y228600D01*
X-1851660Y274320D02*
X-1587500D01*
X-1916577Y209403D02*
X-1851660Y274320D01*
X-2162043Y209403D02*
X-2064400Y111760D01*
X-2311400Y209403D02*
X-2162043D01*
X-604520Y-121920D02*
X-134620D01*
X-635000Y-152400D02*
X-604520Y-121920D01*
X-635000Y-215900D02*
Y-152400D01*
X-78740Y1435100D02*
X111399D01*
X-182880Y1330960D02*
X-78740Y1435100D01*
X-182880Y883920D02*
Y1330960D01*
Y883920D02*
X-133960Y835000D01*
X327000D01*
X457200Y965200D01*
X394802Y1696720D02*
Y1778000D01*
X266700Y1568618D02*
X394802Y1696720D01*
X266700Y1209040D02*
Y1568618D01*
X238760Y1181100D02*
X266700Y1209040D01*
X111399Y1181100D02*
X238760D01*
X-2268504Y1797197D02*
Y1884396D01*
X-1798320Y2354580D01*
X-1577233D01*
X-1561404Y2370409D01*
X-606709D01*
X-1557020Y1155700D02*
X-1345997D01*
X-2286000Y584200D02*
X-2128520D01*
X-2268504Y1704340D02*
Y1797197D01*
X-2367280Y1704340D02*
X-2268504D01*
X-2545080Y1526540D02*
X-2367280Y1704340D01*
X-2545080Y843280D02*
Y1526540D01*
Y843280D02*
X-2501900Y800100D01*
X-2324100D01*
X-2159000Y965200D01*
X-1371600Y266700D02*
X-1270000D01*
X-1440180Y198120D02*
X-1371600Y266700D01*
X-1440180Y102702D02*
Y198120D01*
X-1905000Y-132080D02*
X-1880713Y-107793D01*
X-1828800D01*
X-1270000Y-215900D02*
Y-132080D01*
X-1324783Y-77297D02*
X-1270000Y-132080D01*
X-1440180Y-77297D02*
X-1324783D01*
X-985520Y1866900D02*
X-865998D01*
X-1018200Y1899580D02*
X-985520Y1866900D01*
X-1018200Y1899580D02*
Y2184400D01*
X-1205398Y1890862D02*
Y2184400D01*
X-2299305Y1105505D02*
Y1339997D01*
Y1105505D02*
X-2159000Y965200D01*
X111399Y1143361D02*
Y1181100D01*
Y1143361D02*
X144780Y1109980D01*
X566420D01*
X711200Y965200D01*
X-45720Y1308100D02*
X111399D01*
X-45720Y1127760D02*
Y1308100D01*
Y1127760D02*
X-22860Y1104900D01*
X63500D01*
X203200Y965200D01*
X-1143000Y-294640D02*
Y-215900D01*
X-838200Y2102978D02*
Y2184400D01*
X-865998Y2075180D02*
X-838200Y2102978D01*
X-865998Y1993900D02*
Y2075180D01*
X-2382617Y349402D02*
X-2311400D01*
X-2420620Y311399D02*
X-2382617Y349402D01*
X-2489200Y311399D02*
X-2420620D01*
X-1651000Y-107793D02*
X-1620505Y-77297D01*
X-1828800Y-107793D02*
X-1651000D01*
X-611840Y1688800D02*
X-406400D01*
X-662940Y1739900D02*
X-611840Y1688800D01*
X-865998Y1739900D02*
X-662940D01*
X-865998D02*
Y1866900D01*
X-1205398Y2184400D02*
X-1018200D01*
X-1345997Y1739900D02*
Y1866900D01*
X-2088505Y1500815D02*
Y1593997D01*
X-2159300Y1430020D02*
X-2088505Y1500815D01*
X-2159300Y1339997D02*
Y1430020D01*
X-2088505Y1593997D02*
Y1797197D01*
X601401Y1308100D02*
Y1435100D01*
X-2325426Y-266395D02*
X-2164405D01*
X-2331720Y-260101D02*
X-2325426Y-266395D01*
X-2489200Y-260101D02*
X-2331720D01*
X-1727200Y-609600D02*
X-1473200D01*
X-1727200Y660400D02*
X-1473200D01*
D17*
X-2159000Y965200D02*
D03*
X-2413000D02*
D03*
X-1727200Y-609600D02*
D03*
X-1473200D02*
D03*
X-1219200D02*
D03*
Y660400D02*
D03*
X-1473200D02*
D03*
X-1727200D02*
D03*
X-50800Y965200D02*
D03*
X203200D02*
D03*
X457200D02*
D03*
X711200D02*
D03*
X-50800Y660400D02*
D03*
X203200D02*
D03*
X457200D02*
D03*
X711200D02*
D03*
D18*
X-2489200Y-260101D02*
D03*
Y-69601D02*
D03*
Y120899D02*
D03*
Y311399D02*
D03*
D19*
X-1586088Y-247792D02*
D03*
X-789940Y-601980D02*
D03*
X48260Y360680D02*
D03*
X15240Y1831340D02*
D03*
X-1747520Y111760D02*
D03*
X601980Y1737360D02*
D03*
X-889000Y-60960D02*
D03*
X-675645Y2082795D02*
D03*
X-1635760Y1102360D02*
D03*
X-523240Y25400D02*
D03*
X398780Y1424940D02*
D03*
X228600Y1981200D02*
D03*
X-777240Y807720D02*
D03*
X-2235200Y-370840D02*
D03*
X-1165860Y1844040D02*
D03*
X-193040Y355600D02*
D03*
X165100Y134620D02*
D03*
X-1143000Y116840D02*
D03*
X-2280920Y-22860D02*
D03*
X-134620Y-121920D02*
D03*
D20*
X-1345997Y1612900D02*
D03*
Y1739900D02*
D03*
Y1866900D02*
D03*
Y1993900D02*
D03*
X-865998Y1612900D02*
D03*
Y1739900D02*
D03*
Y1866900D02*
D03*
Y1993900D02*
D03*
X-1345997Y1028700D02*
D03*
Y1155700D02*
D03*
Y1282700D02*
D03*
Y1409700D02*
D03*
X-865998Y1028700D02*
D03*
Y1155700D02*
D03*
Y1282700D02*
D03*
Y1409700D02*
D03*
D21*
X601401Y1562100D02*
D03*
Y1435100D02*
D03*
Y1308100D02*
D03*
Y1181100D02*
D03*
X111399Y1562100D02*
D03*
Y1435100D02*
D03*
Y1308100D02*
D03*
Y1181100D02*
D03*
D22*
X-2466000Y584200D02*
D03*
X-2286000D02*
D03*
X394802Y1778000D02*
D03*
X214803D02*
D03*
X-1018200Y2184400D02*
D03*
X-838200D02*
D03*
X-1205398D02*
D03*
X-1385397D02*
D03*
X-2088505Y1593997D02*
D03*
X-2268504D02*
D03*
X-2088505Y1797197D02*
D03*
X-2268504D02*
D03*
D23*
X-1964400Y21107D02*
D03*
X-2014403D02*
D03*
X-2164405D02*
D03*
X-2114403D02*
D03*
X-2064400D02*
D03*
X-2164405Y-266395D02*
D03*
X-1964400D02*
D03*
X-2014403D02*
D03*
X-2114403D02*
D03*
X-2064400D02*
D03*
D24*
X-406400Y2082795D02*
D03*
Y2132797D02*
D03*
Y2032798D02*
D03*
Y1982795D02*
D03*
Y2182800D02*
D03*
X-118897Y2082795D02*
D03*
Y2132797D02*
D03*
Y2182800D02*
D03*
Y2032798D02*
D03*
Y1982795D02*
D03*
D25*
X-1270000Y-215900D02*
D03*
X-1143000D02*
D03*
X-508000D02*
D03*
X-635000D02*
D03*
X-508000Y266700D02*
D03*
X-635000D02*
D03*
X-1270000D02*
D03*
X-1143000D02*
D03*
X-1016000Y-215900D02*
D03*
X-889000D02*
D03*
X-762000D02*
D03*
Y266700D02*
D03*
X-889000D02*
D03*
X-1016000D02*
D03*
D26*
X-2299305Y1339997D02*
D03*
X-2159300D02*
D03*
D27*
X-383540Y1917700D02*
Y1982795D01*
X-1964400Y-246380D02*
X-1938020D01*
X-2258060Y0D02*
X-2164405D01*
X-2014403Y-309009D02*
Y-266395D01*
Y-309009D02*
X-1967812Y-355600D01*
X-1828800D02*
Y-247792D01*
X-1967812Y-355600D02*
X-1828800D01*
X-2064400Y-315580D02*
X-1973580Y-406400D01*
X161620Y2182800D02*
X322301D01*
X-118897D02*
X161620D01*
X-118897Y2082795D02*
X-30480D01*
X-2114403Y21107D02*
Y83820D01*
X-2321560D02*
X-2114403D01*
X-55880Y2032798D02*
X15240Y1961678D01*
X-118897Y2032798D02*
X-55880D01*
X-2014403Y21107D02*
Y71120D01*
X-1973763Y111760D01*
X-675645Y2082795D02*
X-406400D01*
X-118897Y2132797D02*
X67117D01*
X-383540Y1917700D02*
X-370840Y1905000D01*
X-406400Y1982795D02*
X-383540D01*
X-651109Y2327509D02*
X-456397Y2132797D01*
X-406400D01*
X-2114403Y-341483D02*
Y-266395D01*
X-565663Y2032798D02*
X-406400D01*
X-2164405Y0D02*
Y21107D01*
X-2064400D02*
Y111760D01*
X-606709Y2370409D02*
X-419100Y2182800D01*
X-406400D01*
X-1964400Y-266395D02*
Y-246380D01*
X-1938020D02*
X-1905000Y-213360D01*
Y-132080D01*
X-2064400Y-315580D02*
Y-266395D01*
D28*
Y-122644D02*
D03*
D29*
X-262651Y2082797D02*
D03*
%TF.MD5,0735532158aed71d215ac58d465782ff*%
M02*
