G04 Layer_Color=128*
%FSLAX45Y45*%
%MOMM*%
%TF.FileFunction,Paste,Bot*%
%TF.Part,Single*%
G01*
G75*
%TA.AperFunction,SMDPad,CuDef*%
%ADD13R,1.40000X1.20000*%
%ADD14R,0.90000X0.80000*%
%ADD20O,2.20000X0.60000*%
%ADD21O,2.50000X0.70000*%
%ADD22R,1.20000X1.40000*%
%ADD23R,0.25000X0.67500*%
%ADD24R,0.67500X0.25000*%
%ADD25R,0.65000X1.00000*%
%ADD26R,0.80000X0.90000*%
D13*
X-1440180Y-77297D02*
D03*
Y102702D02*
D03*
D14*
X-1828800Y-247792D02*
D03*
Y-107793D02*
D03*
X-406400Y1828800D02*
D03*
Y1688800D02*
D03*
X-2311400Y209403D02*
D03*
Y349402D02*
D03*
D20*
X-1345997Y1612900D02*
D03*
Y1739900D02*
D03*
Y1866900D02*
D03*
Y1993900D02*
D03*
X-865998Y1612900D02*
D03*
Y1739900D02*
D03*
Y1866900D02*
D03*
Y1993900D02*
D03*
X-1345997Y1028700D02*
D03*
Y1155700D02*
D03*
Y1282700D02*
D03*
Y1409700D02*
D03*
X-865998Y1028700D02*
D03*
Y1155700D02*
D03*
Y1282700D02*
D03*
Y1409700D02*
D03*
D21*
X601401Y1562100D02*
D03*
Y1435100D02*
D03*
Y1308100D02*
D03*
Y1181100D02*
D03*
X111399Y1562100D02*
D03*
Y1435100D02*
D03*
Y1308100D02*
D03*
Y1181100D02*
D03*
D22*
X-2466000Y584200D02*
D03*
X-2286000D02*
D03*
X394802Y1778000D02*
D03*
X214803D02*
D03*
X-1018200Y2184400D02*
D03*
X-838200D02*
D03*
X-1205398D02*
D03*
X-1385397D02*
D03*
X-2088505Y1593997D02*
D03*
X-2268504D02*
D03*
X-2088505Y1797197D02*
D03*
X-2268504D02*
D03*
D23*
X-1964400Y21107D02*
D03*
X-2014403D02*
D03*
X-2164405D02*
D03*
X-2114403D02*
D03*
X-2064400D02*
D03*
X-2164405Y-266395D02*
D03*
X-1964400D02*
D03*
X-2014403D02*
D03*
X-2114403D02*
D03*
X-2064400D02*
D03*
D24*
X-406400Y2082795D02*
D03*
Y2132797D02*
D03*
Y2032798D02*
D03*
Y1982795D02*
D03*
Y2182800D02*
D03*
X-118897Y2082795D02*
D03*
Y2132797D02*
D03*
Y2182800D02*
D03*
Y2032798D02*
D03*
Y1982795D02*
D03*
D25*
X-1270000Y-215900D02*
D03*
X-1143000D02*
D03*
X-508000D02*
D03*
X-635000D02*
D03*
X-508000Y266700D02*
D03*
X-635000D02*
D03*
X-1270000D02*
D03*
X-1143000D02*
D03*
X-1016000Y-215900D02*
D03*
X-889000D02*
D03*
X-762000D02*
D03*
Y266700D02*
D03*
X-889000D02*
D03*
X-1016000D02*
D03*
D26*
X-2299305Y1339997D02*
D03*
X-2159300D02*
D03*
%TF.MD5,f33a96d440bb1bd0ba7dab3fb611b579*%
M02*
