G04 Layer_Color=16711935*
%FSLAX45Y45*%
%MOMM*%
%TF.FileFunction,Soldermask,Bot*%
%TF.Part,Single*%
G01*
G75*
%TA.AperFunction,SMDPad,CuDef*%
%ADD13R,1.40000X1.20000*%
%ADD14R,0.90000X0.80000*%
%TA.AperFunction,ComponentPad*%
%ADD17C,2.00000*%
%ADD18C,1.30000*%
%TA.AperFunction,ViaPad*%
%ADD19C,1.27000*%
%TA.AperFunction,SMDPad,CuDef*%
%ADD20O,2.20000X0.60000*%
%ADD21O,2.50000X0.70000*%
%ADD22R,1.20000X1.40000*%
%ADD23R,0.25000X0.67500*%
%ADD24R,0.67500X0.25000*%
%ADD25R,0.65000X1.00000*%
%ADD26R,0.80000X0.90000*%
%TA.AperFunction,NonConductor*%
%ADD28R,2.37500X1.62504*%
%ADD29R,1.62504X2.37500*%
D13*
X-1440180Y-77297D02*
D03*
Y102702D02*
D03*
D14*
X-1828800Y-247792D02*
D03*
Y-107793D02*
D03*
X-406400Y1828800D02*
D03*
Y1688800D02*
D03*
X-2311400Y209403D02*
D03*
Y349402D02*
D03*
D17*
X-2159000Y965200D02*
D03*
X-2413000D02*
D03*
X-1727200Y-609600D02*
D03*
X-1473200D02*
D03*
X-1219200D02*
D03*
Y660400D02*
D03*
X-1473200D02*
D03*
X-1727200D02*
D03*
X-50800Y965200D02*
D03*
X203200D02*
D03*
X457200D02*
D03*
X711200D02*
D03*
X-50800Y660400D02*
D03*
X203200D02*
D03*
X457200D02*
D03*
X711200D02*
D03*
D18*
X-2489200Y-260101D02*
D03*
Y-69601D02*
D03*
Y120899D02*
D03*
Y311399D02*
D03*
D19*
X-1586088Y-247792D02*
D03*
X-789940Y-601980D02*
D03*
X48260Y360680D02*
D03*
X15240Y1831340D02*
D03*
X-1747520Y111760D02*
D03*
X601980Y1737360D02*
D03*
X-889000Y-60960D02*
D03*
X-675645Y2082795D02*
D03*
X-1635760Y1102360D02*
D03*
X-523240Y25400D02*
D03*
X398780Y1424940D02*
D03*
X228600Y1981200D02*
D03*
X-777240Y807720D02*
D03*
X-2235200Y-370840D02*
D03*
X-1165860Y1844040D02*
D03*
X-193040Y355600D02*
D03*
X165100Y134620D02*
D03*
X-1143000Y116840D02*
D03*
X-2280920Y-22860D02*
D03*
X-134620Y-121920D02*
D03*
D20*
X-1345997Y1612900D02*
D03*
Y1739900D02*
D03*
Y1866900D02*
D03*
Y1993900D02*
D03*
X-865998Y1612900D02*
D03*
Y1739900D02*
D03*
Y1866900D02*
D03*
Y1993900D02*
D03*
X-1345997Y1028700D02*
D03*
Y1155700D02*
D03*
Y1282700D02*
D03*
Y1409700D02*
D03*
X-865998Y1028700D02*
D03*
Y1155700D02*
D03*
Y1282700D02*
D03*
Y1409700D02*
D03*
D21*
X601401Y1562100D02*
D03*
Y1435100D02*
D03*
Y1308100D02*
D03*
Y1181100D02*
D03*
X111399Y1562100D02*
D03*
Y1435100D02*
D03*
Y1308100D02*
D03*
Y1181100D02*
D03*
D22*
X-2466000Y584200D02*
D03*
X-2286000D02*
D03*
X394802Y1778000D02*
D03*
X214803D02*
D03*
X-1018200Y2184400D02*
D03*
X-838200D02*
D03*
X-1205398D02*
D03*
X-1385397D02*
D03*
X-2088505Y1593997D02*
D03*
X-2268504D02*
D03*
X-2088505Y1797197D02*
D03*
X-2268504D02*
D03*
D23*
X-1964400Y21107D02*
D03*
X-2014403D02*
D03*
X-2164405D02*
D03*
X-2114403D02*
D03*
X-2064400D02*
D03*
X-2164405Y-266395D02*
D03*
X-1964400D02*
D03*
X-2014403D02*
D03*
X-2114403D02*
D03*
X-2064400D02*
D03*
D24*
X-406400Y2082795D02*
D03*
Y2132797D02*
D03*
Y2032798D02*
D03*
Y1982795D02*
D03*
Y2182800D02*
D03*
X-118897Y2082795D02*
D03*
Y2132797D02*
D03*
Y2182800D02*
D03*
Y2032798D02*
D03*
Y1982795D02*
D03*
D25*
X-1270000Y-215900D02*
D03*
X-1143000D02*
D03*
X-508000D02*
D03*
X-635000D02*
D03*
X-508000Y266700D02*
D03*
X-635000D02*
D03*
X-1270000D02*
D03*
X-1143000D02*
D03*
X-1016000Y-215900D02*
D03*
X-889000D02*
D03*
X-762000D02*
D03*
Y266700D02*
D03*
X-889000D02*
D03*
X-1016000D02*
D03*
D26*
X-2299305Y1339997D02*
D03*
X-2159300D02*
D03*
D28*
X-2064400Y-122644D02*
D03*
D29*
X-262651Y2082797D02*
D03*
%TF.MD5,0c9658d26d6bf570d4d655866adf703b*%
M02*
