G04 Layer_Color=2752767*
%FSLAX45Y45*%
%MOMM*%
%TF.FileFunction,Drawing*%
%TF.Part,Single*%
G01*
G75*
%TA.AperFunction,NonConductor*%
%ADD41C,0.12700*%
%ADD42C,0.16933*%
D41*
X-2209800Y914400D02*
Y1016000D01*
X-2108200D01*
Y914400D01*
X-2209800D01*
X-2463800D02*
Y1016000D01*
X-2362200D01*
Y914400D01*
X-2463800D01*
X-1727200Y-660400D02*
X-1778000Y-558800D01*
X-1676400D01*
X-1727200Y-660400D01*
X-1473200D02*
X-1524000Y-558800D01*
X-1422400D01*
X-1473200Y-660400D01*
X-1219200D02*
X-1270000Y-558800D01*
X-1168400D01*
X-1219200Y-660400D01*
Y609600D02*
X-1270000Y711200D01*
X-1168400D01*
X-1219200Y609600D01*
X-1473200D02*
X-1524000Y711200D01*
X-1422400D01*
X-1473200Y609600D01*
X-1727200D02*
X-1778000Y711200D01*
X-1676400D01*
X-1727200Y609600D01*
X-50800Y914400D02*
X-25400Y939800D01*
X0D01*
X-25400Y965200D01*
X0Y990600D01*
X-25400D01*
X-50800Y1016000D01*
X-76200Y990600D01*
X-101600D01*
X-76200Y965200D01*
X-101600Y939800D01*
X-76200D01*
X-50800Y914400D01*
X203200D02*
X228600Y939800D01*
X254000D01*
X228600Y965200D01*
X254000Y990600D01*
X228600D01*
X203200Y1016000D01*
X177800Y990600D01*
X152400D01*
X177800Y965200D01*
X152400Y939800D01*
X177800D01*
X203200Y914400D01*
X457200D02*
X482600Y939800D01*
X508000D01*
X482600Y965200D01*
X508000Y990600D01*
X482600D01*
X457200Y1016000D01*
X431800Y990600D01*
X406400D01*
X431800Y965200D01*
X406400Y939800D01*
X431800D01*
X457200Y914400D01*
X711200D02*
X736600Y939800D01*
X762000D01*
X736600Y965200D01*
X762000Y990600D01*
X736600D01*
X711200Y1016000D01*
X685800Y990600D01*
X660400D01*
X685800Y965200D01*
X660400Y939800D01*
X685800D01*
X711200Y914400D01*
X-50800Y609600D02*
X-25400Y635000D01*
X0D01*
X-25400Y660400D01*
X0Y685800D01*
X-25400D01*
X-50800Y711200D01*
X-76200Y685800D01*
X-101600D01*
X-76200Y660400D01*
X-101600Y635000D01*
X-76200D01*
X-50800Y609600D01*
X203200D02*
X228600Y635000D01*
X254000D01*
X228600Y660400D01*
X254000Y685800D01*
X228600D01*
X203200Y711200D01*
X177800Y685800D01*
X152400D01*
X177800Y660400D01*
X152400Y635000D01*
X177800D01*
X203200Y609600D01*
X457200D02*
X482600Y635000D01*
X508000D01*
X482600Y660400D01*
X508000Y685800D01*
X482600D01*
X457200Y711200D01*
X431800Y685800D01*
X406400D01*
X431800Y660400D01*
X406400Y635000D01*
X431800D01*
X457200Y609600D01*
X711200D02*
X736600Y635000D01*
X762000D01*
X736600Y660400D01*
X762000Y685800D01*
X736600D01*
X711200Y711200D01*
X685800Y685800D01*
X660400D01*
X685800Y660400D01*
X660400Y635000D01*
X685800D01*
X711200Y609600D01*
X-1636888Y-298592D02*
X-1611488Y-247792D01*
X-1636888Y-196992D01*
X-1586088Y-222392D01*
X-1535288Y-196992D01*
X-1560688Y-247792D01*
X-1535288Y-298592D01*
X-1586088Y-273192D01*
X-1636888Y-298592D01*
X-840740Y-652780D02*
X-815340Y-601980D01*
X-840740Y-551180D01*
X-789940Y-576580D01*
X-739140Y-551180D01*
X-764540Y-601980D01*
X-739140Y-652780D01*
X-789940Y-627380D01*
X-840740Y-652780D01*
X-2540Y309880D02*
X22860Y360680D01*
X-2540Y411480D01*
X48260Y386080D01*
X99060Y411480D01*
X73660Y360680D01*
X99060Y309880D01*
X48260Y335280D01*
X-2540Y309880D01*
X-35560Y1780540D02*
X-10160Y1831340D01*
X-35560Y1882140D01*
X15240Y1856740D01*
X66040Y1882140D01*
X40640Y1831340D01*
X66040Y1780540D01*
X15240Y1805940D01*
X-35560Y1780540D01*
X-1798320Y60960D02*
X-1772920Y111760D01*
X-1798320Y162560D01*
X-1747520Y137160D01*
X-1696720Y162560D01*
X-1722120Y111760D01*
X-1696720Y60960D01*
X-1747520Y86360D01*
X-1798320Y60960D01*
X551180Y1686560D02*
X576580Y1737360D01*
X551180Y1788160D01*
X601980Y1762760D01*
X652780Y1788160D01*
X627380Y1737360D01*
X652780Y1686560D01*
X601980Y1711960D01*
X551180Y1686560D01*
X-939800Y-111760D02*
X-914400Y-60960D01*
X-939800Y-10160D01*
X-889000Y-35560D01*
X-838200Y-10160D01*
X-863600Y-60960D01*
X-838200Y-111760D01*
X-889000Y-86360D01*
X-939800Y-111760D01*
X-726445Y2031995D02*
X-701045Y2082795D01*
X-726445Y2133595D01*
X-675645Y2108195D01*
X-624845Y2133595D01*
X-650245Y2082795D01*
X-624845Y2031995D01*
X-675645Y2057395D01*
X-726445Y2031995D01*
X-1686560Y1051560D02*
X-1661160Y1102360D01*
X-1686560Y1153160D01*
X-1635760Y1127760D01*
X-1584960Y1153160D01*
X-1610360Y1102360D01*
X-1584960Y1051560D01*
X-1635760Y1076960D01*
X-1686560Y1051560D01*
X-574040Y-25400D02*
X-548640Y25400D01*
X-574040Y76200D01*
X-523240Y50800D01*
X-472440Y76200D01*
X-497840Y25400D01*
X-472440Y-25400D01*
X-523240Y0D01*
X-574040Y-25400D01*
X347980Y1374140D02*
X373380Y1424940D01*
X347980Y1475740D01*
X398780Y1450340D01*
X449580Y1475740D01*
X424180Y1424940D01*
X449580Y1374140D01*
X398780Y1399540D01*
X347980Y1374140D01*
X177800Y1930400D02*
X203200Y1981200D01*
X177800Y2032000D01*
X228600Y2006600D01*
X279400Y2032000D01*
X254000Y1981200D01*
X279400Y1930400D01*
X228600Y1955800D01*
X177800Y1930400D01*
X-828040Y756920D02*
X-802640Y807720D01*
X-828040Y858520D01*
X-777240Y833120D01*
X-726440Y858520D01*
X-751840Y807720D01*
X-726440Y756920D01*
X-777240Y782320D01*
X-828040Y756920D01*
X-2286000Y-421640D02*
X-2260600Y-370840D01*
X-2286000Y-320040D01*
X-2235200Y-345440D01*
X-2184400Y-320040D01*
X-2209800Y-370840D01*
X-2184400Y-421640D01*
X-2235200Y-396240D01*
X-2286000Y-421640D01*
X-1216660Y1793240D02*
X-1191260Y1844040D01*
X-1216660Y1894840D01*
X-1165860Y1869440D01*
X-1115060Y1894840D01*
X-1140460Y1844040D01*
X-1115060Y1793240D01*
X-1165860Y1818640D01*
X-1216660Y1793240D01*
X-243840Y304800D02*
X-218440Y355600D01*
X-243840Y406400D01*
X-193040Y381000D01*
X-142240Y406400D01*
X-167640Y355600D01*
X-142240Y304800D01*
X-193040Y330200D01*
X-243840Y304800D01*
X114300Y83820D02*
X139700Y134620D01*
X114300Y185420D01*
X165100Y160020D01*
X215900Y185420D01*
X190500Y134620D01*
X215900Y83820D01*
X165100Y109220D01*
X114300Y83820D01*
X-1193800Y66040D02*
X-1168400Y116840D01*
X-1193800Y167640D01*
X-1143000Y142240D01*
X-1092200Y167640D01*
X-1117600Y116840D01*
X-1092200Y66040D01*
X-1143000Y91440D01*
X-1193800Y66040D01*
X-2331720Y-73660D02*
X-2306320Y-22860D01*
X-2331720Y27940D01*
X-2280920Y2540D01*
X-2230120Y27940D01*
X-2255520Y-22860D01*
X-2230120Y-73660D01*
X-2280920Y-48260D01*
X-2331720Y-73660D01*
X-185420Y-172720D02*
X-160020Y-121920D01*
X-185420Y-71120D01*
X-134620Y-96520D01*
X-83820Y-71120D01*
X-109220Y-121920D01*
X-83820Y-172720D01*
X-134620Y-147320D01*
X-185420Y-172720D01*
D42*
X-2438400Y-260101D02*
G03*
X-2438400Y-260101I-50800J0D01*
G01*
Y-69601D02*
G03*
X-2438400Y-69601I-50800J0D01*
G01*
Y120899D02*
G03*
X-2438400Y120899I-50800J0D01*
G01*
Y311399D02*
G03*
X-2438400Y311399I-50800J0D01*
G01*
%TF.MD5,8817c3dd38c565f35a9a1c6939bb8bbf*%
M02*
