G04 Layer_Physical_Order=2*
G04 Layer_Color=16711680*
%FSLAX45Y45*%
%MOMM*%
%TF.FileFunction,Copper,L2,Bot,Signal*%
%TF.Part,Single*%
G01*
G75*
%TA.AperFunction,SMDPad,CuDef*%
%ADD18R,1.20000X1.40000*%
%TA.AperFunction,Conductor*%
%ADD20C,0.25400*%
%TA.AperFunction,ComponentPad*%
%ADD21C,2.00000*%
%TA.AperFunction,ViaPad*%
%ADD22C,1.27000*%
%TA.AperFunction,SMDPad,CuDef*%
%ADD23O,0.60000X2.20000*%
%ADD24O,2.50000X0.70000*%
D18*
X-953597Y457200D02*
D03*
X-773598D02*
D03*
X-660400Y1066800D02*
D03*
X-840400D02*
D03*
X-632800Y2082800D02*
D03*
X-812800D02*
D03*
D20*
X-958799Y279400D02*
Y363220D01*
X-953597Y368422D01*
Y457200D01*
X-673100Y1206500D02*
X-660400Y1193800D01*
X-673100Y1206500D02*
Y1334800D01*
X-927100Y1814800D02*
X-800100D01*
Y1940560D01*
X-812800Y1953260D02*
X-800100Y1940560D01*
X-812800Y1953260D02*
Y2082800D01*
X-927100Y1334800D02*
Y1814800D01*
Y1334800D02*
X-800100D01*
X-840400Y1066800D02*
Y1178560D01*
X-800100Y1218860D01*
Y1334800D01*
X-468798Y25400D02*
Y152400D01*
X-673100Y1814800D02*
Y1927860D01*
X-632800Y1968160D01*
Y2082800D01*
X-673100Y1666240D02*
Y1814800D01*
Y1666240D02*
X-609600Y1602740D01*
X480060D01*
X711200Y1371600D01*
X-660400Y972820D02*
Y1066800D01*
X-468798Y152400D02*
X-330200D01*
X-304800Y177800D01*
Y401320D01*
X-307340Y403860D02*
X-304800Y401320D01*
X-953597Y457200D02*
Y547197D01*
X-1016000Y609600D02*
X-953597Y547197D01*
X-1016000Y609600D02*
Y765373D01*
X-910153Y871220D01*
X-762000D01*
X-660400Y972820D01*
X-485140Y391160D02*
X-469900Y375920D01*
Y279400D02*
X-468798D01*
X-901700Y683260D02*
X-873760Y711200D01*
X-561345Y2199640D02*
X-368300Y2006595D01*
X-787400Y2199640D02*
X-561345D01*
X-812800Y2174240D02*
X-787400Y2199640D01*
X-812800Y2082800D02*
Y2174240D01*
X-1290320Y1066800D02*
X-840400D01*
X-1391920Y965200D02*
X-1290320Y1066800D01*
X-1391920Y511439D02*
Y965200D01*
Y287914D02*
X-1371595Y308239D01*
X-1391920Y279400D02*
Y287914D01*
Y511439D02*
X-1371595Y491114D01*
Y170175D02*
X-1099820Y-101600D01*
X-958799D01*
X-660400Y1066800D02*
Y1143000D01*
X-635000Y1168400D01*
X187960D01*
X901700Y454660D01*
Y31125D02*
Y454660D01*
X573395Y-297180D02*
X901700Y31125D01*
X-746760Y-297180D02*
X573395D01*
X-820420Y-223520D02*
X-746760Y-297180D01*
X-958799Y152400D02*
X-825500D01*
X-660400Y-12700D01*
Y-112486D02*
Y-12700D01*
Y-112486D02*
X-577306Y-195580D01*
X-43180D01*
X457200Y304800D01*
X568960Y-502920D02*
X817880Y-254000D01*
X-1066800Y-502920D02*
X568960D01*
X-1191260Y-378460D02*
X-1066800Y-502920D01*
X-1191260Y-274320D02*
X-1170940D01*
X-773598Y457200D02*
Y545795D01*
X-291795D01*
X-50800Y304800D01*
X-468798Y-101600D02*
X-325120D01*
X-256540Y-33020D01*
X-873760Y-398780D02*
X-236220D01*
X-1110508Y-162032D02*
X-873760Y-398780D01*
X-1356888Y-162032D02*
X-1110508D01*
X-1493520Y-25400D02*
X-1356888Y-162032D01*
X-1493520Y408940D02*
X-1473200D01*
X203200Y304800D02*
X342900Y444500D01*
X812800D01*
X850900Y406400D01*
Y82448D02*
Y406400D01*
X522072Y-246380D02*
X850900Y82448D01*
X-660400Y-246380D02*
X522072D01*
X-711200Y-195580D02*
X-660400Y-246380D01*
X-711200Y-195580D02*
Y-76200D01*
X-812800Y25400D02*
X-711200Y-76200D01*
X-958799Y25400D02*
X-812800D01*
X-1290320Y871220D02*
X-910153D01*
X-660400Y1143000D02*
Y1193800D01*
X-1371595Y308239D02*
Y491114D01*
X-873760Y711200D02*
X-355600D01*
X-1371595Y170175D02*
Y308239D01*
X-1493520Y-25400D02*
Y408940D01*
X-1191260Y-378460D02*
Y-274320D01*
X-469900Y279400D02*
Y375920D01*
D21*
X711200Y1371600D02*
D03*
X457200D02*
D03*
X203200D02*
D03*
X-50800D02*
D03*
X711200Y304800D02*
D03*
X457200D02*
D03*
X203200D02*
D03*
X-50800D02*
D03*
X-355600Y965200D02*
D03*
Y711200D02*
D03*
X-368300Y2006595D02*
D03*
Y1752595D02*
D03*
D22*
X-1290320Y871220D02*
D03*
X-307340Y403860D02*
D03*
X-485140Y391160D02*
D03*
X-901700Y683260D02*
D03*
X-1391920Y279400D02*
D03*
X-820420Y-223520D02*
D03*
X817880Y-254000D02*
D03*
X-1170940Y-274320D02*
D03*
X-256540Y-33020D02*
D03*
X-236220Y-398780D02*
D03*
X-1473200Y408940D02*
D03*
D23*
X-673100Y1334800D02*
D03*
X-800100D02*
D03*
X-927100D02*
D03*
X-1054100D02*
D03*
X-673100Y1814800D02*
D03*
X-800100D02*
D03*
X-927100D02*
D03*
X-1054100D02*
D03*
D24*
X-958799Y-101600D02*
D03*
Y25400D02*
D03*
Y152400D02*
D03*
Y279400D02*
D03*
X-468798Y-101600D02*
D03*
Y25400D02*
D03*
Y152400D02*
D03*
Y279400D02*
D03*
%TF.MD5,fde04b27a7f8d05397e5d607977f986d*%
M02*
