G04 Layer_Color=32896*
%FSLAX45Y45*%
%MOMM*%
%TF.FileFunction,Legend,Bot*%
%TF.Part,Single*%
G01*
G75*
%TA.AperFunction,NonConductor*%
%ADD25C,0.25400*%
%ADD26C,0.25000*%
%ADD28C,0.20000*%
G36*
X228806Y-341391D02*
X215836D01*
Y-301356D01*
X165369D01*
Y-341391D01*
X152400D01*
Y-243840D01*
X165369D01*
Y-289796D01*
X215836D01*
Y-243840D01*
X228806D01*
Y-341391D01*
D02*
G37*
G36*
X417847Y-270342D02*
X415873Y-273162D01*
X414040Y-275699D01*
X412208Y-277814D01*
X410657Y-279787D01*
X409247Y-281197D01*
X408120Y-282325D01*
X407415Y-283030D01*
X407133Y-283312D01*
X406005Y-284157D01*
X404736Y-285144D01*
X402199Y-286695D01*
X401071Y-287259D01*
X400225Y-287823D01*
X399661Y-288105D01*
X399379Y-288246D01*
X401917Y-288668D01*
X404313Y-289091D01*
X406428Y-289796D01*
X408542Y-290360D01*
X410375Y-291065D01*
X412067Y-291911D01*
X413617Y-292616D01*
X415027Y-293320D01*
X416155Y-294166D01*
X417283Y-294871D01*
X418128Y-295435D01*
X418833Y-295999D01*
X419397Y-296422D01*
X419820Y-296845D01*
X419961Y-296986D01*
X420102Y-297127D01*
X421230Y-298536D01*
X422358Y-299946D01*
X424049Y-302906D01*
X425177Y-305867D01*
X426023Y-308686D01*
X426587Y-311083D01*
X426728Y-312069D01*
Y-313056D01*
X426869Y-313761D01*
Y-314325D01*
Y-314607D01*
Y-314748D01*
X426728Y-317708D01*
X426305Y-320387D01*
X425600Y-322924D01*
X424895Y-325039D01*
X424049Y-326871D01*
X423485Y-328281D01*
X422921Y-329127D01*
X422780Y-329268D01*
Y-329409D01*
X421089Y-331664D01*
X419397Y-333638D01*
X417565Y-335330D01*
X415873Y-336598D01*
X414322Y-337585D01*
X413054Y-338149D01*
X412208Y-338572D01*
X412067Y-338713D01*
X411926D01*
X410657Y-339136D01*
X409106Y-339559D01*
X406005Y-340263D01*
X402622Y-340686D01*
X399520Y-341109D01*
X396560Y-341250D01*
X395291D01*
X394164Y-341391D01*
X348912D01*
Y-243840D01*
X361881D01*
Y-287118D01*
X378516D01*
X380067Y-286977D01*
X381194D01*
X382181Y-286836D01*
X382886Y-286695D01*
X383450D01*
X383732Y-286554D01*
X383873D01*
X386128Y-285849D01*
X387115Y-285426D01*
X387961Y-285003D01*
X388807Y-284580D01*
X389371Y-284298D01*
X389653Y-284157D01*
X389793Y-284016D01*
X390921Y-283171D01*
X392049Y-282184D01*
X394164Y-280069D01*
X395150Y-279082D01*
X395855Y-278237D01*
X396278Y-277673D01*
X396419Y-277532D01*
X397829Y-275558D01*
X399379Y-273444D01*
X400930Y-271188D01*
X402481Y-269074D01*
X403750Y-267100D01*
X404736Y-265549D01*
X405159Y-264986D01*
X405441Y-264563D01*
X405723Y-264281D01*
Y-264140D01*
X418551Y-243840D01*
X434622D01*
X417847Y-270342D01*
D02*
G37*
G36*
X288718Y-243981D02*
X291678Y-244122D01*
X294357Y-244404D01*
X296612Y-244686D01*
X298586Y-244968D01*
X299996Y-245109D01*
X300418Y-245250D01*
X300841Y-245391D01*
X301123D01*
X303661Y-246096D01*
X305916Y-246941D01*
X307890Y-247646D01*
X309582Y-248492D01*
X310991Y-249197D01*
X311978Y-249761D01*
X312542Y-250184D01*
X312824Y-250325D01*
X314656Y-251593D01*
X316207Y-253144D01*
X317758Y-254554D01*
X319027Y-255963D01*
X320154Y-257232D01*
X321000Y-258219D01*
X321564Y-258924D01*
X321705Y-259206D01*
X323115Y-261461D01*
X324524Y-263858D01*
X325652Y-266113D01*
X326498Y-268369D01*
X327344Y-270342D01*
X327908Y-271893D01*
X328049Y-272457D01*
X328190Y-272880D01*
X328331Y-273162D01*
Y-273303D01*
X329176Y-276686D01*
X329881Y-280069D01*
X330304Y-283312D01*
X330727Y-286413D01*
X330868Y-289091D01*
Y-290219D01*
X331009Y-291206D01*
Y-291911D01*
Y-292616D01*
Y-292898D01*
Y-293039D01*
X330868Y-297832D01*
X330445Y-302202D01*
X329740Y-306149D01*
X329458Y-307981D01*
X329035Y-309532D01*
X328612Y-311083D01*
X328331Y-312351D01*
X328049Y-313479D01*
X327626Y-314466D01*
X327485Y-315312D01*
X327203Y-315876D01*
X327062Y-316158D01*
Y-316299D01*
X325511Y-319964D01*
X323679Y-323206D01*
X321705Y-326026D01*
X319872Y-328422D01*
X318181Y-330396D01*
X316771Y-331805D01*
X316207Y-332228D01*
X315784Y-332651D01*
X315643Y-332792D01*
X315502Y-332933D01*
X313247Y-334766D01*
X310850Y-336175D01*
X308454Y-337444D01*
X306198Y-338431D01*
X304225Y-339136D01*
X302674Y-339559D01*
X302110Y-339841D01*
X301687D01*
X301405Y-339982D01*
X301264D01*
X298868Y-340404D01*
X296048Y-340827D01*
X293229Y-341109D01*
X290410Y-341250D01*
X287872Y-341391D01*
X250374D01*
Y-243840D01*
X285476D01*
X288718Y-243981D01*
D02*
G37*
G36*
X475926Y-242289D02*
X478323Y-242571D01*
X480719Y-242994D01*
X482975Y-243558D01*
X485089Y-244263D01*
X486922Y-244968D01*
X488754Y-245814D01*
X490305Y-246659D01*
X491856Y-247364D01*
X493124Y-248210D01*
X494252Y-248915D01*
X495098Y-249620D01*
X495803Y-250184D01*
X496367Y-250607D01*
X496649Y-250888D01*
X496790Y-251029D01*
X498481Y-252721D01*
X499891Y-254554D01*
X501160Y-256386D01*
X502288Y-258219D01*
X503133Y-259911D01*
X503979Y-261743D01*
X505107Y-265126D01*
X505389Y-266677D01*
X505671Y-268087D01*
X505953Y-269356D01*
X506094Y-270483D01*
X506235Y-271329D01*
Y-272034D01*
Y-272457D01*
Y-272598D01*
X506094Y-275981D01*
X505530Y-279082D01*
X504684Y-281761D01*
X503838Y-284016D01*
X502992Y-285849D01*
X502147Y-287259D01*
X501583Y-288105D01*
X501442Y-288387D01*
X499468Y-290501D01*
X497354Y-292334D01*
X495098Y-293743D01*
X492843Y-294871D01*
X490869Y-295717D01*
X489318Y-296281D01*
X488754Y-296422D01*
X488332Y-296563D01*
X488050Y-296704D01*
X487909D01*
X490305Y-297972D01*
X492279Y-299241D01*
X493970Y-300651D01*
X495380Y-301920D01*
X496508Y-303047D01*
X497354Y-304034D01*
X497776Y-304598D01*
X497917Y-304880D01*
X499045Y-306854D01*
X499891Y-308827D01*
X500596Y-310801D01*
X501019Y-312633D01*
X501301Y-314184D01*
X501442Y-315312D01*
Y-316158D01*
Y-316440D01*
X501301Y-318836D01*
X500878Y-321233D01*
X500314Y-323347D01*
X499609Y-325180D01*
X498904Y-326730D01*
X498340Y-327999D01*
X497917Y-328704D01*
X497776Y-328986D01*
X496367Y-331100D01*
X494675Y-332933D01*
X492984Y-334484D01*
X491292Y-335893D01*
X489882Y-336880D01*
X488613Y-337726D01*
X487768Y-338149D01*
X487627Y-338290D01*
X487486D01*
X484948Y-339418D01*
X482411Y-340263D01*
X479873Y-340968D01*
X477618Y-341391D01*
X475785Y-341673D01*
X474235Y-341814D01*
X470710D01*
X468737Y-341532D01*
X464930Y-340827D01*
X461688Y-339700D01*
X458869Y-338572D01*
X457600Y-337867D01*
X456613Y-337303D01*
X455626Y-336739D01*
X454922Y-336175D01*
X454358Y-335752D01*
X453935Y-335471D01*
X453653Y-335330D01*
X453512Y-335189D01*
X450833Y-332510D01*
X448719Y-329550D01*
X447027Y-326448D01*
X445618Y-323347D01*
X444772Y-320669D01*
X444349Y-319541D01*
X444067Y-318554D01*
X443926Y-317708D01*
X443785Y-317144D01*
X443644Y-316721D01*
Y-316581D01*
X455626Y-314466D01*
X456190Y-317567D01*
X457036Y-320246D01*
X458023Y-322501D01*
X459010Y-324334D01*
X459997Y-325744D01*
X460842Y-326730D01*
X461406Y-327435D01*
X461547Y-327576D01*
X463380Y-328986D01*
X465353Y-330114D01*
X467186Y-330818D01*
X469019Y-331382D01*
X470710Y-331664D01*
X471979Y-331946D01*
X473107D01*
X475644Y-331805D01*
X477900Y-331241D01*
X479873Y-330537D01*
X481565Y-329832D01*
X482834Y-328986D01*
X483820Y-328281D01*
X484525Y-327717D01*
X484666Y-327576D01*
X486217Y-325885D01*
X487345Y-324052D01*
X488050Y-322219D01*
X488613Y-320528D01*
X488895Y-318977D01*
X489177Y-317849D01*
Y-317003D01*
Y-316862D01*
Y-316721D01*
Y-315171D01*
X488895Y-313761D01*
X488191Y-311365D01*
X487204Y-309250D01*
X486076Y-307417D01*
X484948Y-306149D01*
X483961Y-305162D01*
X483257Y-304598D01*
X483116Y-304457D01*
X482975D01*
X480578Y-303188D01*
X478323Y-302202D01*
X475926Y-301497D01*
X473812Y-301074D01*
X471979Y-300792D01*
X470428Y-300510D01*
X468596D01*
X468032Y-300651D01*
X467327D01*
X465917Y-290078D01*
X467750Y-290501D01*
X469442Y-290783D01*
X470851Y-291065D01*
X472120Y-291206D01*
X473107Y-291347D01*
X474375D01*
X477336Y-291065D01*
X480014Y-290501D01*
X482411Y-289655D01*
X484384Y-288668D01*
X485935Y-287682D01*
X487063Y-286836D01*
X487768Y-286272D01*
X488050Y-285990D01*
X489882Y-283875D01*
X491292Y-281620D01*
X492279Y-279364D01*
X492843Y-277109D01*
X493265Y-275276D01*
X493406Y-273726D01*
X493547Y-273162D01*
Y-272739D01*
Y-272457D01*
Y-272316D01*
X493265Y-269215D01*
X492561Y-266395D01*
X491715Y-263999D01*
X490587Y-261884D01*
X489459Y-260193D01*
X488613Y-258924D01*
X487909Y-258078D01*
X487627Y-257796D01*
X485371Y-255822D01*
X482975Y-254413D01*
X480578Y-253426D01*
X478323Y-252721D01*
X476349Y-252298D01*
X474798Y-252157D01*
X474235Y-252016D01*
X473389D01*
X470851Y-252157D01*
X468455Y-252721D01*
X466340Y-253426D01*
X464649Y-254272D01*
X463239Y-254977D01*
X462111Y-255681D01*
X461547Y-256245D01*
X461265Y-256386D01*
X459574Y-258360D01*
X458164Y-260615D01*
X456895Y-263012D01*
X455908Y-265549D01*
X455204Y-267664D01*
X454922Y-268651D01*
X454781Y-269497D01*
X454640Y-270201D01*
X454499Y-270765D01*
X454358Y-271047D01*
Y-271188D01*
X442375Y-269638D01*
X442657Y-267382D01*
X443080Y-265267D01*
X444349Y-261320D01*
X445900Y-257937D01*
X446745Y-256527D01*
X447591Y-255118D01*
X448437Y-253849D01*
X449283Y-252862D01*
X449988Y-251875D01*
X450693Y-251170D01*
X451115Y-250607D01*
X451538Y-250184D01*
X451820Y-249902D01*
X451961Y-249761D01*
X453653Y-248492D01*
X455345Y-247223D01*
X457036Y-246236D01*
X458869Y-245391D01*
X462393Y-243981D01*
X465776Y-243135D01*
X467327Y-242853D01*
X468737Y-242571D01*
X470005Y-242430D01*
X471133Y-242289D01*
X471979Y-242148D01*
X473248D01*
X475926Y-242289D01*
D02*
G37*
G36*
X-743483Y1075690D02*
X-742747Y1075588D01*
X-742061Y1075436D01*
X-741477Y1075258D01*
X-741223Y1075157D01*
X-740994Y1075055D01*
X-740791Y1074979D01*
X-740613Y1074903D01*
X-740486Y1074852D01*
X-740385Y1074801D01*
X-740334Y1074750D01*
X-740308D01*
X-739673Y1074344D01*
X-739140Y1073887D01*
X-738657Y1073404D01*
X-738276Y1072921D01*
X-737972Y1072515D01*
X-737845Y1072337D01*
X-737743Y1072159D01*
X-737667Y1072032D01*
X-737616Y1071931D01*
X-737565Y1071880D01*
Y1071855D01*
X-737235Y1071118D01*
X-737006Y1070381D01*
X-736829Y1069619D01*
X-736727Y1068934D01*
X-736676Y1068629D01*
X-736651Y1068349D01*
X-736625Y1068070D01*
Y1067867D01*
X-736600Y1067689D01*
Y1067537D01*
Y1067460D01*
Y1067435D01*
X-736625Y1066571D01*
X-736727Y1065759D01*
X-736854Y1065022D01*
X-736930Y1064692D01*
X-737032Y1064387D01*
X-737108Y1064082D01*
X-737184Y1063828D01*
X-737235Y1063600D01*
X-737311Y1063422D01*
X-737362Y1063269D01*
X-737413Y1063168D01*
X-737438Y1063092D01*
Y1063066D01*
X-737794Y1062355D01*
X-738200Y1061720D01*
X-738607Y1061187D01*
X-739013Y1060755D01*
X-739394Y1060425D01*
X-739673Y1060171D01*
X-739800Y1060069D01*
X-739877Y1060018D01*
X-739927Y1059993D01*
X-739953Y1059967D01*
X-740613Y1059612D01*
X-741324Y1059358D01*
X-742036Y1059155D01*
X-742696Y1059028D01*
X-743026Y1059002D01*
X-743306Y1058951D01*
X-743560Y1058926D01*
X-743788D01*
X-743966Y1058901D01*
X-744220D01*
X-744677Y1058926D01*
X-745134Y1058951D01*
X-745973Y1059104D01*
X-746354Y1059231D01*
X-746684Y1059332D01*
X-747014Y1059459D01*
X-747319Y1059586D01*
X-747598Y1059713D01*
X-747827Y1059840D01*
X-748030Y1059967D01*
X-748208Y1060069D01*
X-748335Y1060145D01*
X-748436Y1060221D01*
X-748487Y1060247D01*
X-748513Y1060272D01*
X-748843Y1060552D01*
X-749122Y1060856D01*
X-749656Y1061491D01*
X-750062Y1062177D01*
X-750418Y1062838D01*
X-750545Y1063142D01*
X-750672Y1063422D01*
X-750773Y1063676D01*
X-750849Y1063904D01*
X-750900Y1064082D01*
X-750951Y1064209D01*
X-750976Y1064311D01*
Y1064336D01*
X-748817Y1064870D01*
X-748614Y1064158D01*
X-748360Y1063523D01*
X-748081Y1063015D01*
X-747776Y1062584D01*
X-747522Y1062228D01*
X-747293Y1061999D01*
X-747141Y1061847D01*
X-747116Y1061822D01*
X-747090Y1061796D01*
X-746608Y1061441D01*
X-746100Y1061187D01*
X-745592Y1061009D01*
X-745109Y1060882D01*
X-744677Y1060806D01*
X-744499Y1060780D01*
X-744347D01*
X-744220Y1060755D01*
X-744042D01*
X-743509Y1060780D01*
X-743001Y1060882D01*
X-742518Y1061009D01*
X-742112Y1061136D01*
X-741756Y1061288D01*
X-741502Y1061390D01*
X-741401Y1061441D01*
X-741324Y1061491D01*
X-741299Y1061517D01*
X-741274D01*
X-740816Y1061847D01*
X-740435Y1062203D01*
X-740131Y1062584D01*
X-739851Y1062965D01*
X-739648Y1063295D01*
X-739521Y1063574D01*
X-739470Y1063676D01*
X-739419Y1063752D01*
X-739394Y1063803D01*
Y1063828D01*
X-739191Y1064438D01*
X-739064Y1065047D01*
X-738962Y1065657D01*
X-738886Y1066216D01*
X-738861Y1066470D01*
X-738835Y1066698D01*
Y1066902D01*
X-738810Y1067079D01*
Y1067232D01*
Y1067333D01*
Y1067410D01*
Y1067435D01*
X-738835Y1068045D01*
X-738886Y1068603D01*
X-738962Y1069137D01*
X-739064Y1069619D01*
X-739165Y1070000D01*
X-739191Y1070153D01*
X-739242Y1070305D01*
X-739267Y1070407D01*
X-739292Y1070483D01*
X-739318Y1070534D01*
Y1070559D01*
X-739546Y1071093D01*
X-739800Y1071575D01*
X-740105Y1071982D01*
X-740385Y1072337D01*
X-740639Y1072617D01*
X-740867Y1072820D01*
X-741020Y1072921D01*
X-741045Y1072972D01*
X-741070D01*
X-741578Y1073277D01*
X-742112Y1073506D01*
X-742620Y1073658D01*
X-743128Y1073785D01*
X-743560Y1073836D01*
X-743737Y1073861D01*
X-743915D01*
X-744042Y1073887D01*
X-744220D01*
X-744804Y1073861D01*
X-745338Y1073760D01*
X-745795Y1073633D01*
X-746176Y1073480D01*
X-746481Y1073328D01*
X-746709Y1073201D01*
X-746862Y1073099D01*
X-746912Y1073074D01*
X-747293Y1072718D01*
X-747624Y1072337D01*
X-747928Y1071905D01*
X-748157Y1071474D01*
X-748335Y1071093D01*
X-748411Y1070915D01*
X-748487Y1070762D01*
X-748538Y1070661D01*
X-748563Y1070559D01*
X-748589Y1070508D01*
Y1070483D01*
X-750697Y1070991D01*
X-750418Y1071778D01*
X-750062Y1072490D01*
X-749859Y1072794D01*
X-749656Y1073074D01*
X-749478Y1073328D01*
X-749275Y1073582D01*
X-749097Y1073785D01*
X-748919Y1073963D01*
X-748767Y1074115D01*
X-748640Y1074242D01*
X-748513Y1074344D01*
X-748436Y1074420D01*
X-748386Y1074445D01*
X-748360Y1074471D01*
X-748055Y1074699D01*
X-747700Y1074903D01*
X-747370Y1075055D01*
X-747014Y1075207D01*
X-746354Y1075436D01*
X-745693Y1075588D01*
X-745414Y1075639D01*
X-745134Y1075665D01*
X-744880Y1075715D01*
X-744677D01*
X-744499Y1075741D01*
X-744271D01*
X-743483Y1075690D01*
D02*
G37*
G36*
X-757225Y1075487D02*
X-756590Y1075360D01*
X-756031Y1075182D01*
X-755574Y1074979D01*
X-755193Y1074776D01*
X-755040Y1074674D01*
X-754913Y1074598D01*
X-754812Y1074522D01*
X-754736Y1074471D01*
X-754710Y1074445D01*
X-754685Y1074420D01*
X-754253Y1073963D01*
X-753872Y1073480D01*
X-753593Y1072972D01*
X-753364Y1072464D01*
X-753212Y1072007D01*
X-753161Y1071829D01*
X-753110Y1071651D01*
X-753085Y1071524D01*
X-753059Y1071423D01*
X-753034Y1071347D01*
Y1071321D01*
X-755040Y1070966D01*
X-755142Y1071474D01*
X-755269Y1071931D01*
X-755447Y1072286D01*
X-755599Y1072591D01*
X-755752Y1072845D01*
X-755879Y1073023D01*
X-755980Y1073125D01*
X-756006Y1073150D01*
X-756310Y1073404D01*
X-756641Y1073582D01*
X-756971Y1073709D01*
X-757276Y1073785D01*
X-757555Y1073861D01*
X-757758Y1073887D01*
X-757961D01*
X-758368Y1073861D01*
X-758749Y1073785D01*
X-759079Y1073658D01*
X-759358Y1073531D01*
X-759562Y1073379D01*
X-759739Y1073277D01*
X-759841Y1073175D01*
X-759866Y1073150D01*
X-760120Y1072871D01*
X-760298Y1072566D01*
X-760451Y1072261D01*
X-760527Y1071982D01*
X-760578Y1071728D01*
X-760628Y1071524D01*
Y1071397D01*
Y1071372D01*
Y1071347D01*
X-760578Y1070864D01*
X-760476Y1070432D01*
X-760298Y1070077D01*
X-760120Y1069797D01*
X-759917Y1069569D01*
X-759739Y1069416D01*
X-759638Y1069315D01*
X-759587Y1069289D01*
X-759206Y1069061D01*
X-758800Y1068908D01*
X-758419Y1068781D01*
X-758063Y1068705D01*
X-757758Y1068654D01*
X-757504Y1068629D01*
X-757301D01*
X-757098Y1068654D01*
X-756996D01*
X-756768Y1066902D01*
X-757072Y1066978D01*
X-757352Y1067029D01*
X-757580Y1067054D01*
X-757784Y1067079D01*
X-757936Y1067105D01*
X-758165D01*
X-758673Y1067079D01*
X-759104Y1066978D01*
X-759511Y1066825D01*
X-759841Y1066673D01*
X-760095Y1066495D01*
X-760298Y1066368D01*
X-760400Y1066267D01*
X-760451Y1066216D01*
X-760755Y1065860D01*
X-760984Y1065479D01*
X-761136Y1065098D01*
X-761263Y1064743D01*
X-761314Y1064412D01*
X-761340Y1064158D01*
X-761365Y1064057D01*
Y1063981D01*
Y1063955D01*
Y1063930D01*
X-761314Y1063422D01*
X-761213Y1062965D01*
X-761060Y1062533D01*
X-760882Y1062203D01*
X-760705Y1061898D01*
X-760552Y1061695D01*
X-760451Y1061568D01*
X-760400Y1061517D01*
X-760019Y1061187D01*
X-759612Y1060958D01*
X-759231Y1060780D01*
X-758850Y1060679D01*
X-758520Y1060602D01*
X-758241Y1060577D01*
X-758139Y1060552D01*
X-758012D01*
X-757580Y1060577D01*
X-757199Y1060679D01*
X-756844Y1060780D01*
X-756539Y1060933D01*
X-756310Y1061060D01*
X-756133Y1061187D01*
X-756031Y1061263D01*
X-755980Y1061288D01*
X-755701Y1061593D01*
X-755472Y1061974D01*
X-755269Y1062380D01*
X-755117Y1062787D01*
X-754990Y1063142D01*
X-754913Y1063447D01*
X-754863Y1063574D01*
Y1063650D01*
X-754837Y1063701D01*
Y1063727D01*
X-752831Y1063473D01*
X-752881Y1063092D01*
X-752958Y1062736D01*
X-753161Y1062101D01*
X-753415Y1061542D01*
X-753694Y1061060D01*
X-753974Y1060679D01*
X-754101Y1060526D01*
X-754202Y1060399D01*
X-754304Y1060298D01*
X-754380Y1060221D01*
X-754405Y1060196D01*
X-754431Y1060171D01*
X-754710Y1059942D01*
X-754990Y1059764D01*
X-755294Y1059586D01*
X-755599Y1059434D01*
X-756183Y1059205D01*
X-756742Y1059053D01*
X-757250Y1058977D01*
X-757453Y1058951D01*
X-757631Y1058926D01*
X-757784Y1058901D01*
X-757987D01*
X-758419Y1058926D01*
X-758825Y1058977D01*
X-759231Y1059028D01*
X-759587Y1059129D01*
X-759943Y1059231D01*
X-760273Y1059358D01*
X-760552Y1059510D01*
X-760832Y1059637D01*
X-761060Y1059764D01*
X-761289Y1059917D01*
X-761467Y1060044D01*
X-761619Y1060145D01*
X-761746Y1060247D01*
X-761822Y1060323D01*
X-761873Y1060348D01*
X-761898Y1060374D01*
X-762178Y1060653D01*
X-762406Y1060958D01*
X-762635Y1061263D01*
X-762813Y1061568D01*
X-762965Y1061872D01*
X-763092Y1062152D01*
X-763270Y1062736D01*
X-763346Y1062990D01*
X-763397Y1063219D01*
X-763422Y1063447D01*
X-763448Y1063625D01*
X-763473Y1063777D01*
Y1063879D01*
Y1063955D01*
Y1063981D01*
X-763448Y1064539D01*
X-763346Y1065047D01*
X-763219Y1065505D01*
X-763067Y1065886D01*
X-762914Y1066190D01*
X-762787Y1066419D01*
X-762686Y1066546D01*
X-762660Y1066597D01*
X-762330Y1066952D01*
X-761975Y1067257D01*
X-761619Y1067511D01*
X-761238Y1067689D01*
X-760933Y1067841D01*
X-760654Y1067918D01*
X-760552Y1067968D01*
X-760501D01*
X-760451Y1067994D01*
X-760425D01*
X-760832Y1068197D01*
X-761162Y1068426D01*
X-761441Y1068654D01*
X-761695Y1068883D01*
X-761873Y1069061D01*
X-762000Y1069213D01*
X-762076Y1069340D01*
X-762102Y1069365D01*
X-762305Y1069696D01*
X-762432Y1070026D01*
X-762533Y1070356D01*
X-762610Y1070661D01*
X-762660Y1070915D01*
X-762686Y1071118D01*
Y1071245D01*
Y1071296D01*
X-762660Y1071702D01*
X-762584Y1072083D01*
X-762483Y1072439D01*
X-762381Y1072769D01*
X-762279Y1073023D01*
X-762178Y1073201D01*
X-762102Y1073328D01*
X-762076Y1073379D01*
X-761848Y1073734D01*
X-761568Y1074039D01*
X-761289Y1074318D01*
X-761009Y1074547D01*
X-760755Y1074725D01*
X-760552Y1074852D01*
X-760425Y1074928D01*
X-760400Y1074953D01*
X-760374D01*
X-759943Y1075157D01*
X-759511Y1075284D01*
X-759104Y1075385D01*
X-758723Y1075461D01*
X-758393Y1075512D01*
X-758139Y1075538D01*
X-757555D01*
X-757225Y1075487D01*
D02*
G37*
G36*
X-715543Y2091690D02*
X-714807Y2091588D01*
X-714121Y2091436D01*
X-713537Y2091258D01*
X-713283Y2091157D01*
X-713054Y2091055D01*
X-712851Y2090979D01*
X-712673Y2090903D01*
X-712546Y2090852D01*
X-712445Y2090801D01*
X-712394Y2090750D01*
X-712368D01*
X-711733Y2090344D01*
X-711200Y2089887D01*
X-710717Y2089404D01*
X-710336Y2088921D01*
X-710032Y2088515D01*
X-709905Y2088337D01*
X-709803Y2088159D01*
X-709727Y2088032D01*
X-709676Y2087931D01*
X-709625Y2087880D01*
Y2087855D01*
X-709295Y2087118D01*
X-709066Y2086381D01*
X-708889Y2085619D01*
X-708787Y2084934D01*
X-708736Y2084629D01*
X-708711Y2084349D01*
X-708685Y2084070D01*
Y2083867D01*
X-708660Y2083689D01*
Y2083537D01*
Y2083460D01*
Y2083435D01*
X-708685Y2082571D01*
X-708787Y2081759D01*
X-708914Y2081022D01*
X-708990Y2080692D01*
X-709092Y2080387D01*
X-709168Y2080082D01*
X-709244Y2079828D01*
X-709295Y2079600D01*
X-709371Y2079422D01*
X-709422Y2079269D01*
X-709473Y2079168D01*
X-709498Y2079092D01*
Y2079066D01*
X-709854Y2078355D01*
X-710260Y2077720D01*
X-710667Y2077187D01*
X-711073Y2076755D01*
X-711454Y2076425D01*
X-711733Y2076171D01*
X-711860Y2076069D01*
X-711937Y2076018D01*
X-711987Y2075993D01*
X-712013Y2075967D01*
X-712673Y2075612D01*
X-713384Y2075358D01*
X-714096Y2075155D01*
X-714756Y2075028D01*
X-715086Y2075002D01*
X-715366Y2074951D01*
X-715620Y2074926D01*
X-715848D01*
X-716026Y2074901D01*
X-716280D01*
X-716737Y2074926D01*
X-717194Y2074951D01*
X-718033Y2075104D01*
X-718414Y2075231D01*
X-718744Y2075332D01*
X-719074Y2075459D01*
X-719379Y2075586D01*
X-719658Y2075713D01*
X-719887Y2075840D01*
X-720090Y2075967D01*
X-720268Y2076069D01*
X-720395Y2076145D01*
X-720496Y2076221D01*
X-720547Y2076247D01*
X-720573Y2076272D01*
X-720903Y2076552D01*
X-721182Y2076856D01*
X-721716Y2077491D01*
X-722122Y2078177D01*
X-722478Y2078838D01*
X-722605Y2079142D01*
X-722732Y2079422D01*
X-722833Y2079676D01*
X-722909Y2079904D01*
X-722960Y2080082D01*
X-723011Y2080209D01*
X-723036Y2080311D01*
Y2080336D01*
X-720877Y2080870D01*
X-720674Y2080158D01*
X-720420Y2079523D01*
X-720141Y2079015D01*
X-719836Y2078584D01*
X-719582Y2078228D01*
X-719353Y2077999D01*
X-719201Y2077847D01*
X-719176Y2077822D01*
X-719150Y2077796D01*
X-718668Y2077441D01*
X-718160Y2077187D01*
X-717652Y2077009D01*
X-717169Y2076882D01*
X-716737Y2076806D01*
X-716559Y2076780D01*
X-716407D01*
X-716280Y2076755D01*
X-716102D01*
X-715569Y2076780D01*
X-715061Y2076882D01*
X-714578Y2077009D01*
X-714172Y2077136D01*
X-713816Y2077288D01*
X-713562Y2077390D01*
X-713461Y2077441D01*
X-713384Y2077491D01*
X-713359Y2077517D01*
X-713334D01*
X-712876Y2077847D01*
X-712495Y2078203D01*
X-712191Y2078584D01*
X-711911Y2078965D01*
X-711708Y2079295D01*
X-711581Y2079574D01*
X-711530Y2079676D01*
X-711479Y2079752D01*
X-711454Y2079803D01*
Y2079828D01*
X-711251Y2080438D01*
X-711124Y2081047D01*
X-711022Y2081657D01*
X-710946Y2082216D01*
X-710921Y2082470D01*
X-710895Y2082698D01*
Y2082902D01*
X-710870Y2083079D01*
Y2083232D01*
Y2083333D01*
Y2083410D01*
Y2083435D01*
X-710895Y2084045D01*
X-710946Y2084603D01*
X-711022Y2085137D01*
X-711124Y2085619D01*
X-711225Y2086000D01*
X-711251Y2086153D01*
X-711302Y2086305D01*
X-711327Y2086407D01*
X-711352Y2086483D01*
X-711378Y2086534D01*
Y2086559D01*
X-711606Y2087093D01*
X-711860Y2087575D01*
X-712165Y2087982D01*
X-712445Y2088337D01*
X-712699Y2088617D01*
X-712927Y2088820D01*
X-713080Y2088921D01*
X-713105Y2088972D01*
X-713130D01*
X-713638Y2089277D01*
X-714172Y2089506D01*
X-714680Y2089658D01*
X-715188Y2089785D01*
X-715620Y2089836D01*
X-715797Y2089861D01*
X-715975D01*
X-716102Y2089887D01*
X-716280D01*
X-716864Y2089861D01*
X-717398Y2089760D01*
X-717855Y2089633D01*
X-718236Y2089480D01*
X-718541Y2089328D01*
X-718769Y2089201D01*
X-718922Y2089099D01*
X-718972Y2089074D01*
X-719353Y2088718D01*
X-719684Y2088337D01*
X-719988Y2087905D01*
X-720217Y2087474D01*
X-720395Y2087093D01*
X-720471Y2086915D01*
X-720547Y2086762D01*
X-720598Y2086661D01*
X-720623Y2086559D01*
X-720649Y2086508D01*
Y2086483D01*
X-722757Y2086991D01*
X-722478Y2087778D01*
X-722122Y2088490D01*
X-721919Y2088794D01*
X-721716Y2089074D01*
X-721538Y2089328D01*
X-721335Y2089582D01*
X-721157Y2089785D01*
X-720979Y2089963D01*
X-720827Y2090115D01*
X-720700Y2090242D01*
X-720573Y2090344D01*
X-720496Y2090420D01*
X-720446Y2090445D01*
X-720420Y2090471D01*
X-720115Y2090699D01*
X-719760Y2090903D01*
X-719430Y2091055D01*
X-719074Y2091207D01*
X-718414Y2091436D01*
X-717753Y2091588D01*
X-717474Y2091639D01*
X-717194Y2091665D01*
X-716940Y2091715D01*
X-716737D01*
X-716559Y2091741D01*
X-716331D01*
X-715543Y2091690D01*
D02*
G37*
G36*
X-729818Y2091512D02*
X-729437Y2091487D01*
X-728701Y2091360D01*
X-728370Y2091258D01*
X-728066Y2091157D01*
X-727786Y2091055D01*
X-727532Y2090928D01*
X-727304Y2090826D01*
X-727100Y2090699D01*
X-726948Y2090598D01*
X-726796Y2090522D01*
X-726694Y2090420D01*
X-726618Y2090369D01*
X-726567Y2090344D01*
X-726542Y2090318D01*
X-726288Y2090090D01*
X-726084Y2089836D01*
X-725729Y2089277D01*
X-725449Y2088693D01*
X-725246Y2088134D01*
X-725094Y2087626D01*
X-725068Y2087397D01*
X-725018Y2087220D01*
X-724992Y2087067D01*
X-724967Y2086940D01*
Y2086864D01*
Y2086839D01*
X-727024Y2086635D01*
X-727050Y2087169D01*
X-727151Y2087651D01*
X-727304Y2088058D01*
X-727456Y2088413D01*
X-727608Y2088667D01*
X-727761Y2088871D01*
X-727862Y2088972D01*
X-727888Y2089023D01*
X-728243Y2089302D01*
X-728624Y2089531D01*
X-729005Y2089683D01*
X-729361Y2089785D01*
X-729691Y2089836D01*
X-729971Y2089887D01*
X-730199D01*
X-730682Y2089861D01*
X-731139Y2089760D01*
X-731520Y2089633D01*
X-731825Y2089480D01*
X-732079Y2089302D01*
X-732282Y2089175D01*
X-732384Y2089074D01*
X-732434Y2089048D01*
X-732714Y2088718D01*
X-732942Y2088388D01*
X-733095Y2088058D01*
X-733196Y2087753D01*
X-733247Y2087474D01*
X-733298Y2087245D01*
Y2087093D01*
Y2087067D01*
Y2087042D01*
X-733247Y2086610D01*
X-733146Y2086204D01*
X-732993Y2085797D01*
X-732841Y2085416D01*
X-732663Y2085086D01*
X-732511Y2084857D01*
X-732434Y2084756D01*
X-732409Y2084680D01*
X-732358Y2084654D01*
Y2084629D01*
X-732155Y2084375D01*
X-731926Y2084121D01*
X-731672Y2083841D01*
X-731393Y2083562D01*
X-730809Y2082978D01*
X-730199Y2082419D01*
X-729640Y2081936D01*
X-729412Y2081733D01*
X-729183Y2081530D01*
X-729005Y2081378D01*
X-728878Y2081276D01*
X-728777Y2081200D01*
X-728751Y2081174D01*
X-728142Y2080666D01*
X-727634Y2080209D01*
X-727177Y2079803D01*
X-726796Y2079447D01*
X-726516Y2079142D01*
X-726313Y2078914D01*
X-726186Y2078787D01*
X-726135Y2078736D01*
X-725805Y2078330D01*
X-725551Y2077949D01*
X-725322Y2077568D01*
X-725145Y2077237D01*
X-724992Y2076958D01*
X-724891Y2076755D01*
X-724840Y2076602D01*
X-724814Y2076577D01*
Y2076552D01*
X-724738Y2076298D01*
X-724662Y2076069D01*
X-724637Y2075840D01*
X-724611Y2075612D01*
X-724586Y2075434D01*
Y2075307D01*
Y2075205D01*
Y2075180D01*
X-735381D01*
Y2077110D01*
X-727354D01*
X-727634Y2077491D01*
X-727913Y2077847D01*
X-728040Y2077974D01*
X-728142Y2078076D01*
X-728193Y2078152D01*
X-728218Y2078177D01*
X-728320Y2078279D01*
X-728472Y2078431D01*
X-728802Y2078736D01*
X-729183Y2079066D01*
X-729564Y2079396D01*
X-729945Y2079727D01*
X-730250Y2079981D01*
X-730352Y2080082D01*
X-730453Y2080158D01*
X-730504Y2080209D01*
X-730529Y2080235D01*
X-730910Y2080565D01*
X-731291Y2080895D01*
X-731622Y2081174D01*
X-731926Y2081454D01*
X-732206Y2081708D01*
X-732460Y2081936D01*
X-732688Y2082165D01*
X-732866Y2082368D01*
X-733196Y2082673D01*
X-733425Y2082927D01*
X-733552Y2083054D01*
X-733603Y2083105D01*
X-733933Y2083486D01*
X-734212Y2083867D01*
X-734441Y2084197D01*
X-734619Y2084476D01*
X-734771Y2084730D01*
X-734873Y2084934D01*
X-734924Y2085035D01*
X-734949Y2085086D01*
X-735076Y2085442D01*
X-735178Y2085797D01*
X-735254Y2086102D01*
X-735305Y2086407D01*
X-735330Y2086661D01*
X-735355Y2086839D01*
Y2086966D01*
Y2087016D01*
X-735330Y2087372D01*
X-735305Y2087702D01*
X-735152Y2088312D01*
X-734924Y2088871D01*
X-734670Y2089328D01*
X-734416Y2089709D01*
X-734314Y2089861D01*
X-734187Y2089988D01*
X-734111Y2090090D01*
X-734035Y2090166D01*
X-734009Y2090191D01*
X-733984Y2090217D01*
X-733704Y2090445D01*
X-733425Y2090649D01*
X-733120Y2090826D01*
X-732815Y2090979D01*
X-732206Y2091207D01*
X-731596Y2091385D01*
X-731317Y2091436D01*
X-731063Y2091461D01*
X-730834Y2091487D01*
X-730631Y2091512D01*
X-730479Y2091538D01*
X-730250D01*
X-729818Y2091512D01*
D02*
G37*
G36*
X206842Y1967247D02*
X209662Y1965273D01*
X212199Y1963440D01*
X214314Y1961608D01*
X216287Y1960057D01*
X217697Y1958647D01*
X218825Y1957520D01*
X219530Y1956815D01*
X219812Y1956533D01*
X220657Y1955405D01*
X221644Y1954136D01*
X223195Y1951599D01*
X223759Y1950471D01*
X224323Y1949625D01*
X224605Y1949061D01*
X224746Y1948779D01*
X225168Y1951317D01*
X225591Y1953713D01*
X226296Y1955828D01*
X226860Y1957942D01*
X227565Y1959775D01*
X228411Y1961467D01*
X229116Y1963017D01*
X229820Y1964427D01*
X230666Y1965555D01*
X231371Y1966683D01*
X231935Y1967528D01*
X232499Y1968233D01*
X232922Y1968797D01*
X233345Y1969220D01*
X233486Y1969361D01*
X233627Y1969502D01*
X235036Y1970630D01*
X236446Y1971758D01*
X239406Y1973449D01*
X242367Y1974577D01*
X245186Y1975423D01*
X247583Y1975987D01*
X248569Y1976128D01*
X249556D01*
X250261Y1976269D01*
X251248D01*
X254208Y1976128D01*
X256887Y1975705D01*
X259424Y1975000D01*
X261539Y1974295D01*
X263371Y1973449D01*
X264781Y1972885D01*
X265627Y1972321D01*
X265768Y1972180D01*
X265909D01*
X268164Y1970489D01*
X270138Y1968797D01*
X271830Y1966965D01*
X273098Y1965273D01*
X274085Y1963722D01*
X274649Y1962454D01*
X275072Y1961608D01*
X275213Y1961467D01*
Y1961326D01*
X275636Y1960057D01*
X276059Y1958506D01*
X276763Y1955405D01*
X277186Y1952022D01*
X277609Y1948920D01*
X277750Y1945960D01*
Y1944691D01*
X277891Y1943564D01*
Y1942718D01*
Y1942013D01*
Y1941590D01*
Y1941449D01*
Y1898312D01*
X180340D01*
Y1911281D01*
X223618D01*
Y1926224D01*
Y1927916D01*
X223477Y1929467D01*
Y1930594D01*
X223336Y1931581D01*
X223195Y1932286D01*
Y1932850D01*
X223054Y1933132D01*
Y1933273D01*
X222349Y1935528D01*
X221926Y1936515D01*
X221503Y1937361D01*
X221080Y1938207D01*
X220798Y1938771D01*
X220657Y1939053D01*
X220516Y1939193D01*
X219671Y1940321D01*
X218684Y1941449D01*
X216569Y1943564D01*
X215583Y1944550D01*
X214737Y1945255D01*
X214173Y1945678D01*
X214032Y1945819D01*
X212058Y1947229D01*
X209944Y1948779D01*
X207688Y1950330D01*
X205574Y1951881D01*
X203600Y1953150D01*
X202049Y1954136D01*
X201485Y1954559D01*
X201063Y1954841D01*
X200781Y1955123D01*
X200640D01*
X180340Y1967951D01*
Y1984022D01*
X206842Y1967247D01*
D02*
G37*
G36*
X215864Y2056199D02*
X218261Y2055917D01*
X220657Y2055494D01*
X222772Y2054930D01*
X224746Y2054225D01*
X226719Y2053520D01*
X228411Y2052674D01*
X229961Y2051969D01*
X231371Y2051124D01*
X232640Y2050278D01*
X233627Y2049573D01*
X234613Y2048868D01*
X235318Y2048304D01*
X235741Y2047881D01*
X236023Y2047599D01*
X236164Y2047458D01*
X237715Y2045767D01*
X239124Y2044075D01*
X240252Y2042243D01*
X241239Y2040410D01*
X242226Y2038577D01*
X242931Y2036745D01*
X243917Y2033361D01*
X244340Y2031811D01*
X244622Y2030401D01*
X244763Y2029132D01*
X244904Y2028005D01*
X245045Y2027159D01*
Y2026454D01*
Y2026031D01*
Y2025890D01*
Y2024057D01*
X244763Y2022366D01*
X244058Y2018982D01*
X243072Y2015881D01*
X241944Y2013062D01*
X240816Y2010806D01*
X240252Y2009819D01*
X239829Y2008974D01*
X239406Y2008269D01*
X239124Y2007846D01*
X238984Y2007564D01*
X238843Y2007423D01*
X265204Y2012639D01*
Y2051688D01*
X276623D01*
Y2003194D01*
X226437Y1993749D01*
X224887Y2005026D01*
X226437Y2006013D01*
X227706Y2007282D01*
X228975Y2008410D01*
X229961Y2009538D01*
X230666Y2010665D01*
X231371Y2011511D01*
X231653Y2012075D01*
X231794Y2012216D01*
X232640Y2014049D01*
X233345Y2015881D01*
X233768Y2017573D01*
X234191Y2019264D01*
X234332Y2020674D01*
X234472Y2021802D01*
Y2022507D01*
Y2022789D01*
Y2024480D01*
X234191Y2026172D01*
X233486Y2029132D01*
X232499Y2031670D01*
X231512Y2033925D01*
X230384Y2035617D01*
X229398Y2036886D01*
X228693Y2037591D01*
X228552Y2037872D01*
X228411D01*
X226014Y2039846D01*
X223477Y2041256D01*
X220798Y2042243D01*
X218120Y2042947D01*
X215864Y2043370D01*
X214878Y2043511D01*
X214032D01*
X213327Y2043652D01*
X210367D01*
X208534Y2043370D01*
X205010Y2042665D01*
X202049Y2041679D01*
X199653Y2040692D01*
X197679Y2039564D01*
X196129Y2038577D01*
X195706Y2038154D01*
X195283Y2037872D01*
X195142Y2037732D01*
X195001Y2037591D01*
X193873Y2036463D01*
X192886Y2035335D01*
X191195Y2032798D01*
X190067Y2030401D01*
X189362Y2028005D01*
X188798Y2026031D01*
X188657Y2024339D01*
X188516Y2023775D01*
Y2023353D01*
Y2023071D01*
Y2022930D01*
X188657Y2020251D01*
X189221Y2017855D01*
X189926Y2015740D01*
X190772Y2014049D01*
X191618Y2012498D01*
X192322Y2011370D01*
X192886Y2010806D01*
X193027Y2010524D01*
X195001Y2008833D01*
X197115Y2007423D01*
X199512Y2006295D01*
X201626Y2005449D01*
X203741Y2004885D01*
X205292Y2004463D01*
X205997Y2004322D01*
X206419Y2004181D01*
X206842D01*
X205856Y1991634D01*
X203600Y1991916D01*
X201485Y1992339D01*
X197538Y1993608D01*
X194155Y1995159D01*
X192604Y1996004D01*
X191336Y1996850D01*
X190067Y1997555D01*
X188939Y1998401D01*
X188093Y1999106D01*
X187389Y1999811D01*
X186825Y2000374D01*
X186261Y2000656D01*
X186120Y2000938D01*
X185979Y2001079D01*
X184710Y2002771D01*
X183582Y2004463D01*
X182596Y2006295D01*
X181750Y2008128D01*
X180481Y2011652D01*
X179635Y2015176D01*
X179212Y2016727D01*
X179071Y2018278D01*
X178930Y2019546D01*
X178789Y2020674D01*
X178648Y2021661D01*
Y2022366D01*
Y2022789D01*
Y2022930D01*
X178789Y2025890D01*
X179212Y2028709D01*
X179776Y2031388D01*
X180481Y2033784D01*
X181468Y2036040D01*
X182455Y2038154D01*
X183441Y2040128D01*
X184569Y2041820D01*
X185697Y2043370D01*
X186684Y2044780D01*
X187811Y2045908D01*
X188657Y2046895D01*
X189362Y2047599D01*
X189926Y2048163D01*
X190349Y2048445D01*
X190490Y2048586D01*
X192322Y2049996D01*
X194296Y2051124D01*
X196129Y2052251D01*
X198102Y2053097D01*
X201908Y2054507D01*
X205574Y2055353D01*
X207124Y2055635D01*
X208675Y2055917D01*
X209944Y2056058D01*
X211071Y2056199D01*
X212058Y2056340D01*
X213327D01*
X215864Y2056199D01*
D02*
G37*
G36*
X277891Y1765236D02*
X237856D01*
Y1714769D01*
X277891D01*
Y1701800D01*
X180340D01*
Y1714769D01*
X226296D01*
Y1765236D01*
X180340D01*
Y1778206D01*
X277891D01*
Y1765236D01*
D02*
G37*
G36*
X234332Y1880268D02*
X238702Y1879845D01*
X242649Y1879140D01*
X244481Y1878858D01*
X246032Y1878435D01*
X247583Y1878012D01*
X248851Y1877731D01*
X249979Y1877449D01*
X250966Y1877026D01*
X251812Y1876885D01*
X252376Y1876603D01*
X252658Y1876462D01*
X252799D01*
X256464Y1874911D01*
X259706Y1873079D01*
X262526Y1871105D01*
X264922Y1869272D01*
X266896Y1867581D01*
X268305Y1866171D01*
X268728Y1865607D01*
X269151Y1865184D01*
X269292Y1865043D01*
X269433Y1864902D01*
X271266Y1862647D01*
X272675Y1860250D01*
X273944Y1857854D01*
X274931Y1855598D01*
X275636Y1853625D01*
X276059Y1852074D01*
X276341Y1851510D01*
Y1851087D01*
X276482Y1850805D01*
Y1850664D01*
X276904Y1848268D01*
X277327Y1845448D01*
X277609Y1842629D01*
X277750Y1839810D01*
X277891Y1837272D01*
Y1836144D01*
Y1835158D01*
Y1834453D01*
Y1833889D01*
Y1833466D01*
Y1833325D01*
Y1799774D01*
X180340D01*
Y1834876D01*
X180481Y1838118D01*
X180622Y1841078D01*
X180904Y1843757D01*
X181186Y1846012D01*
X181468Y1847986D01*
X181609Y1849396D01*
X181750Y1849818D01*
X181891Y1850241D01*
Y1850382D01*
Y1850523D01*
X182596Y1853061D01*
X183441Y1855316D01*
X184146Y1857290D01*
X184992Y1858982D01*
X185697Y1860391D01*
X186261Y1861378D01*
X186684Y1861942D01*
X186825Y1862224D01*
X188093Y1864056D01*
X189644Y1865607D01*
X191054Y1867158D01*
X192463Y1868427D01*
X193732Y1869554D01*
X194719Y1870400D01*
X195424Y1870964D01*
X195706Y1871105D01*
X197961Y1872515D01*
X200358Y1873924D01*
X202613Y1875052D01*
X204869Y1875898D01*
X206842Y1876744D01*
X208393Y1877308D01*
X208957Y1877449D01*
X209380Y1877590D01*
X209662Y1877731D01*
X209803D01*
X213186Y1878576D01*
X216569Y1879281D01*
X219812Y1879704D01*
X222913Y1880127D01*
X225591Y1880268D01*
X226719D01*
X227706Y1880409D01*
X229539D01*
X234332Y1880268D01*
D02*
G37*
G36*
X219542Y925847D02*
X222362Y923873D01*
X224899Y922040D01*
X227014Y920208D01*
X228987Y918657D01*
X230397Y917247D01*
X231525Y916120D01*
X232230Y915415D01*
X232512Y915133D01*
X233357Y914005D01*
X234344Y912736D01*
X235895Y910199D01*
X236459Y909071D01*
X237023Y908225D01*
X237305Y907661D01*
X237446Y907379D01*
X237868Y909917D01*
X238291Y912313D01*
X238996Y914428D01*
X239560Y916542D01*
X240265Y918375D01*
X241111Y920067D01*
X241816Y921617D01*
X242520Y923027D01*
X243366Y924155D01*
X244071Y925283D01*
X244635Y926128D01*
X245199Y926833D01*
X245622Y927397D01*
X246045Y927820D01*
X246186Y927961D01*
X246327Y928102D01*
X247736Y929230D01*
X249146Y930358D01*
X252106Y932049D01*
X255067Y933177D01*
X257886Y934023D01*
X260283Y934587D01*
X261269Y934728D01*
X262256D01*
X262961Y934869D01*
X263948D01*
X266908Y934728D01*
X269587Y934305D01*
X272124Y933600D01*
X274239Y932895D01*
X276071Y932049D01*
X277481Y931485D01*
X278327Y930921D01*
X278468Y930780D01*
X278609D01*
X280864Y929089D01*
X282838Y927397D01*
X284530Y925565D01*
X285798Y923873D01*
X286785Y922322D01*
X287349Y921054D01*
X287772Y920208D01*
X287913Y920067D01*
Y919926D01*
X288336Y918657D01*
X288759Y917106D01*
X289463Y914005D01*
X289886Y910622D01*
X290309Y907520D01*
X290450Y904560D01*
Y903291D01*
X290591Y902164D01*
Y901318D01*
Y900613D01*
Y900190D01*
Y900049D01*
Y856912D01*
X193040D01*
Y869881D01*
X236318D01*
Y884824D01*
Y886516D01*
X236177Y888067D01*
Y889194D01*
X236036Y890181D01*
X235895Y890886D01*
Y891450D01*
X235754Y891732D01*
Y891873D01*
X235049Y894128D01*
X234626Y895115D01*
X234203Y895961D01*
X233780Y896807D01*
X233498Y897371D01*
X233357Y897653D01*
X233216Y897793D01*
X232371Y898921D01*
X231384Y900049D01*
X229269Y902164D01*
X228282Y903150D01*
X227437Y903855D01*
X226873Y904278D01*
X226732Y904419D01*
X224758Y905829D01*
X222644Y907379D01*
X220388Y908930D01*
X218274Y910481D01*
X216300Y911750D01*
X214749Y912736D01*
X214186Y913159D01*
X213763Y913441D01*
X213481Y913723D01*
X213340D01*
X193040Y926551D01*
Y942622D01*
X219542Y925847D01*
D02*
G37*
G36*
X227437Y1000561D02*
X290591D01*
Y990834D01*
X227437Y946146D01*
X216441D01*
Y988578D01*
X193040D01*
Y1000561D01*
X216441D01*
Y1013812D01*
X227437D01*
Y1000561D01*
D02*
G37*
G36*
X290591Y723836D02*
X250556D01*
Y673369D01*
X290591D01*
Y660400D01*
X193040D01*
Y673369D01*
X238996D01*
Y723836D01*
X193040D01*
Y736806D01*
X290591D01*
Y723836D01*
D02*
G37*
G36*
X247032Y838868D02*
X251402Y838445D01*
X255349Y837740D01*
X257181Y837458D01*
X258732Y837035D01*
X260283Y836613D01*
X261551Y836331D01*
X262679Y836049D01*
X263666Y835626D01*
X264512Y835485D01*
X265076Y835203D01*
X265358Y835062D01*
X265499D01*
X269164Y833511D01*
X272406Y831679D01*
X275226Y829705D01*
X277622Y827872D01*
X279596Y826181D01*
X281005Y824771D01*
X281428Y824207D01*
X281851Y823784D01*
X281992Y823643D01*
X282133Y823502D01*
X283966Y821247D01*
X285375Y818850D01*
X286644Y816454D01*
X287631Y814198D01*
X288336Y812225D01*
X288759Y810674D01*
X289041Y810110D01*
Y809687D01*
X289182Y809405D01*
Y809264D01*
X289604Y806868D01*
X290027Y804048D01*
X290309Y801229D01*
X290450Y798410D01*
X290591Y795872D01*
Y794744D01*
Y793758D01*
Y793053D01*
Y792489D01*
Y792066D01*
Y791925D01*
Y758374D01*
X193040D01*
Y793476D01*
X193181Y796718D01*
X193322Y799678D01*
X193604Y802357D01*
X193886Y804612D01*
X194168Y806586D01*
X194309Y807996D01*
X194450Y808418D01*
X194591Y808841D01*
Y808982D01*
Y809123D01*
X195296Y811661D01*
X196141Y813916D01*
X196846Y815890D01*
X197692Y817582D01*
X198397Y818991D01*
X198961Y819978D01*
X199384Y820542D01*
X199525Y820824D01*
X200793Y822656D01*
X202344Y824207D01*
X203754Y825758D01*
X205163Y827027D01*
X206432Y828154D01*
X207419Y829000D01*
X208124Y829564D01*
X208406Y829705D01*
X210661Y831115D01*
X213058Y832524D01*
X215313Y833652D01*
X217569Y834498D01*
X219542Y835344D01*
X221093Y835908D01*
X221657Y836049D01*
X222080Y836190D01*
X222362Y836331D01*
X222503D01*
X225886Y837176D01*
X229269Y837881D01*
X232512Y838304D01*
X235613Y838727D01*
X238291Y838868D01*
X239419D01*
X240406Y839009D01*
X242239D01*
X247032Y838868D01*
D02*
G37*
G36*
X-696595Y81280D02*
X-698754D01*
Y87884D01*
X-702920D01*
X-703555Y87909D01*
X-704113Y87935D01*
X-704647Y88011D01*
X-705129Y88113D01*
X-705561Y88214D01*
X-705942Y88341D01*
X-706298Y88468D01*
X-706603Y88595D01*
X-706857Y88722D01*
X-707085Y88849D01*
X-707288Y88976D01*
X-707441Y89078D01*
X-707542Y89179D01*
X-707644Y89256D01*
X-707669Y89281D01*
X-707695Y89306D01*
X-707923Y89586D01*
X-708127Y89865D01*
X-708304Y90170D01*
X-708457Y90475D01*
X-708685Y91059D01*
X-708863Y91618D01*
X-708939Y92100D01*
X-708965Y92304D01*
X-708990Y92481D01*
X-709016Y92634D01*
Y92735D01*
Y92812D01*
Y92837D01*
X-708990Y93294D01*
X-708939Y93701D01*
X-708863Y94082D01*
X-708762Y94412D01*
X-708660Y94666D01*
X-708584Y94869D01*
X-708533Y94996D01*
X-708508Y95047D01*
X-708304Y95402D01*
X-708101Y95733D01*
X-707898Y95987D01*
X-707669Y96215D01*
X-707492Y96393D01*
X-707339Y96520D01*
X-707238Y96596D01*
X-707212Y96622D01*
X-706882Y96825D01*
X-706552Y96977D01*
X-706222Y97104D01*
X-705917Y97206D01*
X-705637Y97282D01*
X-705409Y97333D01*
X-705256Y97384D01*
X-705206D01*
X-704850Y97434D01*
X-704444Y97485D01*
X-704037Y97511D01*
X-703631Y97536D01*
X-703275Y97561D01*
X-696595D01*
Y81280D01*
D02*
G37*
G36*
X-710260Y86995D02*
Y85166D01*
X-717347D01*
Y81280D01*
X-719353D01*
Y85166D01*
X-721563D01*
Y86995D01*
X-719353D01*
Y97561D01*
X-717728D01*
X-710260Y86995D01*
D02*
G37*
G36*
X-839394Y1567180D02*
X-841654D01*
X-848004Y1583461D01*
X-845820D01*
X-841426Y1571625D01*
X-841248Y1571117D01*
X-841070Y1570634D01*
X-840918Y1570203D01*
X-840791Y1569796D01*
X-840689Y1569441D01*
X-840613Y1569187D01*
X-840588Y1569085D01*
X-840562Y1569009D01*
X-840537Y1568983D01*
Y1568958D01*
X-840257Y1569898D01*
X-840105Y1570355D01*
X-839978Y1570761D01*
X-839851Y1571117D01*
X-839749Y1571396D01*
X-839724Y1571498D01*
X-839699Y1571574D01*
X-839673Y1571600D01*
Y1571625D01*
X-835457Y1583461D01*
X-833120D01*
X-839394Y1567180D01*
D02*
G37*
G36*
X-736600Y88976D02*
X-738480Y88722D01*
X-738657Y88976D01*
X-738861Y89179D01*
X-739038Y89383D01*
X-739242Y89560D01*
X-739419Y89687D01*
X-739546Y89789D01*
X-739648Y89840D01*
X-739673Y89865D01*
X-739978Y90018D01*
X-740283Y90119D01*
X-740562Y90221D01*
X-740842Y90272D01*
X-741070Y90297D01*
X-741274Y90322D01*
X-741426D01*
X-741985Y90272D01*
X-742493Y90170D01*
X-742925Y90018D01*
X-743280Y89840D01*
X-743585Y89637D01*
X-743788Y89484D01*
X-743915Y89383D01*
X-743966Y89332D01*
X-744296Y88925D01*
X-744525Y88494D01*
X-744703Y88036D01*
X-744804Y87605D01*
X-744880Y87224D01*
X-744906Y87046D01*
Y86893D01*
X-744931Y86792D01*
Y86690D01*
Y86639D01*
Y86614D01*
X-744880Y85979D01*
X-744779Y85395D01*
X-744626Y84912D01*
X-744449Y84480D01*
X-744245Y84150D01*
X-744093Y83922D01*
X-743991Y83769D01*
X-743941Y83744D01*
Y83718D01*
X-743560Y83363D01*
X-743128Y83109D01*
X-742721Y82906D01*
X-742340Y82779D01*
X-741985Y82702D01*
X-741731Y82677D01*
X-741629Y82652D01*
X-741477D01*
X-741045Y82677D01*
X-740639Y82779D01*
X-740283Y82906D01*
X-740004Y83033D01*
X-739750Y83185D01*
X-739572Y83287D01*
X-739470Y83388D01*
X-739419Y83414D01*
X-739140Y83744D01*
X-738911Y84099D01*
X-738708Y84480D01*
X-738581Y84836D01*
X-738480Y85166D01*
X-738403Y85446D01*
X-738378Y85547D01*
X-738353Y85623D01*
Y85674D01*
Y85700D01*
X-736244Y85547D01*
X-736295Y85166D01*
X-736371Y84811D01*
X-736575Y84176D01*
X-736829Y83591D01*
X-737108Y83134D01*
X-737362Y82753D01*
X-737489Y82601D01*
X-737591Y82474D01*
X-737692Y82372D01*
X-737768Y82296D01*
X-737794Y82271D01*
X-737819Y82245D01*
X-738099Y82017D01*
X-738378Y81839D01*
X-738683Y81661D01*
X-738988Y81534D01*
X-739597Y81305D01*
X-740181Y81153D01*
X-740435Y81102D01*
X-740689Y81077D01*
X-740893Y81051D01*
X-741096Y81026D01*
X-741248Y81001D01*
X-741451D01*
X-741959Y81026D01*
X-742417Y81077D01*
X-742848Y81178D01*
X-743280Y81305D01*
X-743661Y81458D01*
X-744017Y81610D01*
X-744322Y81788D01*
X-744626Y81991D01*
X-744880Y82169D01*
X-745109Y82347D01*
X-745287Y82499D01*
X-745465Y82652D01*
X-745592Y82779D01*
X-745668Y82880D01*
X-745719Y82931D01*
X-745744Y82956D01*
X-745973Y83261D01*
X-746176Y83591D01*
X-746354Y83922D01*
X-746506Y84252D01*
X-746735Y84887D01*
X-746887Y85496D01*
X-746938Y85750D01*
X-746963Y86004D01*
X-746989Y86233D01*
X-747014Y86411D01*
X-747039Y86589D01*
Y86690D01*
Y86766D01*
Y86792D01*
X-747014Y87224D01*
X-746989Y87630D01*
X-746912Y88011D01*
X-746811Y88367D01*
X-746582Y89002D01*
X-746430Y89281D01*
X-746303Y89560D01*
X-746176Y89789D01*
X-746023Y89992D01*
X-745896Y90170D01*
X-745795Y90322D01*
X-745693Y90424D01*
X-745642Y90500D01*
X-745592Y90551D01*
X-745566Y90576D01*
X-745287Y90830D01*
X-744982Y91084D01*
X-744677Y91262D01*
X-744372Y91440D01*
X-744068Y91592D01*
X-743788Y91719D01*
X-743204Y91897D01*
X-742950Y91948D01*
X-742721Y91999D01*
X-742493Y92024D01*
X-742315Y92050D01*
X-742163Y92075D01*
X-741959D01*
X-741375Y92024D01*
X-740816Y91923D01*
X-740283Y91745D01*
X-739826Y91567D01*
X-739445Y91389D01*
X-739267Y91288D01*
X-739140Y91211D01*
X-739038Y91161D01*
X-738962Y91110D01*
X-738911Y91059D01*
X-738886D01*
X-739775Y95453D01*
X-746277D01*
Y97358D01*
X-738175D01*
X-736600Y88976D01*
D02*
G37*
G36*
X-849986Y1567180D02*
X-852145D01*
Y1574419D01*
X-854913D01*
X-855167Y1574394D01*
X-855370D01*
X-855548Y1574368D01*
X-855675Y1574343D01*
X-855751D01*
X-855802Y1574317D01*
X-855828D01*
X-856209Y1574216D01*
X-856513Y1574063D01*
X-856640Y1573987D01*
X-856742Y1573936D01*
X-856793Y1573911D01*
X-856818Y1573886D01*
X-856996Y1573759D01*
X-857199Y1573581D01*
X-857555Y1573225D01*
X-857682Y1573047D01*
X-857809Y1572920D01*
X-857885Y1572819D01*
X-857910Y1572793D01*
X-858164Y1572489D01*
X-858418Y1572133D01*
X-858672Y1571752D01*
X-858926Y1571396D01*
X-859130Y1571066D01*
X-859307Y1570812D01*
X-859358Y1570711D01*
X-859409Y1570634D01*
X-859460Y1570584D01*
Y1570558D01*
X-861593Y1567180D01*
X-864286D01*
X-861466Y1571600D01*
X-861162Y1572057D01*
X-860831Y1572489D01*
X-860527Y1572870D01*
X-860273Y1573174D01*
X-860019Y1573428D01*
X-859841Y1573632D01*
X-859739Y1573733D01*
X-859688Y1573784D01*
X-859511Y1573936D01*
X-859307Y1574063D01*
X-858876Y1574343D01*
X-858698Y1574444D01*
X-858545Y1574521D01*
X-858444Y1574571D01*
X-858393Y1574597D01*
X-858825Y1574673D01*
X-859206Y1574749D01*
X-859587Y1574851D01*
X-859917Y1574952D01*
X-860222Y1575079D01*
X-860501Y1575206D01*
X-860781Y1575333D01*
X-861009Y1575460D01*
X-861187Y1575587D01*
X-861365Y1575714D01*
X-861517Y1575816D01*
X-861644Y1575918D01*
X-861720Y1575994D01*
X-861797Y1576045D01*
X-861847Y1576095D01*
X-862051Y1576324D01*
X-862228Y1576553D01*
X-862508Y1577061D01*
X-862711Y1577543D01*
X-862838Y1578000D01*
X-862940Y1578407D01*
X-862965Y1578585D01*
Y1578737D01*
X-862990Y1578839D01*
Y1578940D01*
Y1578991D01*
Y1579016D01*
X-862965Y1579499D01*
X-862889Y1579956D01*
X-862762Y1580388D01*
X-862660Y1580744D01*
X-862533Y1581048D01*
X-862406Y1581252D01*
X-862330Y1581404D01*
X-862305Y1581455D01*
X-862025Y1581836D01*
X-861720Y1582166D01*
X-861416Y1582445D01*
X-861136Y1582649D01*
X-860882Y1582801D01*
X-860654Y1582928D01*
X-860527Y1582979D01*
X-860501Y1583004D01*
X-860476D01*
X-860019Y1583157D01*
X-859485Y1583258D01*
X-858952Y1583360D01*
X-858418Y1583411D01*
X-857936Y1583436D01*
X-857733D01*
X-857555Y1583461D01*
X-849986D01*
Y1567180D01*
D02*
G37*
G36*
X-871550Y1583131D02*
X-871271Y1582750D01*
X-870966Y1582369D01*
X-870687Y1582039D01*
X-870407Y1581760D01*
X-870179Y1581556D01*
X-870026Y1581404D01*
X-870001Y1581379D01*
X-869975Y1581353D01*
X-869493Y1580947D01*
X-869010Y1580591D01*
X-868502Y1580261D01*
X-868070Y1579982D01*
X-867664Y1579753D01*
X-867512Y1579677D01*
X-867359Y1579601D01*
X-867232Y1579524D01*
X-867156Y1579474D01*
X-867105Y1579448D01*
X-867080D01*
Y1577492D01*
X-867435Y1577645D01*
X-867791Y1577797D01*
X-868147Y1577975D01*
X-868477Y1578153D01*
X-868756Y1578305D01*
X-868959Y1578432D01*
X-869112Y1578508D01*
X-869163Y1578534D01*
X-869569Y1578788D01*
X-869950Y1579042D01*
X-870280Y1579270D01*
X-870560Y1579474D01*
X-870763Y1579651D01*
X-870941Y1579778D01*
X-871042Y1579880D01*
X-871068Y1579905D01*
Y1567180D01*
X-873074D01*
Y1583538D01*
X-871779D01*
X-871550Y1583131D01*
D02*
G37*
G36*
X-857783Y466090D02*
X-857047Y465988D01*
X-856361Y465836D01*
X-855777Y465658D01*
X-855523Y465557D01*
X-855294Y465455D01*
X-855091Y465379D01*
X-854913Y465303D01*
X-854786Y465252D01*
X-854685Y465201D01*
X-854634Y465150D01*
X-854608D01*
X-853973Y464744D01*
X-853440Y464287D01*
X-852957Y463804D01*
X-852576Y463321D01*
X-852272Y462915D01*
X-852145Y462737D01*
X-852043Y462559D01*
X-851967Y462432D01*
X-851916Y462331D01*
X-851865Y462280D01*
Y462255D01*
X-851535Y461518D01*
X-851306Y460781D01*
X-851129Y460019D01*
X-851027Y459334D01*
X-850976Y459029D01*
X-850951Y458749D01*
X-850925Y458470D01*
Y458267D01*
X-850900Y458089D01*
Y457937D01*
Y457860D01*
Y457835D01*
X-850925Y456971D01*
X-851027Y456159D01*
X-851154Y455422D01*
X-851230Y455092D01*
X-851332Y454787D01*
X-851408Y454482D01*
X-851484Y454228D01*
X-851535Y454000D01*
X-851611Y453822D01*
X-851662Y453669D01*
X-851713Y453568D01*
X-851738Y453492D01*
Y453466D01*
X-852094Y452755D01*
X-852500Y452120D01*
X-852907Y451587D01*
X-853313Y451155D01*
X-853694Y450825D01*
X-853973Y450571D01*
X-854100Y450469D01*
X-854177Y450418D01*
X-854227Y450393D01*
X-854253Y450367D01*
X-854913Y450012D01*
X-855624Y449758D01*
X-856336Y449555D01*
X-856996Y449428D01*
X-857326Y449402D01*
X-857606Y449351D01*
X-857860Y449326D01*
X-858088D01*
X-858266Y449301D01*
X-858520D01*
X-858977Y449326D01*
X-859434Y449351D01*
X-860273Y449504D01*
X-860654Y449631D01*
X-860984Y449732D01*
X-861314Y449859D01*
X-861619Y449986D01*
X-861898Y450113D01*
X-862127Y450240D01*
X-862330Y450367D01*
X-862508Y450469D01*
X-862635Y450545D01*
X-862736Y450621D01*
X-862787Y450647D01*
X-862813Y450672D01*
X-863143Y450952D01*
X-863422Y451256D01*
X-863956Y451891D01*
X-864362Y452577D01*
X-864718Y453238D01*
X-864845Y453542D01*
X-864972Y453822D01*
X-865073Y454076D01*
X-865149Y454304D01*
X-865200Y454482D01*
X-865251Y454609D01*
X-865276Y454711D01*
Y454736D01*
X-863117Y455270D01*
X-862914Y454558D01*
X-862660Y453923D01*
X-862381Y453415D01*
X-862076Y452984D01*
X-861822Y452628D01*
X-861593Y452399D01*
X-861441Y452247D01*
X-861416Y452222D01*
X-861390Y452196D01*
X-860908Y451841D01*
X-860400Y451587D01*
X-859892Y451409D01*
X-859409Y451282D01*
X-858977Y451206D01*
X-858799Y451180D01*
X-858647D01*
X-858520Y451155D01*
X-858342D01*
X-857809Y451180D01*
X-857301Y451282D01*
X-856818Y451409D01*
X-856412Y451536D01*
X-856056Y451688D01*
X-855802Y451790D01*
X-855701Y451841D01*
X-855624Y451891D01*
X-855599Y451917D01*
X-855574D01*
X-855116Y452247D01*
X-854735Y452603D01*
X-854431Y452984D01*
X-854151Y453365D01*
X-853948Y453695D01*
X-853821Y453974D01*
X-853770Y454076D01*
X-853719Y454152D01*
X-853694Y454203D01*
Y454228D01*
X-853491Y454838D01*
X-853364Y455447D01*
X-853262Y456057D01*
X-853186Y456616D01*
X-853161Y456870D01*
X-853135Y457098D01*
Y457302D01*
X-853110Y457479D01*
Y457632D01*
Y457733D01*
Y457810D01*
Y457835D01*
X-853135Y458445D01*
X-853186Y459003D01*
X-853262Y459537D01*
X-853364Y460019D01*
X-853465Y460400D01*
X-853491Y460553D01*
X-853542Y460705D01*
X-853567Y460807D01*
X-853592Y460883D01*
X-853618Y460934D01*
Y460959D01*
X-853846Y461493D01*
X-854100Y461975D01*
X-854405Y462382D01*
X-854685Y462737D01*
X-854939Y463017D01*
X-855167Y463220D01*
X-855320Y463321D01*
X-855345Y463372D01*
X-855370D01*
X-855878Y463677D01*
X-856412Y463906D01*
X-856920Y464058D01*
X-857428Y464185D01*
X-857860Y464236D01*
X-858037Y464261D01*
X-858215D01*
X-858342Y464287D01*
X-858520D01*
X-859104Y464261D01*
X-859638Y464160D01*
X-860095Y464033D01*
X-860476Y463880D01*
X-860781Y463728D01*
X-861009Y463601D01*
X-861162Y463499D01*
X-861212Y463474D01*
X-861593Y463118D01*
X-861924Y462737D01*
X-862228Y462305D01*
X-862457Y461874D01*
X-862635Y461493D01*
X-862711Y461315D01*
X-862787Y461162D01*
X-862838Y461061D01*
X-862863Y460959D01*
X-862889Y460908D01*
Y460883D01*
X-864997Y461391D01*
X-864718Y462178D01*
X-864362Y462890D01*
X-864159Y463194D01*
X-863956Y463474D01*
X-863778Y463728D01*
X-863575Y463982D01*
X-863397Y464185D01*
X-863219Y464363D01*
X-863067Y464515D01*
X-862940Y464642D01*
X-862813Y464744D01*
X-862736Y464820D01*
X-862686Y464845D01*
X-862660Y464871D01*
X-862355Y465099D01*
X-862000Y465303D01*
X-861670Y465455D01*
X-861314Y465607D01*
X-860654Y465836D01*
X-859993Y465988D01*
X-859714Y466039D01*
X-859434Y466065D01*
X-859180Y466115D01*
X-858977D01*
X-858799Y466141D01*
X-858571D01*
X-857783Y466090D01*
D02*
G37*
G36*
X-866419Y455295D02*
Y453466D01*
X-873506D01*
Y449580D01*
X-875513D01*
Y453466D01*
X-877722D01*
Y455295D01*
X-875513D01*
Y465861D01*
X-873887D01*
X-866419Y455295D01*
D02*
G37*
G36*
X-728523Y97612D02*
X-728142Y97587D01*
X-727481Y97460D01*
X-726897Y97257D01*
X-726415Y97028D01*
X-726186Y96926D01*
X-726008Y96799D01*
X-725856Y96698D01*
X-725729Y96622D01*
X-725627Y96520D01*
X-725551Y96469D01*
X-725526Y96444D01*
X-725500Y96418D01*
X-725272Y96190D01*
X-725094Y95936D01*
X-724916Y95682D01*
X-724764Y95428D01*
X-724535Y94945D01*
X-724383Y94463D01*
X-724306Y94056D01*
X-724281Y93878D01*
X-724256Y93726D01*
X-724230Y93599D01*
Y93497D01*
Y93447D01*
Y93421D01*
X-724256Y92989D01*
X-724332Y92608D01*
X-724408Y92278D01*
X-724535Y91973D01*
X-724637Y91719D01*
X-724713Y91542D01*
X-724789Y91440D01*
X-724814Y91389D01*
X-725068Y91084D01*
X-725373Y90830D01*
X-725678Y90602D01*
X-725983Y90424D01*
X-726237Y90272D01*
X-726465Y90170D01*
X-726618Y90119D01*
X-726643Y90094D01*
X-726669D01*
X-726135Y89916D01*
X-725678Y89713D01*
X-725272Y89459D01*
X-724941Y89230D01*
X-724687Y89002D01*
X-724510Y88824D01*
X-724408Y88697D01*
X-724357Y88646D01*
X-724103Y88214D01*
X-723900Y87782D01*
X-723773Y87325D01*
X-723671Y86919D01*
X-723621Y86538D01*
X-723595Y86258D01*
X-723570Y86131D01*
Y86055D01*
Y86004D01*
Y85979D01*
X-723595Y85598D01*
X-723646Y85217D01*
X-723697Y84861D01*
X-723798Y84531D01*
X-724027Y83922D01*
X-724306Y83414D01*
X-724433Y83185D01*
X-724586Y82982D01*
X-724713Y82829D01*
X-724814Y82677D01*
X-724916Y82575D01*
X-724992Y82499D01*
X-725018Y82448D01*
X-725043Y82423D01*
X-725322Y82169D01*
X-725627Y81966D01*
X-725957Y81763D01*
X-726262Y81610D01*
X-726923Y81356D01*
X-727532Y81178D01*
X-727837Y81128D01*
X-728091Y81077D01*
X-728320Y81051D01*
X-728523Y81026D01*
X-728701Y81001D01*
X-728929D01*
X-729361Y81026D01*
X-729793Y81051D01*
X-730555Y81229D01*
X-730910Y81331D01*
X-731215Y81458D01*
X-731520Y81585D01*
X-731774Y81712D01*
X-732003Y81839D01*
X-732231Y81966D01*
X-732409Y82093D01*
X-732536Y82194D01*
X-732663Y82296D01*
X-732739Y82372D01*
X-732790Y82398D01*
X-732815Y82423D01*
X-733069Y82702D01*
X-733323Y82982D01*
X-733501Y83287D01*
X-733679Y83566D01*
X-733831Y83871D01*
X-733958Y84150D01*
X-734136Y84709D01*
X-734238Y85192D01*
X-734263Y85395D01*
X-734289Y85573D01*
X-734314Y85725D01*
Y85827D01*
Y85903D01*
Y85928D01*
X-734289Y86462D01*
X-734187Y86970D01*
X-734060Y87401D01*
X-733933Y87782D01*
X-733781Y88087D01*
X-733654Y88316D01*
X-733552Y88468D01*
X-733527Y88519D01*
X-733196Y88900D01*
X-732841Y89230D01*
X-732460Y89510D01*
X-732079Y89713D01*
X-731749Y89891D01*
X-731495Y89992D01*
X-731393Y90043D01*
X-731317Y90068D01*
X-731266Y90094D01*
X-731241D01*
X-731672Y90272D01*
X-732028Y90500D01*
X-732358Y90703D01*
X-732612Y90907D01*
X-732790Y91110D01*
X-732942Y91262D01*
X-733019Y91364D01*
X-733044Y91389D01*
X-733247Y91719D01*
X-733400Y92050D01*
X-733501Y92380D01*
X-733577Y92685D01*
X-733628Y92964D01*
X-733654Y93167D01*
Y93320D01*
Y93370D01*
X-733628Y93701D01*
X-733603Y94005D01*
X-733450Y94590D01*
X-733247Y95098D01*
X-732993Y95555D01*
X-732739Y95910D01*
X-732536Y96164D01*
X-732460Y96266D01*
X-732384Y96342D01*
X-732358Y96368D01*
X-732333Y96393D01*
X-732079Y96622D01*
X-731825Y96799D01*
X-731545Y96977D01*
X-731241Y97104D01*
X-730682Y97333D01*
X-730123Y97485D01*
X-729640Y97561D01*
X-729437Y97612D01*
X-729259D01*
X-729107Y97638D01*
X-728904D01*
X-728523Y97612D01*
D02*
G37*
G36*
X-686435Y97815D02*
X-685876Y97765D01*
X-685368Y97663D01*
X-684936Y97561D01*
X-684555Y97460D01*
X-684276Y97358D01*
X-684174Y97333D01*
X-684098Y97307D01*
X-684073Y97282D01*
X-684047D01*
X-683565Y97053D01*
X-683158Y96799D01*
X-682803Y96520D01*
X-682523Y96241D01*
X-682295Y96012D01*
X-682142Y95809D01*
X-682041Y95682D01*
X-682015Y95656D01*
Y95631D01*
X-681787Y95225D01*
X-681609Y94818D01*
X-681507Y94437D01*
X-681406Y94082D01*
X-681355Y93777D01*
X-681330Y93523D01*
Y93370D01*
Y93345D01*
Y93320D01*
X-681355Y92913D01*
X-681406Y92532D01*
X-681507Y92177D01*
X-681609Y91897D01*
X-681711Y91643D01*
X-681812Y91440D01*
X-681863Y91338D01*
X-681888Y91288D01*
X-682142Y90957D01*
X-682396Y90678D01*
X-682701Y90424D01*
X-682981Y90195D01*
X-683235Y90018D01*
X-683438Y89891D01*
X-683565Y89814D01*
X-683616Y89789D01*
X-683793Y89687D01*
X-684022Y89611D01*
X-684505Y89433D01*
X-685013Y89256D01*
X-685546Y89103D01*
X-686003Y88976D01*
X-686232Y88900D01*
X-686410Y88875D01*
X-686562Y88824D01*
X-686664Y88798D01*
X-686740Y88773D01*
X-686765D01*
X-687172Y88671D01*
X-687527Y88595D01*
X-687857Y88494D01*
X-688162Y88417D01*
X-688416Y88367D01*
X-688645Y88290D01*
X-688873Y88240D01*
X-689051Y88189D01*
X-689178Y88138D01*
X-689305Y88087D01*
X-689508Y88036D01*
X-689610Y88011D01*
X-689635Y87986D01*
X-689991Y87833D01*
X-690296Y87655D01*
X-690550Y87503D01*
X-690753Y87351D01*
X-690905Y87198D01*
X-691007Y87097D01*
X-691058Y87020D01*
X-691083Y86995D01*
X-691236Y86766D01*
X-691337Y86563D01*
X-691439Y86335D01*
X-691490Y86131D01*
X-691515Y85954D01*
X-691540Y85801D01*
Y85700D01*
Y85674D01*
X-691515Y85395D01*
X-691464Y85141D01*
X-691388Y84912D01*
X-691312Y84709D01*
X-691210Y84531D01*
X-691134Y84404D01*
X-691083Y84303D01*
X-691058Y84277D01*
X-690880Y84049D01*
X-690651Y83845D01*
X-690423Y83693D01*
X-690194Y83541D01*
X-689991Y83439D01*
X-689813Y83363D01*
X-689712Y83312D01*
X-689661Y83287D01*
X-689305Y83160D01*
X-688950Y83083D01*
X-688569Y83007D01*
X-688238Y82982D01*
X-687934Y82956D01*
X-687705Y82931D01*
X-687502D01*
X-686994Y82956D01*
X-686537Y83007D01*
X-686105Y83083D01*
X-685749Y83185D01*
X-685444Y83261D01*
X-685216Y83337D01*
X-685063Y83388D01*
X-685038Y83414D01*
X-685013D01*
X-684632Y83617D01*
X-684301Y83820D01*
X-684022Y84023D01*
X-683793Y84226D01*
X-683616Y84404D01*
X-683489Y84531D01*
X-683412Y84633D01*
X-683387Y84658D01*
X-683209Y84963D01*
X-683082Y85319D01*
X-682955Y85649D01*
X-682879Y85979D01*
X-682828Y86258D01*
X-682777Y86487D01*
X-682752Y86639D01*
Y86665D01*
Y86690D01*
X-680720Y86512D01*
X-680771Y85903D01*
X-680872Y85344D01*
X-680999Y84861D01*
X-681152Y84430D01*
X-681330Y84074D01*
X-681457Y83795D01*
X-681507Y83693D01*
X-681558Y83617D01*
X-681584Y83591D01*
Y83566D01*
X-681939Y83109D01*
X-682320Y82728D01*
X-682701Y82398D01*
X-683082Y82118D01*
X-683412Y81915D01*
X-683666Y81763D01*
X-683768Y81712D01*
X-683844Y81661D01*
X-683895Y81636D01*
X-683920D01*
X-684505Y81432D01*
X-685140Y81280D01*
X-685749Y81153D01*
X-686333Y81077D01*
X-686613Y81051D01*
X-686841Y81026D01*
X-687070D01*
X-687273Y81001D01*
X-687629D01*
X-688264Y81026D01*
X-688848Y81102D01*
X-689381Y81204D01*
X-689839Y81331D01*
X-690194Y81432D01*
X-690347Y81483D01*
X-690499Y81534D01*
X-690601Y81585D01*
X-690677Y81610D01*
X-690702Y81636D01*
X-690728D01*
X-691210Y81890D01*
X-691642Y82194D01*
X-692023Y82474D01*
X-692328Y82753D01*
X-692556Y83007D01*
X-692734Y83236D01*
X-692836Y83363D01*
X-692861Y83414D01*
X-693115Y83845D01*
X-693293Y84277D01*
X-693445Y84684D01*
X-693522Y85065D01*
X-693572Y85395D01*
X-693623Y85623D01*
Y85725D01*
Y85801D01*
Y85827D01*
Y85852D01*
X-693598Y86335D01*
X-693522Y86766D01*
X-693395Y87173D01*
X-693293Y87503D01*
X-693166Y87782D01*
X-693039Y87986D01*
X-692963Y88113D01*
X-692937Y88163D01*
X-692658Y88519D01*
X-692328Y88849D01*
X-691972Y89129D01*
X-691642Y89383D01*
X-691337Y89560D01*
X-691083Y89713D01*
X-690982Y89738D01*
X-690905Y89789D01*
X-690880Y89814D01*
X-690855D01*
X-690651Y89891D01*
X-690423Y89992D01*
X-690169Y90068D01*
X-689889Y90170D01*
X-689305Y90348D01*
X-688696Y90500D01*
X-688162Y90653D01*
X-687908Y90703D01*
X-687705Y90754D01*
X-687527Y90805D01*
X-687400Y90830D01*
X-687299Y90856D01*
X-687273D01*
X-686816Y90983D01*
X-686384Y91084D01*
X-686003Y91186D01*
X-685673Y91288D01*
X-685368Y91389D01*
X-685089Y91491D01*
X-684860Y91592D01*
X-684657Y91669D01*
X-684505Y91745D01*
X-684352Y91821D01*
X-684251Y91872D01*
X-684174Y91923D01*
X-684047Y91999D01*
X-684022Y92024D01*
X-683819Y92253D01*
X-683666Y92481D01*
X-683565Y92710D01*
X-683489Y92939D01*
X-683438Y93142D01*
X-683412Y93294D01*
Y93421D01*
Y93447D01*
X-683463Y93802D01*
X-683565Y94158D01*
X-683692Y94437D01*
X-683870Y94691D01*
X-684022Y94894D01*
X-684174Y95047D01*
X-684276Y95148D01*
X-684301Y95174D01*
X-684682Y95428D01*
X-685114Y95606D01*
X-685597Y95733D01*
X-686054Y95809D01*
X-686460Y95885D01*
X-686638D01*
X-686816Y95910D01*
X-687121D01*
X-687781Y95885D01*
X-688365Y95783D01*
X-688848Y95656D01*
X-689229Y95529D01*
X-689534Y95377D01*
X-689762Y95250D01*
X-689889Y95148D01*
X-689940Y95123D01*
X-690270Y94793D01*
X-690524Y94437D01*
X-690728Y94056D01*
X-690880Y93675D01*
X-690982Y93345D01*
X-691032Y93091D01*
X-691058Y92989D01*
X-691083Y92913D01*
Y92862D01*
Y92837D01*
X-693141Y92989D01*
X-693090Y93497D01*
X-692988Y93980D01*
X-692861Y94412D01*
X-692709Y94793D01*
X-692556Y95098D01*
X-692455Y95326D01*
X-692353Y95479D01*
X-692328Y95529D01*
X-692023Y95936D01*
X-691693Y96291D01*
X-691337Y96571D01*
X-690982Y96825D01*
X-690677Y97003D01*
X-690423Y97155D01*
X-690321Y97206D01*
X-690245Y97231D01*
X-690220Y97257D01*
X-690194D01*
X-689661Y97460D01*
X-689127Y97587D01*
X-688594Y97688D01*
X-688086Y97765D01*
X-687654Y97815D01*
X-687476D01*
X-687324Y97841D01*
X-687019D01*
X-686435Y97815D01*
D02*
G37*
%LPC*%
G36*
X390921Y-298254D02*
X361881D01*
Y-330537D01*
X392613D01*
X396419Y-330396D01*
X399661Y-329832D01*
X402481Y-329127D01*
X404595Y-328281D01*
X406428Y-327435D01*
X407556Y-326730D01*
X408261Y-326166D01*
X408542Y-326026D01*
X410234Y-324193D01*
X411503Y-322360D01*
X412349Y-320387D01*
X413054Y-318695D01*
X413335Y-317003D01*
X413476Y-315735D01*
X413617Y-314889D01*
Y-314748D01*
Y-314607D01*
X413476Y-312915D01*
X413194Y-311224D01*
X412772Y-309814D01*
X412349Y-308545D01*
X411785Y-307417D01*
X411362Y-306572D01*
X411080Y-306008D01*
X410939Y-305867D01*
X409952Y-304457D01*
X408683Y-303188D01*
X407415Y-302202D01*
X406146Y-301356D01*
X405018Y-300792D01*
X404172Y-300369D01*
X403609Y-300087D01*
X403327Y-299946D01*
X401353Y-299382D01*
X399097Y-298959D01*
X396842Y-298677D01*
X394586Y-298536D01*
X392613Y-298395D01*
X390921Y-298254D01*
D02*
G37*
G36*
X286462Y-255400D02*
X263343D01*
Y-329832D01*
X285899D01*
X287731Y-329691D01*
X289564D01*
X291255Y-329550D01*
X294075Y-329127D01*
X296330Y-328845D01*
X298163Y-328422D01*
X299432Y-327999D01*
X300137Y-327858D01*
X300418Y-327717D01*
X302956Y-326448D01*
X305352Y-324898D01*
X307467Y-323065D01*
X309300Y-321233D01*
X310709Y-319541D01*
X311837Y-318131D01*
X312119Y-317567D01*
X312401Y-317144D01*
X312683Y-316862D01*
Y-316721D01*
X313529Y-315171D01*
X314375Y-313338D01*
X315643Y-309673D01*
X316489Y-305726D01*
X317194Y-301920D01*
X317335Y-300228D01*
X317476Y-298536D01*
X317617Y-297127D01*
Y-295858D01*
X317758Y-294730D01*
Y-294025D01*
Y-293461D01*
Y-293320D01*
X317617Y-289373D01*
X317335Y-285708D01*
X316912Y-282466D01*
X316489Y-279646D01*
X316207Y-278519D01*
X315925Y-277532D01*
X315643Y-276545D01*
X315502Y-275840D01*
X315361Y-275276D01*
X315220Y-274853D01*
X315079Y-274571D01*
Y-274430D01*
X314093Y-271752D01*
X312965Y-269356D01*
X311696Y-267241D01*
X310568Y-265408D01*
X309582Y-263999D01*
X308736Y-263012D01*
X308172Y-262448D01*
X308031Y-262166D01*
X306621Y-261038D01*
X305211Y-260052D01*
X303802Y-259206D01*
X302392Y-258360D01*
X301123Y-257796D01*
X300137Y-257373D01*
X299432Y-257232D01*
X299150Y-257091D01*
X297035Y-256527D01*
X294498Y-256104D01*
X291960Y-255822D01*
X289564Y-255681D01*
X287449Y-255541D01*
X286462Y-255400D01*
D02*
G37*
G36*
X251389Y1963017D02*
X251107D01*
X249415Y1962876D01*
X247724Y1962594D01*
X246314Y1962172D01*
X245045Y1961749D01*
X243917Y1961185D01*
X243072Y1960762D01*
X242508Y1960480D01*
X242367Y1960339D01*
X240957Y1959352D01*
X239688Y1958083D01*
X238702Y1956815D01*
X237856Y1955546D01*
X237292Y1954418D01*
X236869Y1953572D01*
X236587Y1953009D01*
X236446Y1952727D01*
X235882Y1950753D01*
X235459Y1948497D01*
X235177Y1946242D01*
X235036Y1943986D01*
X234895Y1942013D01*
X234754Y1940321D01*
Y1939757D01*
Y1939334D01*
Y1939053D01*
Y1938912D01*
Y1911281D01*
X267037D01*
Y1942013D01*
X266896Y1945819D01*
X266332Y1949061D01*
X265627Y1951881D01*
X264781Y1953995D01*
X263935Y1955828D01*
X263230Y1956956D01*
X262666Y1957661D01*
X262526Y1957942D01*
X260693Y1959634D01*
X258860Y1960903D01*
X256887Y1961749D01*
X255195Y1962454D01*
X253503Y1962735D01*
X252235Y1962876D01*
X251389Y1963017D01*
D02*
G37*
G36*
X231230Y1867158D02*
X229820D01*
X225873Y1867017D01*
X222208Y1866735D01*
X218966Y1866312D01*
X216146Y1865889D01*
X215019Y1865607D01*
X214032Y1865325D01*
X213045Y1865043D01*
X212340Y1864902D01*
X211776Y1864761D01*
X211353Y1864620D01*
X211071Y1864479D01*
X210930D01*
X208252Y1863493D01*
X205856Y1862365D01*
X203741Y1861096D01*
X201908Y1859968D01*
X200499Y1858982D01*
X199512Y1858136D01*
X198948Y1857572D01*
X198666Y1857431D01*
X197538Y1856021D01*
X196552Y1854611D01*
X195706Y1853202D01*
X194860Y1851792D01*
X194296Y1850523D01*
X193873Y1849537D01*
X193732Y1848832D01*
X193591Y1848550D01*
X193027Y1846435D01*
X192604Y1843898D01*
X192322Y1841360D01*
X192181Y1838964D01*
X192041Y1836849D01*
X191900Y1835862D01*
Y1835017D01*
Y1834453D01*
Y1833889D01*
Y1833607D01*
Y1833466D01*
Y1812743D01*
X266332D01*
Y1833184D01*
Y1835299D01*
X266191Y1837131D01*
Y1838964D01*
X266050Y1840655D01*
X265627Y1843475D01*
X265345Y1845730D01*
X264922Y1847563D01*
X264499Y1848832D01*
X264358Y1849537D01*
X264217Y1849818D01*
X262948Y1852356D01*
X261398Y1854752D01*
X259565Y1856867D01*
X257733Y1858700D01*
X256041Y1860109D01*
X254631Y1861237D01*
X254067Y1861519D01*
X253644Y1861801D01*
X253362Y1862083D01*
X253221D01*
X251671Y1862929D01*
X249838Y1863775D01*
X246173Y1865043D01*
X242226Y1865889D01*
X238420Y1866594D01*
X236728Y1866735D01*
X235036Y1866876D01*
X233627Y1867017D01*
X232358D01*
X231230Y1867158D01*
D02*
G37*
G36*
X264089Y921617D02*
X263807D01*
X262115Y921476D01*
X260424Y921195D01*
X259014Y920772D01*
X257745Y920349D01*
X256617Y919785D01*
X255772Y919362D01*
X255208Y919080D01*
X255067Y918939D01*
X253657Y917952D01*
X252388Y916683D01*
X251402Y915415D01*
X250556Y914146D01*
X249992Y913018D01*
X249569Y912172D01*
X249287Y911609D01*
X249146Y911327D01*
X248582Y909353D01*
X248159Y907097D01*
X247877Y904842D01*
X247736Y902586D01*
X247595Y900613D01*
X247454Y898921D01*
Y898357D01*
Y897934D01*
Y897653D01*
Y897512D01*
Y869881D01*
X279737D01*
Y900613D01*
X279596Y904419D01*
X279032Y907661D01*
X278327Y910481D01*
X277481Y912595D01*
X276635Y914428D01*
X275930Y915556D01*
X275366Y916261D01*
X275226Y916542D01*
X273393Y918234D01*
X271560Y919503D01*
X269587Y920349D01*
X267895Y921054D01*
X266203Y921335D01*
X264935Y921476D01*
X264089Y921617D01*
D02*
G37*
G36*
X271137Y988578D02*
X227437D01*
Y957847D01*
X271137Y988578D01*
D02*
G37*
G36*
X243930Y825758D02*
X242520D01*
X238573Y825617D01*
X234908Y825335D01*
X231666Y824912D01*
X228846Y824489D01*
X227719Y824207D01*
X226732Y823925D01*
X225745Y823643D01*
X225040Y823502D01*
X224476Y823361D01*
X224053Y823220D01*
X223771Y823079D01*
X223630D01*
X220952Y822093D01*
X218556Y820965D01*
X216441Y819696D01*
X214608Y818568D01*
X213199Y817582D01*
X212212Y816736D01*
X211648Y816172D01*
X211366Y816031D01*
X210238Y814621D01*
X209252Y813211D01*
X208406Y811802D01*
X207560Y810392D01*
X206996Y809123D01*
X206573Y808137D01*
X206432Y807432D01*
X206291Y807150D01*
X205727Y805035D01*
X205304Y802498D01*
X205022Y799960D01*
X204881Y797564D01*
X204741Y795449D01*
X204600Y794462D01*
Y793617D01*
Y793053D01*
Y792489D01*
Y792207D01*
Y792066D01*
Y771343D01*
X279032D01*
Y791784D01*
Y793899D01*
X278891Y795731D01*
Y797564D01*
X278750Y799255D01*
X278327Y802075D01*
X278045Y804330D01*
X277622Y806163D01*
X277199Y807432D01*
X277058Y808137D01*
X276917Y808418D01*
X275648Y810956D01*
X274098Y813352D01*
X272265Y815467D01*
X270433Y817300D01*
X268741Y818709D01*
X267331Y819837D01*
X266767Y820119D01*
X266344Y820401D01*
X266062Y820683D01*
X265921D01*
X264371Y821529D01*
X262538Y822375D01*
X258873Y823643D01*
X254926Y824489D01*
X251120Y825194D01*
X249428Y825335D01*
X247736Y825476D01*
X246327Y825617D01*
X245058D01*
X243930Y825758D01*
D02*
G37*
G36*
X-698754Y95631D02*
X-703402D01*
X-703834Y95606D01*
X-704190Y95580D01*
X-704469Y95555D01*
X-704672Y95529D01*
X-704825Y95504D01*
X-704901Y95479D01*
X-704926D01*
X-705231Y95377D01*
X-705485Y95225D01*
X-705714Y95072D01*
X-705917Y94920D01*
X-706069Y94767D01*
X-706171Y94640D01*
X-706247Y94539D01*
X-706272Y94513D01*
X-706450Y94234D01*
X-706577Y93929D01*
X-706679Y93624D01*
X-706730Y93370D01*
X-706780Y93116D01*
X-706806Y92939D01*
Y92812D01*
Y92761D01*
X-706780Y92278D01*
X-706679Y91821D01*
X-706526Y91465D01*
X-706374Y91135D01*
X-706196Y90907D01*
X-706069Y90729D01*
X-705968Y90602D01*
X-705917Y90576D01*
X-705739Y90449D01*
X-705536Y90322D01*
X-705079Y90145D01*
X-704596Y89992D01*
X-704088Y89916D01*
X-703656Y89865D01*
X-703453Y89840D01*
X-703275D01*
X-703148Y89814D01*
X-698754D01*
Y95631D01*
D02*
G37*
G36*
X-717347Y94310D02*
Y86995D01*
X-712216D01*
X-717347Y94310D01*
D02*
G37*
G36*
X-852145Y1581658D02*
X-857275D01*
X-857910Y1581633D01*
X-858444Y1581531D01*
X-858901Y1581429D01*
X-859282Y1581277D01*
X-859561Y1581150D01*
X-859765Y1581023D01*
X-859866Y1580921D01*
X-859917Y1580896D01*
X-860196Y1580591D01*
X-860425Y1580286D01*
X-860577Y1579982D01*
X-860679Y1579677D01*
X-860730Y1579397D01*
X-860781Y1579194D01*
Y1579042D01*
Y1579016D01*
Y1578991D01*
X-860755Y1578712D01*
X-860704Y1578432D01*
X-860628Y1578178D01*
X-860552Y1577975D01*
X-860476Y1577797D01*
X-860400Y1577670D01*
X-860349Y1577569D01*
X-860323Y1577543D01*
X-860146Y1577315D01*
X-859942Y1577111D01*
X-859739Y1576959D01*
X-859536Y1576807D01*
X-859333Y1576705D01*
X-859180Y1576629D01*
X-859079Y1576603D01*
X-859053Y1576578D01*
X-858723Y1576476D01*
X-858342Y1576400D01*
X-857961Y1576349D01*
X-857606Y1576324D01*
X-857275Y1576299D01*
X-857021Y1576273D01*
X-852145D01*
Y1581658D01*
D02*
G37*
G36*
X-873506Y462610D02*
Y455295D01*
X-868375D01*
X-873506Y462610D01*
D02*
G37*
G36*
X-728726Y95987D02*
X-728929D01*
X-729336Y95961D01*
X-729717Y95860D01*
X-730047Y95758D01*
X-730301Y95606D01*
X-730529Y95479D01*
X-730707Y95352D01*
X-730809Y95250D01*
X-730834Y95225D01*
X-731088Y94945D01*
X-731266Y94615D01*
X-731418Y94310D01*
X-731495Y94031D01*
X-731545Y93751D01*
X-731596Y93548D01*
Y93421D01*
Y93396D01*
Y93370D01*
X-731571Y92989D01*
X-731495Y92659D01*
X-731368Y92354D01*
X-731241Y92100D01*
X-731088Y91872D01*
X-730987Y91719D01*
X-730885Y91618D01*
X-730860Y91592D01*
X-730555Y91364D01*
X-730250Y91186D01*
X-729945Y91059D01*
X-729640Y90983D01*
X-729361Y90932D01*
X-729158Y90881D01*
X-728955D01*
X-728523Y90907D01*
X-728142Y90983D01*
X-727812Y91110D01*
X-727532Y91237D01*
X-727329Y91364D01*
X-727151Y91491D01*
X-727050Y91567D01*
X-727024Y91592D01*
X-726770Y91897D01*
X-726592Y92202D01*
X-726465Y92532D01*
X-726389Y92812D01*
X-726338Y93091D01*
X-726288Y93294D01*
Y93447D01*
Y93497D01*
X-726313Y93853D01*
X-726415Y94209D01*
X-726516Y94488D01*
X-726669Y94767D01*
X-726796Y94971D01*
X-726923Y95123D01*
X-726999Y95225D01*
X-727024Y95250D01*
X-727329Y95504D01*
X-727634Y95682D01*
X-727964Y95809D01*
X-728243Y95885D01*
X-728523Y95961D01*
X-728726Y95987D01*
D02*
G37*
G36*
X-728751Y89256D02*
X-728878D01*
X-729386Y89205D01*
X-729869Y89103D01*
X-730275Y88951D01*
X-730631Y88773D01*
X-730910Y88595D01*
X-731114Y88443D01*
X-731241Y88341D01*
X-731291Y88290D01*
X-731622Y87909D01*
X-731850Y87528D01*
X-732028Y87122D01*
X-732130Y86741D01*
X-732206Y86411D01*
X-732231Y86157D01*
X-732257Y86055D01*
Y85979D01*
Y85928D01*
Y85903D01*
X-732206Y85395D01*
X-732104Y84938D01*
X-731952Y84531D01*
X-731799Y84201D01*
X-731622Y83922D01*
X-731469Y83744D01*
X-731368Y83617D01*
X-731317Y83566D01*
X-730961Y83261D01*
X-730555Y83033D01*
X-730174Y82880D01*
X-729793Y82779D01*
X-729463Y82702D01*
X-729209Y82677D01*
X-729107Y82652D01*
X-728955D01*
X-728599Y82677D01*
X-728294Y82728D01*
X-727989Y82779D01*
X-727735Y82880D01*
X-727507Y82956D01*
X-727354Y83007D01*
X-727227Y83058D01*
X-727202Y83083D01*
X-726923Y83261D01*
X-726694Y83464D01*
X-726491Y83668D01*
X-726313Y83845D01*
X-726186Y84023D01*
X-726084Y84176D01*
X-726034Y84277D01*
X-726008Y84303D01*
X-725881Y84607D01*
X-725780Y84912D01*
X-725729Y85192D01*
X-725678Y85446D01*
X-725653Y85674D01*
X-725627Y85827D01*
Y85954D01*
Y85979D01*
X-725678Y86487D01*
X-725780Y86944D01*
X-725907Y87325D01*
X-726084Y87681D01*
X-726262Y87935D01*
X-726389Y88138D01*
X-726491Y88265D01*
X-726542Y88316D01*
X-726897Y88621D01*
X-727304Y88849D01*
X-727685Y89027D01*
X-728066Y89129D01*
X-728370Y89205D01*
X-728650Y89230D01*
X-728751Y89256D01*
D02*
G37*
%LPD*%
D25*
X457200Y-584200D02*
X711200D01*
X-50800D02*
X203200D01*
X457200D02*
Y-228600D01*
X203200D02*
X457200D01*
X203200Y-584200D02*
Y-228600D01*
X-50800Y-1016000D02*
Y-660400D01*
Y-584200D01*
X-63500Y-1016000D02*
X-50800D01*
X-63500D02*
X-38100D01*
X711200D01*
Y-584200D01*
X863600Y254000D02*
X901700D01*
Y381000D01*
X850900Y431800D02*
X901700Y381000D01*
X-215900Y431800D02*
X850900D01*
X-241300Y406400D02*
X-215900Y431800D01*
X-241300Y254000D02*
Y406400D01*
Y254000D02*
X-203200D01*
X863600Y-1016000D02*
Y254000D01*
X-203200Y-1016000D02*
X863600D01*
X-203200D02*
Y254000D01*
X-304800Y1117600D02*
Y1168400D01*
X-469900D02*
X-304800D01*
X-482600Y1155700D02*
X-469900Y1168400D01*
X965200Y647700D02*
Y698500D01*
X533400Y965200D02*
Y1028700D01*
Y647700D02*
Y711200D01*
X177800Y965200D02*
X533400D01*
X177800Y711200D02*
Y965200D01*
Y711200D02*
X533400D01*
X546100Y647700D02*
X965200D01*
X533400D02*
X546100D01*
X965200Y698500D02*
Y723900D01*
Y1028700D01*
X533400D02*
X965200D01*
X-482600Y546100D02*
Y1155700D01*
Y546100D02*
X-457200Y520700D01*
X-304800D01*
Y571500D01*
Y1117600D02*
X965200D01*
Y571500D02*
Y1117600D01*
X-304800Y571500D02*
X965200D01*
X-317500Y2158995D02*
Y2209795D01*
X-482600D02*
X-317500D01*
X-495300Y2197095D02*
X-482600Y2209795D01*
X952500Y1689095D02*
Y1739895D01*
X520700Y2006595D02*
Y2070095D01*
Y1689095D02*
Y1752595D01*
X165100Y2006595D02*
X520700D01*
X165100Y1752595D02*
Y2006595D01*
Y1752595D02*
X520700D01*
X533400Y1689095D02*
X952500D01*
X520700D02*
X533400D01*
X952500Y1739895D02*
Y1765295D01*
Y2070095D01*
X520700D02*
X952500D01*
X-495300Y1587495D02*
Y2197095D01*
Y1587495D02*
X-469900Y1562095D01*
X-317500D01*
Y1612895D01*
Y2158995D02*
X952500D01*
Y1612895D02*
Y2158995D01*
X-317500Y1612895D02*
X952500D01*
D26*
X-575600Y1334800D02*
G03*
X-575600Y1334800I-12500J0D01*
G01*
X-456300Y369400D02*
G03*
X-456300Y369400I-12500J0D01*
G01*
D28*
X-1113602Y1484803D02*
X-613598D01*
X-1113602Y1664802D02*
X-613598D01*
Y1484803D02*
Y1664802D01*
X-1113602Y1484803D02*
Y1664802D01*
X-793796Y-161102D02*
X-633796D01*
X-793796Y338902D02*
X-633796D01*
X-793796Y-161102D02*
Y338902D01*
X-633796Y-161102D02*
Y338902D01*
X-863600Y397200D02*
Y517200D01*
X-750397Y1006800D02*
Y1126800D01*
X-722798Y2022800D02*
Y2142800D01*
%TF.MD5,6a099340131184aa6c76be23481cadaf*%
M02*
