G04 Layer_Color=65535*
%FSLAX45Y45*%
%MOMM*%
%TF.FileFunction,Legend,Top*%
%TF.Part,Single*%
G01*
G75*
%TA.AperFunction,NonConductor*%
%ADD25C,0.25400*%
%ADD26C,0.25000*%
%ADD27C,0.50000*%
%ADD28C,0.20000*%
G36*
X-1043483Y923315D02*
X-1043280D01*
X-1043026Y923265D01*
X-1042746Y923239D01*
X-1042467Y923188D01*
X-1041806Y923036D01*
X-1041146Y922807D01*
X-1040790Y922655D01*
X-1040460Y922503D01*
X-1040105Y922299D01*
X-1039800Y922071D01*
X-1039774Y922045D01*
X-1039724Y922020D01*
X-1039647Y921944D01*
X-1039520Y921842D01*
X-1039393Y921715D01*
X-1039241Y921563D01*
X-1039063Y921385D01*
X-1038885Y921182D01*
X-1038682Y920928D01*
X-1038504Y920674D01*
X-1038301Y920394D01*
X-1038098Y920090D01*
X-1037742Y919378D01*
X-1037463Y918591D01*
X-1039571Y918083D01*
Y918108D01*
X-1039597Y918159D01*
X-1039622Y918261D01*
X-1039673Y918362D01*
X-1039749Y918515D01*
X-1039825Y918693D01*
X-1040003Y919074D01*
X-1040232Y919505D01*
X-1040536Y919937D01*
X-1040867Y920318D01*
X-1041248Y920674D01*
X-1041298Y920699D01*
X-1041451Y920801D01*
X-1041679Y920928D01*
X-1041984Y921080D01*
X-1042365Y921233D01*
X-1042822Y921360D01*
X-1043356Y921461D01*
X-1043940Y921487D01*
X-1044118D01*
X-1044245Y921461D01*
X-1044423D01*
X-1044600Y921436D01*
X-1045032Y921385D01*
X-1045540Y921258D01*
X-1046048Y921106D01*
X-1046582Y920877D01*
X-1047090Y920572D01*
X-1047115D01*
X-1047140Y920521D01*
X-1047293Y920420D01*
X-1047521Y920217D01*
X-1047775Y919937D01*
X-1048055Y919582D01*
X-1048360Y919175D01*
X-1048614Y918693D01*
X-1048842Y918159D01*
Y918134D01*
X-1048868Y918083D01*
X-1048893Y918007D01*
X-1048918Y917905D01*
X-1048969Y917753D01*
X-1048995Y917600D01*
X-1049096Y917219D01*
X-1049198Y916737D01*
X-1049274Y916203D01*
X-1049325Y915645D01*
X-1049350Y915035D01*
Y915010D01*
Y914933D01*
Y914832D01*
Y914679D01*
X-1049325Y914502D01*
Y914298D01*
X-1049299Y914070D01*
X-1049274Y913816D01*
X-1049198Y913257D01*
X-1049096Y912647D01*
X-1048969Y912038D01*
X-1048766Y911428D01*
Y911403D01*
X-1048741Y911352D01*
X-1048690Y911276D01*
X-1048639Y911174D01*
X-1048512Y910895D01*
X-1048309Y910565D01*
X-1048029Y910184D01*
X-1047725Y909803D01*
X-1047344Y909447D01*
X-1046886Y909117D01*
X-1046861D01*
X-1046836Y909091D01*
X-1046759Y909041D01*
X-1046658Y908990D01*
X-1046404Y908888D01*
X-1046048Y908736D01*
X-1045642Y908609D01*
X-1045159Y908482D01*
X-1044651Y908380D01*
X-1044118Y908355D01*
X-1043940D01*
X-1043813Y908380D01*
X-1043661D01*
X-1043483Y908406D01*
X-1043051Y908482D01*
X-1042568Y908609D01*
X-1042060Y908787D01*
X-1041552Y909041D01*
X-1041070Y909396D01*
X-1041044Y909422D01*
X-1041019Y909447D01*
X-1040867Y909599D01*
X-1040638Y909828D01*
X-1040384Y910184D01*
X-1040079Y910615D01*
X-1039800Y911123D01*
X-1039546Y911758D01*
X-1039343Y912470D01*
X-1037184Y911936D01*
Y911911D01*
X-1037209Y911809D01*
X-1037260Y911682D01*
X-1037311Y911504D01*
X-1037387Y911276D01*
X-1037488Y911022D01*
X-1037615Y910742D01*
X-1037742Y910438D01*
X-1038098Y909777D01*
X-1038504Y909091D01*
X-1039038Y908456D01*
X-1039317Y908152D01*
X-1039647Y907872D01*
X-1039673Y907847D01*
X-1039724Y907821D01*
X-1039825Y907745D01*
X-1039952Y907669D01*
X-1040130Y907567D01*
X-1040333Y907440D01*
X-1040562Y907313D01*
X-1040841Y907186D01*
X-1041146Y907059D01*
X-1041476Y906932D01*
X-1041806Y906831D01*
X-1042187Y906704D01*
X-1043026Y906551D01*
X-1043483Y906526D01*
X-1043940Y906501D01*
X-1044194D01*
X-1044372Y906526D01*
X-1044600D01*
X-1044854Y906551D01*
X-1045134Y906602D01*
X-1045464Y906628D01*
X-1046124Y906755D01*
X-1046836Y906958D01*
X-1047547Y907212D01*
X-1048207Y907567D01*
X-1048233Y907593D01*
X-1048283Y907618D01*
X-1048360Y907669D01*
X-1048487Y907771D01*
X-1048766Y908025D01*
X-1049147Y908355D01*
X-1049553Y908787D01*
X-1049960Y909320D01*
X-1050366Y909955D01*
X-1050722Y910666D01*
Y910692D01*
X-1050747Y910768D01*
X-1050798Y910869D01*
X-1050849Y911022D01*
X-1050925Y911200D01*
X-1050976Y911428D01*
X-1051052Y911682D01*
X-1051128Y911987D01*
X-1051230Y912292D01*
X-1051306Y912622D01*
X-1051433Y913359D01*
X-1051535Y914171D01*
X-1051560Y915035D01*
Y915060D01*
Y915137D01*
Y915289D01*
X-1051535Y915467D01*
Y915670D01*
X-1051509Y915949D01*
X-1051484Y916229D01*
X-1051433Y916534D01*
X-1051331Y917219D01*
X-1051154Y917981D01*
X-1050925Y918718D01*
X-1050595Y919455D01*
Y919480D01*
X-1050544Y919531D01*
X-1050493Y919632D01*
X-1050417Y919759D01*
X-1050315Y919937D01*
X-1050188Y920115D01*
X-1049884Y920521D01*
X-1049503Y921004D01*
X-1049020Y921487D01*
X-1048487Y921944D01*
X-1047852Y922350D01*
X-1047826D01*
X-1047775Y922401D01*
X-1047674Y922452D01*
X-1047547Y922503D01*
X-1047369Y922579D01*
X-1047166Y922655D01*
X-1046937Y922757D01*
X-1046683Y922858D01*
X-1046099Y923036D01*
X-1045413Y923188D01*
X-1044677Y923290D01*
X-1043889Y923341D01*
X-1043661D01*
X-1043483Y923315D01*
D02*
G37*
G36*
X-629793Y1451356D02*
X-629590D01*
X-629107Y1451331D01*
X-628574Y1451280D01*
X-628040Y1451178D01*
X-627507Y1451077D01*
X-627050Y1450924D01*
X-627024D01*
X-626999Y1450899D01*
X-626872Y1450848D01*
X-626643Y1450721D01*
X-626389Y1450569D01*
X-626110Y1450365D01*
X-625805Y1450086D01*
X-625500Y1449756D01*
X-625221Y1449375D01*
X-625196Y1449324D01*
X-625119Y1449172D01*
X-624992Y1448968D01*
X-624865Y1448664D01*
X-624764Y1448308D01*
X-624637Y1447876D01*
X-624561Y1447419D01*
X-624535Y1446936D01*
Y1446911D01*
Y1446860D01*
Y1446759D01*
X-624561Y1446657D01*
Y1446505D01*
X-624586Y1446327D01*
X-624688Y1445920D01*
X-624815Y1445463D01*
X-625018Y1444981D01*
X-625297Y1444473D01*
X-625475Y1444244D01*
X-625678Y1444015D01*
X-625729Y1443965D01*
X-625805Y1443914D01*
X-625881Y1443838D01*
X-626008Y1443736D01*
X-626161Y1443634D01*
X-626339Y1443507D01*
X-626516Y1443380D01*
X-626745Y1443253D01*
X-627024Y1443126D01*
X-627304Y1442999D01*
X-627609Y1442872D01*
X-627939Y1442771D01*
X-628320Y1442669D01*
X-628701Y1442593D01*
X-629133Y1442517D01*
X-629082Y1442491D01*
X-628980Y1442441D01*
X-628828Y1442364D01*
X-628650Y1442263D01*
X-628218Y1441983D01*
X-628015Y1441856D01*
X-627837Y1441704D01*
X-627786Y1441653D01*
X-627685Y1441552D01*
X-627507Y1441348D01*
X-627253Y1441094D01*
X-626999Y1440790D01*
X-626694Y1440409D01*
X-626364Y1439977D01*
X-626059Y1439520D01*
X-623240Y1435100D01*
X-625932D01*
X-628066Y1438478D01*
Y1438504D01*
X-628117Y1438554D01*
X-628167Y1438631D01*
X-628218Y1438732D01*
X-628396Y1438986D01*
X-628599Y1439316D01*
X-628853Y1439672D01*
X-629107Y1440053D01*
X-629361Y1440409D01*
X-629615Y1440713D01*
X-629641Y1440739D01*
X-629717Y1440840D01*
X-629844Y1440967D01*
X-629971Y1441145D01*
X-630326Y1441501D01*
X-630530Y1441679D01*
X-630707Y1441806D01*
X-630733Y1441831D01*
X-630784Y1441856D01*
X-630885Y1441907D01*
X-631012Y1441983D01*
X-631317Y1442136D01*
X-631698Y1442237D01*
X-631723D01*
X-631774Y1442263D01*
X-631850D01*
X-631977Y1442288D01*
X-632155Y1442314D01*
X-632358D01*
X-632612Y1442339D01*
X-635381D01*
Y1435100D01*
X-637540D01*
Y1451381D01*
X-629971D01*
X-629793Y1451356D01*
D02*
G37*
G36*
X-1357122Y604520D02*
X-1359560D01*
X-1361465Y609448D01*
X-1368298D01*
X-1370051Y604520D01*
X-1372311D01*
X-1366139Y620801D01*
X-1363751D01*
X-1357122Y604520D01*
D02*
G37*
G36*
X-762965Y1685036D02*
X-762483Y1685011D01*
X-762000Y1684960D01*
X-761543Y1684884D01*
X-761136Y1684807D01*
X-761111D01*
X-761086Y1684782D01*
X-761009D01*
X-760908Y1684757D01*
X-760654Y1684655D01*
X-760324Y1684553D01*
X-759943Y1684401D01*
X-759536Y1684198D01*
X-759130Y1683944D01*
X-758749Y1683639D01*
X-758723D01*
X-758698Y1683588D01*
X-758546Y1683436D01*
X-758317Y1683207D01*
X-758038Y1682902D01*
X-757733Y1682496D01*
X-757403Y1682013D01*
X-757098Y1681480D01*
X-756844Y1680870D01*
Y1680845D01*
X-756818Y1680794D01*
X-756793Y1680693D01*
X-756742Y1680566D01*
X-756691Y1680413D01*
X-756641Y1680210D01*
X-756564Y1680007D01*
X-756514Y1679753D01*
X-756387Y1679169D01*
X-756285Y1678534D01*
X-756209Y1677797D01*
X-756183Y1677010D01*
Y1676984D01*
Y1676933D01*
Y1676832D01*
Y1676705D01*
X-756209Y1676527D01*
Y1676349D01*
X-756234Y1675892D01*
X-756285Y1675384D01*
X-756387Y1674825D01*
X-756488Y1674266D01*
X-756641Y1673708D01*
Y1673682D01*
X-756666Y1673657D01*
X-756691Y1673581D01*
X-756717Y1673479D01*
X-756818Y1673200D01*
X-756945Y1672869D01*
X-757098Y1672514D01*
X-757301Y1672107D01*
X-757504Y1671726D01*
X-757758Y1671345D01*
X-757784Y1671295D01*
X-757885Y1671193D01*
X-758012Y1671015D01*
X-758190Y1670812D01*
X-758419Y1670558D01*
X-758647Y1670329D01*
X-758927Y1670075D01*
X-759231Y1669847D01*
X-759257Y1669821D01*
X-759384Y1669771D01*
X-759536Y1669669D01*
X-759765Y1669542D01*
X-760044Y1669415D01*
X-760374Y1669288D01*
X-760755Y1669161D01*
X-761162Y1669034D01*
X-761213D01*
X-761365Y1668983D01*
X-761594Y1668958D01*
X-761924Y1668907D01*
X-762305Y1668856D01*
X-762737Y1668831D01*
X-763245Y1668780D01*
X-769620D01*
Y1685061D01*
X-763372D01*
X-762965Y1685036D01*
D02*
G37*
G36*
X-616204Y1451432D02*
X-616001Y1451407D01*
X-615772Y1451381D01*
X-615518Y1451356D01*
X-615239Y1451305D01*
X-614629Y1451127D01*
X-614020Y1450899D01*
X-613715Y1450746D01*
X-613410Y1450569D01*
X-613131Y1450365D01*
X-612851Y1450137D01*
X-612826Y1450111D01*
X-612800Y1450086D01*
X-612724Y1450010D01*
X-612648Y1449908D01*
X-612521Y1449781D01*
X-612419Y1449629D01*
X-612165Y1449248D01*
X-611911Y1448791D01*
X-611683Y1448232D01*
X-611530Y1447622D01*
X-611505Y1447292D01*
X-611480Y1446936D01*
Y1446886D01*
Y1446759D01*
X-611505Y1446581D01*
X-611530Y1446327D01*
X-611581Y1446022D01*
X-611657Y1445717D01*
X-611759Y1445362D01*
X-611886Y1445006D01*
X-611911Y1444955D01*
X-611962Y1444854D01*
X-612064Y1444650D01*
X-612216Y1444396D01*
X-612394Y1444117D01*
X-612623Y1443787D01*
X-612902Y1443406D01*
X-613232Y1443025D01*
X-613283Y1442974D01*
X-613410Y1442847D01*
X-613639Y1442593D01*
X-613969Y1442288D01*
X-614147Y1442085D01*
X-614375Y1441856D01*
X-614629Y1441628D01*
X-614909Y1441374D01*
X-615213Y1441094D01*
X-615544Y1440815D01*
X-615925Y1440485D01*
X-616306Y1440155D01*
X-616331Y1440129D01*
X-616382Y1440078D01*
X-616483Y1440002D01*
X-616585Y1439901D01*
X-616890Y1439647D01*
X-617271Y1439316D01*
X-617652Y1438986D01*
X-618033Y1438656D01*
X-618363Y1438351D01*
X-618515Y1438199D01*
X-618617Y1438097D01*
X-618642Y1438072D01*
X-618693Y1437996D01*
X-618795Y1437894D01*
X-618922Y1437767D01*
X-619201Y1437411D01*
X-619481Y1437030D01*
X-611454D01*
Y1435100D01*
X-622249D01*
Y1435125D01*
Y1435227D01*
Y1435354D01*
X-622224Y1435532D01*
X-622198Y1435760D01*
X-622173Y1435989D01*
X-622097Y1436218D01*
X-622021Y1436472D01*
Y1436497D01*
X-621995Y1436522D01*
X-621944Y1436675D01*
X-621843Y1436878D01*
X-621690Y1437157D01*
X-621513Y1437488D01*
X-621284Y1437869D01*
X-621030Y1438250D01*
X-620700Y1438656D01*
X-620649Y1438707D01*
X-620522Y1438834D01*
X-620319Y1439062D01*
X-620039Y1439367D01*
X-619658Y1439723D01*
X-619201Y1440129D01*
X-618693Y1440586D01*
X-618084Y1441094D01*
X-618058Y1441120D01*
X-617957Y1441196D01*
X-617830Y1441298D01*
X-617652Y1441450D01*
X-617423Y1441653D01*
X-617195Y1441856D01*
X-616636Y1442339D01*
X-616026Y1442898D01*
X-615442Y1443482D01*
X-615163Y1443761D01*
X-614909Y1444041D01*
X-614680Y1444295D01*
X-614477Y1444549D01*
Y1444574D01*
X-614426Y1444600D01*
X-614401Y1444676D01*
X-614324Y1444777D01*
X-614172Y1445006D01*
X-613994Y1445336D01*
X-613842Y1445717D01*
X-613689Y1446124D01*
X-613588Y1446530D01*
X-613537Y1446962D01*
Y1446987D01*
Y1447013D01*
Y1447165D01*
X-613588Y1447394D01*
X-613639Y1447673D01*
X-613740Y1447978D01*
X-613893Y1448308D01*
X-614121Y1448638D01*
X-614401Y1448968D01*
X-614451Y1448994D01*
X-614553Y1449095D01*
X-614756Y1449222D01*
X-615010Y1449400D01*
X-615315Y1449553D01*
X-615696Y1449680D01*
X-616153Y1449781D01*
X-616636Y1449807D01*
X-616864D01*
X-617144Y1449756D01*
X-617474Y1449705D01*
X-617830Y1449603D01*
X-618211Y1449451D01*
X-618592Y1449222D01*
X-618947Y1448943D01*
X-618973Y1448892D01*
X-619074Y1448791D01*
X-619227Y1448587D01*
X-619379Y1448333D01*
X-619531Y1447978D01*
X-619684Y1447571D01*
X-619785Y1447089D01*
X-619811Y1446555D01*
X-621868Y1446759D01*
Y1446784D01*
Y1446860D01*
X-621843Y1446987D01*
X-621817Y1447140D01*
X-621767Y1447317D01*
X-621741Y1447546D01*
X-621589Y1448054D01*
X-621386Y1448613D01*
X-621106Y1449197D01*
X-620751Y1449756D01*
X-620547Y1450010D01*
X-620293Y1450238D01*
X-620268Y1450264D01*
X-620217Y1450289D01*
X-620141Y1450340D01*
X-620039Y1450442D01*
X-619887Y1450518D01*
X-619735Y1450619D01*
X-619531Y1450746D01*
X-619303Y1450848D01*
X-619049Y1450975D01*
X-618769Y1451077D01*
X-618465Y1451178D01*
X-618134Y1451280D01*
X-617398Y1451407D01*
X-617017Y1451432D01*
X-616585Y1451458D01*
X-616356D01*
X-616204Y1451432D01*
D02*
G37*
G36*
X231346Y1920240D02*
X218376D01*
Y1966196D01*
X167909D01*
Y1920240D01*
X154940D01*
Y2017791D01*
X167909D01*
Y1977756D01*
X218376D01*
Y2017791D01*
X231346D01*
Y1920240D01*
D02*
G37*
G36*
X-463982Y1451432D02*
X-463652Y1451381D01*
X-463271Y1451305D01*
X-462864Y1451204D01*
X-462432Y1451077D01*
X-462001Y1450873D01*
X-461975D01*
X-461950Y1450848D01*
X-461823Y1450772D01*
X-461620Y1450645D01*
X-461366Y1450467D01*
X-461086Y1450238D01*
X-460807Y1449959D01*
X-460527Y1449654D01*
X-460299Y1449299D01*
X-460273Y1449248D01*
X-460197Y1449121D01*
X-460096Y1448943D01*
X-459994Y1448689D01*
X-459892Y1448359D01*
X-459791Y1448003D01*
X-459715Y1447622D01*
X-459689Y1447216D01*
Y1447165D01*
Y1447038D01*
X-459715Y1446835D01*
X-459765Y1446581D01*
X-459842Y1446276D01*
X-459943Y1445946D01*
X-460070Y1445616D01*
X-460273Y1445285D01*
X-460299Y1445260D01*
X-460375Y1445133D01*
X-460502Y1444981D01*
X-460680Y1444803D01*
X-460934Y1444574D01*
X-461213Y1444346D01*
X-461543Y1444117D01*
X-461950Y1443914D01*
X-461924D01*
X-461874Y1443888D01*
X-461823D01*
X-461721Y1443838D01*
X-461442Y1443761D01*
X-461137Y1443609D01*
X-460756Y1443431D01*
X-460400Y1443177D01*
X-460045Y1442872D01*
X-459715Y1442517D01*
X-459689Y1442466D01*
X-459588Y1442339D01*
X-459461Y1442110D01*
X-459308Y1441806D01*
X-459156Y1441425D01*
X-459029Y1440967D01*
X-458927Y1440459D01*
X-458902Y1439901D01*
Y1439875D01*
Y1439799D01*
Y1439697D01*
X-458927Y1439545D01*
X-458953Y1439367D01*
X-458978Y1439139D01*
X-459029Y1438910D01*
X-459105Y1438656D01*
X-459283Y1438072D01*
X-459410Y1437792D01*
X-459562Y1437488D01*
X-459740Y1437183D01*
X-459969Y1436878D01*
X-460197Y1436573D01*
X-460477Y1436294D01*
X-460502Y1436268D01*
X-460553Y1436243D01*
X-460629Y1436167D01*
X-460756Y1436065D01*
X-460908Y1435964D01*
X-461086Y1435837D01*
X-461315Y1435684D01*
X-461543Y1435557D01*
X-461823Y1435430D01*
X-462102Y1435278D01*
X-462432Y1435151D01*
X-462788Y1435049D01*
X-463144Y1434948D01*
X-463550Y1434897D01*
X-463956Y1434846D01*
X-464388Y1434821D01*
X-464591D01*
X-464744Y1434846D01*
X-464922Y1434871D01*
X-465125Y1434897D01*
X-465633Y1434973D01*
X-466192Y1435125D01*
X-466776Y1435354D01*
X-467081Y1435506D01*
X-467385Y1435684D01*
X-467665Y1435862D01*
X-467944Y1436091D01*
X-467970Y1436116D01*
X-467995Y1436141D01*
X-468071Y1436218D01*
X-468173Y1436319D01*
X-468274Y1436446D01*
X-468401Y1436599D01*
X-468681Y1436980D01*
X-468960Y1437462D01*
X-469214Y1438021D01*
X-469417Y1438656D01*
X-469494Y1439012D01*
X-469544Y1439393D01*
X-467538Y1439647D01*
Y1439621D01*
X-467512Y1439570D01*
Y1439494D01*
X-467462Y1439367D01*
X-467385Y1439062D01*
X-467258Y1438707D01*
X-467106Y1438300D01*
X-466903Y1437894D01*
X-466674Y1437513D01*
X-466395Y1437208D01*
X-466344Y1437183D01*
X-466242Y1437107D01*
X-466065Y1436980D01*
X-465836Y1436853D01*
X-465531Y1436700D01*
X-465176Y1436599D01*
X-464795Y1436497D01*
X-464363Y1436472D01*
X-464236D01*
X-464134Y1436497D01*
X-463855Y1436522D01*
X-463525Y1436599D01*
X-463144Y1436700D01*
X-462763Y1436878D01*
X-462356Y1437107D01*
X-461975Y1437437D01*
X-461924Y1437488D01*
X-461823Y1437615D01*
X-461670Y1437818D01*
X-461493Y1438123D01*
X-461315Y1438453D01*
X-461162Y1438885D01*
X-461061Y1439342D01*
X-461010Y1439850D01*
Y1439875D01*
Y1439901D01*
Y1439977D01*
X-461035Y1440078D01*
X-461061Y1440332D01*
X-461112Y1440663D01*
X-461239Y1441018D01*
X-461391Y1441399D01*
X-461620Y1441780D01*
X-461924Y1442136D01*
X-461975Y1442187D01*
X-462077Y1442288D01*
X-462280Y1442415D01*
X-462534Y1442593D01*
X-462864Y1442745D01*
X-463271Y1442898D01*
X-463702Y1442999D01*
X-464210Y1443025D01*
X-464439D01*
X-464591Y1442999D01*
X-464795Y1442974D01*
X-465023Y1442949D01*
X-465303Y1442898D01*
X-465607Y1442822D01*
X-465379Y1444574D01*
X-465277D01*
X-465074Y1444549D01*
X-464871D01*
X-464617Y1444574D01*
X-464312Y1444625D01*
X-463956Y1444701D01*
X-463575Y1444828D01*
X-463169Y1444981D01*
X-462788Y1445209D01*
X-462737Y1445235D01*
X-462636Y1445336D01*
X-462458Y1445489D01*
X-462255Y1445717D01*
X-462077Y1445997D01*
X-461899Y1446352D01*
X-461797Y1446784D01*
X-461747Y1447267D01*
Y1447292D01*
Y1447317D01*
Y1447444D01*
X-461797Y1447648D01*
X-461848Y1447902D01*
X-461924Y1448181D01*
X-462077Y1448486D01*
X-462255Y1448791D01*
X-462509Y1449070D01*
X-462534Y1449095D01*
X-462636Y1449197D01*
X-462813Y1449299D01*
X-463017Y1449451D01*
X-463296Y1449578D01*
X-463626Y1449705D01*
X-464007Y1449781D01*
X-464414Y1449807D01*
X-464617D01*
X-464820Y1449781D01*
X-465099Y1449705D01*
X-465404Y1449629D01*
X-465734Y1449502D01*
X-466065Y1449324D01*
X-466369Y1449070D01*
X-466395Y1449045D01*
X-466496Y1448943D01*
X-466623Y1448765D01*
X-466776Y1448511D01*
X-466928Y1448206D01*
X-467106Y1447851D01*
X-467233Y1447394D01*
X-467335Y1446886D01*
X-469341Y1447241D01*
Y1447267D01*
X-469316Y1447343D01*
X-469290Y1447444D01*
X-469265Y1447571D01*
X-469214Y1447749D01*
X-469163Y1447927D01*
X-469011Y1448384D01*
X-468782Y1448892D01*
X-468503Y1449400D01*
X-468122Y1449883D01*
X-467690Y1450340D01*
X-467665Y1450365D01*
X-467639Y1450391D01*
X-467563Y1450442D01*
X-467462Y1450518D01*
X-467335Y1450594D01*
X-467182Y1450696D01*
X-466801Y1450899D01*
X-466344Y1451102D01*
X-465785Y1451280D01*
X-465150Y1451407D01*
X-464820Y1451458D01*
X-464236D01*
X-463982Y1451432D01*
D02*
G37*
G36*
X-1027836Y906780D02*
X-1029843D01*
Y919505D01*
X-1029868Y919480D01*
X-1029970Y919378D01*
X-1030148Y919251D01*
X-1030351Y919074D01*
X-1030630Y918870D01*
X-1030961Y918642D01*
X-1031342Y918388D01*
X-1031748Y918134D01*
X-1031799Y918108D01*
X-1031951Y918032D01*
X-1032154Y917905D01*
X-1032434Y917753D01*
X-1032764Y917575D01*
X-1033120Y917397D01*
X-1033475Y917245D01*
X-1033831Y917092D01*
Y919048D01*
X-1033805D01*
X-1033755Y919074D01*
X-1033678Y919124D01*
X-1033551Y919201D01*
X-1033399Y919277D01*
X-1033247Y919353D01*
X-1032840Y919582D01*
X-1032408Y919861D01*
X-1031900Y920191D01*
X-1031418Y920547D01*
X-1030935Y920953D01*
X-1030910Y920979D01*
X-1030884Y921004D01*
X-1030732Y921156D01*
X-1030503Y921360D01*
X-1030224Y921639D01*
X-1029945Y921969D01*
X-1029640Y922350D01*
X-1029360Y922731D01*
X-1029132Y923138D01*
X-1027836D01*
Y906780D01*
D02*
G37*
G36*
X-477393Y1451356D02*
X-477190D01*
X-476707Y1451331D01*
X-476174Y1451280D01*
X-475640Y1451178D01*
X-475107Y1451077D01*
X-474650Y1450924D01*
X-474624D01*
X-474599Y1450899D01*
X-474472Y1450848D01*
X-474243Y1450721D01*
X-473989Y1450569D01*
X-473710Y1450365D01*
X-473405Y1450086D01*
X-473100Y1449756D01*
X-472821Y1449375D01*
X-472796Y1449324D01*
X-472719Y1449172D01*
X-472592Y1448968D01*
X-472465Y1448664D01*
X-472364Y1448308D01*
X-472237Y1447876D01*
X-472161Y1447419D01*
X-472135Y1446936D01*
Y1446911D01*
Y1446860D01*
Y1446759D01*
X-472161Y1446657D01*
Y1446505D01*
X-472186Y1446327D01*
X-472288Y1445920D01*
X-472415Y1445463D01*
X-472618Y1444981D01*
X-472897Y1444473D01*
X-473075Y1444244D01*
X-473278Y1444015D01*
X-473329Y1443965D01*
X-473405Y1443914D01*
X-473481Y1443838D01*
X-473608Y1443736D01*
X-473761Y1443634D01*
X-473939Y1443507D01*
X-474116Y1443380D01*
X-474345Y1443253D01*
X-474624Y1443126D01*
X-474904Y1442999D01*
X-475209Y1442872D01*
X-475539Y1442771D01*
X-475920Y1442669D01*
X-476301Y1442593D01*
X-476733Y1442517D01*
X-476682Y1442491D01*
X-476580Y1442441D01*
X-476428Y1442364D01*
X-476250Y1442263D01*
X-475818Y1441983D01*
X-475615Y1441856D01*
X-475437Y1441704D01*
X-475386Y1441653D01*
X-475285Y1441552D01*
X-475107Y1441348D01*
X-474853Y1441094D01*
X-474599Y1440790D01*
X-474294Y1440409D01*
X-473964Y1439977D01*
X-473659Y1439520D01*
X-470840Y1435100D01*
X-473532D01*
X-475666Y1438478D01*
Y1438504D01*
X-475717Y1438554D01*
X-475767Y1438631D01*
X-475818Y1438732D01*
X-475996Y1438986D01*
X-476199Y1439316D01*
X-476453Y1439672D01*
X-476707Y1440053D01*
X-476961Y1440409D01*
X-477215Y1440713D01*
X-477241Y1440739D01*
X-477317Y1440840D01*
X-477444Y1440967D01*
X-477571Y1441145D01*
X-477926Y1441501D01*
X-478130Y1441679D01*
X-478307Y1441806D01*
X-478333Y1441831D01*
X-478384Y1441856D01*
X-478485Y1441907D01*
X-478612Y1441983D01*
X-478917Y1442136D01*
X-479298Y1442237D01*
X-479323D01*
X-479374Y1442263D01*
X-479450D01*
X-479577Y1442288D01*
X-479755Y1442314D01*
X-479958D01*
X-480212Y1442339D01*
X-482981D01*
Y1435100D01*
X-485140D01*
Y1451381D01*
X-477571D01*
X-477393Y1451356D01*
D02*
G37*
G36*
X-1390904Y620852D02*
X-1390701Y620827D01*
X-1390472Y620801D01*
X-1390218Y620776D01*
X-1389939Y620725D01*
X-1389329Y620547D01*
X-1388720Y620319D01*
X-1388415Y620166D01*
X-1388110Y619989D01*
X-1387831Y619785D01*
X-1387551Y619557D01*
X-1387526Y619531D01*
X-1387500Y619506D01*
X-1387424Y619430D01*
X-1387348Y619328D01*
X-1387221Y619201D01*
X-1387119Y619049D01*
X-1386865Y618668D01*
X-1386611Y618211D01*
X-1386383Y617652D01*
X-1386230Y617042D01*
X-1386205Y616712D01*
X-1386180Y616356D01*
Y616306D01*
Y616179D01*
X-1386205Y616001D01*
X-1386230Y615747D01*
X-1386281Y615442D01*
X-1386357Y615137D01*
X-1386459Y614782D01*
X-1386586Y614426D01*
X-1386611Y614375D01*
X-1386662Y614274D01*
X-1386764Y614070D01*
X-1386916Y613816D01*
X-1387094Y613537D01*
X-1387323Y613207D01*
X-1387602Y612826D01*
X-1387932Y612445D01*
X-1387983Y612394D01*
X-1388110Y612267D01*
X-1388339Y612013D01*
X-1388669Y611708D01*
X-1388847Y611505D01*
X-1389075Y611276D01*
X-1389329Y611048D01*
X-1389609Y610794D01*
X-1389913Y610514D01*
X-1390244Y610235D01*
X-1390625Y609905D01*
X-1391006Y609575D01*
X-1391031Y609549D01*
X-1391082Y609498D01*
X-1391183Y609422D01*
X-1391285Y609321D01*
X-1391590Y609067D01*
X-1391971Y608736D01*
X-1392352Y608406D01*
X-1392733Y608076D01*
X-1393063Y607771D01*
X-1393215Y607619D01*
X-1393317Y607517D01*
X-1393342Y607492D01*
X-1393393Y607416D01*
X-1393495Y607314D01*
X-1393622Y607187D01*
X-1393901Y606831D01*
X-1394181Y606450D01*
X-1386154D01*
Y604520D01*
X-1396949D01*
Y604545D01*
Y604647D01*
Y604774D01*
X-1396924Y604952D01*
X-1396898Y605180D01*
X-1396873Y605409D01*
X-1396797Y605638D01*
X-1396721Y605892D01*
Y605917D01*
X-1396695Y605942D01*
X-1396644Y606095D01*
X-1396543Y606298D01*
X-1396390Y606577D01*
X-1396213Y606908D01*
X-1395984Y607289D01*
X-1395730Y607670D01*
X-1395400Y608076D01*
X-1395349Y608127D01*
X-1395222Y608254D01*
X-1395019Y608482D01*
X-1394739Y608787D01*
X-1394358Y609143D01*
X-1393901Y609549D01*
X-1393393Y610006D01*
X-1392784Y610514D01*
X-1392758Y610540D01*
X-1392657Y610616D01*
X-1392530Y610718D01*
X-1392352Y610870D01*
X-1392123Y611073D01*
X-1391895Y611276D01*
X-1391336Y611759D01*
X-1390726Y612318D01*
X-1390142Y612902D01*
X-1389863Y613181D01*
X-1389609Y613461D01*
X-1389380Y613715D01*
X-1389177Y613969D01*
Y613994D01*
X-1389126Y614020D01*
X-1389101Y614096D01*
X-1389024Y614197D01*
X-1388872Y614426D01*
X-1388694Y614756D01*
X-1388542Y615137D01*
X-1388389Y615544D01*
X-1388288Y615950D01*
X-1388237Y616382D01*
Y616407D01*
Y616433D01*
Y616585D01*
X-1388288Y616814D01*
X-1388339Y617093D01*
X-1388440Y617398D01*
X-1388593Y617728D01*
X-1388821Y618058D01*
X-1389101Y618388D01*
X-1389151Y618414D01*
X-1389253Y618515D01*
X-1389456Y618642D01*
X-1389710Y618820D01*
X-1390015Y618973D01*
X-1390396Y619100D01*
X-1390853Y619201D01*
X-1391336Y619227D01*
X-1391564D01*
X-1391844Y619176D01*
X-1392174Y619125D01*
X-1392530Y619023D01*
X-1392911Y618871D01*
X-1393292Y618642D01*
X-1393647Y618363D01*
X-1393673Y618312D01*
X-1393774Y618211D01*
X-1393927Y618007D01*
X-1394079Y617753D01*
X-1394231Y617398D01*
X-1394384Y616991D01*
X-1394485Y616509D01*
X-1394511Y615975D01*
X-1396568Y616179D01*
Y616204D01*
Y616280D01*
X-1396543Y616407D01*
X-1396517Y616560D01*
X-1396467Y616737D01*
X-1396441Y616966D01*
X-1396289Y617474D01*
X-1396086Y618033D01*
X-1395806Y618617D01*
X-1395451Y619176D01*
X-1395247Y619430D01*
X-1394993Y619658D01*
X-1394968Y619684D01*
X-1394917Y619709D01*
X-1394841Y619760D01*
X-1394739Y619862D01*
X-1394587Y619938D01*
X-1394435Y620039D01*
X-1394231Y620166D01*
X-1394003Y620268D01*
X-1393749Y620395D01*
X-1393469Y620497D01*
X-1393165Y620598D01*
X-1392834Y620700D01*
X-1392098Y620827D01*
X-1391717Y620852D01*
X-1391285Y620878D01*
X-1391056D01*
X-1390904Y620852D01*
D02*
G37*
G36*
X-884682Y1620520D02*
X-887120D01*
X-889025Y1625448D01*
X-895858D01*
X-897611Y1620520D01*
X-899871D01*
X-893699Y1636801D01*
X-891311D01*
X-884682Y1620520D01*
D02*
G37*
G36*
X-899617Y1615999D02*
X-912876D01*
Y1617447D01*
X-899617D01*
Y1615999D01*
D02*
G37*
G36*
X-932053Y1636776D02*
X-931850D01*
X-931367Y1636751D01*
X-930834Y1636700D01*
X-930300Y1636598D01*
X-929767Y1636497D01*
X-929310Y1636344D01*
X-929284D01*
X-929259Y1636319D01*
X-929132Y1636268D01*
X-928903Y1636141D01*
X-928649Y1635989D01*
X-928370Y1635785D01*
X-928065Y1635506D01*
X-927760Y1635176D01*
X-927481Y1634795D01*
X-927456Y1634744D01*
X-927379Y1634592D01*
X-927252Y1634388D01*
X-927125Y1634084D01*
X-927024Y1633728D01*
X-926897Y1633296D01*
X-926821Y1632839D01*
X-926795Y1632356D01*
Y1632331D01*
Y1632280D01*
Y1632179D01*
X-926821Y1632077D01*
Y1631925D01*
X-926846Y1631747D01*
X-926948Y1631340D01*
X-927075Y1630883D01*
X-927278Y1630401D01*
X-927557Y1629893D01*
X-927735Y1629664D01*
X-927938Y1629435D01*
X-927989Y1629385D01*
X-928065Y1629334D01*
X-928141Y1629258D01*
X-928268Y1629156D01*
X-928421Y1629054D01*
X-928599Y1628927D01*
X-928776Y1628800D01*
X-929005Y1628673D01*
X-929284Y1628546D01*
X-929564Y1628419D01*
X-929869Y1628292D01*
X-930199Y1628191D01*
X-930580Y1628089D01*
X-930961Y1628013D01*
X-931393Y1627937D01*
X-931342Y1627911D01*
X-931240Y1627861D01*
X-931088Y1627784D01*
X-930910Y1627683D01*
X-930478Y1627403D01*
X-930275Y1627276D01*
X-930097Y1627124D01*
X-930046Y1627073D01*
X-929945Y1626972D01*
X-929767Y1626768D01*
X-929513Y1626514D01*
X-929259Y1626210D01*
X-928954Y1625829D01*
X-928624Y1625397D01*
X-928319Y1624940D01*
X-925500Y1620520D01*
X-928192D01*
X-930326Y1623898D01*
Y1623924D01*
X-930377Y1623974D01*
X-930427Y1624051D01*
X-930478Y1624152D01*
X-930656Y1624406D01*
X-930859Y1624736D01*
X-931113Y1625092D01*
X-931367Y1625473D01*
X-931621Y1625829D01*
X-931875Y1626133D01*
X-931901Y1626159D01*
X-931977Y1626260D01*
X-932104Y1626387D01*
X-932231Y1626565D01*
X-932586Y1626921D01*
X-932790Y1627099D01*
X-932967Y1627226D01*
X-932993Y1627251D01*
X-933044Y1627276D01*
X-933145Y1627327D01*
X-933272Y1627403D01*
X-933577Y1627556D01*
X-933958Y1627657D01*
X-933983D01*
X-934034Y1627683D01*
X-934110D01*
X-934237Y1627708D01*
X-934415Y1627734D01*
X-934618D01*
X-934872Y1627759D01*
X-937641D01*
Y1620520D01*
X-939800D01*
Y1636801D01*
X-932231D01*
X-932053Y1636776D01*
D02*
G37*
G36*
X-916711Y1620520D02*
X-918718D01*
Y1633245D01*
X-918743Y1633220D01*
X-918845Y1633118D01*
X-919023Y1632991D01*
X-919226Y1632814D01*
X-919505Y1632610D01*
X-919836Y1632382D01*
X-920217Y1632128D01*
X-920623Y1631874D01*
X-920674Y1631848D01*
X-920826Y1631772D01*
X-921029Y1631645D01*
X-921309Y1631493D01*
X-921639Y1631315D01*
X-921995Y1631137D01*
X-922350Y1630985D01*
X-922706Y1630832D01*
Y1632788D01*
X-922680D01*
X-922630Y1632814D01*
X-922553Y1632864D01*
X-922426Y1632941D01*
X-922274Y1633017D01*
X-922122Y1633093D01*
X-921715Y1633322D01*
X-921283Y1633601D01*
X-920775Y1633931D01*
X-920293Y1634287D01*
X-919810Y1634693D01*
X-919785Y1634719D01*
X-919759Y1634744D01*
X-919607Y1634896D01*
X-919378Y1635100D01*
X-919099Y1635379D01*
X-918820Y1635709D01*
X-918515Y1636090D01*
X-918235Y1636471D01*
X-918007Y1636878D01*
X-916711D01*
Y1620520D01*
D02*
G37*
G36*
X-817753Y-448564D02*
X-817550D01*
X-817067Y-448589D01*
X-816534Y-448640D01*
X-816000Y-448742D01*
X-815467Y-448843D01*
X-815010Y-448996D01*
X-814984D01*
X-814959Y-449021D01*
X-814832Y-449072D01*
X-814603Y-449199D01*
X-814349Y-449351D01*
X-814070Y-449555D01*
X-813765Y-449834D01*
X-813460Y-450164D01*
X-813181Y-450545D01*
X-813156Y-450596D01*
X-813079Y-450748D01*
X-812952Y-450952D01*
X-812825Y-451256D01*
X-812724Y-451612D01*
X-812597Y-452044D01*
X-812521Y-452501D01*
X-812495Y-452984D01*
Y-453009D01*
Y-453060D01*
Y-453161D01*
X-812521Y-453263D01*
Y-453415D01*
X-812546Y-453593D01*
X-812648Y-454000D01*
X-812775Y-454457D01*
X-812978Y-454939D01*
X-813257Y-455447D01*
X-813435Y-455676D01*
X-813638Y-455905D01*
X-813689Y-455955D01*
X-813765Y-456006D01*
X-813841Y-456082D01*
X-813968Y-456184D01*
X-814121Y-456286D01*
X-814299Y-456413D01*
X-814476Y-456540D01*
X-814705Y-456667D01*
X-814984Y-456794D01*
X-815264Y-456921D01*
X-815569Y-457048D01*
X-815899Y-457149D01*
X-816280Y-457251D01*
X-816661Y-457327D01*
X-817093Y-457403D01*
X-817042Y-457429D01*
X-816940Y-457479D01*
X-816788Y-457556D01*
X-816610Y-457657D01*
X-816178Y-457937D01*
X-815975Y-458064D01*
X-815797Y-458216D01*
X-815746Y-458267D01*
X-815645Y-458368D01*
X-815467Y-458572D01*
X-815213Y-458826D01*
X-814959Y-459130D01*
X-814654Y-459511D01*
X-814324Y-459943D01*
X-814019Y-460400D01*
X-811200Y-464820D01*
X-813892D01*
X-816026Y-461442D01*
Y-461416D01*
X-816077Y-461366D01*
X-816127Y-461289D01*
X-816178Y-461188D01*
X-816356Y-460934D01*
X-816559Y-460604D01*
X-816813Y-460248D01*
X-817067Y-459867D01*
X-817321Y-459511D01*
X-817575Y-459207D01*
X-817601Y-459181D01*
X-817677Y-459080D01*
X-817804Y-458953D01*
X-817931Y-458775D01*
X-818286Y-458419D01*
X-818490Y-458241D01*
X-818667Y-458114D01*
X-818693Y-458089D01*
X-818744Y-458064D01*
X-818845Y-458013D01*
X-818972Y-457937D01*
X-819277Y-457784D01*
X-819658Y-457683D01*
X-819683D01*
X-819734Y-457657D01*
X-819810D01*
X-819937Y-457632D01*
X-820115Y-457606D01*
X-820318D01*
X-820572Y-457581D01*
X-823341D01*
Y-464820D01*
X-825500D01*
Y-448539D01*
X-817931D01*
X-817753Y-448564D01*
D02*
G37*
G36*
X-1372057Y599999D02*
X-1385316D01*
Y601447D01*
X-1372057D01*
Y599999D01*
D02*
G37*
G36*
X-1404493Y620776D02*
X-1404290D01*
X-1403807Y620751D01*
X-1403274Y620700D01*
X-1402740Y620598D01*
X-1402207Y620497D01*
X-1401750Y620344D01*
X-1401724D01*
X-1401699Y620319D01*
X-1401572Y620268D01*
X-1401343Y620141D01*
X-1401089Y619989D01*
X-1400810Y619785D01*
X-1400505Y619506D01*
X-1400200Y619176D01*
X-1399921Y618795D01*
X-1399896Y618744D01*
X-1399819Y618592D01*
X-1399692Y618388D01*
X-1399565Y618084D01*
X-1399464Y617728D01*
X-1399337Y617296D01*
X-1399261Y616839D01*
X-1399235Y616356D01*
Y616331D01*
Y616280D01*
Y616179D01*
X-1399261Y616077D01*
Y615925D01*
X-1399286Y615747D01*
X-1399388Y615340D01*
X-1399515Y614883D01*
X-1399718Y614401D01*
X-1399997Y613893D01*
X-1400175Y613664D01*
X-1400378Y613435D01*
X-1400429Y613385D01*
X-1400505Y613334D01*
X-1400581Y613258D01*
X-1400708Y613156D01*
X-1400861Y613054D01*
X-1401039Y612927D01*
X-1401216Y612800D01*
X-1401445Y612673D01*
X-1401724Y612546D01*
X-1402004Y612419D01*
X-1402309Y612292D01*
X-1402639Y612191D01*
X-1403020Y612089D01*
X-1403401Y612013D01*
X-1403833Y611937D01*
X-1403782Y611911D01*
X-1403680Y611861D01*
X-1403528Y611784D01*
X-1403350Y611683D01*
X-1402918Y611403D01*
X-1402715Y611276D01*
X-1402537Y611124D01*
X-1402486Y611073D01*
X-1402385Y610972D01*
X-1402207Y610768D01*
X-1401953Y610514D01*
X-1401699Y610210D01*
X-1401394Y609829D01*
X-1401064Y609397D01*
X-1400759Y608940D01*
X-1397940Y604520D01*
X-1400632D01*
X-1402766Y607898D01*
Y607924D01*
X-1402817Y607974D01*
X-1402867Y608051D01*
X-1402918Y608152D01*
X-1403096Y608406D01*
X-1403299Y608736D01*
X-1403553Y609092D01*
X-1403807Y609473D01*
X-1404061Y609829D01*
X-1404315Y610133D01*
X-1404341Y610159D01*
X-1404417Y610260D01*
X-1404544Y610387D01*
X-1404671Y610565D01*
X-1405026Y610921D01*
X-1405230Y611099D01*
X-1405407Y611226D01*
X-1405433Y611251D01*
X-1405484Y611276D01*
X-1405585Y611327D01*
X-1405712Y611403D01*
X-1406017Y611556D01*
X-1406398Y611657D01*
X-1406423D01*
X-1406474Y611683D01*
X-1406550D01*
X-1406677Y611708D01*
X-1406855Y611734D01*
X-1407058D01*
X-1407312Y611759D01*
X-1410081D01*
Y604520D01*
X-1412240D01*
Y620801D01*
X-1404671D01*
X-1404493Y620776D01*
D02*
G37*
G36*
X-802411Y-464820D02*
X-804418D01*
Y-452095D01*
X-804443Y-452120D01*
X-804545Y-452222D01*
X-804723Y-452349D01*
X-804926Y-452526D01*
X-805205Y-452730D01*
X-805536Y-452958D01*
X-805917Y-453212D01*
X-806323Y-453466D01*
X-806374Y-453492D01*
X-806526Y-453568D01*
X-806729Y-453695D01*
X-807009Y-453847D01*
X-807339Y-454025D01*
X-807695Y-454203D01*
X-808050Y-454355D01*
X-808406Y-454508D01*
Y-452552D01*
X-808380D01*
X-808330Y-452526D01*
X-808253Y-452476D01*
X-808126Y-452399D01*
X-807974Y-452323D01*
X-807822Y-452247D01*
X-807415Y-452018D01*
X-806983Y-451739D01*
X-806475Y-451409D01*
X-805993Y-451053D01*
X-805510Y-450647D01*
X-805485Y-450621D01*
X-805459Y-450596D01*
X-805307Y-450444D01*
X-805078Y-450240D01*
X-804799Y-449961D01*
X-804520Y-449631D01*
X-804215Y-449250D01*
X-803935Y-448869D01*
X-803707Y-448462D01*
X-802411D01*
Y-464820D01*
D02*
G37*
G36*
X-746506Y1668780D02*
X-748513D01*
Y1681505D01*
X-748538Y1681480D01*
X-748640Y1681378D01*
X-748817Y1681251D01*
X-749021Y1681074D01*
X-749300Y1680870D01*
X-749630Y1680642D01*
X-750011Y1680388D01*
X-750418Y1680134D01*
X-750468Y1680108D01*
X-750621Y1680032D01*
X-750824Y1679905D01*
X-751103Y1679753D01*
X-751434Y1679575D01*
X-751789Y1679397D01*
X-752145Y1679245D01*
X-752500Y1679092D01*
Y1681048D01*
X-752475D01*
X-752424Y1681074D01*
X-752348Y1681124D01*
X-752221Y1681201D01*
X-752069Y1681277D01*
X-751916Y1681353D01*
X-751510Y1681582D01*
X-751078Y1681861D01*
X-750570Y1682191D01*
X-750087Y1682547D01*
X-749605Y1682953D01*
X-749579Y1682979D01*
X-749554Y1683004D01*
X-749402Y1683156D01*
X-749173Y1683360D01*
X-748894Y1683639D01*
X-748614Y1683969D01*
X-748309Y1684350D01*
X-748030Y1684731D01*
X-747801Y1685138D01*
X-746506D01*
Y1668780D01*
D02*
G37*
G36*
X-512242Y-456108D02*
X-511912Y-456159D01*
X-511531Y-456235D01*
X-511124Y-456336D01*
X-510692Y-456463D01*
X-510261Y-456667D01*
X-510235D01*
X-510210Y-456692D01*
X-510083Y-456768D01*
X-509880Y-456895D01*
X-509626Y-457073D01*
X-509346Y-457302D01*
X-509067Y-457581D01*
X-508787Y-457886D01*
X-508559Y-458241D01*
X-508533Y-458292D01*
X-508457Y-458419D01*
X-508356Y-458597D01*
X-508254Y-458851D01*
X-508152Y-459181D01*
X-508051Y-459537D01*
X-507975Y-459918D01*
X-507949Y-460324D01*
Y-460375D01*
Y-460502D01*
X-507975Y-460705D01*
X-508025Y-460959D01*
X-508102Y-461264D01*
X-508203Y-461594D01*
X-508330Y-461924D01*
X-508533Y-462255D01*
X-508559Y-462280D01*
X-508635Y-462407D01*
X-508762Y-462559D01*
X-508940Y-462737D01*
X-509194Y-462966D01*
X-509473Y-463194D01*
X-509803Y-463423D01*
X-510210Y-463626D01*
X-510184D01*
X-510134Y-463652D01*
X-510083D01*
X-509981Y-463702D01*
X-509702Y-463779D01*
X-509397Y-463931D01*
X-509016Y-464109D01*
X-508660Y-464363D01*
X-508305Y-464668D01*
X-507975Y-465023D01*
X-507949Y-465074D01*
X-507848Y-465201D01*
X-507721Y-465430D01*
X-507568Y-465734D01*
X-507416Y-466115D01*
X-507289Y-466573D01*
X-507187Y-467081D01*
X-507162Y-467639D01*
Y-467665D01*
Y-467741D01*
Y-467843D01*
X-507187Y-467995D01*
X-507213Y-468173D01*
X-507238Y-468401D01*
X-507289Y-468630D01*
X-507365Y-468884D01*
X-507543Y-469468D01*
X-507670Y-469748D01*
X-507822Y-470052D01*
X-508000Y-470357D01*
X-508229Y-470662D01*
X-508457Y-470967D01*
X-508737Y-471246D01*
X-508762Y-471272D01*
X-508813Y-471297D01*
X-508889Y-471373D01*
X-509016Y-471475D01*
X-509168Y-471576D01*
X-509346Y-471703D01*
X-509575Y-471856D01*
X-509803Y-471983D01*
X-510083Y-472110D01*
X-510362Y-472262D01*
X-510692Y-472389D01*
X-511048Y-472491D01*
X-511404Y-472592D01*
X-511810Y-472643D01*
X-512216Y-472694D01*
X-512648Y-472719D01*
X-512851D01*
X-513004Y-472694D01*
X-513182Y-472669D01*
X-513385Y-472643D01*
X-513893Y-472567D01*
X-514452Y-472415D01*
X-515036Y-472186D01*
X-515341Y-472034D01*
X-515645Y-471856D01*
X-515925Y-471678D01*
X-516204Y-471449D01*
X-516230Y-471424D01*
X-516255Y-471399D01*
X-516331Y-471322D01*
X-516433Y-471221D01*
X-516534Y-471094D01*
X-516661Y-470941D01*
X-516941Y-470560D01*
X-517220Y-470078D01*
X-517474Y-469519D01*
X-517677Y-468884D01*
X-517754Y-468528D01*
X-517804Y-468147D01*
X-515798Y-467893D01*
Y-467919D01*
X-515772Y-467970D01*
Y-468046D01*
X-515722Y-468173D01*
X-515645Y-468478D01*
X-515518Y-468833D01*
X-515366Y-469240D01*
X-515163Y-469646D01*
X-514934Y-470027D01*
X-514655Y-470332D01*
X-514604Y-470357D01*
X-514502Y-470433D01*
X-514325Y-470560D01*
X-514096Y-470687D01*
X-513791Y-470840D01*
X-513436Y-470941D01*
X-513055Y-471043D01*
X-512623Y-471068D01*
X-512496D01*
X-512394Y-471043D01*
X-512115Y-471018D01*
X-511785Y-470941D01*
X-511404Y-470840D01*
X-511023Y-470662D01*
X-510616Y-470433D01*
X-510235Y-470103D01*
X-510184Y-470052D01*
X-510083Y-469925D01*
X-509930Y-469722D01*
X-509753Y-469417D01*
X-509575Y-469087D01*
X-509422Y-468655D01*
X-509321Y-468198D01*
X-509270Y-467690D01*
Y-467665D01*
Y-467639D01*
Y-467563D01*
X-509295Y-467462D01*
X-509321Y-467208D01*
X-509372Y-466877D01*
X-509499Y-466522D01*
X-509651Y-466141D01*
X-509880Y-465760D01*
X-510184Y-465404D01*
X-510235Y-465353D01*
X-510337Y-465252D01*
X-510540Y-465125D01*
X-510794Y-464947D01*
X-511124Y-464795D01*
X-511531Y-464642D01*
X-511962Y-464541D01*
X-512470Y-464515D01*
X-512699D01*
X-512851Y-464541D01*
X-513055Y-464566D01*
X-513283Y-464591D01*
X-513563Y-464642D01*
X-513867Y-464718D01*
X-513639Y-462966D01*
X-513537D01*
X-513334Y-462991D01*
X-513131D01*
X-512877Y-462966D01*
X-512572Y-462915D01*
X-512216Y-462839D01*
X-511835Y-462712D01*
X-511429Y-462559D01*
X-511048Y-462331D01*
X-510997Y-462305D01*
X-510896Y-462204D01*
X-510718Y-462051D01*
X-510515Y-461823D01*
X-510337Y-461543D01*
X-510159Y-461188D01*
X-510057Y-460756D01*
X-510007Y-460273D01*
Y-460248D01*
Y-460223D01*
Y-460096D01*
X-510057Y-459892D01*
X-510108Y-459638D01*
X-510184Y-459359D01*
X-510337Y-459054D01*
X-510515Y-458749D01*
X-510769Y-458470D01*
X-510794Y-458445D01*
X-510896Y-458343D01*
X-511073Y-458241D01*
X-511277Y-458089D01*
X-511556Y-457962D01*
X-511886Y-457835D01*
X-512267Y-457759D01*
X-512674Y-457733D01*
X-512877D01*
X-513080Y-457759D01*
X-513359Y-457835D01*
X-513664Y-457911D01*
X-513994Y-458038D01*
X-514325Y-458216D01*
X-514629Y-458470D01*
X-514655Y-458495D01*
X-514756Y-458597D01*
X-514883Y-458775D01*
X-515036Y-459029D01*
X-515188Y-459334D01*
X-515366Y-459689D01*
X-515493Y-460146D01*
X-515595Y-460654D01*
X-517601Y-460299D01*
Y-460273D01*
X-517576Y-460197D01*
X-517550Y-460096D01*
X-517525Y-459969D01*
X-517474Y-459791D01*
X-517423Y-459613D01*
X-517271Y-459156D01*
X-517042Y-458648D01*
X-516763Y-458140D01*
X-516382Y-457657D01*
X-515950Y-457200D01*
X-515925Y-457175D01*
X-515899Y-457149D01*
X-515823Y-457098D01*
X-515722Y-457022D01*
X-515595Y-456946D01*
X-515442Y-456844D01*
X-515061Y-456641D01*
X-514604Y-456438D01*
X-514045Y-456260D01*
X-513410Y-456133D01*
X-513080Y-456082D01*
X-512496D01*
X-512242Y-456108D01*
D02*
G37*
G36*
X368085Y-347398D02*
X368367Y-347680D01*
X368508Y-348244D01*
X368931Y-348949D01*
X369354Y-349795D01*
X369918Y-350782D01*
X371328Y-353178D01*
X372878Y-355998D01*
X374852Y-358817D01*
X377107Y-361777D01*
X379504Y-364738D01*
X379645Y-364879D01*
X379786Y-365020D01*
X380209Y-365442D01*
X380632Y-366006D01*
X382041Y-367275D01*
X383733Y-368967D01*
X385707Y-370658D01*
X387962Y-372491D01*
X390218Y-374042D01*
X392614Y-375451D01*
Y-383205D01*
X294640D01*
Y-371222D01*
X370905D01*
X370764Y-371081D01*
X370200Y-370376D01*
X369354Y-369531D01*
X368367Y-368121D01*
X367099Y-366570D01*
X365689Y-364597D01*
X364138Y-362341D01*
X362588Y-359804D01*
Y-359663D01*
X362447Y-359522D01*
X361883Y-358676D01*
X361178Y-357266D01*
X360332Y-355575D01*
X359345Y-353601D01*
X358358Y-351486D01*
X357372Y-349372D01*
X356526Y-347257D01*
X368085D01*
Y-347398D01*
D02*
G37*
G36*
X-914298Y329438D02*
Y329413D01*
Y329336D01*
Y329209D01*
Y329032D01*
X-914324Y328828D01*
Y328574D01*
X-914349Y328320D01*
X-914375Y328016D01*
X-914425Y327406D01*
X-914527Y326746D01*
X-914679Y326111D01*
X-914857Y325526D01*
Y325501D01*
X-914883Y325476D01*
X-914908Y325399D01*
X-914959Y325298D01*
X-915111Y325018D01*
X-915314Y324714D01*
X-915594Y324333D01*
X-915949Y323952D01*
X-916356Y323545D01*
X-916864Y323190D01*
X-916889D01*
X-916940Y323164D01*
X-917016Y323113D01*
X-917118Y323063D01*
X-917270Y322986D01*
X-917448Y322910D01*
X-917651Y322834D01*
X-917880Y322758D01*
X-918134Y322656D01*
X-918439Y322580D01*
X-918743Y322504D01*
X-919074Y322453D01*
X-919836Y322351D01*
X-920674Y322301D01*
X-920902D01*
X-921055Y322326D01*
X-921258D01*
X-921487Y322351D01*
X-921715Y322377D01*
X-921995Y322402D01*
X-922604Y322504D01*
X-923214Y322631D01*
X-923849Y322834D01*
X-924433Y323088D01*
X-924458D01*
X-924484Y323113D01*
X-924560Y323164D01*
X-924662Y323240D01*
X-924916Y323418D01*
X-925220Y323672D01*
X-925576Y323977D01*
X-925906Y324383D01*
X-926236Y324841D01*
X-926490Y325349D01*
Y325374D01*
X-926516Y325425D01*
X-926541Y325501D01*
X-926592Y325628D01*
X-926643Y325780D01*
X-926694Y325958D01*
X-926744Y326187D01*
X-926795Y326415D01*
X-926846Y326695D01*
X-926897Y327000D01*
X-926948Y327330D01*
X-926998Y327711D01*
X-927049Y328092D01*
X-927075Y328524D01*
X-927100Y328955D01*
Y329438D01*
Y338861D01*
X-924941D01*
Y329438D01*
Y329413D01*
Y329336D01*
Y329235D01*
Y329082D01*
Y328930D01*
X-924916Y328727D01*
X-924890Y328270D01*
X-924839Y327762D01*
X-924789Y327228D01*
X-924687Y326746D01*
X-924636Y326517D01*
X-924560Y326314D01*
X-924535Y326263D01*
X-924484Y326136D01*
X-924382Y325958D01*
X-924230Y325730D01*
X-924052Y325501D01*
X-923823Y325222D01*
X-923544Y324993D01*
X-923214Y324764D01*
X-923163Y324739D01*
X-923036Y324688D01*
X-922833Y324587D01*
X-922553Y324510D01*
X-922223Y324409D01*
X-921817Y324307D01*
X-921360Y324256D01*
X-920852Y324231D01*
X-920623D01*
X-920471Y324256D01*
X-920267D01*
X-920039Y324282D01*
X-919531Y324358D01*
X-918997Y324485D01*
X-918439Y324688D01*
X-917905Y324942D01*
X-917677Y325120D01*
X-917473Y325298D01*
Y325323D01*
X-917423Y325349D01*
X-917372Y325425D01*
X-917321Y325501D01*
X-917245Y325628D01*
X-917143Y325806D01*
X-917067Y325984D01*
X-916965Y326212D01*
X-916864Y326466D01*
X-916788Y326771D01*
X-916686Y327127D01*
X-916610Y327508D01*
X-916559Y327914D01*
X-916508Y328371D01*
X-916457Y328879D01*
Y329438D01*
Y338861D01*
X-914298D01*
Y329438D01*
D02*
G37*
G36*
X-520598Y-465582D02*
Y-465607D01*
Y-465684D01*
Y-465811D01*
Y-465988D01*
X-520624Y-466192D01*
Y-466446D01*
X-520649Y-466700D01*
X-520675Y-467004D01*
X-520725Y-467614D01*
X-520827Y-468274D01*
X-520979Y-468909D01*
X-521157Y-469494D01*
Y-469519D01*
X-521183Y-469544D01*
X-521208Y-469621D01*
X-521259Y-469722D01*
X-521411Y-470002D01*
X-521614Y-470306D01*
X-521894Y-470687D01*
X-522249Y-471068D01*
X-522656Y-471475D01*
X-523164Y-471830D01*
X-523189D01*
X-523240Y-471856D01*
X-523316Y-471907D01*
X-523418Y-471957D01*
X-523570Y-472034D01*
X-523748Y-472110D01*
X-523951Y-472186D01*
X-524180Y-472262D01*
X-524434Y-472364D01*
X-524739Y-472440D01*
X-525043Y-472516D01*
X-525374Y-472567D01*
X-526136Y-472669D01*
X-526974Y-472719D01*
X-527202D01*
X-527355Y-472694D01*
X-527558D01*
X-527787Y-472669D01*
X-528015Y-472643D01*
X-528295Y-472618D01*
X-528904Y-472516D01*
X-529514Y-472389D01*
X-530149Y-472186D01*
X-530733Y-471932D01*
X-530758D01*
X-530784Y-471907D01*
X-530860Y-471856D01*
X-530962Y-471780D01*
X-531216Y-471602D01*
X-531520Y-471348D01*
X-531876Y-471043D01*
X-532206Y-470637D01*
X-532536Y-470179D01*
X-532790Y-469671D01*
Y-469646D01*
X-532816Y-469595D01*
X-532841Y-469519D01*
X-532892Y-469392D01*
X-532943Y-469240D01*
X-532994Y-469062D01*
X-533044Y-468833D01*
X-533095Y-468605D01*
X-533146Y-468325D01*
X-533197Y-468020D01*
X-533248Y-467690D01*
X-533298Y-467309D01*
X-533349Y-466928D01*
X-533375Y-466496D01*
X-533400Y-466065D01*
Y-465582D01*
Y-456159D01*
X-531241D01*
Y-465582D01*
Y-465607D01*
Y-465684D01*
Y-465785D01*
Y-465938D01*
Y-466090D01*
X-531216Y-466293D01*
X-531190Y-466750D01*
X-531139Y-467258D01*
X-531089Y-467792D01*
X-530987Y-468274D01*
X-530936Y-468503D01*
X-530860Y-468706D01*
X-530835Y-468757D01*
X-530784Y-468884D01*
X-530682Y-469062D01*
X-530530Y-469290D01*
X-530352Y-469519D01*
X-530123Y-469798D01*
X-529844Y-470027D01*
X-529514Y-470256D01*
X-529463Y-470281D01*
X-529336Y-470332D01*
X-529133Y-470433D01*
X-528853Y-470510D01*
X-528523Y-470611D01*
X-528117Y-470713D01*
X-527660Y-470764D01*
X-527152Y-470789D01*
X-526923D01*
X-526771Y-470764D01*
X-526567D01*
X-526339Y-470738D01*
X-525831Y-470662D01*
X-525297Y-470535D01*
X-524739Y-470332D01*
X-524205Y-470078D01*
X-523977Y-469900D01*
X-523773Y-469722D01*
Y-469697D01*
X-523723Y-469671D01*
X-523672Y-469595D01*
X-523621Y-469519D01*
X-523545Y-469392D01*
X-523443Y-469214D01*
X-523367Y-469036D01*
X-523265Y-468808D01*
X-523164Y-468554D01*
X-523088Y-468249D01*
X-522986Y-467893D01*
X-522910Y-467512D01*
X-522859Y-467106D01*
X-522808Y-466649D01*
X-522757Y-466141D01*
Y-465582D01*
Y-456159D01*
X-520598D01*
Y-465582D01*
D02*
G37*
G36*
X392191Y-287909D02*
Y-288050D01*
Y-288473D01*
Y-289178D01*
Y-290024D01*
X392050Y-291151D01*
Y-292420D01*
X391909Y-295380D01*
X391486Y-298482D01*
X391063Y-301865D01*
X390359Y-304966D01*
X389936Y-306517D01*
X389513Y-307786D01*
Y-307927D01*
X389372Y-308068D01*
X388949Y-308914D01*
X388385Y-310182D01*
X387398Y-311733D01*
X386130Y-313425D01*
X384438Y-315257D01*
X382464Y-316949D01*
X380209Y-318640D01*
X380068D01*
X379927Y-318781D01*
X379081Y-319345D01*
X377671Y-319909D01*
X375839Y-320755D01*
X373724Y-321460D01*
X371187Y-322165D01*
X368508Y-322588D01*
X365548Y-322729D01*
X364561D01*
X363856Y-322588D01*
X362869D01*
X361883Y-322447D01*
X359486Y-321883D01*
X356667Y-321037D01*
X353706Y-319909D01*
X350746Y-318218D01*
X349336Y-317090D01*
X347927Y-315962D01*
X347786Y-315821D01*
X347645Y-315680D01*
X347222Y-315257D01*
X346799Y-314693D01*
X346235Y-313988D01*
X345671Y-313143D01*
X344966Y-312015D01*
X344120Y-310887D01*
X343416Y-309477D01*
X342711Y-307927D01*
X341865Y-306235D01*
X341160Y-304402D01*
X340596Y-302288D01*
X339891Y-300173D01*
X339468Y-297777D01*
X339046Y-295239D01*
X338905Y-295521D01*
X338623Y-296085D01*
X338059Y-296931D01*
X337495Y-298059D01*
X335944Y-300596D01*
X334957Y-301865D01*
X334112Y-302993D01*
X333830Y-303275D01*
X333125Y-303980D01*
X331997Y-305107D01*
X330587Y-306517D01*
X328614Y-308068D01*
X326499Y-309900D01*
X323962Y-311733D01*
X321142Y-313707D01*
X294640Y-330482D01*
Y-314411D01*
X314940Y-301583D01*
X315081D01*
X315363Y-301301D01*
X315786Y-301019D01*
X316349Y-300596D01*
X317900Y-299610D01*
X319874Y-298341D01*
X321988Y-296790D01*
X324244Y-295239D01*
X326358Y-293689D01*
X328332Y-292279D01*
X328473Y-292138D01*
X329037Y-291715D01*
X329882Y-291010D01*
X330869Y-290024D01*
X332984Y-287909D01*
X333971Y-286781D01*
X334816Y-285653D01*
X334957Y-285513D01*
X335098Y-285231D01*
X335380Y-284667D01*
X335803Y-283821D01*
X336226Y-282975D01*
X336649Y-281988D01*
X337354Y-279733D01*
Y-279592D01*
X337495Y-279310D01*
Y-278746D01*
X337636Y-278041D01*
X337777Y-277054D01*
Y-275927D01*
X337918Y-274376D01*
Y-272684D01*
Y-257741D01*
X294640D01*
Y-244772D01*
X392191D01*
Y-287909D01*
D02*
G37*
G36*
X292950Y2017650D02*
X295769Y2017509D01*
X298588Y2017227D01*
X301408Y2016804D01*
X303804Y2016382D01*
X303945D01*
X304227Y2016241D01*
X304650D01*
X305214Y2015959D01*
X306765Y2015536D01*
X308738Y2014831D01*
X310994Y2013844D01*
X313390Y2012575D01*
X315787Y2011166D01*
X318042Y2009333D01*
X318183Y2009192D01*
X318324Y2009051D01*
X318747Y2008628D01*
X319311Y2008205D01*
X320721Y2006796D01*
X322412Y2004822D01*
X324245Y2002426D01*
X326219Y1999606D01*
X328051Y1996364D01*
X329602Y1992699D01*
Y1992558D01*
X329743Y1992276D01*
X330025Y1991712D01*
X330166Y1990866D01*
X330589Y1989879D01*
X330871Y1988751D01*
X331153Y1987483D01*
X331575Y1985932D01*
X331998Y1984381D01*
X332280Y1982549D01*
X332985Y1978602D01*
X333408Y1974232D01*
X333549Y1969439D01*
Y1969298D01*
Y1969016D01*
Y1968311D01*
Y1967606D01*
X333408Y1966619D01*
Y1965491D01*
X333267Y1962813D01*
X332844Y1959712D01*
X332421Y1956469D01*
X331716Y1953086D01*
X330871Y1949703D01*
Y1949562D01*
X330730Y1949280D01*
X330589Y1948857D01*
X330448Y1948293D01*
X329884Y1946742D01*
X329038Y1944769D01*
X328192Y1942513D01*
X327064Y1940258D01*
X325655Y1937861D01*
X324245Y1935606D01*
X324104Y1935324D01*
X323540Y1934619D01*
X322694Y1933632D01*
X321567Y1932363D01*
X320298Y1930954D01*
X318747Y1929544D01*
X317196Y1927993D01*
X315364Y1926725D01*
X315082Y1926584D01*
X314518Y1926161D01*
X313531Y1925597D01*
X312122Y1924892D01*
X310430Y1924046D01*
X308456Y1923341D01*
X306201Y1922496D01*
X303663Y1921791D01*
X303381D01*
X302958Y1921650D01*
X302536Y1921509D01*
X301126Y1921368D01*
X299152Y1921086D01*
X296897Y1920804D01*
X294218Y1920522D01*
X291258Y1920381D01*
X288016Y1920240D01*
X252914D01*
Y2017791D01*
X290412D01*
X292950Y2017650D01*
D02*
G37*
G36*
X392191Y-61229D02*
X352156D01*
Y-111696D01*
X392191D01*
Y-124666D01*
X294640D01*
Y-111696D01*
X340596D01*
Y-61229D01*
X294640D01*
Y-48260D01*
X392191D01*
Y-61229D01*
D02*
G37*
G36*
X397831Y2017650D02*
X399100D01*
X402060Y2017509D01*
X405162Y2017086D01*
X408545Y2016663D01*
X411646Y2015959D01*
X413197Y2015536D01*
X414466Y2015113D01*
X414607D01*
X414748Y2014972D01*
X415594Y2014549D01*
X416862Y2013985D01*
X418413Y2012998D01*
X420105Y2011730D01*
X421937Y2010038D01*
X423629Y2008064D01*
X425320Y2005809D01*
Y2005668D01*
X425461Y2005527D01*
X426025Y2004681D01*
X426589Y2003271D01*
X427435Y2001439D01*
X428140Y1999324D01*
X428845Y1996787D01*
X429268Y1994108D01*
X429409Y1991148D01*
Y1991007D01*
Y1990725D01*
Y1990161D01*
X429268Y1989456D01*
Y1988469D01*
X429127Y1987483D01*
X428563Y1985086D01*
X427717Y1982267D01*
X426589Y1979306D01*
X424898Y1976346D01*
X423770Y1974936D01*
X422642Y1973527D01*
X422501Y1973386D01*
X422360Y1973245D01*
X421937Y1972822D01*
X421373Y1972399D01*
X420668Y1971835D01*
X419823Y1971271D01*
X418695Y1970566D01*
X417567Y1969720D01*
X416157Y1969016D01*
X414607Y1968311D01*
X412915Y1967465D01*
X411082Y1966760D01*
X408968Y1966196D01*
X406853Y1965491D01*
X404457Y1965068D01*
X401919Y1964646D01*
X402201Y1964505D01*
X402765Y1964223D01*
X403611Y1963659D01*
X404739Y1963095D01*
X407276Y1961544D01*
X408545Y1960557D01*
X409673Y1959712D01*
X409955Y1959430D01*
X410660Y1958725D01*
X411787Y1957597D01*
X413197Y1956187D01*
X414748Y1954214D01*
X416580Y1952099D01*
X418413Y1949562D01*
X420387Y1946742D01*
X437162Y1920240D01*
X421091D01*
X408263Y1940540D01*
Y1940681D01*
X407981Y1940963D01*
X407699Y1941385D01*
X407276Y1941949D01*
X406290Y1943500D01*
X405021Y1945474D01*
X403470Y1947588D01*
X401919Y1949844D01*
X400369Y1951958D01*
X398959Y1953932D01*
X398818Y1954073D01*
X398395Y1954637D01*
X397690Y1955482D01*
X396704Y1956469D01*
X394589Y1958584D01*
X393461Y1959571D01*
X392333Y1960416D01*
X392193Y1960557D01*
X391911Y1960698D01*
X391347Y1960980D01*
X390501Y1961403D01*
X389655Y1961826D01*
X388668Y1962249D01*
X386413Y1962954D01*
X386272D01*
X385990Y1963095D01*
X385426D01*
X384721Y1963236D01*
X383734Y1963377D01*
X382607D01*
X381056Y1963518D01*
X364421D01*
Y1920240D01*
X351452D01*
Y2017791D01*
X396704D01*
X397831Y2017650D01*
D02*
G37*
G36*
X392191Y-179785D02*
Y-179926D01*
Y-180349D01*
Y-180913D01*
Y-181618D01*
Y-182604D01*
Y-183732D01*
X392050Y-186270D01*
X391909Y-189089D01*
X391627Y-191908D01*
X391204Y-194728D01*
X390782Y-197124D01*
Y-197265D01*
X390641Y-197547D01*
Y-197970D01*
X390359Y-198534D01*
X389936Y-200085D01*
X389231Y-202058D01*
X388244Y-204314D01*
X386975Y-206710D01*
X385566Y-209107D01*
X383733Y-211362D01*
X383592Y-211503D01*
X383451Y-211644D01*
X383028Y-212067D01*
X382605Y-212631D01*
X381196Y-214041D01*
X379222Y-215732D01*
X376826Y-217565D01*
X374006Y-219539D01*
X370764Y-221371D01*
X367099Y-222922D01*
X366958D01*
X366676Y-223063D01*
X366112Y-223345D01*
X365266Y-223486D01*
X364279Y-223909D01*
X363151Y-224191D01*
X361883Y-224472D01*
X360332Y-224895D01*
X358781Y-225318D01*
X356949Y-225600D01*
X353002Y-226305D01*
X348632Y-226728D01*
X343839Y-226869D01*
X342006D01*
X341019Y-226728D01*
X339891D01*
X337213Y-226587D01*
X334112Y-226164D01*
X330869Y-225741D01*
X327486Y-225036D01*
X324103Y-224191D01*
X323962D01*
X323680Y-224050D01*
X323257Y-223909D01*
X322693Y-223768D01*
X321142Y-223204D01*
X319169Y-222358D01*
X316913Y-221512D01*
X314658Y-220384D01*
X312261Y-218975D01*
X310006Y-217565D01*
X309724Y-217424D01*
X309019Y-216860D01*
X308032Y-216014D01*
X306763Y-214887D01*
X305354Y-213618D01*
X303944Y-212067D01*
X302393Y-210516D01*
X301125Y-208684D01*
X300984Y-208402D01*
X300561Y-207838D01*
X299997Y-206851D01*
X299292Y-205442D01*
X298446Y-203750D01*
X297741Y-201776D01*
X296896Y-199521D01*
X296191Y-196983D01*
Y-196842D01*
Y-196701D01*
X296050Y-196279D01*
X295909Y-195856D01*
X295768Y-194446D01*
X295486Y-192472D01*
X295204Y-190217D01*
X294922Y-187538D01*
X294781Y-184578D01*
X294640Y-181336D01*
Y-146234D01*
X392191D01*
Y-179785D01*
D02*
G37*
G36*
X-904011Y322580D02*
X-906018D01*
Y335305D01*
X-906043Y335280D01*
X-906145Y335178D01*
X-906323Y335051D01*
X-906526Y334874D01*
X-906805Y334670D01*
X-907136Y334442D01*
X-907517Y334188D01*
X-907923Y333934D01*
X-907974Y333908D01*
X-908126Y333832D01*
X-908329Y333705D01*
X-908609Y333553D01*
X-908939Y333375D01*
X-909295Y333197D01*
X-909650Y333045D01*
X-910006Y332892D01*
Y334848D01*
X-909980D01*
X-909930Y334874D01*
X-909853Y334924D01*
X-909726Y335001D01*
X-909574Y335077D01*
X-909422Y335153D01*
X-909015Y335382D01*
X-908583Y335661D01*
X-908075Y335991D01*
X-907593Y336347D01*
X-907110Y336753D01*
X-907085Y336779D01*
X-907059Y336804D01*
X-906907Y336956D01*
X-906678Y337160D01*
X-906399Y337439D01*
X-906120Y337769D01*
X-905815Y338150D01*
X-905535Y338531D01*
X-905307Y338938D01*
X-904011D01*
Y322580D01*
D02*
G37*
G36*
X-1427353Y-70104D02*
X-1427150D01*
X-1426667Y-70129D01*
X-1426134Y-70180D01*
X-1425600Y-70282D01*
X-1425067Y-70383D01*
X-1424610Y-70536D01*
X-1424584D01*
X-1424559Y-70561D01*
X-1424432Y-70612D01*
X-1424203Y-70739D01*
X-1423949Y-70891D01*
X-1423670Y-71095D01*
X-1423365Y-71374D01*
X-1423060Y-71704D01*
X-1422781Y-72085D01*
X-1422756Y-72136D01*
X-1422679Y-72288D01*
X-1422552Y-72492D01*
X-1422425Y-72796D01*
X-1422324Y-73152D01*
X-1422197Y-73584D01*
X-1422121Y-74041D01*
X-1422095Y-74524D01*
Y-74549D01*
Y-74600D01*
Y-74701D01*
X-1422121Y-74803D01*
Y-74955D01*
X-1422146Y-75133D01*
X-1422248Y-75540D01*
X-1422375Y-75997D01*
X-1422578Y-76479D01*
X-1422857Y-76987D01*
X-1423035Y-77216D01*
X-1423238Y-77445D01*
X-1423289Y-77495D01*
X-1423365Y-77546D01*
X-1423441Y-77622D01*
X-1423568Y-77724D01*
X-1423721Y-77826D01*
X-1423899Y-77953D01*
X-1424076Y-78080D01*
X-1424305Y-78207D01*
X-1424584Y-78334D01*
X-1424864Y-78461D01*
X-1425169Y-78588D01*
X-1425499Y-78689D01*
X-1425880Y-78791D01*
X-1426261Y-78867D01*
X-1426693Y-78943D01*
X-1426642Y-78969D01*
X-1426540Y-79019D01*
X-1426388Y-79096D01*
X-1426210Y-79197D01*
X-1425778Y-79477D01*
X-1425575Y-79604D01*
X-1425397Y-79756D01*
X-1425346Y-79807D01*
X-1425245Y-79908D01*
X-1425067Y-80112D01*
X-1424813Y-80366D01*
X-1424559Y-80670D01*
X-1424254Y-81051D01*
X-1423924Y-81483D01*
X-1423619Y-81940D01*
X-1420800Y-86360D01*
X-1423492D01*
X-1425626Y-82982D01*
Y-82956D01*
X-1425677Y-82906D01*
X-1425727Y-82829D01*
X-1425778Y-82728D01*
X-1425956Y-82474D01*
X-1426159Y-82144D01*
X-1426413Y-81788D01*
X-1426667Y-81407D01*
X-1426921Y-81051D01*
X-1427175Y-80747D01*
X-1427201Y-80721D01*
X-1427277Y-80620D01*
X-1427404Y-80493D01*
X-1427531Y-80315D01*
X-1427886Y-79959D01*
X-1428090Y-79781D01*
X-1428267Y-79654D01*
X-1428293Y-79629D01*
X-1428344Y-79604D01*
X-1428445Y-79553D01*
X-1428572Y-79477D01*
X-1428877Y-79324D01*
X-1429258Y-79223D01*
X-1429283D01*
X-1429334Y-79197D01*
X-1429410D01*
X-1429537Y-79172D01*
X-1429715Y-79146D01*
X-1429918D01*
X-1430172Y-79121D01*
X-1432941D01*
Y-86360D01*
X-1435100D01*
Y-70079D01*
X-1427531D01*
X-1427353Y-70104D01*
D02*
G37*
G36*
X-1360322Y-306705D02*
X-1358113D01*
Y-308534D01*
X-1360322D01*
Y-312420D01*
X-1362329D01*
Y-308534D01*
X-1369416D01*
Y-306705D01*
X-1361948Y-296139D01*
X-1360322D01*
Y-306705D01*
D02*
G37*
G36*
X-1376553Y-296164D02*
X-1376350D01*
X-1375867Y-296189D01*
X-1375334Y-296240D01*
X-1374800Y-296342D01*
X-1374267Y-296443D01*
X-1373810Y-296596D01*
X-1373784D01*
X-1373759Y-296621D01*
X-1373632Y-296672D01*
X-1373403Y-296799D01*
X-1373149Y-296951D01*
X-1372870Y-297155D01*
X-1372565Y-297434D01*
X-1372260Y-297764D01*
X-1371981Y-298145D01*
X-1371956Y-298196D01*
X-1371879Y-298348D01*
X-1371752Y-298552D01*
X-1371625Y-298856D01*
X-1371524Y-299212D01*
X-1371397Y-299644D01*
X-1371321Y-300101D01*
X-1371295Y-300584D01*
Y-300609D01*
Y-300660D01*
Y-300761D01*
X-1371321Y-300863D01*
Y-301015D01*
X-1371346Y-301193D01*
X-1371448Y-301600D01*
X-1371575Y-302057D01*
X-1371778Y-302539D01*
X-1372057Y-303047D01*
X-1372235Y-303276D01*
X-1372438Y-303505D01*
X-1372489Y-303555D01*
X-1372565Y-303606D01*
X-1372641Y-303682D01*
X-1372768Y-303784D01*
X-1372921Y-303886D01*
X-1373099Y-304013D01*
X-1373276Y-304140D01*
X-1373505Y-304267D01*
X-1373784Y-304394D01*
X-1374064Y-304521D01*
X-1374369Y-304648D01*
X-1374699Y-304749D01*
X-1375080Y-304851D01*
X-1375461Y-304927D01*
X-1375893Y-305003D01*
X-1375842Y-305029D01*
X-1375740Y-305079D01*
X-1375588Y-305156D01*
X-1375410Y-305257D01*
X-1374978Y-305537D01*
X-1374775Y-305664D01*
X-1374597Y-305816D01*
X-1374546Y-305867D01*
X-1374445Y-305968D01*
X-1374267Y-306172D01*
X-1374013Y-306426D01*
X-1373759Y-306730D01*
X-1373454Y-307111D01*
X-1373124Y-307543D01*
X-1372819Y-308000D01*
X-1370000Y-312420D01*
X-1372692D01*
X-1374826Y-309042D01*
Y-309016D01*
X-1374877Y-308966D01*
X-1374927Y-308889D01*
X-1374978Y-308788D01*
X-1375156Y-308534D01*
X-1375359Y-308204D01*
X-1375613Y-307848D01*
X-1375867Y-307467D01*
X-1376121Y-307111D01*
X-1376375Y-306807D01*
X-1376401Y-306781D01*
X-1376477Y-306680D01*
X-1376604Y-306553D01*
X-1376731Y-306375D01*
X-1377086Y-306019D01*
X-1377290Y-305841D01*
X-1377467Y-305714D01*
X-1377493Y-305689D01*
X-1377544Y-305664D01*
X-1377645Y-305613D01*
X-1377772Y-305537D01*
X-1378077Y-305384D01*
X-1378458Y-305283D01*
X-1378483D01*
X-1378534Y-305257D01*
X-1378610D01*
X-1378737Y-305232D01*
X-1378915Y-305206D01*
X-1379118D01*
X-1379372Y-305181D01*
X-1382141D01*
Y-312420D01*
X-1384300D01*
Y-296139D01*
X-1376731D01*
X-1376553Y-296164D01*
D02*
G37*
G36*
X-1409497Y-72187D02*
X-1415999D01*
X-1416888Y-76581D01*
X-1416863D01*
X-1416812Y-76530D01*
X-1416736Y-76479D01*
X-1416634Y-76429D01*
X-1416507Y-76352D01*
X-1416329Y-76251D01*
X-1415948Y-76073D01*
X-1415491Y-75895D01*
X-1414958Y-75717D01*
X-1414399Y-75616D01*
X-1413815Y-75565D01*
X-1413612D01*
X-1413459Y-75590D01*
X-1413281Y-75616D01*
X-1413053Y-75641D01*
X-1412824Y-75692D01*
X-1412570Y-75743D01*
X-1411986Y-75921D01*
X-1411707Y-76048D01*
X-1411402Y-76200D01*
X-1411097Y-76378D01*
X-1410792Y-76556D01*
X-1410487Y-76810D01*
X-1410208Y-77064D01*
X-1410183Y-77089D01*
X-1410132Y-77140D01*
X-1410081Y-77216D01*
X-1409979Y-77318D01*
X-1409878Y-77470D01*
X-1409751Y-77648D01*
X-1409598Y-77851D01*
X-1409471Y-78080D01*
X-1409344Y-78359D01*
X-1409192Y-78638D01*
X-1408963Y-79273D01*
X-1408862Y-79629D01*
X-1408786Y-80010D01*
X-1408760Y-80416D01*
X-1408735Y-80848D01*
Y-80874D01*
Y-80950D01*
Y-81051D01*
X-1408760Y-81229D01*
X-1408786Y-81407D01*
X-1408811Y-81636D01*
X-1408836Y-81890D01*
X-1408887Y-82144D01*
X-1409040Y-82753D01*
X-1409268Y-83388D01*
X-1409421Y-83718D01*
X-1409598Y-84049D01*
X-1409802Y-84379D01*
X-1410030Y-84684D01*
X-1410056Y-84709D01*
X-1410106Y-84760D01*
X-1410183Y-84861D01*
X-1410310Y-84988D01*
X-1410487Y-85141D01*
X-1410665Y-85293D01*
X-1410894Y-85471D01*
X-1411148Y-85649D01*
X-1411453Y-85852D01*
X-1411757Y-86030D01*
X-1412113Y-86182D01*
X-1412494Y-86335D01*
X-1412926Y-86462D01*
X-1413358Y-86563D01*
X-1413815Y-86614D01*
X-1414323Y-86639D01*
X-1414526D01*
X-1414678Y-86614D01*
X-1414882Y-86589D01*
X-1415085Y-86563D01*
X-1415339Y-86538D01*
X-1415593Y-86487D01*
X-1416177Y-86335D01*
X-1416787Y-86106D01*
X-1417091Y-85979D01*
X-1417396Y-85801D01*
X-1417676Y-85623D01*
X-1417955Y-85395D01*
X-1417980Y-85369D01*
X-1418006Y-85344D01*
X-1418082Y-85268D01*
X-1418184Y-85166D01*
X-1418285Y-85039D01*
X-1418412Y-84887D01*
X-1418666Y-84506D01*
X-1418946Y-84049D01*
X-1419200Y-83464D01*
X-1419403Y-82829D01*
X-1419479Y-82474D01*
X-1419530Y-82093D01*
X-1417422Y-81940D01*
Y-81966D01*
Y-82017D01*
X-1417396Y-82093D01*
X-1417371Y-82194D01*
X-1417295Y-82474D01*
X-1417193Y-82804D01*
X-1417066Y-83160D01*
X-1416863Y-83541D01*
X-1416634Y-83896D01*
X-1416355Y-84226D01*
X-1416304Y-84252D01*
X-1416202Y-84353D01*
X-1416025Y-84455D01*
X-1415771Y-84607D01*
X-1415491Y-84734D01*
X-1415136Y-84861D01*
X-1414729Y-84963D01*
X-1414297Y-84988D01*
X-1414145D01*
X-1414043Y-84963D01*
X-1413789Y-84938D01*
X-1413434Y-84861D01*
X-1413053Y-84734D01*
X-1412646Y-84531D01*
X-1412215Y-84277D01*
X-1411834Y-83922D01*
Y-83896D01*
X-1411783Y-83871D01*
X-1411681Y-83718D01*
X-1411529Y-83490D01*
X-1411326Y-83160D01*
X-1411148Y-82728D01*
X-1410995Y-82245D01*
X-1410894Y-81661D01*
X-1410843Y-81026D01*
Y-81001D01*
Y-80950D01*
Y-80848D01*
X-1410868Y-80747D01*
Y-80594D01*
X-1410894Y-80416D01*
X-1410970Y-80035D01*
X-1411072Y-79604D01*
X-1411249Y-79146D01*
X-1411478Y-78715D01*
X-1411808Y-78308D01*
X-1411859Y-78257D01*
X-1411986Y-78156D01*
X-1412189Y-78003D01*
X-1412494Y-77800D01*
X-1412850Y-77622D01*
X-1413281Y-77470D01*
X-1413789Y-77368D01*
X-1414348Y-77318D01*
X-1414501D01*
X-1414704Y-77343D01*
X-1414932Y-77368D01*
X-1415212Y-77419D01*
X-1415491Y-77521D01*
X-1415796Y-77622D01*
X-1416101Y-77775D01*
X-1416126Y-77800D01*
X-1416228Y-77851D01*
X-1416355Y-77953D01*
X-1416533Y-78080D01*
X-1416736Y-78257D01*
X-1416914Y-78461D01*
X-1417117Y-78664D01*
X-1417295Y-78918D01*
X-1419174Y-78664D01*
X-1417599Y-70282D01*
X-1409497D01*
Y-72187D01*
D02*
G37*
G36*
X-1308379Y1785620D02*
X-1310386D01*
Y1798345D01*
X-1310411Y1798320D01*
X-1310513Y1798218D01*
X-1310691Y1798091D01*
X-1310894Y1797914D01*
X-1311173Y1797710D01*
X-1311504Y1797482D01*
X-1311885Y1797228D01*
X-1312291Y1796974D01*
X-1312342Y1796948D01*
X-1312494Y1796872D01*
X-1312697Y1796745D01*
X-1312977Y1796593D01*
X-1313307Y1796415D01*
X-1313663Y1796237D01*
X-1314018Y1796085D01*
X-1314374Y1795932D01*
Y1797888D01*
X-1314348D01*
X-1314298Y1797914D01*
X-1314221Y1797964D01*
X-1314094Y1798041D01*
X-1313942Y1798117D01*
X-1313790Y1798193D01*
X-1313383Y1798422D01*
X-1312951Y1798701D01*
X-1312443Y1799031D01*
X-1311961Y1799387D01*
X-1311478Y1799793D01*
X-1311453Y1799819D01*
X-1311427Y1799844D01*
X-1311275Y1799996D01*
X-1311046Y1800200D01*
X-1310767Y1800479D01*
X-1310488Y1800809D01*
X-1310183Y1801190D01*
X-1309903Y1801571D01*
X-1309675Y1801978D01*
X-1308379D01*
Y1785620D01*
D02*
G37*
G36*
X-1324204Y1802155D02*
X-1324026D01*
X-1323594Y1802105D01*
X-1323086Y1802028D01*
X-1322553Y1801927D01*
X-1322019Y1801800D01*
X-1321486Y1801597D01*
X-1321460D01*
X-1321435Y1801571D01*
X-1321359Y1801546D01*
X-1321257Y1801495D01*
X-1321003Y1801343D01*
X-1320698Y1801165D01*
X-1320343Y1800911D01*
X-1319987Y1800631D01*
X-1319657Y1800276D01*
X-1319352Y1799869D01*
X-1319327Y1799819D01*
X-1319225Y1799666D01*
X-1319124Y1799438D01*
X-1318971Y1799133D01*
X-1318819Y1798752D01*
X-1318692Y1798320D01*
X-1318590Y1797837D01*
X-1318539Y1797329D01*
X-1320597Y1797177D01*
Y1797202D01*
Y1797253D01*
X-1320622Y1797329D01*
X-1320648Y1797431D01*
X-1320698Y1797685D01*
X-1320800Y1798015D01*
X-1320952Y1798396D01*
X-1321156Y1798777D01*
X-1321410Y1799133D01*
X-1321740Y1799463D01*
X-1321791Y1799488D01*
X-1321918Y1799590D01*
X-1322146Y1799717D01*
X-1322451Y1799869D01*
X-1322832Y1799996D01*
X-1323315Y1800123D01*
X-1323899Y1800225D01*
X-1324559Y1800250D01*
X-1324864D01*
X-1325042Y1800225D01*
X-1325220D01*
X-1325626Y1800149D01*
X-1326083Y1800073D01*
X-1326566Y1799946D01*
X-1326998Y1799768D01*
X-1327379Y1799514D01*
X-1327404Y1799488D01*
X-1327506Y1799387D01*
X-1327658Y1799234D01*
X-1327810Y1799031D01*
X-1327988Y1798777D01*
X-1328115Y1798498D01*
X-1328217Y1798142D01*
X-1328268Y1797787D01*
Y1797761D01*
Y1797634D01*
X-1328242Y1797482D01*
X-1328191Y1797279D01*
X-1328115Y1797050D01*
X-1328014Y1796821D01*
X-1327861Y1796593D01*
X-1327658Y1796364D01*
X-1327633Y1796339D01*
X-1327506Y1796263D01*
X-1327429Y1796212D01*
X-1327328Y1796161D01*
X-1327175Y1796085D01*
X-1327023Y1796009D01*
X-1326820Y1795932D01*
X-1326591Y1795831D01*
X-1326312Y1795729D01*
X-1326007Y1795628D01*
X-1325677Y1795526D01*
X-1325296Y1795424D01*
X-1324864Y1795323D01*
X-1324407Y1795196D01*
X-1324381D01*
X-1324280Y1795170D01*
X-1324153Y1795145D01*
X-1323975Y1795094D01*
X-1323772Y1795043D01*
X-1323518Y1794993D01*
X-1322984Y1794840D01*
X-1322375Y1794688D01*
X-1321791Y1794510D01*
X-1321511Y1794408D01*
X-1321257Y1794332D01*
X-1321029Y1794231D01*
X-1320825Y1794154D01*
X-1320800D01*
X-1320775Y1794129D01*
X-1320698Y1794078D01*
X-1320597Y1794053D01*
X-1320343Y1793900D01*
X-1320038Y1793723D01*
X-1319708Y1793469D01*
X-1319352Y1793189D01*
X-1319022Y1792859D01*
X-1318743Y1792503D01*
X-1318717Y1792453D01*
X-1318641Y1792326D01*
X-1318514Y1792122D01*
X-1318387Y1791843D01*
X-1318285Y1791513D01*
X-1318158Y1791106D01*
X-1318082Y1790675D01*
X-1318057Y1790192D01*
Y1790167D01*
Y1790141D01*
Y1790065D01*
Y1789963D01*
X-1318108Y1789735D01*
X-1318158Y1789405D01*
X-1318235Y1789024D01*
X-1318387Y1788617D01*
X-1318565Y1788185D01*
X-1318819Y1787754D01*
X-1318844Y1787703D01*
X-1318946Y1787576D01*
X-1319124Y1787347D01*
X-1319352Y1787093D01*
X-1319657Y1786814D01*
X-1320038Y1786534D01*
X-1320470Y1786230D01*
X-1320952Y1785976D01*
X-1320978D01*
X-1321003Y1785950D01*
X-1321079Y1785925D01*
X-1321181Y1785874D01*
X-1321333Y1785823D01*
X-1321486Y1785772D01*
X-1321841Y1785671D01*
X-1322299Y1785544D01*
X-1322832Y1785442D01*
X-1323416Y1785366D01*
X-1324051Y1785341D01*
X-1324407D01*
X-1324610Y1785366D01*
X-1324839D01*
X-1325067Y1785391D01*
X-1325347Y1785417D01*
X-1325931Y1785493D01*
X-1326540Y1785620D01*
X-1327175Y1785772D01*
X-1327760Y1785976D01*
X-1327785D01*
X-1327836Y1786001D01*
X-1327912Y1786052D01*
X-1328014Y1786103D01*
X-1328268Y1786255D01*
X-1328598Y1786458D01*
X-1328979Y1786738D01*
X-1329360Y1787068D01*
X-1329741Y1787449D01*
X-1330096Y1787906D01*
Y1787931D01*
X-1330122Y1787957D01*
X-1330173Y1788033D01*
X-1330223Y1788135D01*
X-1330350Y1788414D01*
X-1330528Y1788770D01*
X-1330681Y1789201D01*
X-1330808Y1789684D01*
X-1330909Y1790243D01*
X-1330960Y1790852D01*
X-1328928Y1791030D01*
Y1791005D01*
Y1790979D01*
X-1328903Y1790827D01*
X-1328852Y1790598D01*
X-1328801Y1790319D01*
X-1328725Y1789989D01*
X-1328598Y1789659D01*
X-1328471Y1789303D01*
X-1328293Y1788998D01*
X-1328268Y1788973D01*
X-1328191Y1788871D01*
X-1328064Y1788744D01*
X-1327887Y1788566D01*
X-1327658Y1788363D01*
X-1327379Y1788160D01*
X-1327048Y1787957D01*
X-1326667Y1787754D01*
X-1326642D01*
X-1326617Y1787728D01*
X-1326464Y1787677D01*
X-1326236Y1787601D01*
X-1325931Y1787525D01*
X-1325575Y1787423D01*
X-1325143Y1787347D01*
X-1324686Y1787296D01*
X-1324178Y1787271D01*
X-1323975D01*
X-1323746Y1787296D01*
X-1323442Y1787322D01*
X-1323111Y1787347D01*
X-1322730Y1787423D01*
X-1322375Y1787500D01*
X-1322019Y1787627D01*
X-1321968Y1787652D01*
X-1321867Y1787703D01*
X-1321689Y1787779D01*
X-1321486Y1787881D01*
X-1321257Y1788033D01*
X-1321029Y1788185D01*
X-1320800Y1788389D01*
X-1320622Y1788617D01*
X-1320597Y1788643D01*
X-1320546Y1788744D01*
X-1320470Y1788871D01*
X-1320368Y1789049D01*
X-1320292Y1789252D01*
X-1320216Y1789481D01*
X-1320165Y1789735D01*
X-1320140Y1790014D01*
Y1790040D01*
Y1790141D01*
X-1320165Y1790294D01*
X-1320190Y1790471D01*
X-1320241Y1790675D01*
X-1320343Y1790903D01*
X-1320444Y1791106D01*
X-1320597Y1791335D01*
X-1320622Y1791360D01*
X-1320673Y1791437D01*
X-1320775Y1791538D01*
X-1320927Y1791691D01*
X-1321130Y1791843D01*
X-1321384Y1791995D01*
X-1321689Y1792173D01*
X-1322045Y1792326D01*
X-1322070Y1792351D01*
X-1322172Y1792376D01*
X-1322375Y1792427D01*
X-1322502Y1792478D01*
X-1322629Y1792529D01*
X-1322807Y1792580D01*
X-1323035Y1792630D01*
X-1323264Y1792707D01*
X-1323518Y1792757D01*
X-1323823Y1792834D01*
X-1324153Y1792935D01*
X-1324508Y1793011D01*
X-1324915Y1793113D01*
X-1324940D01*
X-1325016Y1793138D01*
X-1325118Y1793164D01*
X-1325270Y1793215D01*
X-1325448Y1793240D01*
X-1325677Y1793316D01*
X-1326134Y1793443D01*
X-1326667Y1793596D01*
X-1327175Y1793773D01*
X-1327658Y1793951D01*
X-1327887Y1794027D01*
X-1328064Y1794129D01*
X-1328115Y1794154D01*
X-1328242Y1794231D01*
X-1328445Y1794358D01*
X-1328699Y1794535D01*
X-1328979Y1794764D01*
X-1329284Y1795018D01*
X-1329538Y1795297D01*
X-1329792Y1795628D01*
X-1329817Y1795678D01*
X-1329868Y1795780D01*
X-1329969Y1795983D01*
X-1330071Y1796237D01*
X-1330173Y1796517D01*
X-1330274Y1796872D01*
X-1330325Y1797253D01*
X-1330350Y1797660D01*
Y1797685D01*
Y1797710D01*
Y1797863D01*
X-1330325Y1798117D01*
X-1330274Y1798422D01*
X-1330173Y1798777D01*
X-1330071Y1799158D01*
X-1329893Y1799565D01*
X-1329665Y1799971D01*
Y1799996D01*
X-1329639Y1800022D01*
X-1329538Y1800149D01*
X-1329385Y1800352D01*
X-1329157Y1800581D01*
X-1328877Y1800860D01*
X-1328522Y1801139D01*
X-1328115Y1801393D01*
X-1327633Y1801622D01*
X-1327607D01*
X-1327582Y1801647D01*
X-1327506Y1801673D01*
X-1327404Y1801698D01*
X-1327125Y1801800D01*
X-1326744Y1801901D01*
X-1326312Y1802003D01*
X-1325804Y1802105D01*
X-1325245Y1802155D01*
X-1324661Y1802181D01*
X-1324356D01*
X-1324204Y1802155D01*
D02*
G37*
G36*
X479453Y2018073D02*
X480581Y2017932D01*
X481990Y2017791D01*
X483541Y2017509D01*
X485092Y2017227D01*
X488757Y2016241D01*
X492422Y2014831D01*
X494255Y2013985D01*
X496087Y2012998D01*
X497779Y2011730D01*
X499330Y2010320D01*
X499471Y2010179D01*
X499753Y2010038D01*
X500035Y2009474D01*
X500598Y2008910D01*
X501303Y2008205D01*
X502008Y2007218D01*
X502713Y2006232D01*
X503559Y2004963D01*
X504969Y2002285D01*
X506378Y1998901D01*
X506942Y1997210D01*
X507224Y1995236D01*
X507506Y1993262D01*
X507647Y1991148D01*
Y1990866D01*
Y1990161D01*
X507506Y1989033D01*
X507365Y1987483D01*
X507083Y1985791D01*
X506519Y1983817D01*
X505955Y1981703D01*
X505109Y1979588D01*
X504969Y1979306D01*
X504687Y1978602D01*
X504123Y1977474D01*
X503277Y1975923D01*
X502149Y1974232D01*
X500739Y1972117D01*
X499048Y1970002D01*
X497074Y1967606D01*
X496792Y1967324D01*
X496087Y1966478D01*
X495383Y1965773D01*
X494678Y1965068D01*
X493832Y1964223D01*
X492704Y1963095D01*
X491576Y1961967D01*
X490167Y1960698D01*
X488757Y1959289D01*
X487065Y1957738D01*
X485233Y1956187D01*
X483259Y1954355D01*
X481004Y1952522D01*
X478748Y1950549D01*
X478607Y1950408D01*
X478325Y1950126D01*
X477761Y1949703D01*
X477056Y1949139D01*
X476211Y1948293D01*
X475224Y1947447D01*
X472968Y1945615D01*
X470572Y1943500D01*
X468316Y1941385D01*
X466343Y1939553D01*
X465497Y1938848D01*
X464792Y1938143D01*
X464651Y1938002D01*
X464228Y1937579D01*
X463664Y1937015D01*
X462959Y1936170D01*
X462255Y1935183D01*
X461409Y1934196D01*
X459717Y1931800D01*
X507788D01*
Y1920240D01*
X443083D01*
Y1920381D01*
Y1920945D01*
Y1921791D01*
X443224Y1922918D01*
X443365Y1924187D01*
X443647Y1925597D01*
X443928Y1927007D01*
X444492Y1928557D01*
Y1928698D01*
X444633Y1928839D01*
X444915Y1929685D01*
X445479Y1930954D01*
X446325Y1932645D01*
X447453Y1934619D01*
X448862Y1936874D01*
X450413Y1939130D01*
X452387Y1941526D01*
Y1941667D01*
X452669Y1941808D01*
X453373Y1942654D01*
X454642Y1943923D01*
X456475Y1945756D01*
X458589Y1947870D01*
X461268Y1950408D01*
X464510Y1953227D01*
X468034Y1956187D01*
X468175Y1956328D01*
X468739Y1956751D01*
X469585Y1957456D01*
X470572Y1958302D01*
X471841Y1959430D01*
X473391Y1960698D01*
X474942Y1962108D01*
X476775Y1963659D01*
X480299Y1967042D01*
X483823Y1970425D01*
X485515Y1972117D01*
X487065Y1973809D01*
X488475Y1975359D01*
X489603Y1976910D01*
Y1977051D01*
X489885Y1977192D01*
X490167Y1977615D01*
X490449Y1978179D01*
X491435Y1979729D01*
X492563Y1981562D01*
X493550Y1983817D01*
X494537Y1986214D01*
X495101Y1988892D01*
X495383Y1991430D01*
Y1991571D01*
Y1991712D01*
X495242Y1992558D01*
X495101Y1993967D01*
X494678Y1995518D01*
X494114Y1997492D01*
X493127Y1999465D01*
X491858Y2001439D01*
X490167Y2003412D01*
X489885Y2003694D01*
X489180Y2004258D01*
X488193Y2004963D01*
X486642Y2005950D01*
X484669Y2006796D01*
X482413Y2007641D01*
X479735Y2008205D01*
X476775Y2008346D01*
X475929D01*
X475365Y2008205D01*
X473673Y2008064D01*
X471700Y2007641D01*
X469585Y2007078D01*
X467189Y2006091D01*
X464933Y2004822D01*
X462818Y2003130D01*
X462537Y2002848D01*
X461973Y2002144D01*
X461127Y2001016D01*
X460281Y1999324D01*
X459294Y1997351D01*
X458448Y1994813D01*
X457885Y1991994D01*
X457603Y1988751D01*
X445338Y1990020D01*
Y1990161D01*
X445479Y1990584D01*
Y1991289D01*
X445620Y1992276D01*
X445902Y1993403D01*
X446184Y1994672D01*
X446607Y1996223D01*
X447030Y1997773D01*
X448158Y2001157D01*
X449849Y2004540D01*
X450836Y2006232D01*
X452105Y2007923D01*
X453373Y2009474D01*
X454783Y2010884D01*
X454924Y2011025D01*
X455206Y2011166D01*
X455629Y2011589D01*
X456334Y2012011D01*
X457180Y2012575D01*
X458166Y2013139D01*
X459294Y2013844D01*
X460704Y2014549D01*
X462255Y2015254D01*
X463946Y2015959D01*
X465779Y2016523D01*
X467752Y2017086D01*
X469867Y2017509D01*
X472122Y2017932D01*
X474519Y2018073D01*
X477056Y2018214D01*
X478466D01*
X479453Y2018073D01*
D02*
G37*
%LPC*%
G36*
X-630250Y1449578D02*
X-635381D01*
Y1444193D01*
X-630504D01*
X-630250Y1444219D01*
X-629920Y1444244D01*
X-629564Y1444269D01*
X-629183Y1444320D01*
X-628802Y1444396D01*
X-628472Y1444498D01*
X-628447Y1444523D01*
X-628345Y1444549D01*
X-628193Y1444625D01*
X-627990Y1444727D01*
X-627786Y1444879D01*
X-627583Y1445031D01*
X-627380Y1445235D01*
X-627202Y1445463D01*
X-627177Y1445489D01*
X-627126Y1445590D01*
X-627050Y1445717D01*
X-626974Y1445895D01*
X-626897Y1446098D01*
X-626821Y1446352D01*
X-626770Y1446632D01*
X-626745Y1446911D01*
Y1446936D01*
Y1446962D01*
Y1447114D01*
X-626796Y1447317D01*
X-626847Y1447597D01*
X-626948Y1447902D01*
X-627101Y1448206D01*
X-627329Y1448511D01*
X-627609Y1448816D01*
X-627659Y1448841D01*
X-627761Y1448943D01*
X-627964Y1449070D01*
X-628244Y1449197D01*
X-628625Y1449349D01*
X-629082Y1449451D01*
X-629615Y1449553D01*
X-630250Y1449578D01*
D02*
G37*
G36*
X-1364996Y619125D02*
Y619100D01*
X-1365021Y619049D01*
Y618973D01*
X-1365047Y618846D01*
X-1365098Y618719D01*
X-1365123Y618541D01*
X-1365225Y618134D01*
X-1365352Y617652D01*
X-1365529Y617118D01*
X-1365707Y616560D01*
X-1365910Y615975D01*
X-1367663Y611200D01*
X-1362126D01*
X-1363802Y615696D01*
Y615721D01*
X-1363828Y615798D01*
X-1363878Y615899D01*
X-1363929Y616052D01*
X-1364005Y616204D01*
X-1364082Y616433D01*
X-1364234Y616890D01*
X-1364437Y617449D01*
X-1364640Y618007D01*
X-1364818Y618592D01*
X-1364996Y619125D01*
D02*
G37*
G36*
X-764057Y1683131D02*
X-767461D01*
Y1670710D01*
X-763753D01*
X-763448Y1670736D01*
X-763092D01*
X-762686Y1670787D01*
X-762279Y1670837D01*
X-761873Y1670888D01*
X-761492Y1670990D01*
X-761441Y1671015D01*
X-761340Y1671041D01*
X-761162Y1671117D01*
X-760959Y1671218D01*
X-760730Y1671320D01*
X-760476Y1671472D01*
X-760247Y1671650D01*
X-760019Y1671828D01*
X-759993Y1671853D01*
X-759892Y1671980D01*
X-759765Y1672133D01*
X-759587Y1672387D01*
X-759384Y1672666D01*
X-759181Y1673022D01*
X-759003Y1673428D01*
X-758825Y1673885D01*
Y1673911D01*
X-758800Y1673936D01*
X-758774Y1674012D01*
X-758749Y1674114D01*
X-758723Y1674241D01*
X-758698Y1674393D01*
X-758596Y1674774D01*
X-758520Y1675232D01*
X-758469Y1675765D01*
X-758419Y1676375D01*
X-758393Y1677035D01*
Y1677060D01*
Y1677137D01*
Y1677289D01*
Y1677467D01*
X-758419Y1677670D01*
X-758444Y1677924D01*
X-758469Y1678178D01*
X-758495Y1678483D01*
X-758596Y1679118D01*
X-758749Y1679753D01*
X-758952Y1680388D01*
X-759079Y1680667D01*
X-759231Y1680947D01*
Y1680972D01*
X-759257Y1680997D01*
X-759308Y1681074D01*
X-759384Y1681175D01*
X-759562Y1681404D01*
X-759790Y1681683D01*
X-760095Y1681988D01*
X-760451Y1682293D01*
X-760857Y1682572D01*
X-761289Y1682775D01*
X-761340Y1682801D01*
X-761441Y1682826D01*
X-761670Y1682877D01*
X-761949Y1682953D01*
X-762356Y1683029D01*
X-762813Y1683080D01*
X-763397Y1683106D01*
X-764057Y1683131D01*
D02*
G37*
G36*
X-477850Y1449578D02*
X-482981D01*
Y1444193D01*
X-478104D01*
X-477850Y1444219D01*
X-477520Y1444244D01*
X-477164Y1444269D01*
X-476783Y1444320D01*
X-476402Y1444396D01*
X-476072Y1444498D01*
X-476047Y1444523D01*
X-475945Y1444549D01*
X-475793Y1444625D01*
X-475590Y1444727D01*
X-475386Y1444879D01*
X-475183Y1445031D01*
X-474980Y1445235D01*
X-474802Y1445463D01*
X-474777Y1445489D01*
X-474726Y1445590D01*
X-474650Y1445717D01*
X-474574Y1445895D01*
X-474497Y1446098D01*
X-474421Y1446352D01*
X-474370Y1446632D01*
X-474345Y1446911D01*
Y1446936D01*
Y1446962D01*
Y1447114D01*
X-474396Y1447317D01*
X-474447Y1447597D01*
X-474548Y1447902D01*
X-474701Y1448206D01*
X-474929Y1448511D01*
X-475209Y1448816D01*
X-475259Y1448841D01*
X-475361Y1448943D01*
X-475564Y1449070D01*
X-475844Y1449197D01*
X-476225Y1449349D01*
X-476682Y1449451D01*
X-477215Y1449553D01*
X-477850Y1449578D01*
D02*
G37*
G36*
X-892556Y1635125D02*
Y1635100D01*
X-892581Y1635049D01*
Y1634973D01*
X-892607Y1634846D01*
X-892658Y1634719D01*
X-892683Y1634541D01*
X-892785Y1634134D01*
X-892912Y1633652D01*
X-893089Y1633118D01*
X-893267Y1632560D01*
X-893470Y1631975D01*
X-895223Y1627200D01*
X-889686D01*
X-891362Y1631696D01*
Y1631721D01*
X-891388Y1631798D01*
X-891438Y1631899D01*
X-891489Y1632052D01*
X-891565Y1632204D01*
X-891642Y1632433D01*
X-891794Y1632890D01*
X-891997Y1633449D01*
X-892200Y1634007D01*
X-892378Y1634592D01*
X-892556Y1635125D01*
D02*
G37*
G36*
X-932510Y1634998D02*
X-937641D01*
Y1629613D01*
X-932764D01*
X-932510Y1629639D01*
X-932180Y1629664D01*
X-931824Y1629689D01*
X-931443Y1629740D01*
X-931062Y1629816D01*
X-930732Y1629918D01*
X-930707Y1629943D01*
X-930605Y1629969D01*
X-930453Y1630045D01*
X-930250Y1630147D01*
X-930046Y1630299D01*
X-929843Y1630451D01*
X-929640Y1630655D01*
X-929462Y1630883D01*
X-929437Y1630909D01*
X-929386Y1631010D01*
X-929310Y1631137D01*
X-929234Y1631315D01*
X-929157Y1631518D01*
X-929081Y1631772D01*
X-929030Y1632052D01*
X-929005Y1632331D01*
Y1632356D01*
Y1632382D01*
Y1632534D01*
X-929056Y1632737D01*
X-929107Y1633017D01*
X-929208Y1633322D01*
X-929361Y1633626D01*
X-929589Y1633931D01*
X-929869Y1634236D01*
X-929919Y1634261D01*
X-930021Y1634363D01*
X-930224Y1634490D01*
X-930504Y1634617D01*
X-930885Y1634769D01*
X-931342Y1634871D01*
X-931875Y1634973D01*
X-932510Y1634998D01*
D02*
G37*
G36*
X-818210Y-450342D02*
X-823341D01*
Y-455727D01*
X-818464D01*
X-818210Y-455701D01*
X-817880Y-455676D01*
X-817524Y-455651D01*
X-817143Y-455600D01*
X-816762Y-455524D01*
X-816432Y-455422D01*
X-816407Y-455397D01*
X-816305Y-455371D01*
X-816153Y-455295D01*
X-815950Y-455193D01*
X-815746Y-455041D01*
X-815543Y-454889D01*
X-815340Y-454685D01*
X-815162Y-454457D01*
X-815137Y-454431D01*
X-815086Y-454330D01*
X-815010Y-454203D01*
X-814934Y-454025D01*
X-814857Y-453822D01*
X-814781Y-453568D01*
X-814730Y-453288D01*
X-814705Y-453009D01*
Y-452984D01*
Y-452958D01*
Y-452806D01*
X-814756Y-452603D01*
X-814807Y-452323D01*
X-814908Y-452018D01*
X-815061Y-451714D01*
X-815289Y-451409D01*
X-815569Y-451104D01*
X-815619Y-451079D01*
X-815721Y-450977D01*
X-815924Y-450850D01*
X-816204Y-450723D01*
X-816585Y-450571D01*
X-817042Y-450469D01*
X-817575Y-450367D01*
X-818210Y-450342D01*
D02*
G37*
G36*
X-1404950Y618998D02*
X-1410081D01*
Y613613D01*
X-1405204D01*
X-1404950Y613639D01*
X-1404620Y613664D01*
X-1404264Y613689D01*
X-1403883Y613740D01*
X-1403502Y613816D01*
X-1403172Y613918D01*
X-1403147Y613943D01*
X-1403045Y613969D01*
X-1402893Y614045D01*
X-1402690Y614147D01*
X-1402486Y614299D01*
X-1402283Y614451D01*
X-1402080Y614655D01*
X-1401902Y614883D01*
X-1401877Y614909D01*
X-1401826Y615010D01*
X-1401750Y615137D01*
X-1401674Y615315D01*
X-1401597Y615518D01*
X-1401521Y615772D01*
X-1401470Y616052D01*
X-1401445Y616331D01*
Y616356D01*
Y616382D01*
Y616534D01*
X-1401496Y616737D01*
X-1401547Y617017D01*
X-1401648Y617322D01*
X-1401801Y617626D01*
X-1402029Y617931D01*
X-1402309Y618236D01*
X-1402359Y618261D01*
X-1402461Y618363D01*
X-1402664Y618490D01*
X-1402944Y618617D01*
X-1403325Y618769D01*
X-1403782Y618871D01*
X-1404315Y618973D01*
X-1404950Y618998D01*
D02*
G37*
G36*
X381337Y-257741D02*
X349054D01*
Y-285372D01*
Y-285513D01*
Y-285794D01*
Y-286217D01*
Y-286781D01*
X349195Y-288473D01*
X349336Y-290446D01*
X349477Y-292702D01*
X349759Y-294957D01*
X350182Y-297213D01*
X350746Y-299187D01*
X350887Y-299469D01*
X351169Y-300032D01*
X351592Y-300878D01*
X352156Y-302006D01*
X353002Y-303275D01*
X353988Y-304543D01*
X355257Y-305812D01*
X356667Y-306799D01*
X356808Y-306940D01*
X357372Y-307222D01*
X358217Y-307645D01*
X359345Y-308209D01*
X360614Y-308632D01*
X362024Y-309054D01*
X363715Y-309336D01*
X365407Y-309477D01*
X365689D01*
X366535Y-309336D01*
X367803Y-309195D01*
X369495Y-308914D01*
X371187Y-308209D01*
X373160Y-307363D01*
X374993Y-306094D01*
X376826Y-304402D01*
X376966Y-304121D01*
X377530Y-303416D01*
X378235Y-302288D01*
X379081Y-300455D01*
X379927Y-298341D01*
X380632Y-295521D01*
X381196Y-292279D01*
X381337Y-288473D01*
Y-257741D01*
D02*
G37*
G36*
X288439Y2006232D02*
X265883D01*
Y1931800D01*
X289002D01*
X289989Y1931941D01*
X292104Y1932081D01*
X294500Y1932222D01*
X297038Y1932504D01*
X299575Y1932927D01*
X301690Y1933491D01*
X301972Y1933632D01*
X302677Y1933773D01*
X303663Y1934196D01*
X304932Y1934760D01*
X306342Y1935606D01*
X307751Y1936452D01*
X309161Y1937438D01*
X310571Y1938566D01*
X310712Y1938848D01*
X311276Y1939412D01*
X312122Y1940399D01*
X313108Y1941808D01*
X314236Y1943641D01*
X315505Y1945756D01*
X316633Y1948152D01*
X317619Y1950830D01*
Y1950971D01*
X317760Y1951253D01*
X317901Y1951676D01*
X318042Y1952240D01*
X318183Y1952945D01*
X318465Y1953932D01*
X318747Y1954919D01*
X319029Y1956046D01*
X319452Y1958866D01*
X319875Y1962108D01*
X320157Y1965773D01*
X320298Y1969720D01*
Y1969861D01*
Y1970425D01*
Y1971130D01*
X320157Y1972258D01*
Y1973527D01*
X320016Y1974936D01*
X319875Y1976628D01*
X319734Y1978320D01*
X319029Y1982126D01*
X318183Y1986073D01*
X316915Y1989738D01*
X316069Y1991571D01*
X315223Y1993121D01*
Y1993262D01*
X314941Y1993544D01*
X314659Y1993967D01*
X314377Y1994531D01*
X313249Y1995941D01*
X311840Y1997633D01*
X310007Y1999465D01*
X307892Y2001298D01*
X305496Y2002848D01*
X302958Y2004117D01*
X302677Y2004258D01*
X301972Y2004399D01*
X300703Y2004822D01*
X298870Y2005245D01*
X296615Y2005527D01*
X293795Y2005950D01*
X292104Y2006091D01*
X290271D01*
X288439Y2006232D01*
D02*
G37*
G36*
X395153Y2006937D02*
X364421D01*
Y1974654D01*
X393461D01*
X395153Y1974795D01*
X397126Y1974936D01*
X399382Y1975077D01*
X401638Y1975359D01*
X403893Y1975782D01*
X405867Y1976346D01*
X406149Y1976487D01*
X406712Y1976769D01*
X407558Y1977192D01*
X408686Y1977756D01*
X409955Y1978602D01*
X411223Y1979588D01*
X412492Y1980857D01*
X413479Y1982267D01*
X413620Y1982408D01*
X413902Y1982972D01*
X414325Y1983817D01*
X414889Y1984945D01*
X415312Y1986214D01*
X415734Y1987624D01*
X416016Y1989315D01*
X416157Y1991007D01*
Y1991148D01*
Y1991289D01*
X416016Y1992135D01*
X415875Y1993403D01*
X415594Y1995095D01*
X414889Y1996787D01*
X414043Y1998760D01*
X412774Y2000593D01*
X411082Y2002426D01*
X410801Y2002566D01*
X410096Y2003130D01*
X408968Y2003835D01*
X407135Y2004681D01*
X405021Y2005527D01*
X402201Y2006232D01*
X398959Y2006796D01*
X395153Y2006937D01*
D02*
G37*
G36*
X380632Y-159203D02*
X306200D01*
Y-179926D01*
Y-180067D01*
Y-180349D01*
Y-180913D01*
Y-181477D01*
Y-182322D01*
X306341Y-183309D01*
X306481Y-185424D01*
X306622Y-187820D01*
X306904Y-190358D01*
X307327Y-192895D01*
X307891Y-195010D01*
X308032Y-195292D01*
X308173Y-195997D01*
X308596Y-196983D01*
X309160Y-198252D01*
X310006Y-199662D01*
X310852Y-201071D01*
X311838Y-202481D01*
X312966Y-203891D01*
X313248Y-204032D01*
X313812Y-204596D01*
X314799Y-205442D01*
X316208Y-206428D01*
X318041Y-207556D01*
X320156Y-208825D01*
X322552Y-209953D01*
X325230Y-210939D01*
X325371D01*
X325653Y-211080D01*
X326076Y-211221D01*
X326640Y-211362D01*
X327345Y-211503D01*
X328332Y-211785D01*
X329319Y-212067D01*
X330446Y-212349D01*
X333266Y-212772D01*
X336508Y-213195D01*
X340173Y-213477D01*
X344120Y-213618D01*
X345530D01*
X346658Y-213477D01*
X347927D01*
X349336Y-213336D01*
X351028Y-213195D01*
X352720Y-213054D01*
X356526Y-212349D01*
X360473Y-211503D01*
X364138Y-210235D01*
X365971Y-209389D01*
X367521Y-208543D01*
X367662D01*
X367944Y-208261D01*
X368367Y-207979D01*
X368931Y-207697D01*
X370341Y-206569D01*
X372033Y-205160D01*
X373865Y-203327D01*
X375698Y-201212D01*
X377248Y-198816D01*
X378517Y-196279D01*
X378658Y-195997D01*
X378799Y-195292D01*
X379222Y-194023D01*
X379645Y-192190D01*
X379927Y-189935D01*
X380350Y-187115D01*
X380491Y-185424D01*
Y-183591D01*
X380632Y-181759D01*
Y-179644D01*
Y-159203D01*
D02*
G37*
G36*
X-1427810Y-71882D02*
X-1432941D01*
Y-77267D01*
X-1428064D01*
X-1427810Y-77241D01*
X-1427480Y-77216D01*
X-1427124Y-77191D01*
X-1426743Y-77140D01*
X-1426362Y-77064D01*
X-1426032Y-76962D01*
X-1426007Y-76937D01*
X-1425905Y-76911D01*
X-1425753Y-76835D01*
X-1425550Y-76733D01*
X-1425346Y-76581D01*
X-1425143Y-76429D01*
X-1424940Y-76225D01*
X-1424762Y-75997D01*
X-1424737Y-75971D01*
X-1424686Y-75870D01*
X-1424610Y-75743D01*
X-1424534Y-75565D01*
X-1424457Y-75362D01*
X-1424381Y-75108D01*
X-1424330Y-74828D01*
X-1424305Y-74549D01*
Y-74524D01*
Y-74498D01*
Y-74346D01*
X-1424356Y-74143D01*
X-1424407Y-73863D01*
X-1424508Y-73558D01*
X-1424661Y-73254D01*
X-1424889Y-72949D01*
X-1425169Y-72644D01*
X-1425219Y-72619D01*
X-1425321Y-72517D01*
X-1425524Y-72390D01*
X-1425804Y-72263D01*
X-1426185Y-72111D01*
X-1426642Y-72009D01*
X-1427175Y-71907D01*
X-1427810Y-71882D01*
D02*
G37*
G36*
X-1362329Y-299390D02*
X-1367460Y-306705D01*
X-1362329D01*
Y-299390D01*
D02*
G37*
G36*
X-1377010Y-297942D02*
X-1382141D01*
Y-303327D01*
X-1377264D01*
X-1377010Y-303301D01*
X-1376680Y-303276D01*
X-1376324Y-303251D01*
X-1375943Y-303200D01*
X-1375562Y-303124D01*
X-1375232Y-303022D01*
X-1375207Y-302997D01*
X-1375105Y-302971D01*
X-1374953Y-302895D01*
X-1374750Y-302793D01*
X-1374546Y-302641D01*
X-1374343Y-302489D01*
X-1374140Y-302285D01*
X-1373962Y-302057D01*
X-1373937Y-302031D01*
X-1373886Y-301930D01*
X-1373810Y-301803D01*
X-1373734Y-301625D01*
X-1373657Y-301422D01*
X-1373581Y-301168D01*
X-1373530Y-300888D01*
X-1373505Y-300609D01*
Y-300584D01*
Y-300558D01*
Y-300406D01*
X-1373556Y-300203D01*
X-1373607Y-299923D01*
X-1373708Y-299618D01*
X-1373861Y-299314D01*
X-1374089Y-299009D01*
X-1374369Y-298704D01*
X-1374419Y-298679D01*
X-1374521Y-298577D01*
X-1374724Y-298450D01*
X-1375004Y-298323D01*
X-1375385Y-298171D01*
X-1375842Y-298069D01*
X-1376375Y-297967D01*
X-1377010Y-297942D01*
D02*
G37*
%LPD*%
D25*
X-63500Y190500D02*
G03*
X-63500Y190500I-12700J0D01*
G01*
X-139700Y127000D02*
X825500D01*
X-139700Y-635000D02*
Y127000D01*
Y-635000D02*
X812800D01*
X825500Y-622300D01*
Y127000D01*
X457200Y2260600D02*
X711200D01*
X-50800D02*
X203200D01*
X457200Y1905000D02*
Y2260600D01*
X203200Y1905000D02*
X457200D01*
X203200D02*
Y2260600D01*
X-50800Y2336800D02*
Y2692400D01*
Y2260600D02*
Y2336800D01*
X-63500Y2692400D02*
X-50800D01*
X-63500D02*
X-38100D01*
X711200D01*
Y2260600D02*
Y2692400D01*
X863600Y1422400D02*
X901700D01*
Y1295400D02*
Y1422400D01*
X850900Y1244600D02*
X901700Y1295400D01*
X-215900Y1244600D02*
X850900D01*
X-241300Y1270000D02*
X-215900Y1244600D01*
X-241300Y1270000D02*
Y1422400D01*
X-203200D01*
X863600D02*
Y2692400D01*
X-203200D02*
X863600D01*
X-203200Y1422400D02*
Y2692400D01*
D26*
X-423200Y-600399D02*
G03*
X-423200Y-600399I-12500J0D01*
G01*
D27*
X-990800Y698500D02*
G03*
X-990800Y698500I-12500J0D01*
G01*
D28*
X-670702Y-535402D02*
X-590702D01*
X-670702D02*
Y-445399D01*
X-450698Y-535402D02*
X-370698D01*
Y-445399D01*
X-1457401Y-97399D02*
Y-57399D01*
X-1387399Y-97399D02*
Y-57399D01*
X-1391600Y-339801D02*
X-1351600D01*
X-1391600Y-269799D02*
X-1351600D01*
X-508000Y1422400D02*
Y1462400D01*
X-437998Y1422400D02*
Y1462400D01*
X-590398Y1422400D02*
Y1462400D01*
X-660400Y1422400D02*
Y1462400D01*
X-872800Y-457200D02*
X-752800D01*
X-971098Y1625600D02*
X-851098D01*
X-1066800Y762000D02*
X-762000D01*
X-1066800Y-101600D02*
X-762000D01*
X-1066800D02*
Y762000D01*
X-762000Y-101600D02*
Y762000D01*
X-1419301Y589600D02*
Y629600D01*
X-1349299Y589600D02*
Y629600D01*
X-1040298Y854400D02*
Y974400D01*
%TF.MD5,70919afe6e21f3bea989186de5109257*%
M02*
