G04 Layer_Color=16711935*
%FSLAX45Y45*%
%MOMM*%
%TF.FileFunction,Soldermask,Bot*%
%TF.Part,Single*%
G01*
G75*
%TA.AperFunction,SMDPad,CuDef*%
%ADD37R,1.40320X1.60320*%
%TA.AperFunction,ComponentPad*%
%ADD38C,2.20320*%
%TA.AperFunction,ViaPad*%
%ADD39C,1.47320*%
%TA.AperFunction,SMDPad,CuDef*%
%ADD40O,0.80320X2.40320*%
%ADD41O,2.70320X0.90320*%
D37*
X-953597Y457200D02*
D03*
X-773598D02*
D03*
X-660400Y1066800D02*
D03*
X-840400D02*
D03*
X-632800Y2082800D02*
D03*
X-812800D02*
D03*
D38*
X711200Y1371600D02*
D03*
X457200D02*
D03*
X203200D02*
D03*
X-50800D02*
D03*
X711200Y304800D02*
D03*
X457200D02*
D03*
X203200D02*
D03*
X-50800D02*
D03*
X-355600Y965200D02*
D03*
Y711200D02*
D03*
X-368300Y2006595D02*
D03*
Y1752595D02*
D03*
D39*
X-1290320Y871220D02*
D03*
X-307340Y403860D02*
D03*
X-485140Y391160D02*
D03*
X-901700Y683260D02*
D03*
X-1391920Y279400D02*
D03*
X-820420Y-223520D02*
D03*
X817880Y-254000D02*
D03*
X-1170940Y-274320D02*
D03*
X-256540Y-33020D02*
D03*
X-236220Y-398780D02*
D03*
X-1473200Y408940D02*
D03*
D40*
X-673100Y1334800D02*
D03*
X-800100D02*
D03*
X-927100D02*
D03*
X-1054100D02*
D03*
X-673100Y1814800D02*
D03*
X-800100D02*
D03*
X-927100D02*
D03*
X-1054100D02*
D03*
D41*
X-958799Y-101600D02*
D03*
Y25400D02*
D03*
Y152400D02*
D03*
Y279400D02*
D03*
X-468798Y-101600D02*
D03*
Y25400D02*
D03*
Y152400D02*
D03*
Y279400D02*
D03*
%TF.MD5,84b519ecf73e3e3f3f35ab9a37a4a540*%
M02*
