G04 Layer_Color=32768*
%FSLAX45Y45*%
%MOMM*%
%TF.FileFunction,Other,Mechanical_15*%
%TF.Part,Single*%
G01*
G75*
%TA.AperFunction,NonConductor*%
%ADD42C,0.10000*%
D42*
X-570702Y-465399D02*
X-470698D01*
X-520700Y-515402D02*
Y-415397D01*
X-695701Y-660400D02*
Y-270398D01*
X-345699Y-660400D02*
Y-270398D01*
X-695701Y-660400D02*
X-345699D01*
X-695701Y-270398D02*
X-345699D01*
X-1477401Y-197399D02*
X-1367399D01*
X-1477401Y42601D02*
X-1367399D01*
X-1477401Y-197399D02*
Y42601D01*
X-1367399Y-197399D02*
Y42601D01*
X-1422400Y-124902D02*
Y-29901D01*
X-1469898Y-77399D02*
X-1374902D01*
X-1251600Y-359801D02*
Y-249799D01*
X-1491600Y-359801D02*
Y-249799D01*
Y-359801D02*
X-1251600D01*
X-1491600Y-249799D02*
X-1251600D01*
X-1419098Y-304800D02*
X-1324102D01*
X-1371600Y-352298D02*
Y-257302D01*
X-528000Y1322400D02*
X-417998D01*
X-528000Y1562400D02*
X-417998D01*
X-528000Y1322400D02*
Y1562400D01*
X-417998Y1322400D02*
Y1562400D01*
X-472999Y1394902D02*
Y1489898D01*
X-520502Y1442400D02*
X-425501D01*
X-680400Y1562400D02*
X-570398D01*
X-680400Y1322400D02*
X-570398D01*
Y1562400D01*
X-680400Y1322400D02*
Y1562400D01*
X-625399Y1394902D02*
Y1489898D01*
X-672902Y1442400D02*
X-577901D01*
X-907801Y-632201D02*
X-717799D01*
X-907801Y-282199D02*
X-717799D01*
X-907801Y-632201D02*
Y-282199D01*
X-717799Y-632201D02*
Y-282199D01*
X-812800Y-507202D02*
Y-407198D01*
X-862802Y-457200D02*
X-762803D01*
X-1006099Y1800601D02*
X-816097D01*
X-1006099Y1450599D02*
X-816097D01*
Y1800601D01*
X-1006099Y1450599D02*
Y1800601D01*
X-911098Y1575598D02*
Y1675597D01*
X-961100Y1625600D02*
X-861101D01*
X-813699Y1556400D02*
X-703702D01*
X-813699Y1796400D02*
X-703702D01*
X-813699Y1556400D02*
Y1796400D01*
X-703702Y1556400D02*
Y1796400D01*
X-758698Y1628902D02*
Y1723898D01*
X-806201Y1676400D02*
X-711200D01*
X-1206500Y-101600D02*
Y762000D01*
X-622300Y-101600D02*
Y762000D01*
X-1206500D02*
X-622300D01*
X-1206500Y-101600D02*
X-622300D01*
X-964397Y330200D02*
X-864398D01*
X-914400Y280203D02*
Y380202D01*
X-1439301Y489600D02*
X-1329299D01*
X-1439301Y729600D02*
X-1329299D01*
X-1439301Y489600D02*
Y729600D01*
X-1329299Y489600D02*
Y729600D01*
X-1384300Y562102D02*
Y657098D01*
X-1431798Y609600D02*
X-1336802D01*
X-1215299Y819399D02*
Y1009401D01*
X-865302Y819399D02*
Y1009401D01*
X-1215299D02*
X-865302D01*
X-1215299Y819399D02*
X-865302D01*
X-1090300Y914400D02*
X-990300D01*
X-1040298Y864403D02*
Y964402D01*
X-1138601Y1199799D02*
X-588599D01*
X-1138601Y1949801D02*
X-588599D01*
Y1199799D02*
Y1949801D01*
X-1138601Y1199799D02*
Y1949801D01*
X-863600Y1524803D02*
Y1624802D01*
X-913602Y1574800D02*
X-813603D01*
X-713796Y38903D02*
Y138902D01*
X-763798Y88900D02*
X-663799D01*
X-1133795Y-211099D02*
X-293797D01*
X-1133795Y388899D02*
X-293797D01*
X-1133795Y-211099D02*
Y388899D01*
X-293797Y-211099D02*
Y388899D01*
X-1038596Y362199D02*
Y552201D01*
X-688599Y362199D02*
Y552201D01*
X-1038596Y362199D02*
X-688599D01*
X-1038596Y552201D02*
X-688599D01*
X-913597Y457200D02*
X-813598D01*
X-863595Y407198D02*
Y507197D01*
X-575401Y971799D02*
Y1161801D01*
X-925398Y971799D02*
Y1161801D01*
X-575401D01*
X-925398Y971799D02*
X-575401D01*
X-800400Y1066800D02*
X-700400D01*
X-750402Y1016803D02*
Y1116802D01*
X-547797Y1987799D02*
Y2177801D01*
X-897799Y1987799D02*
Y2177801D01*
X-547797D01*
X-897799Y1987799D02*
X-547797D01*
X-772800Y2082800D02*
X-672800D01*
X-722798Y2032803D02*
Y2132802D01*
%TF.MD5,0f2c7cdd37dc9ccf386814ce5d7aad84*%
M02*
