G04 Layer_Color=128*
%FSLAX45Y45*%
%MOMM*%
%TF.FileFunction,Drillmap*%
%TF.Part,Single*%
G01*
G75*
%TA.AperFunction,NonConductor*%
%ADD48C,0.12700*%
D48*
X656700Y1371600D02*
X765700D01*
X711200Y1317100D02*
Y1426100D01*
X402700Y1371600D02*
X511700D01*
X457200Y1317100D02*
Y1426100D01*
X148700Y1371600D02*
X257700D01*
X203200Y1317100D02*
Y1426100D01*
X-105300Y1371600D02*
X3700D01*
X-50800Y1317100D02*
Y1426100D01*
X656700Y304800D02*
X765700D01*
X711200Y250300D02*
Y359300D01*
X402700Y304800D02*
X511700D01*
X457200Y250300D02*
Y359300D01*
X148700Y304800D02*
X257700D01*
X203200Y250300D02*
Y359300D01*
X-105300Y304800D02*
X3700D01*
X-50800Y250300D02*
Y359300D01*
X-410100Y965200D02*
X-301100D01*
X-355600Y910700D02*
Y1019700D01*
X-410100Y711200D02*
X-301100D01*
X-355600Y656700D02*
Y765700D01*
X-422800Y2006595D02*
X-313800D01*
X-368300Y1952095D02*
Y2061095D01*
X-422800Y1752595D02*
X-313800D01*
X-368300Y1698095D02*
Y1807095D01*
X-1325880Y871220D02*
X-1254760D01*
X-1290320Y835660D02*
Y906780D01*
X-342900Y403860D02*
X-271780D01*
X-307340Y368300D02*
Y439420D01*
X-520700Y391160D02*
X-449580D01*
X-485140Y355600D02*
Y426720D01*
X-937260Y683260D02*
X-866140D01*
X-901700Y647700D02*
Y718820D01*
X-1427480Y279400D02*
X-1356360D01*
X-1391920Y243840D02*
Y314960D01*
X-855980Y-223520D02*
X-784860D01*
X-820420Y-259080D02*
Y-187960D01*
X782320Y-254000D02*
X853440D01*
X817880Y-289560D02*
Y-218440D01*
X-1206500Y-274320D02*
X-1135380D01*
X-1170940Y-309880D02*
Y-238760D01*
X-292100Y-33020D02*
X-220980D01*
X-256540Y-68580D02*
Y2540D01*
X-271780Y-398780D02*
X-200660D01*
X-236220Y-434340D02*
Y-363220D01*
X-1508760Y408940D02*
X-1437640D01*
X-1473200Y373380D02*
Y444500D01*
%TF.MD5,3ae778e717b394575b03e49e527e7ef7*%
M02*
